<svg xmlns="http://www.w3.org/2000/svg" xmlns:xlink="http://www.w3.org/1999/xlink" id="Layer_1" x="0px" y="0px" viewBox="0 0 32 32" style="enable-background:new 0 0 32 32;" xml:space="preserve"> <style type="text/css"> .st0{fill:#4284FB;} </style> <title>mxp_com_icons_all_R2</title> <g> <g> <path class="st0" d="M13,25.3c-1.2,0-2.2-1-2.2-2.2s1-2.2,2.2-2.2s2.2,1,2.2,2.2S14.2,25.3,13,25.3z M13,22.3 c-0.4,0-0.8,0.3-0.8,0.8s0.3,0.8,0.8,0.8s0.8-0.3,0.8-0.8S13.4,22.3,13,22.3z"></path> </g> <g> <path class="st0" d="M22.5,25.3c-1.2,0-2.2-1-2.2-2.2s1-2.2,2.2-2.2s2.2,1,2.2,2.2S23.7,25.3,22.5,25.3z M22.5,22.3 c-0.4,0-0.8,0.3-0.8,0.8s0.3,0.8,0.8,0.8s0.8-0.3,0.8-0.8S22.9,22.3,22.5,22.3z"></path> </g> <g> <path class="st0" d="M22.6,19.2H11.5v-1.5h11.1c0.6,0,1.1-0.4,1.2-0.9l1.4-5c0.1-0.3,0-0.6-0.1-0.9s-0.4-0.5-0.8-0.6 c-0.1,0-0.2,0-0.3,0H9.6V8.7H24c0.2,0,0.5,0,0.7,0.1c0.7,0.2,1.3,0.6,1.7,1.3c0.4,0.6,0.5,1.4,0.3,2.1l-1.4,5 C24.9,18.4,23.9,19.2,22.6,19.2z"></path> </g> <g> <path class="st0" d="M13.6,22.2c-1.3,0-2.4-0.9-2.7-2.2L8.6,8.2c-0.1-0.6-0.6-1-1.2-1c0,0,0,0,0,0H6c-0.4,0-0.8-0.3-0.8-0.8 S5.6,5.7,6,5.7h1.3c1.3,0,2.5,0.9,2.7,2.2l2.3,11.8c0.1,0.6,0.6,1,1.2,1H24c0.4,0,0.8,0.3,0.8,0.8s-0.3,0.8-0.8,0.8L13.6,22.2 C13.6,22.2,13.6,22.2,13.6,22.2z"></path> </g> </g> </svg>