<svg xmlns="http://www.w3.org/2000/svg" xmlns:xlink="http://www.w3.org/1999/xlink" id="Layer_1" x="0px" y="0px" viewBox="0 0 32 32" style="enable-background:new 0 0 32 32;" xml:space="preserve"> <style type="text/css"> .st0{fill:#4284FB;} </style> <title>mxp_com_icons_all_R2</title> <g> <path class="st0" d="M24.3,19.5c0.1,0,0.2,0.1,0.2,0.2v4.7c0,0.1-0.1,0.2-0.2,0.2h-1.7c-0.1,0-0.2-0.1-0.2-0.2v-4.7 c0-0.1,0.1-0.2,0.2-0.2H24.3 M24.3,18h-1.7c-0.9,0-1.7,0.7-1.7,1.7l0,0v4.7c0,0.9,0.7,1.7,1.7,1.7l0,0h1.7c0.9,0,1.7-0.7,1.7-1.7 l0,0v-4.7C26,18.7,25.3,18,24.3,18L24.3,18z"></path> <path class="st0" d="M16.8,14.5c0.1,0,0.2,0.1,0.2,0.2v9.7c0,0.1-0.1,0.2-0.2,0.2h-1.7c-0.1,0-0.2-0.1-0.2-0.2v-9.7 c0-0.1,0.1-0.2,0.2-0.2H16.8 M16.8,13h-1.7c-0.9,0-1.7,0.7-1.7,1.7l0,0v9.7c0,0.9,0.7,1.7,1.7,1.7l0,0h1.7c0.9,0,1.7-0.7,1.7-1.7 l0,0v-9.7C18.5,13.7,17.8,13,16.8,13L16.8,13z"></path> <path class="st0" d="M9.3,7.5c0.1,0,0.2,0.1,0.2,0.2v16.7c0,0.1-0.1,0.2-0.2,0.2H7.7c-0.1,0-0.2-0.1-0.2-0.2V7.7 c0-0.1,0.1-0.2,0.2-0.2H9.3 M9.3,6H7.7C6.7,6,6,6.7,6,7.7l0,0v16.7C6,25.3,6.7,26,7.7,26l0,0h1.7c0.9,0,1.7-0.7,1.7-1.7l0,0V7.7 C11,6.7,10.3,6,9.3,6L9.3,6z"></path> </g> </svg>