<svg xmlns="http://www.w3.org/2000/svg" xmlns:xlink="http://www.w3.org/1999/xlink" id="Layer_1" x="0px" y="0px" viewBox="0 0 32 32" style="enable-background:new 0 0 32 32;" xml:space="preserve"> <style type="text/css"> .st0{fill:#4284FB;} </style> <title>mxp_com_icons_all_R2</title> <g> <g> <path class="st0" d="M23,26.8H9.5c-1.8,0-3.2-1.5-3.2-3.2V10c0-2.6,2.1-4.8,4.8-4.8h12c1.5,0,2.8,1.2,2.8,2.8v16 C25.8,25.5,24.5,26.8,23,26.8z M7.8,23.5c0,1,0.8,1.8,1.8,1.8H23c0.7,0,1.2-0.6,1.2-1.2v-2.6c-0.4,0.2-0.8,0.3-1.2,0.3H9.5 C8.5,21.8,7.8,22.5,7.8,23.5z M11,6.8c-1.8,0-3.2,1.5-3.2,3.2v10.8c0.5-0.3,1.1-0.5,1.8-0.5H23c0.7,0,1.2-0.6,1.2-1.2V8 c0-0.7-0.6-1.2-1.2-1.2H11z"></path> </g> <g> <path class="st0" d="M10.5,21.8c-0.4,0-0.8-0.3-0.8-0.8V9.7c0-0.4,0.3-0.8,0.8-0.8s0.8,0.3,0.8,0.8V21 C11.2,21.4,10.9,21.8,10.5,21.8z"></path> </g> </g> </svg>