<svg xmlns="http://www.w3.org/2000/svg" xmlns:xlink="http://www.w3.org/1999/xlink" id="Layer_1" x="0px" y="0px" viewBox="0 0 32 32" style="enable-background:new 0 0 32 32;" xml:space="preserve"> <style type="text/css"> .st0{fill:#4284FB;} </style> <title>mxp_com_icons_all_R2</title> <g> <g> <path class="st0" d="M7.7,23.2c-0.1,0-0.2,0-0.3-0.1C7.2,23,7,22.7,7,22.4V19c-1.2-0.3-2-1.4-2-2.6v-7c0-1.5,1.2-2.8,2.8-2.8h12 c1.5,0,2.8,1.2,2.8,2.8v5c0,0.4-0.3,0.8-0.8,0.8S21,14.8,21,14.4v-5c0-0.7-0.6-1.2-1.2-1.2h-12C7,8.1,6.5,8.7,6.5,9.4v7 c0,0.7,0.6,1.3,1.2,1.3c0.4,0,0.8,0.3,0.8,0.8v2.2l2.7-2.7c0.1-0.1,0.3-0.2,0.5-0.2h2c0.4,0,0.8,0.3,0.8,0.8s-0.3,0.8-0.8,0.8H12 l-3.8,3.8C8.1,23.1,7.9,23.2,7.7,23.2z"></path> </g> <g> <path class="st0" d="M25.7,25.3c-0.1,0-0.3,0-0.4-0.1l-3-2.1h-6.6c-1.5,0-2.8-1.2-2.8-2.8v-4c0-1.5,1.2-2.8,2.8-2.8h8 c1.5,0,2.8,1.2,2.8,2.8v8.2c0,0.3-0.2,0.5-0.4,0.7C26,25.3,25.8,25.3,25.7,25.3z M15.7,15.1c-0.7,0-1.2,0.6-1.2,1.2v4 c0,0.7,0.6,1.2,1.2,1.2h6.8c0.2,0,0.3,0,0.4,0.1l2,1.4v-6.8c0-0.7-0.6-1.2-1.2-1.2H15.7z"></path> </g> <g> <path class="st0" d="M22.7,19.2h-6c-0.4,0-0.8-0.3-0.8-0.8s0.3-0.8,0.8-0.8h6c0.4,0,0.8,0.3,0.8,0.8S23.1,19.2,22.7,19.2z"></path> </g> </g> </svg>