<svg xmlns="http://www.w3.org/2000/svg" xmlns:xlink="http://www.w3.org/1999/xlink" id="Layer_1" x="0px" y="0px" viewBox="0 0 32 32" style="enable-background:new 0 0 32 32;" xml:space="preserve"> <style type="text/css"> .st0{fill:none;stroke:#4284FB;stroke-width:1.5;stroke-linecap:round;stroke-linejoin:round;} </style> <title>mxp_com_icons_all_R2</title> <g> <path class="st0" d="M6,20c0-2.2,1.8-4,4-4s4,1.8,4,4"></path> <path class="st0" d="M18.7,8c-2.8,0-5,2.2-5,5v1"></path> <path class="st0" d="M23.4,14.6c1-2.6-0.3-5.5-2.8-6.5s-5.5,0.3-6.5,2.8c-0.1,0.4-0.2,0.8-0.3,1.2c-0.3-0.1-0.7-0.2-1.1-0.2 c-1.7,0-3,1.3-3,3c0,0.3,0.1,0.7,0.2,1c-2.2,0-4,1.8-4,4s1.8,4,4,4h11c2.8,0,5-2.3,5-5C25.9,17.2,25,15.5,23.4,14.6z"></path> </g> </svg>