<?xml version="1.0" encoding="utf-8"?>
<!-- Generator: Adobe Illustrator 21.0.0, SVG Export Plug-In . SVG Version: 6.00 Build 0)  -->
<svg version="1.1" id="Layer_1" xmlns="http://www.w3.org/2000/svg" xmlns:xlink="http://www.w3.org/1999/xlink" x="0px" y="0px"
	 viewBox="0 0 500 500" style="enable-background:new 0 0 500 500;" xml:space="preserve">
<style type="text/css">
	.st0{fill:#0073EC;}
</style>
<g>
	<path class="st0" d="M288.5,54.3c-4.4,0-8,3.6-8,8s3.6,8,8,8c27.6,0,53.8,12.4,71.3,33.8c2.5,3.6,7.5,4.5,11.1,1.9
		c3.6-2.5,4.5-7.5,1.9-11.1c-0.2-0.3-0.5-0.6-0.8-0.9C351.6,68.8,320.9,54.3,288.5,54.3L288.5,54.3z"/>
	<path class="st0" d="M481,183.6c-10.8-13.3-25.2-23.2-41.6-28.3C435.3,72,364.4,7.8,281.1,11.9c-49.8,2.5-95.2,29.4-121.3,71.9
		c-36.4-11.4-75.1,8.9-86.5,45.2c-0.6,2-1.1,4-1.6,6c-44.3,11.6-74.2,52.8-71.5,98.5c3,50.8,45.9,90.1,96.8,90.1h108.8l-5.6,0.1
		l213.8-0.1c47.5,0,86.1-38.5,86.1-86.1C500,217.9,493.3,198.9,481,183.6L481,183.6z M412.8,307.6l-212.4,0.1l5.3-0.1H97
		c-42.5,0-78.5-32.9-80.9-75.3c-2.2-39.7,25.1-75,64.1-82.9c3.4-0.7,5.9-3.4,6.4-6.8c3.8-29,30.5-49.4,59.5-45.6
		c4.8,0.6,9.5,1.9,14,3.9c3.8,1.6,8.2,0.2,10.2-3.4c23.8-43.1,69.1-69.8,118.3-69.8c73.8,0,134.4,60,135.1,133.8
		c0,3.7,2.6,6.9,6.2,7.7c31.5,7.2,53.9,35.1,54.2,67.4C484.5,275.7,451.9,307.6,412.8,307.6z"/>
	<path class="st0" d="M276.7,435.4v-92c0-4.3-3.5-7.9-7.9-7.9s-7.9,3.5-7.9,7.9l0,0v92c-14.3,4.3-22.4,19.4-18.1,33.7
		c3.4,11.2,13.6,18.9,25.3,19.2h0.6c14.9,0,27.1-12.1,27.1-27C296,449.3,288.2,438.8,276.7,435.4z M268.9,472.6h-0.3
		c-6.3-0.1-11.3-5.2-11.2-11.5s5.2-11.3,11.5-11.2l0,0h0.3c3,0,5.9,1.3,7.9,3.5c4.3,4.5,4.2,11.7-0.3,16
		C274.7,471.5,271.9,472.6,268.9,472.6z"/>
	<path class="st0" d="M226.3,335.5c-4.3,0-7.8,3.5-7.9,7.8v44c0,7.6-6.1,13.7-13.7,13.7h-23.1c-4.3-14.3-19.5-22.4-33.8-18.1
		c-14.3,4.3-22.4,19.5-18.1,33.8c4.3,14.3,19.5,22.4,33.8,18.1c8.7-2.6,15.5-9.4,18.1-18.1h23.1c16.2,0,29.4-13.2,29.4-29.4v-44
		C234.2,339.1,230.7,335.6,226.3,335.5C226.3,335.5,226.3,335.5,226.3,335.5L226.3,335.5z M155.7,420.4c-6.3,0-11.4-5.1-11.4-11.4
		s5.1-11.4,11.4-11.4c6.3,0,11.4,5.1,11.4,11.4c0,0,0,0,0,0C167.1,415.3,161.9,420.4,155.7,420.4z"/>
	<path class="st0" d="M382.1,381.9c-11.9,0-22.5,7.8-25.9,19.3H333c-7.6,0-13.7-6.1-13.7-13.7v-44c0-4.3-3.5-7.9-7.9-7.9
		s-7.9,3.5-7.9,7.9v44c0,16.2,13.2,29.4,29.4,29.4h23.1c4.4,14.3,19.5,22.4,33.8,18c14.3-4.4,22.4-19.5,18-33.8
		C404.5,389.7,394,381.9,382.1,381.9L382.1,381.9z M382.1,420.5c-6.3,0-11.4-5.1-11.4-11.4c0-6.3,5.1-11.4,11.4-11.4
		c6.3,0,11.4,5.1,11.4,11.4c0,6.3-5,11.4-11.3,11.4C382.1,420.5,382.1,420.5,382.1,420.5z"/>
</g>
</svg>
