<svg xmlns="http://www.w3.org/2000/svg" xmlns:xlink="http://www.w3.org/1999/xlink" id="Layer_1" x="0px" y="0px" viewBox="0 0 32 32" style="enable-background:new 0 0 32 32;" xml:space="preserve"> <style type="text/css"> .st0{fill:#4284FB;} </style> <g> <path class="st0" d="M25,24.1h-7v-1.5h7c0.1,0,0.2-0.1,0.2-0.2c0-1.8-1.5-3.2-3.2-3.2c-0.6,0-1.3,0.2-1.8,0.5l-0.8-1.2 c0.8-0.5,1.7-0.8,2.6-0.8c2.6,0,4.8,2.1,4.8,4.8C26.8,23.3,26,24.1,25,24.1z"></path> </g> <path class="st0" d="M16,15.5c-1.9,0-3.5,0.9-4.6,2.2c-0.5-0.1-0.9-0.2-1.4-0.2c-2.6,0-4.8,2.2-4.8,4.8c0,1,0.8,1.8,1.8,1.8h5h2.4 H20c1,0,1.8-0.8,1.8-1.8v-1C21.8,18.1,19.2,15.5,16,15.5z M6.8,22.4c-0.1,0-0.2-0.1-0.2-0.2c0-1.7,1.5-3.2,3.3-3.2 c0.2,0,0.5,0,0.7,0.1c-0.3,0.7-0.4,1.4-0.4,2.2v1c0,0,0,0.1,0,0.1H6.8z M20.2,22.3c0,0.1-0.1,0.2-0.2,0.2h-8c-0.1,0-0.2-0.1-0.2-0.2 v-1c0-2.3,1.9-4.2,4.2-4.2s4.2,1.9,4.2,4.2V22.3z"></path> <g> <path class="st0" d="M16,14.4c-1.8,0-3.2-1.5-3.2-3.2S14.3,8,16,8s3.2,1.5,3.2,3.2S17.8,14.4,16,14.4z M16,9.4 c-1,0-1.8,0.8-1.8,1.8S15,13,16,13s1.8-0.8,1.8-1.8S17,9.4,16,9.4z"></path> </g> <g> <path class="st0" d="M22,13.1c0.6,0,1,0.4,1,1s-0.4,1-1,1s-1-0.4-1-1S21.4,13.1,22,13.1 M22,11.6c-1.4,0-2.5,1.1-2.5,2.5 s1.1,2.5,2.5,2.5s2.5-1.1,2.5-2.5S23.4,11.6,22,11.6L22,11.6z"></path> </g> <g> <path class="st0" d="M10,13.1c0.6,0,1,0.4,1,1s-0.4,1-1,1s-1-0.4-1-1S9.4,13.1,10,13.1 M10,11.6c-1.4,0-2.5,1.1-2.5,2.5 s1.1,2.5,2.5,2.5s2.5-1.1,2.5-2.5S11.4,11.6,10,11.6L10,11.6z"></path> </g> </svg>