<?xml version="1.0" encoding="iso-8859-1"?>
<!-- Generator: Adobe Illustrator 19.0.0, SVG Export Plug-In . SVG Version: 6.00 Build 0)  -->
<svg version="1.1" id="Capa_1" xmlns="http://www.w3.org/2000/svg" xmlns:xlink="http://www.w3.org/1999/xlink" x="0px" y="0px"
	 viewBox="0 0 512 512" style="enable-background:new 0 0 512 512;" xml:space="preserve">
<rect x="68.955" y="224.04" style="fill:#B48765;" width="18.211" height="24.353"/>
<path style="fill:#FFDC64;" d="M488.135,0.22H308.57c-13.181,0-23.866,10.685-23.866,23.866v122.65
	c0,13.181,10.685,23.865,23.865,23.865h6.756c4.292,0,7.771,3.479,7.771,7.771v28.736c0,4.238,5.123,6.36,8.12,3.363l37.594-37.594
	c1.457-1.457,3.434-2.276,5.495-2.276h113.83c13.18,0,23.865-10.685,23.865-23.865V24.086C512,10.905,501.315,0.22,488.135,0.22z"/>
<path style="fill:#FFC850;" d="M488.135,0.22h-7.179v53.738c0,51.227-41.528,92.755-92.755,92.755h-17.993
	c-19.315,0-37.839,7.673-51.497,21.331l-2.597,2.597c3.921,0.395,6.982,3.706,6.982,7.731v28.736c0,4.238,5.123,6.36,8.12,3.363
	l37.594-37.594c1.457-1.457,3.434-2.276,5.495-2.276h113.83c13.18,0,23.865-10.685,23.865-23.865V24.086
	C512,10.905,501.315,0.22,488.135,0.22z"/>
<path style="fill:#6F4BEF;" d="M373.238,52.455c0-4.569,2.474-8.9,7.425-12.993c4.948-4.091,11.851-6.14,20.703-6.14
	c9.042,0,16.371,2.237,21.989,6.711c5.615,4.475,8.424,10.091,8.424,16.848c0,9.138-5.375,17.848-16.119,26.129
	c-2.485,1.999-4.323,3.975-5.512,5.925c-1.192,1.953-1.905,3.666-2.142,5.14c-0.239,1.477-0.357,3.737-0.357,6.782
	c0,3.904-2.809,5.854-8.424,5.854c-2.952,0-4.998-0.656-6.14-1.968c-1.142-1.312-1.713-3.797-1.713-7.456
	c0-8.813,3.187-15.938,9.566-21.378c0.285-0.281,1.522-1.265,3.713-2.951c2.189-1.687,3.712-2.954,4.569-3.797
	c0.857-0.843,1.807-2.132,2.856-3.868c1.046-1.736,1.57-3.494,1.57-5.274c0-3.094-1.187-5.461-3.558-7.103
	c-2.371-1.64-5.455-2.461-9.248-2.461c-3.226,0-5.881,0.527-7.967,1.58c-2.088,1.053-3.463,2.218-4.128,3.489
	c-0.665,1.274-1.566,2.436-2.704,3.489c-1.137,1.053-2.56,1.58-4.267,1.58c-2.182,0-4.15-0.714-5.903-2.142
	C374.114,57.024,373.238,55.025,373.238,52.455z M388.23,127.559c0-3.045,1.098-5.64,3.298-7.782
	c2.197-2.142,4.811-3.212,7.84-3.212c3.045,0,5.64,1.095,7.781,3.284c2.142,2.191,3.213,4.761,3.213,7.711
	c0,2.952-1.071,5.522-3.213,7.71c-2.141,2.191-4.736,3.284-7.781,3.284c-3.048,0-5.665-1.093-7.853-3.284
	C389.324,133.081,388.23,130.511,388.23,127.559z"/>
<path style="fill:#FFE1B3;" d="M276.337,413.459l-38.537-7.546c-17.306-3.389-29.545-16.303-29.545-31.177V338.18h-86.246v36.556
	c0,14.873-12.239,27.788-29.545,31.177l-38.537,7.546C22.339,419.644,0,443.217,0,470.365v31.91c0,5.25,4.256,9.505,9.505,9.505
	h311.253c5.25,0,9.505-4.256,9.505-9.505v-31.91C330.264,443.217,307.924,419.644,276.337,413.459z"/>
<path style="fill:#F0C891;" d="M163.64,387.202L163.64,387.202c16.588,0,31.964-5.173,44.614-13.987V338.18h-86.246v36.556
	c0,0.151-0.009,0.3-0.011,0.451C134.053,382.796,148.331,387.202,163.64,387.202z"/>
<path style="fill:#53515E;" d="M258.325,303.362h-16.546v-70.851h16.546c7.869,0,14.248,6.379,14.248,14.248v42.355
	C272.573,296.983,266.194,303.362,258.325,303.362z"/>
<rect x="239.62" y="232.51" style="fill:#474756;" width="14.04" height="70.851"/>
<path style="fill:#53515E;" d="M68.956,232.511h16.546v70.851H68.956c-7.869,0-14.248-6.379-14.248-14.248v-42.355
	C54.708,238.89,61.087,232.511,68.956,232.511z"/>
<rect x="74.02" y="232.51" style="fill:#474756;" width="13.733" height="70.851"/>
<path style="fill:#FFE1B3;" d="M163.64,368.589L163.64,368.589c-43.155,0-78.139-34.984-78.139-78.139v-63.882
	c0-43.155,34.984-78.139,78.139-78.139l0,0c43.155,0,78.139,34.984,78.139,78.139v63.882
	C241.779,333.605,206.795,368.589,163.64,368.589z"/>
<path style="fill:#FAD7A5;" d="M178.045,149.759c19.825,14.172,32.748,37.38,32.748,63.608v63.882
	c0,43.155-34.984,78.139-78.139,78.139l0,0c-4.922,0-9.735-0.46-14.404-1.33c12.795,9.147,28.464,14.531,45.391,14.531l0,0
	c43.155,0,78.139-34.984,78.139-78.139v-63.882C241.779,188.335,214.318,156.52,178.045,149.759z"/>
<path style="fill:#AAE1FF;" d="M260.258,299.587h-6.15c-1.579,0-2.859,1.28-2.859,2.859v6.836h0.002
	c-0.004,0.087-0.013,0.173-0.014,0.261c-0.201,11.363-8.607,20.652-19.972,20.652h-59.292c-3.253,0-6.089,2.506-6.186,5.757
	c-0.101,3.364,2.596,6.123,5.938,6.123h58.886c17.925,0,32.507-14.582,32.507-32.506c0-0.097-0.01-0.191-0.015-0.287h0.015v-6.836
	C263.117,300.867,261.837,299.587,260.258,299.587z"/>
<path style="fill:#B48765;" d="M82.378,173.746c-3.95,6.327-9.252,16.52-12.059,30.046c-2.434,11.73-2.124,21.789-1.364,28.719
	c9.507-2.346,16.926-5.705,22.066-8.468c2.029-1.09,12.056-6.577,22.515-16.709l0,0L82.378,173.746z"/>
<path style="fill:#966D50;" d="M263.207,217.965c-6.654-24.65-17.703-48.121-35.675-65.506c-5.825-5.635-27.717-26.81-60.117-28.484
	c0,0-33.809-1.747-63.002,23.095c-8.808,7.495-16.059,16.581-22.035,26.676c27.172,38.877,67.937,63.6,113.517,63.6
	c11.225,0,34.677-3.424,45.884-10.778"/>
<path style="fill:#846047;" d="M227.532,152.459c-5.825-5.635-27.717-26.81-60.116-28.484c0,0-9.59-0.495-22.965,2.795
	c22.911,6.316,38.216,21.117,42.942,25.689c17.972,17.384,29.021,40.856,35.675,65.506l-21.428,8.604
	c-6.509,4.271-17.147,7.214-27.122,8.933c6.981,1.212,14.117,1.845,21.377,1.845c11.224,0,34.677-3.424,45.884-10.778l21.428-8.604
	C256.553,193.315,245.504,169.843,227.532,152.459z"/>
<g>
	<circle style="fill:#53515E;" cx="132.65" cy="257.06" r="8.661"/>
	<circle style="fill:#53515E;" cx="191.55" cy="257.06" r="8.661"/>
</g>
<path style="fill:#FF9EA4;" d="M276.336,413.459l-38.537-7.546c-5.99-1.173-11.372-3.489-15.85-6.63
	c-15.192,13.265-35.065,21.303-56.817,21.303s-41.625-8.038-56.817-21.303c-4.479,3.142-9.86,5.458-15.85,6.63l-38.537,7.546
	C22.34,419.644,0,443.217,0,470.365v31.91c0,5.25,4.256,9.505,9.505,9.505h311.253c5.25,0,9.505-4.256,9.505-9.505v-31.91
	C330.264,443.217,307.924,419.644,276.336,413.459z"/>
<g>
	<path style="fill:#FF7B97;" d="M21.547,428.158C8.148,438.902,0,453.978,0,470.365v31.91c0,5.25,4.256,9.505,9.505,9.505h53.084
		v-38.267C62.589,449.871,44.59,430.436,21.547,428.158z"/>
	<path style="fill:#FF7B97;" d="M308.717,428.158c-23.043,2.278-41.042,21.713-41.042,45.355l0.065,38.267h53.018
		c5.25,0,9.505-4.256,9.505-9.505v-31.91C330.264,453.978,322.116,438.902,308.717,428.158z"/>
</g>
<path style="fill:#B28362;" d="M163.641,325.583c-9.79,0-19.579-3.726-27.032-11.179c-2.929-2.929-2.929-7.678,0-10.606
	c2.93-2.929,7.678-2.929,10.607,0c9.056,9.057,23.791,9.058,32.849,0c2.93-2.929,7.678-2.929,10.607,0s2.929,7.678,0,10.606
	C183.219,321.857,173.43,325.583,163.641,325.583z"/>
<g>
</g>
<g>
</g>
<g>
</g>
<g>
</g>
<g>
</g>
<g>
</g>
<g>
</g>
<g>
</g>
<g>
</g>
<g>
</g>
<g>
</g>
<g>
</g>
<g>
</g>
<g>
</g>
<g>
</g>
</svg>
