<?xml version="1.0" encoding="utf-8"?>
<!-- Generator: Adobe Illustrator 21.0.0, SVG Export Plug-In . SVG Version: 6.00 Build 0)  -->
<svg version="1.1" id="Layer_1" xmlns="http://www.w3.org/2000/svg" xmlns:xlink="http://www.w3.org/1999/xlink" x="0px" y="0px"
	 viewBox="0 0 500 500" style="enable-background:new 0 0 500 500;" xml:space="preserve">
<style type="text/css">
	.st0{fill:#0073EC;}
</style>
<g>
	
		<ellipse transform="matrix(0.9733 -0.2297 0.2297 0.9733 -87.1863 109.0224)" class="st0" cx="424.7" cy="429" rx="14.7" ry="14.7"/>
	<circle class="st0" cx="314.8" cy="429" r="14.7"/>
	<path class="st0" d="M471,358H29c-11.8,0-21.3,9.6-21.4,21.4v99.2c0,11.8,9.6,21.4,21.4,21.4h442c11.8,0,21.4-9.6,21.4-21.4v-99.2
		C492.4,367.6,482.8,358,471,358z M476.4,478.6c0,2.9-2.4,5.3-5.3,5.3H29c-2.9,0-5.3-2.4-5.3-5.3v-99.2c0-2.9,2.4-5.3,5.3-5.3
		c0,0,0,0,0,0h442.1c2.9,0,5.3,2.4,5.3,5.3L476.4,478.6z"/>
	
		<ellipse transform="matrix(0.7071 -0.7071 0.7071 0.7071 -194.6107 388.0779)" class="st0" cx="371.1" cy="429" rx="14.7" ry="14.7"/>
	<path class="st0" d="M471,203.5h-7.5C458.8,94.9,373,7.4,265.1,0c-3.4-0.3-6.4,2.3-6.7,5.7c0,0,0,0.1,0,0.1
		c-0.3,3.4,2.2,6.4,5.7,6.7c0,0,0.1,0,0.1,0c101.8,6.7,182.3,89,186.8,190.9h-11.2c-5.9-104.8-95.6-184.9-200.4-179
		c-96.5,5.4-173.6,82.5-179,179H49.2c4.6-101.9,85-184.1,186.7-190.9c3.4-0.2,6-3.1,5.8-6.6c0-0.1,0-0.1,0-0.2
		c-0.2-3.4-3.1-6-6.6-5.9c-0.1,0-0.1,0-0.2,0C127,7.6,41.5,95,36.5,203.5H29c-11.8,0-21.4,9.6-21.4,21.4v99.2
		c0,11.8,9.6,21.4,21.4,21.4h442c11.8,0,21.4-9.6,21.4-21.4v-99.2C492.4,213,482.8,203.5,471,203.5L471,203.5z M93.4,130l10.7,6.1
		c3,1.7,6.8,0.7,8.6-2.3c1.7-3,0.7-6.8-2.3-8.6l-10.7-6.1c14.3-22.8,33.6-42,56.3-56.3l6.1,10.7c1.6,3.1,5.4,4.2,8.5,2.6
		c3.1-1.6,4.2-5.4,2.6-8.5c-0.1-0.1-0.2-0.3-0.2-0.4l-6.3-10.7c23.7-12.7,50-19.7,76.9-20.6v12.4c0,3.5,2.8,6.3,6.3,6.3
		s6.3-2.8,6.3-6.3V36c26.9,0.9,53.2,7.9,76.9,20.6l-6.1,10.7c-1.7,3-0.7,6.8,2.3,8.6c3,1.7,6.8,0.7,8.6-2.3l0,0l6.1-10.7
		c22.8,14.3,42,33.5,56.3,56.3l-10.7,6.1c-3,1.7-4,5.6-2.3,8.6c1.7,3,5.6,4,8.6,2.3l10.7-6.1c12.7,23.7,19.8,50,20.6,76.9h-81.3
		c-1.6-26.1-13.9-50.3-34-67l10.5-18.2c4.6-8.1,1.8-18.4-6.3-23.1c-0.1-0.1-0.2-0.1-0.3-0.2c-8-4.3-18-1.5-22.5,6.4l-10.5,18.2
		c-10.4-3.8-21.5-5.7-32.6-5.7c-50.4,0-92.2,39.1-95.6,89.5H72.8l-0.1-0.1C73.7,180,80.8,153.7,93.4,130L93.4,130z M297.3,218
		c-2.6,25.9-25.7,44.8-51.6,42.2c-22.3-2.2-40-19.9-42.2-42.2c-0.6-6.2-5.7-10.9-11.9-11h-24c3.6-46,43.9-80.3,89.8-76.7
		c6.6,0.5,13.1,1.8,19.4,3.9l-26.6,46c-18.2,0.1-32.9,15-32.8,33.3c0.1,18.2,15,32.9,33.3,32.8c11.2-0.1,21.5-5.7,27.7-15
		c2-2.9,1.3-6.8-1.6-8.8c-2.9-2-6.8-1.3-8.8,1.6c-0.1,0.1-0.1,0.2-0.2,0.3c-6.2,9.5-18.9,12.2-28.4,6c-9.5-6.2-12.2-18.9-6-28.4
		s18.9-12.2,28.4-6c2.4,1.6,4.5,3.6,6,6c1.9,2.9,5.8,3.7,8.8,1.8c2.2-1.4,3.2-4,2.7-6.5l26.8-46.3c16.3,14.3,26.3,34.4,27.8,56
		h-24.5C303,207,297.8,211.8,297.3,218L297.3,218z M304.1,111.1c1.1-2,3.6-2.7,5.6-1.7c2,1,2.9,3.5,1.8,5.6c0,0.1-0.1,0.2-0.1,0.2
		l-13.3,22.9c-2.9,5-24.9,43.3-28.1,48.6c-2.3-1.7-4.7-3.1-7.3-4.3L304.1,111.1z M476.4,324.1c0,2.9-2.4,5.3-5.3,5.3H29
		c-2.9,0-5.3-2.4-5.3-5.3v-99.2c0-2.9,2.4-5.3,5.3-5.3c0,0,0,0,0,0h58.9l-0.1-0.1h102.9c0.2,1.8,0.5,3.7,0.8,5.4
		c6.4,32.4,37.8,53.4,70.2,47c25.7-5.1,45.1-26.3,47.8-52.4h102.7l-0.1,0.1h59c2.9,0,5.3,2.4,5.3,5.3L476.4,324.1z"/>
	
		<ellipse transform="matrix(0.3827 -0.9239 0.9239 0.3827 -24.4481 512.3085)" class="st0" cx="371.1" cy="274.4" rx="14.7" ry="14.7"/>
	<circle class="st0" cx="424.7" cy="274.5" r="14.7"/>
	<path class="st0" d="M315,259.8c-1.9,0.4-3.9,0.8-5.8,1.1c-7.5,3.1-11.2,11.7-8.1,19.2c3.1,7.5,11.7,11.2,19.2,8.1
		c7.5-3.1,11.2-11.7,8.1-19.2C326.2,263.5,320.9,259.9,315,259.8z"/>
</g>
</svg>
