<svg xmlns="http://www.w3.org/2000/svg" xmlns:xlink="http://www.w3.org/1999/xlink" id="Layer_1" x="0px" y="0px" viewBox="0 0 32 32" style="enable-background:new 0 0 32 32;" xml:space="preserve"> <style type="text/css"> .st0{fill:#4284FB;} </style> <title>mxp_com_icons_all_R2</title> <g> <g> <path class="st0" d="M16,26.4c-0.5,0-1.1-0.2-1.5-0.5L8.7,22c-0.8-0.5-1.2-1.3-1.2-2.2c0-0.4,0.3-0.8,0.7-0.8 c0.4,0,0.8,0.3,0.8,0.7c0,0.4,0.2,0.8,0.6,1l5.8,3.9c0.4,0.3,1,0.3,1.4,0l5.8-3.9c0.4-0.2,0.6-0.6,0.6-1c0-0.4,0.3-0.8,0.7-0.8 c0,0,0,0,0,0c0.4,0,0.7,0.3,0.8,0.7c0,0.9-0.4,1.8-1.2,2.3l-5.8,3.9C17.1,26.2,16.5,26.4,16,26.4z"></path> </g> <g> <path class="st0" d="M16,18.8c-0.5,0-0.9-0.1-1.3-0.4c-0.1,0-0.1,0-0.2-0.1l-5.8-3.9c-0.6-0.4-1-1-1.2-1.7s0-1.5,0.4-2.1 c0.2-0.3,0.5-0.6,0.8-0.8l5.8-3.8c0.9-0.6,2.1-0.6,3,0l5.8,3.8c1.3,0.8,1.6,2.5,0.8,3.8c-0.2,0.3-0.5,0.6-0.8,0.8l-5.8,3.8 C17,18.6,16.5,18.8,16,18.8z M15.2,17c0,0,0.1,0,0.1,0.1c0.4,0.3,1,0.3,1.4,0l5.8-3.8c0.1-0.1,0.3-0.2,0.4-0.4 c0.4-0.6,0.2-1.4-0.4-1.7l-5.8-3.8c-0.4-0.3-0.9-0.3-1.4,0l-5.8,3.8c-0.1,0.1-0.3,0.2-0.4,0.4C9,11.8,8.9,12.1,9,12.4 C9,12.7,9.2,13,9.5,13.2L15.2,17z"></path> </g> <g> <path class="st0" d="M8.2,20.5c-0.4,0-0.8-0.3-0.8-0.8v-7.5c0-0.4,0.3-0.8,0.8-0.8s0.8,0.3,0.8,0.8v7.5 C8.9,20.2,8.6,20.5,8.2,20.5z"></path> </g> <g> <path class="st0" d="M23.8,20.5c-0.4,0-0.8-0.3-0.8-0.8v-7.5c0-0.4,0.3-0.8,0.8-0.8s0.8,0.3,0.8,0.8v7.5 C24.6,20.2,24.2,20.5,23.8,20.5z"></path> </g> <g> <path class="st0" d="M16,26.3c-0.4,0-0.8-0.3-0.8-0.8v-4.4c0-0.4,0.3-0.8,0.8-0.8s0.8,0.3,0.8,0.8v4.4C16.8,26,16.4,26.3,16,26.3z "></path> </g> </g> </svg>