<?xml version="1.0" encoding="utf-8"?>
<!-- Generator: Adobe Illustrator 21.0.0, SVG Export Plug-In . SVG Version: 6.00 Build 0)  -->
<svg version="1.1" id="Layer_1" xmlns="http://www.w3.org/2000/svg" xmlns:xlink="http://www.w3.org/1999/xlink" x="0px" y="0px"
	 viewBox="0 0 500 500" style="enable-background:new 0 0 500 500;" xml:space="preserve">
<style type="text/css">
	.st0{fill:#FFFFFF;}
</style>
<g>
	<path class="st0" d="M374.9,387c-8.4,0-15.2,6.8-15.2,15.2s6.8,15.2,15.2,15.2c8.4,0,15.2-6.8,15.2-15.2
		C390.1,393.8,383.4,387,374.9,387C375,387,375,387,374.9,387z"/>
	<path class="st0" d="M430.2,387c-8.4,0-15.2,6.8-15.2,15.2s6.8,15.2,15.2,15.2c8.4,0,15.2-6.8,15.2-15.2
		C445.4,393.8,438.6,387,430.2,387C430.2,387,430.2,387,430.2,387z"/>
	<path class="st0" d="M316.8,387.1c-8.4,0-15.2,6.8-15.2,15.2s6.8,15.2,15.2,15.2c8.4,0,15.2-6.8,15.2-15.2
		C332,393.9,325.3,387.1,316.8,387.1C316.9,387.1,316.9,387.1,316.8,387.1z"/>
	<path class="st0" d="M301.6,242.9c0,8.4,6.8,15.2,15.2,15.2s15.2-6.8,15.2-15.2c0-8.4-6.8-15.2-15.2-15.2c0,0,0,0,0,0
		C308.5,227.7,301.6,234.5,301.6,242.9C301.6,242.9,301.6,242.9,301.6,242.9z"/>
	<path class="st0" d="M477.9,329H22.1c-12.2,0-22,9.9-22.1,22.1v102.3c0,12.2,9.9,22,22.1,22.1h455.8c12.2,0,22-9.9,22.1-22.1V351.1
		C500,338.9,490.1,329,477.9,329z M483.5,453.4c0,3-2.5,5.5-5.5,5.5H22.1c-3,0-5.5-2.4-5.5-5.5c0,0,0,0,0,0V351.1
		c0-3,2.5-5.5,5.5-5.5c0,0,0,0,0,0H478c3,0,5.5,2.5,5.5,5.5L483.5,453.4z"/>
	<path class="st0" d="M359.7,242.9c0,8.4,6.8,15.2,15.2,15.2c8.4,0,15.2-6.8,15.2-15.2c0-8.4-6.8-15.2-15.2-15.2
		C366.6,227.6,359.7,234.4,359.7,242.9C359.7,242.8,359.7,242.8,359.7,242.9z"/>
	<path class="st0" d="M430.2,258c8.4,0,15.2-6.8,15.2-15.2s-6.8-15.2-15.2-15.2c-8.4,0-15.2,6.8-15.2,15.2
		C415,251.2,421.8,258,430.2,258z"/>
	<path class="st0" d="M477.9,169.6h-26c-4.6,0-8.3,3.7-8.3,8.3s3.7,8.3,8.3,8.3H478c3,0,5.5,2.5,5.5,5.5V294c0,3-2.5,5.5-5.5,5.5
		H22.1c-3,0-5.5-2.5-5.5-5.5V191.7c0-3,2.5-5.5,5.5-5.5c0,0,0,0,0,0h26c4.6,0,8.3-3.7,8.3-8.3s-3.7-8.3-8.3-8.3l0,0h-26
		C9.9,169.7,0,179.5,0,191.7V294c0,12.2,9.9,22.1,22.1,22.1h455.8c12.2,0,22.1-9.9,22.1-22.1V191.7
		C500,179.5,490.1,169.6,477.9,169.6z"/>
	<path class="st0" d="M183.2,80.3c3.9,0,7-3.1,7.1-6.9c0-0.1,0-0.1,0-0.2V45.4l62.7,55.6c-0.4,0.2-0.7,0.5-0.9,0.8l-61.8,61.8v-46.4
		c0.1-3.9-2.9-7.2-6.8-7.3c-3.9-0.1-7.2,2.9-7.3,6.8c0,0.2,0,0.4,0,0.5v8.6h-36.4c-3.9-0.1-7.2,2.9-7.3,6.8s2.9,7.2,6.8,7.3
		c0.2,0,0.4,0,0.5,0h36.4v40.7c0,3.9,3.1,7,6.9,7.1c0.1,0,0.1,0,0.2,0h223.3c0.1-0.4,0.2-0.4,0.3-0.4c0.1,0,0.3,0,0.4-0.1
		c0.1,0,0.3,0,0.4-0.1c0.1,0,0.2-0.1,0.4-0.1s0.2-0.1,0.4-0.1s0.2-0.1,0.3-0.1s0.2-0.1,0.4-0.1s0.2-0.1,0.4-0.1s0.2-0.1,0.4-0.2
		s0.2-0.1,0.3-0.2l0.2-0.2c0.1-0.1,0.3-0.2,0.5-0.4l0.1-0.1l0.1-0.1c0.1-0.1,0.3-0.3,0.4-0.5c0.1-0.1,0.1-0.2,0.2-0.2
		s0.1-0.2,0.2-0.2s0.1-0.2,0.2-0.4c0-0.1,0.1-0.2,0.1-0.2c0.1-0.1,0.1-0.2,0.1-0.4c0-0.1,0.1-0.2,0.1-0.3s0.1-0.2,0.1-0.4
		s0.1-0.2,0.1-0.4s0.1-0.2,0.1-0.4s0.1-0.2,0.1-0.4c0-0.1,0-0.2,0.1-0.3V29.6c0-3.9-3.1-7-6.9-7.1c-0.1,0-0.1,0-0.2,0H181.9
		c-0.1,0-0.3,0-0.4,0.1c-0.1,0-0.3,0-0.4,0.1c-0.1,0-0.2,0.1-0.4,0.1s-0.2,0.1-0.4,0.1s-0.2,0.1-0.3,0.1s-0.2,0.1-0.4,0.1
		c-0.1,0-0.2,0-0.2,0.1c-0.1,0.1-0.2,0.1-0.4,0.2s-0.1,0.1-0.2,0.2s-0.2,0.1-0.4,0.2s-0.2,0.1-0.2,0.2l-0.2,0.2l-0.2,0.2l-0.1,0.1
		c0,0.1-0.1,0.1-0.1,0.1c-0.1,0.1-0.1,0.2-0.2,0.3l-0.2,0.2c-0.1,0.1-0.1,0.2-0.2,0.3c0,0.1,0,0.2-0.1,0.2c-0.1,0.1-0.1,0.2-0.1,0.4
		c0,0.1-0.1,0.2-0.1,0.3s-0.1,0.2-0.1,0.4s-0.1,0.2-0.1,0.4s-0.1,0.2-0.1,0.4s-0.1,0.2-0.1,0.3c0,0.1,0,0.3-0.1,0.4v44.7
		c0,3.9,3.1,7,6.9,7.1C183.1,80.3,183.1,80.3,183.2,80.3L183.2,80.3z M200.2,173.4l61.8-61.8c0.5-0.5,0.9-1,1.3-1.6l26.3,23.3
		c2.6,2.3,6.5,2.3,9.2,0.1l26.9-22.8c0.2,0.4,0.5,0.7,0.8,1l61.8,61.8L200.2,173.4z M398.4,36.6v126.8l-61.8-61.8l-0.1-0.1L382.9,62
		c2.9-2.6,3.1-7.1,0.5-10c-2.5-2.8-6.8-3.1-9.7-0.8l-79.3,67.4l-92.7-82L398.4,36.6z"/>
	<path class="st0" d="M94.2,102.9h119.1c3.9-0.1,7-3.4,6.8-7.3c-0.1-3.7-3.1-6.7-6.8-6.8H94.2c-3.9,0.1-7,3.4-6.8,7.3
		C87.6,99.8,90.5,102.8,94.2,102.9z"/>
	<path class="st0" d="M106.5,64.1H160c3.9,0.1,7.2-2.9,7.3-6.8s-2.9-7.2-6.8-7.3c-0.2,0-0.4,0-0.5,0h-53.5c-3.9-0.1-7.2,2.9-7.3,6.8
		c-0.1,3.9,2.9,7.2,6.8,7.3C106.2,64.1,106.4,64.1,106.5,64.1z"/>
	<path class="st0" d="M94.2,169.6H146c3.9,0,7-3.1,7.1-6.9c0-0.1,0-0.1,0-0.2c0-3.9-3.2-7.1-7.1-7.1H94.2c-3.9,0.1-7,3.4-6.8,7.3
		C87.6,166.5,90.5,169.5,94.2,169.6L94.2,169.6z"/>
</g>
</svg>
