<svg xmlns="http://www.w3.org/2000/svg" xmlns:xlink="http://www.w3.org/1999/xlink" id="Layer_1" x="0px" y="0px" viewBox="0 0 32 32" style="enable-background:new 0 0 32 32;" xml:space="preserve"> <style type="text/css"> .st0{fill:#4284FB;} </style> <title>mxp_com_icons_all_R2</title> <g> <g> <path class="st0" d="M26,12.8H6c-0.4,0-0.8-0.3-0.8-0.8s0.3-0.8,0.8-0.8h20c0.4,0,0.8,0.3,0.8,0.8S26.4,12.8,26,12.8z"></path> </g> <g> <path class="st0" d="M24,24.8H8c-1.5,0-2.8-1.2-2.8-2.8V10c0-1.5,1.2-2.8,2.8-2.8h16c1.5,0,2.8,1.2,2.8,2.8v12 C26.8,23.5,25.5,24.8,24,24.8z M8,8.8c-0.7,0-1.2,0.6-1.2,1.2v12c0,0.7,0.6,1.2,1.2,1.2h16c0.7,0,1.2-0.6,1.2-1.2V10 c0-0.7-0.6-1.2-1.2-1.2H8z"></path> </g> <g> <path class="st0" d="M14,20.8h-4c-0.4,0-0.8-0.3-0.8-0.8v-4c0-0.4,0.3-0.8,0.8-0.8h4c0.4,0,0.8,0.3,0.8,0.8v4 C14.8,20.4,14.4,20.8,14,20.8z M10.8,19.2h2.5v-2.5h-2.5V19.2z"></path> </g> </g> </svg>