<svg xmlns="http://www.w3.org/2000/svg" xmlns:xlink="http://www.w3.org/1999/xlink" id="Layer_1" x="0px" y="0px" viewBox="0 0 32 32" style="enable-background:new 0 0 32 32;" xml:space="preserve"> <style type="text/css"> .st0{fill:#4284FB;} </style> <title>mxp_com_icons_all_R2</title> <g> <g> <path class="st0" d="M14,18.8H9.6c-2.4,0-4.3-1.9-4.4-4.3c0-2.4,2-4.4,4.4-4.4H14c0.4,0,0.8,0.3,0.8,0.8v7.2 C14.8,18.5,14.4,18.8,14,18.8z M9.6,11.6c-1.6,0-2.9,1.3-2.9,2.9c0,1.6,1.3,2.8,2.9,2.8h3.6v-5.7H9.6z"></path> </g> <g> <path class="st0" d="M21,22.9C21,22.9,21,22.9,21,22.9c-0.5,0-1.1-0.2-1.5-0.5l0,0l-5.9-3.9c-0.2-0.1-0.3-0.4-0.3-0.6v-7 c0-0.3,0.1-0.5,0.3-0.6l5.9-3.9c1.3-0.8,3-0.5,3.8,0.8c0.3,0.4,0.5,0.9,0.5,1.5v11.5c0,0.7-0.3,1.4-0.8,1.9 C22.4,22.6,21.7,22.9,21,22.9z M20.3,21.2c0.2,0.1,0.4,0.2,0.7,0.2c0,0,0,0,0,0c0.3,0,0.6-0.1,0.9-0.4c0.2-0.2,0.4-0.5,0.4-0.9 V8.6c0-0.2-0.1-0.5-0.2-0.7c-0.4-0.6-1.2-0.7-1.7-0.3l-5.6,3.7v6.2L20.3,21.2z"></path> </g> <g> <path class="st0" d="M24.5,16.6H23c-0.4,0-0.8-0.3-0.8-0.8v-3c0-0.4,0.3-0.8,0.8-0.8h1.5c1.2,0,2.2,1,2.2,2.2S25.7,16.6,24.5,16.6 z M23.8,15.1h0.8c0.4,0,0.8-0.3,0.8-0.8s-0.3-0.8-0.8-0.8h-0.8V15.1z"></path> </g> <g> <path class="st0" d="M13.5,26.1c-1.2,0-2.2-0.8-2.6-1.9l-1.6-5.6c-0.1-0.4,0.1-0.8,0.5-0.9s0.8,0.1,0.9,0.5l1.6,5.6 c0.2,0.6,0.9,1,1.4,0.8c0.3-0.1,0.6-0.3,0.7-0.6c0.2-0.3,0.2-0.6,0.1-0.9l-1.3-4.6c-0.1-0.4,0.1-0.8,0.5-0.9 c0.4-0.1,0.8,0.1,0.9,0.5l1.3,4.6c0.2,0.7,0.1,1.4-0.2,2c-0.3,0.6-0.9,1.1-1.6,1.3C13.9,26.1,13.7,26.1,13.5,26.1z"></path> </g> </g> </svg>