<?xml version="1.0" encoding="iso-8859-1"?>
<!-- Generator: Adobe Illustrator 19.0.0, SVG Export Plug-In . SVG Version: 6.00 Build 0)  -->
<svg version="1.1" id="Capa_1" xmlns="http://www.w3.org/2000/svg" xmlns:xlink="http://www.w3.org/1999/xlink" x="0px" y="0px"
	 viewBox="0 0 512 512" style="enable-background:new 0 0 512 512;" xml:space="preserve">
<path style="fill:#FFB171;" d="M373.607,435.607c0,0,44.168-53.521,66.793-77.796c12.08-12.962,17.727-30.352,7.415-44.76
	c-10.312-14.408-32.593-20.295-44.76-7.415c-23.183,24.54-77.569,89.868-77.569,89.868"/>
<path style="fill:#FFCC99;" d="M502.955,310.044c-10.312-14.408-32.593-20.295-44.76-7.415
	c-23.183,24.54-77.569,89.868-77.569,89.868l-152.387,16.041v-64.163c0,0-32.082-32.082-88.224-32.082
	c-76.049,0-122.301,35.757-133.618,45.626c-1.74,1.517-2.729,3.718-2.729,6.027v76.673c0,4.429,3.591,8.02,8.02,8.02h104.265
	l148.988,62.731c2.158,0.908,4.605,0.829,6.699-0.219l157.107-78.554c0,0,44.168-53.521,66.793-77.796
	C507.621,341.842,513.268,324.451,502.955,310.044z"/>
<path style="fill:#FFB171;" d="M495.54,323.462c-22.624,24.275-82.833,93.097-82.833,93.097L268.34,481.461l-152.387-64.163H3.667
	v23.321c0,4.429,3.591,8.02,8.02,8.02h104.265l148.988,62.731c2.158,0.908,4.605,0.829,6.699-0.219l157.108-78.554
	c0,0,44.168-53.521,66.793-77.796c11.644-12.493,17.304-29.1,8.465-43.186C501.836,315.807,498.944,319.811,495.54,323.462z"/>
<path style="fill:#FFCC99;" d="M329.396,369.884c0,0-133.239-57.59-189.381-57.59c-76.049,0-122.301,35.757-133.618,45.626
	c-1.74,1.517-2.729,3.718-2.729,6.027v44.591h224.571l82.043,22.596c16.914,5.278,34.904-4.155,40.182-21.069
	C355.743,393.152,346.309,375.162,329.396,369.884z"/>
<path style="fill:#FFB171;" d="M310.282,407.073l-57.591-15.861c-13.709-3.776-27.976,3.837-32.473,17.327l0,0l90.064,22.596
	c16.914,5.278,34.904-4.155,40.182-21.069c2.302-7.376,1.805-14.956-0.889-21.598C343.39,403.815,326.354,412.088,310.282,407.073z"
	/>
<path style="fill:#F1839B;" d="M403.624,250.712l-32.017,4.575c26.036-27.895,40.599-64.439,40.599-103.401
	C412.205,68.136,344.069,0,260.319,0c-83.751,0-151.886,68.136-151.886,151.886c0,33.604,10.752,65.449,31.094,92.091
	c19.687,25.786,47.605,44.913,78.611,53.859c4.101,1.182,8.455-1.398,9.413-5.548c0.885-3.837-1.466-7.81-5.244-8.901
	c-58.193-16.79-98.835-70.866-98.835-131.501c0-75.459,61.39-136.848,136.848-136.848c75.459,0,136.848,61.389,136.848,136.848
	c0,37.303-14.809,72.152-41.104,97.802v-39.654c0-4.154-3.366-7.519-7.519-7.519c-4.154,0-7.519,3.366-7.519,7.519v56.143
	c0,4.495,4.129,8.084,8.583,7.444l56.143-8.02c4.056-0.579,6.961-4.45,6.38-8.507C411.551,253.039,407.675,250.14,403.624,250.712z"
	/>
<path style="fill:#AED45B;" d="M260.319,152.387h-8.02c-9.121,0-16.542-7.421-16.542-16.542s7.421-16.542,16.542-16.542h32.082
	c4.154,0,7.519-3.366,7.519-7.519c0-4.154-3.366-7.519-7.519-7.519h-16.542v-8.522c0-4.154-3.366-7.519-7.519-7.519
	c-4.153,0-7.519,3.366-7.519,7.519v8.522h-0.501c-17.413,0-31.58,14.167-31.58,31.58s14.167,31.58,31.58,31.58h8.02
	c9.121,0,16.542,7.421,16.542,16.542s-7.421,16.542-16.542,16.542h-32.082c-4.153,0-7.519,3.366-7.519,7.519
	c0,4.154,3.367,7.519,7.519,7.519H252.8v8.522c0,4.154,3.367,7.519,7.519,7.519c4.154,0,7.519-3.366,7.519-7.519v-9.433
	c13.794-3.383,24.061-15.846,24.061-30.669C291.9,166.554,277.734,152.387,260.319,152.387z"/>
<g>
</g>
<g>
</g>
<g>
</g>
<g>
</g>
<g>
</g>
<g>
</g>
<g>
</g>
<g>
</g>
<g>
</g>
<g>
</g>
<g>
</g>
<g>
</g>
<g>
</g>
<g>
</g>
<g>
</g>
</svg>
