<svg xmlns="http://www.w3.org/2000/svg" xmlns:xlink="http://www.w3.org/1999/xlink" id="Layer_1" x="0px" y="0px" viewBox="0 0 32 32" style="enable-background:new 0 0 32 32;" xml:space="preserve"> <style type="text/css"> .st0{fill:#4284FB;} </style> <title>mxp_com_icons_all_R2</title> <g> <g> <path class="st0" d="M8.9,23.8c-0.2,0-0.4-0.1-0.5-0.2c-4.2-4.2-4.2-11,0-15.2c0.3-0.3,0.8-0.3,1.1,0s0.3,0.8,0,1.1 c-3.6,3.6-3.6,9.5,0,13.1c0.3,0.3,0.3,0.8,0,1.1C9.3,23.7,9.1,23.8,8.9,23.8z"></path> </g> <g> <path class="st0" d="M23.1,23.8c-0.2,0-0.4-0.1-0.5-0.2c-0.3-0.3-0.3-0.8,0-1.1c3.6-3.6,3.6-9.5,0-13.1c-0.3-0.3-0.3-0.8,0-1.1 c0.3-0.3,0.8-0.3,1.1,0c4.2,4.2,4.2,11,0,15.2C23.5,23.7,23.3,23.8,23.1,23.8z"></path> </g> <g> <path class="st0" d="M16,19.2c-1.8,0-3.2-1.5-3.2-3.2s1.5-3.2,3.2-3.2s3.2,1.5,3.2,3.2S17.8,19.2,16,19.2z M16,14.2 c-1,0-1.8,0.8-1.8,1.8s0.8,1.8,1.8,1.8s1.8-0.8,1.8-1.8S17,14.2,16,14.2z"></path> </g> <g> <path class="st0" d="M20.4,21.2c-0.2,0-0.4-0.1-0.5-0.2c-0.3-0.3-0.3-0.8,0-1.1c2.1-2.1,2.1-5.6,0-7.8c-0.3-0.3-0.3-0.8,0-1.1 c0.3-0.3,0.8-0.3,1.1,0c2.7,2.7,2.7,7.2,0,9.9C20.8,21.1,20.6,21.2,20.4,21.2z"></path> </g> <g> <path class="st0" d="M11.6,21.2c-0.2,0-0.4-0.1-0.5-0.2c-2.7-2.7-2.7-7.2,0-9.9c0.3-0.3,0.8-0.3,1.1,0c0.3,0.3,0.3,0.8,0,1.1 c-2.1,2.1-2.1,5.6,0,7.8c0.3,0.3,0.3,0.8,0,1.1C12,21.1,11.8,21.2,11.6,21.2z"></path> </g> </g> </svg>