<svg id="90aa7ee5-c1f1-44fb-8c47-200ba46346d1" data-name="Layer 1" xmlns="http://www.w3.org/2000/svg" xmlns:xlink="http://www.w3.org/1999/xlink" viewBox="0 0 190.36 187.93">
  <defs>
    <linearGradient id="1398be55-6fb0-4709-b160-e9b2972f4c9b" x1="31.74" y1="21.84" x2="38.42" y2="21.84" gradientUnits="userSpaceOnUse">
      <stop offset="0.15" stop-color="#4d9ed7"/>
      <stop offset="1" stop-color="#54addf"/>
    </linearGradient>
    <linearGradient id="cdb1612c-0a1d-4d75-bc12-6b54ffa023d3" x1="9.64" y1="29.9" x2="33.37" y2="29.9" xlink:href="#1398be55-6fb0-4709-b160-e9b2972f4c9b"/>
    <linearGradient id="5f6cf8b2-c3f5-4d78-be44-8151ca792ba1" x1="36.49" y1="53.64" x2="77.73" y2="53.64" gradientUnits="userSpaceOnUse">
      <stop offset="0" stop-color="#9aa6d4"/>
      <stop offset="1" stop-color="#d4d9ec"/>
    </linearGradient>
    <linearGradient id="6c4132d5-113f-4f87-8331-7745c1144392" x1="43.58" y1="104.71" x2="43.58" y2="8.2" gradientUnits="userSpaceOnUse">
      <stop offset="0" stop-color="#eff0f8"/>
      <stop offset="1" stop-color="#d4d9ec"/>
    </linearGradient>
    <linearGradient id="03623734-f326-4421-a262-837c9a5f78ad" x1="1824.81" y1="72.33" x2="1926.22" y2="72.33" gradientTransform="matrix(-1, 0, 0, 1, 1957.91, 0)" gradientUnits="userSpaceOnUse">
      <stop offset="0" stop-color="#ebe9eb"/>
      <stop offset="1" stop-color="#9aa7d5"/>
    </linearGradient>
    <linearGradient id="10930dea-0aef-425a-bead-2ae15b11531d" x1="1757.91" y1="134.2" x2="1923.44" y2="134.2" gradientTransform="matrix(-1, 0, 0, 1, 1957.91, 0)" gradientUnits="userSpaceOnUse">
      <stop offset="0" stop-color="#fff"/>
      <stop offset="1" stop-color="#9aa7d5"/>
    </linearGradient>
    <linearGradient id="aa7f5ba3-04ef-4611-b1c0-79caf1d353d0" x1="103.5" y1="94.14" x2="89.15" y2="69.28" gradientUnits="userSpaceOnUse">
      <stop offset="0" stop-color="#49496c"/>
      <stop offset="1" stop-color="#5d639e"/>
    </linearGradient>
    <linearGradient id="47ed3a90-0689-4646-a04e-b283680da319" x1="68.13" y1="64.25" x2="121.21" y2="64.25" gradientUnits="userSpaceOnUse">
      <stop offset="0" stop-color="#5d639e"/>
      <stop offset="1" stop-color="#49496c"/>
    </linearGradient>
    <linearGradient id="5ff3b6cf-f819-415f-8912-fd2793456dbb" x1="68.16" y1="94.24" x2="72.41" y2="94.24" xlink:href="#aa7f5ba3-04ef-4611-b1c0-79caf1d353d0"/>
    <linearGradient id="dcd31d9d-08ab-4f3a-99ac-23b29e643a1a" x1="83.53" y1="33.9" x2="89.94" y2="33.9" xlink:href="#47ed3a90-0689-4646-a04e-b283680da319"/>
    <linearGradient id="65991cc0-26d1-453c-8f3d-1b7319cf1bce" x1="44.08" y1="47.89" x2="116.24" y2="47.89" gradientUnits="userSpaceOnUse">
      <stop offset="0" stop-color="#54addf"/>
      <stop offset="0.92" stop-color="#4d9ed7"/>
    </linearGradient>
    <linearGradient id="5f5a6bf0-6809-4487-be03-65d3757fe4e9" x1="36.77" y1="15.83" x2="82.15" y2="15.83" xlink:href="#6c4132d5-113f-4f87-8331-7745c1144392"/>
    <linearGradient id="b58f2fd7-2586-473d-b0c4-052c79d367ad" x1="57.43" y1="31.67" x2="57.43" y2="2.57" gradientUnits="userSpaceOnUse">
      <stop offset="0" stop-color="#d4d9ec"/>
      <stop offset="1" stop-color="#9aa6d4"/>
    </linearGradient>
    <linearGradient id="b484a7e3-8488-47c2-87e3-bcedad85f9c2" x1="133.39" y1="46.01" x2="147.39" y2="46.01" xlink:href="#65991cc0-26d1-453c-8f3d-1b7319cf1bce"/>
    <linearGradient id="e0dfd615-e139-4bb4-b8c5-4524b318c978" x1="122.74" y1="60.72" x2="129.54" y2="60.72" xlink:href="#65991cc0-26d1-453c-8f3d-1b7319cf1bce"/>
    <linearGradient id="2642329f-7cdd-432f-ab03-9a9e7ed0248e" x1="109.63" y1="54.2" x2="120.32" y2="54.2" xlink:href="#65991cc0-26d1-453c-8f3d-1b7319cf1bce"/>
    <linearGradient id="622751df-5574-416b-b4ae-e26472dd09a6" x1="130.18" y1="40.22" x2="136.97" y2="40.22" xlink:href="#65991cc0-26d1-453c-8f3d-1b7319cf1bce"/>
    <linearGradient id="91426adb-09ab-40cc-a447-f6762ad3423f" x1="111.2" y1="82.92" x2="116.55" y2="82.92" gradientUnits="userSpaceOnUse">
      <stop offset="0.15" stop-color="#e7b620"/>
      <stop offset="1" stop-color="#fcd700"/>
    </linearGradient>
    <linearGradient id="69512a53-fbe9-4539-bf83-a1996ddcb637" x1="109.61" y1="80.04" x2="117.17" y2="80.04" xlink:href="#91426adb-09ab-40cc-a447-f6762ad3423f"/>
    <linearGradient id="a2837e69-a137-481b-8bb4-ff323f7181d6" x1="104.4" y1="96.36" x2="122.72" y2="96.36" gradientUnits="userSpaceOnUse">
      <stop offset="0.15" stop-color="#4d9ed7"/>
      <stop offset="1" stop-color="#67bce9"/>
    </linearGradient>
  </defs>
  <title>web-app-firewall</title>
  <g>
    <g>
      <path d="M35.17,22.93l.12-.1.21-.16.11-.08.33-.21.22-.12.06,0,.17-.08.06,0,.15-.06h0l.19-.06h0l.29-.06h0l.23,0h.28l.16,0h0L38,22h0l.16.06,0,0,.13.06,0,0-2.88-1.67h0l-.13-.06h0l-.16-.06h0l-.17,0h0l-.16,0h-.28l-.23,0h0l-.29.06h0l-.19.06h0l-.15.06h0l0,0-.17.08-.06,0-.22.12-.33.21-.1.08-.21.16-.12.1-.19.16-.12.11-.1.09-.14.15h0l2.88,1.67.24-.24.12-.11Z" transform="translate(-9.64)" style="fill: url(#1398be55-6fb0-4709-b160-e9b2972f4c9b)"/>
      <path d="M28.69,22.09,28.8,22l.11-.11.26-.25,0,0,.32-.26.09-.07.25-.18L30,21l.34-.21.27-.15.08,0,.2-.09.07,0,.19-.07,0,0,.23-.07.13,0,.06,0,.19,0,.29,0h.35l.19,0h.06l.21,0h0l.19.07.05,0,.16.08.05,0-2.88-1.67h-.05l-.16-.08h-.06L30,18.61h0l-.21,0h-.06l-.19,0h-.35l-.29,0h0l-.19,0-.06,0-.12,0h0l-.23.07,0,0-.19.07h0l0,0-.2.09-.08,0-.27.15-.34.21-.1.07-.25.18-.09.07-.32.26,0,0-.16.15-2-1.17h-.05l-.17-.08,0,0h0l-.21-.07h0l-.23-.05h-.06l-.21,0h-.37l-.3,0h0l-.18,0-.08,0-.12,0h0l-.25.08,0,0-.21.08h0l0,0-.23.1-.08,0-.3.16-.42.26-.14.1-.27.2-.16.13-.24.2-.16.15-.15.14-.09.09-.08.09-.33.36h0l-.37.44h0l-.31.42,0,0L18,22l-.18.27,0,.07-.09.15-.11.17-.08.15-.08.15-.05.09-.15.29,0,.08v0l-.18.4,0,0L17,24l-.09.23,0,.12-.06.18-.05.14-.05.17-.06.2,0,.09,0,.18-.06.26,0,.08c0,.12,0,.24-.07.35v.06c0,.08,0,.17,0,.25s0,.16,0,.24h-.05l-.22.07-.08,0-.32.12h0l-.24.11-.12.06-.37.2-.42.26-.07,0-.39.28-.07.06-.38.32,0,0-.36.34,0,0,0,0-.27.28h0l-.25.27,0,0,0,0-.39.47h0l0,0-.29.4,0,0v0l-.27.4,0,0,0,.06-.2.33,0,.05v0l-.22.39,0,0,0,.07-.16.32,0,.07,0,0-.18.4h0l0,0-.15.37,0,.06,0,.05c-.06.15-.11.29-.16.44h0v0c0,.15-.1.3-.14.45l0,.06v0q-.07.26-.13.53v.11l0,.21,0,.14,0,.21,0,.1v0q0,.23,0,.45v.1c0,.15,0,.31,0,.46a3.68,3.68,0,0,0,1.53,3.37l2.88,1.67a3.68,3.68,0,0,1-1.53-3.37c0-.15,0-.3,0-.46v-.1q0-.22,0-.45l0-.13,0-.21,0-.14,0-.21,0-.12q.06-.26.13-.53l0-.09c0-.15.09-.3.14-.45v0c0-.15.1-.29.16-.44l0-.11.15-.37,0-.06.19-.4.05-.1.16-.32.05-.1.22-.39,0-.07.2-.33.06-.1.27-.4,0-.06.29-.4,0-.05.39-.47.05-.06.25-.27v0L16,30.2l.06-.06.36-.33,0,0,.38-.32.07-.06.39-.28.07,0,.42-.26.37-.2.12-.06.24-.11.33-.13.08,0,.27-.08c0-.16,0-.32.06-.49v-.06c0-.15.05-.29.09-.44L19.4,27l.07-.28.06-.2.1-.31L19.7,26l.14-.35.05-.13q.1-.24.21-.47l0-.08.2-.38.08-.15.19-.32L20.7,24l.22-.34.07-.11.32-.44.36-.44.34-.36.08-.09.24-.23.16-.15.24-.2.16-.13.27-.2.14-.1.42-.26.3-.16.08,0,.23-.1.07,0,.21-.08,0,0,.25-.08.14,0,.08,0,.18,0h0l.3,0h.29l-.11.12-.13.13-.11.12,0,.05-.14.17,2.88,1.67.19-.22.11-.12Z" transform="translate(-9.64)" style="fill: url(#cdb1612c-0a1d-4d75-bc12-6b54ffa023d3)"/>
    </g>
    <path d="M23.74,20.91c2.24-1.29,4.1-.54,4.53,1.65a7.76,7.76,0,0,1,2-1.78c2.37-1.37,4.3-.27,4.31,2.45,0,.07,0,.14,0,.21a6,6,0,0,1,1.31-1.05c1.93-1.11,3.5-.22,3.51,2a7.68,7.68,0,0,1-3.48,6L17.8,40.9c-2.91,1.68-5.27.33-5.28-3a11.56,11.56,0,0,1,5.24-9.08,5.67,5.67,0,0,1,1.41-.59A10.24,10.24,0,0,1,23.74,20.91Z" transform="translate(-9.64)" style="fill: #90d0f2"/>
  </g>
  <g>
    <path id="772fafb7-b2b5-43a2-9d43-d8e9cd82827d" data-name="&lt;Path&gt;" d="M137.31,95l60.19,34.41a2,2,0,0,1,0,3.39l-93.72,54.11a7.77,7.77,0,0,1-7.74,0L35.86,152.49a2,2,0,0,1,0-3.39L129.57,95A7.77,7.77,0,0,1,137.31,95Z" transform="translate(-9.64)" style="fill: #fff;opacity: 0"/>
    <path d="M137.25,95l60,34.3a2,2,0,0,1,0,3.38l-93.43,53.94a7.74,7.74,0,0,1-7.71,0l-60-34.3a2,2,0,0,1,0-3.38l93.43-53.94A7.74,7.74,0,0,1,137.25,95Z" transform="translate(-9.64)" style="fill: #fbfbfb;opacity: 0.024390000000000002"/>
    <path d="M137.18,95.09,197,129.29a1.94,1.94,0,0,1,0,3.37l-93.15,53.78a7.72,7.72,0,0,1-7.69,0l-59.83-34.2a1.94,1.94,0,0,1,0-3.37l93.15-53.78A7.72,7.72,0,0,1,137.18,95.09Z" transform="translate(-9.64)" style="fill: #f6f6f8;opacity: 0.048780000000000004"/>
    <path d="M137.12,95.15l59.64,34.09a1.94,1.94,0,0,1,0,3.36l-92.86,53.62a7.7,7.7,0,0,1-7.67,0L36.6,152.14a1.94,1.94,0,0,1,0-3.36l92.86-53.62A7.69,7.69,0,0,1,137.12,95.15Z" transform="translate(-9.64)" style="fill: #f2f2f4;opacity: 0.073171"/>
    <path d="M137.06,95.2l59.46,34a1.93,1.93,0,0,1,0,3.35L103.95,186a7.67,7.67,0,0,1-7.64,0L36.84,152a1.93,1.93,0,0,1,0-3.35l92.58-53.45A7.67,7.67,0,0,1,137.06,95.2Z" transform="translate(-9.64)" style="fill: #ededf1;opacity: 0.097561"/>
    <path d="M137,95.26l59.28,33.89a1.92,1.92,0,0,1,0,3.34L104,185.77a7.65,7.65,0,0,1-7.62,0L37.09,151.9a1.92,1.92,0,0,1,0-3.34l92.29-53.29A7.65,7.65,0,0,1,137,95.26Z" transform="translate(-9.64)" style="fill: #e9e9ed;opacity: 0.12195099999999999"/>
    <path d="M136.93,95.32,196,129.1a1.92,1.92,0,0,1,0,3.33l-92,53.12a7.62,7.62,0,0,1-7.6,0L37.33,151.78a1.92,1.92,0,0,1,0-3.33l92-53.12A7.62,7.62,0,0,1,136.93,95.32Z" transform="translate(-9.64)" style="fill: #e4e4e9;opacity: 0.146341"/>
    <path d="M136.87,95.37,195.78,129a1.91,1.91,0,0,1,0,3.32l-91.72,53a7.6,7.6,0,0,1-7.57,0L37.58,151.66a1.91,1.91,0,0,1,0-3.32l91.72-53A7.6,7.6,0,0,1,136.87,95.37Z" transform="translate(-9.64)" style="fill: #e0e0e6;opacity: 0.170732"/>
    <path d="M136.81,95.43,195.53,129a1.91,1.91,0,0,1,0,3.3L104.1,185.1a7.58,7.58,0,0,1-7.55,0L37.83,151.54a1.91,1.91,0,0,1,0-3.31l91.44-52.79A7.58,7.58,0,0,1,136.81,95.43Z" transform="translate(-9.64)" style="fill: #dbdbe2;opacity: 0.195122"/>
    <path d="M136.74,95.48l58.55,33.47a1.9,1.9,0,0,1,0,3.29l-91.15,52.63a7.55,7.55,0,0,1-7.53,0L38.07,151.42a1.9,1.9,0,0,1,0-3.29L129.22,95.5A7.55,7.55,0,0,1,136.74,95.48Z" transform="translate(-9.64)" style="fill: #d7d7de;opacity: 0.21951199999999998"/>
    <path d="M136.68,95.54,195,128.9a1.89,1.89,0,0,1,0,3.28l-90.87,52.46a7.53,7.53,0,0,1-7.5,0L38.32,151.3a1.89,1.89,0,0,1,0-3.28l90.87-52.46A7.53,7.53,0,0,1,136.68,95.54Z" transform="translate(-9.64)" style="fill: #d3d2db;opacity: 0.24390199999999998"/>
    <path d="M136.62,95.59l58.18,33.26a1.89,1.89,0,0,1,0,3.27l-90.58,52.3a7.51,7.51,0,0,1-7.48,0L38.56,151.18a1.89,1.89,0,0,1,0-3.27l90.58-52.3A7.51,7.51,0,0,1,136.62,95.59Z" transform="translate(-9.64)" style="fill: #ceced7;opacity: 0.268293"/>
    <path d="M136.56,95.65l58,33.15a1.88,1.88,0,0,1,0,3.26l-90.3,52.13a7.48,7.48,0,0,1-7.45,0l-58-33.15a1.88,1.88,0,0,1,0-3.26l90.3-52.13A7.48,7.48,0,0,1,136.56,95.65Z" transform="translate(-9.64)" style="fill: #cacad4;opacity: 0.29268299999999997"/>
    <path d="M136.49,95.71l57.81,33a1.88,1.88,0,0,1,0,3.25l-90,52a7.46,7.46,0,0,1-7.43,0l-57.81-33a1.88,1.88,0,0,1,0-3.25l90-52A7.46,7.46,0,0,1,136.49,95.71Z" transform="translate(-9.64)" style="fill: #c5c5d0;opacity: 0.317073"/>
    <path d="M136.43,95.76l57.63,32.94a1.87,1.87,0,0,1,0,3.24l-89.73,51.8a7.44,7.44,0,0,1-7.41,0L39.3,150.83a1.87,1.87,0,0,1,0-3.24L129,95.78A7.44,7.44,0,0,1,136.43,95.76Z" transform="translate(-9.64)" style="fill: #c1c1cc;opacity: 0.34146299999999996"/>
    <path d="M136.37,95.82l57.45,32.84a1.86,1.86,0,0,1,0,3.23l-89.44,51.64a7.41,7.41,0,0,1-7.38,0L39.55,150.71a1.86,1.86,0,0,1,0-3.23L129,95.83A7.41,7.41,0,0,1,136.37,95.82Z" transform="translate(-9.64)" style="fill: #bcbcc9;opacity: 0.36585399999999996"/>
    <path d="M136.3,95.87l57.26,32.73a1.86,1.86,0,0,1,0,3.22l-89.16,51.48a7.39,7.39,0,0,1-7.36,0L39.79,150.59a1.86,1.86,0,0,1,0-3.22l89.16-51.48A7.39,7.39,0,0,1,136.3,95.87Z" transform="translate(-9.64)" style="fill: #b8b8c5;opacity: 0.390244"/>
    <path d="M136.24,95.93l57.08,32.63a1.85,1.85,0,0,1,0,3.21l-88.87,51.31a7.36,7.36,0,0,1-7.34,0L40,150.47a1.85,1.85,0,0,1,0-3.21L128.9,95.94A7.36,7.36,0,0,1,136.24,95.93Z" transform="translate(-9.64)" style="fill: #b3b3c1;opacity: 0.414634"/>
    <path d="M136.18,96l56.9,32.52a1.85,1.85,0,0,1,0,3.2L104.5,182.86a7.34,7.34,0,0,1-7.31,0l-56.9-32.52a1.85,1.85,0,0,1,0-3.2L128.87,96A7.34,7.34,0,0,1,136.18,96Z" transform="translate(-9.64)" style="fill: #afafbe;opacity: 0.43902399999999997"/>
    <path d="M136.12,96l56.71,32.42a1.84,1.84,0,0,1,0,3.19l-88.3,51a7.32,7.32,0,0,1-7.29,0L40.53,150.23a1.84,1.84,0,0,1,0-3.19l88.3-51A7.32,7.32,0,0,1,136.12,96Z" transform="translate(-9.64)" style="fill: #aaaaba;opacity: 0.46341499999999997"/>
    <path d="M136.05,96.1l56.53,32.32a1.83,1.83,0,0,1,0,3.18l-88,50.82a7.29,7.29,0,0,1-7.27,0L40.78,150.11a1.83,1.83,0,0,1,0-3.18l88-50.82A7.29,7.29,0,0,1,136.05,96.1Z" transform="translate(-9.64)" style="fill: #a6a6b7;opacity: 0.487805"/>
    <path d="M136,96.15l56.35,32.21a1.83,1.83,0,0,1,0,3.17l-87.73,50.65a7.27,7.27,0,0,1-7.24,0L41,150a1.83,1.83,0,0,1,0-3.17l87.73-50.65A7.27,7.27,0,0,1,136,96.15Z" transform="translate(-9.64)" style="fill: #a2a2b3;opacity: 0.512195"/>
    <path d="M135.93,96.21l56.17,32.11a1.82,1.82,0,0,1,0,3.16L104.65,182a7.25,7.25,0,0,1-7.22,0L41.27,149.87a1.82,1.82,0,0,1,0-3.16l87.45-50.49A7.25,7.25,0,0,1,135.93,96.21Z" transform="translate(-9.64)" style="fill: #9d9daf;opacity: 0.536585"/>
    <path d="M135.87,96.26l56,32a1.82,1.82,0,0,1,0,3.15l-87.16,50.32a7.22,7.22,0,0,1-7.2,0l-56-32a1.82,1.82,0,0,1,0-3.15l87.16-50.32A7.22,7.22,0,0,1,135.87,96.26Z" transform="translate(-9.64)" style="fill: #9999ac;opacity: 0.5609759999999999"/>
    <path d="M135.8,96.32l55.8,31.9a1.81,1.81,0,0,1,0,3.14l-86.88,50.16a7.2,7.2,0,0,1-7.17,0l-55.8-31.9a1.81,1.81,0,0,1,0-3.14l86.88-50.16A7.2,7.2,0,0,1,135.8,96.32Z" transform="translate(-9.64)" style="fill: #9494a8;opacity: 0.5853659999999999"/>
    <path d="M135.74,96.38l55.62,31.79a1.8,1.8,0,0,1,0,3.13l-86.59,50a7.18,7.18,0,0,1-7.15,0L42,149.51a1.8,1.8,0,0,1,0-3.13l86.59-50A7.18,7.18,0,0,1,135.74,96.38Z" transform="translate(-9.64)" style="fill: #9090a5;opacity: 0.609756"/>
    <path d="M135.68,96.43l55.43,31.69a1.8,1.8,0,0,1,0,3.12l-86.31,49.83a7.15,7.15,0,0,1-7.13,0L42.25,149.4a1.8,1.8,0,0,1,0-3.12l86.31-49.83A7.15,7.15,0,0,1,135.68,96.43Z" transform="translate(-9.64)" style="fill: #8b8ba1;opacity: 0.634146"/>
    <path d="M135.61,96.49l55.25,31.58a1.79,1.79,0,0,1,0,3.11l-86,49.66a7.13,7.13,0,0,1-7.1,0L42.5,149.28a1.79,1.79,0,0,1,0-3.11l86-49.66A7.13,7.13,0,0,1,135.61,96.49Z" transform="translate(-9.64)" style="fill: #87879d;opacity: 0.6585369999999999"/>
    <path d="M135.55,96.54,190.62,128a1.79,1.79,0,0,1,0,3.1l-85.74,49.5a7.1,7.1,0,0,1-7.08,0L42.74,149.16a1.79,1.79,0,0,1,0-3.1l85.74-49.5A7.1,7.1,0,0,1,135.55,96.54Z" transform="translate(-9.64)" style="fill: #82829a;opacity: 0.682927"/>
    <path d="M135.49,96.6,190.37,128a1.78,1.78,0,0,1,0,3.09L104.93,180.4a7.08,7.08,0,0,1-7.05,0L43,149a1.78,1.78,0,0,1,0-3.09l85.45-49.34A7.08,7.08,0,0,1,135.49,96.6Z" transform="translate(-9.64)" style="fill: #7e7e96;opacity: 0.707317"/>
    <path d="M135.43,96.65l54.7,31.27a1.78,1.78,0,0,1,0,3.08L105,180.17a7.06,7.06,0,0,1-7,0l-54.7-31.27a1.78,1.78,0,0,1,0-3.08l85.17-49.17A7.06,7.06,0,0,1,135.43,96.65Z" transform="translate(-9.64)" style="fill: #7a7992;opacity: 0.731707"/>
    <path d="M135.36,96.71l54.52,31.16a1.77,1.77,0,0,1,0,3.07l-84.88,49a7,7,0,0,1-7,0L43.48,148.8a1.77,1.77,0,0,1,0-3.07l84.88-49A7,7,0,0,1,135.36,96.71Z" transform="translate(-9.64)" style="fill: #75758f;opacity: 0.7560979999999999"/>
    <path d="M135.3,96.77l54.33,31.06a1.76,1.76,0,0,1,0,3.06L105,179.72a7,7,0,0,1-7,0L43.73,148.68a1.76,1.76,0,0,1,0-3.06l84.6-48.84A7,7,0,0,1,135.3,96.77Z" transform="translate(-9.64)" style="fill: #71718b;opacity: 0.780488"/>
    <path d="M135.24,96.82l54.15,31a1.76,1.76,0,0,1,0,3L105.08,179.5a7,7,0,0,1-7,0L44,148.56a1.76,1.76,0,0,1,0-3l84.31-48.68A7,7,0,0,1,135.24,96.82Z" transform="translate(-9.64)" style="fill: #6c6c88;opacity: 0.804878"/>
    <path d="M135.17,96.88l54,30.85a1.75,1.75,0,0,1,0,3l-84,48.51a7,7,0,0,1-6.94,0l-54-30.85a1.75,1.75,0,0,1,0-3l84-48.51A7,7,0,0,1,135.17,96.88Z" transform="translate(-9.64)" style="fill: #686884;opacity: 0.829268"/>
    <path d="M135.11,96.93l53.78,30.75a1.75,1.75,0,0,1,0,3l-83.74,48.35a6.94,6.94,0,0,1-6.91,0L44.46,148.32a1.75,1.75,0,0,1,0-3L128.2,96.95A6.94,6.94,0,0,1,135.11,96.93Z" transform="translate(-9.64)" style="fill: #636380;opacity: 0.853659"/>
    <path d="M135,97l53.6,30.64a1.74,1.74,0,0,1,0,3L105.2,178.83a6.92,6.92,0,0,1-6.89,0L44.71,148.2a1.74,1.74,0,0,1,0-3L128.16,97A6.92,6.92,0,0,1,135,97Z" transform="translate(-9.64)" style="fill: #5f5f7d;opacity: 0.878049"/>
    <path d="M135,97l53.42,30.54a1.73,1.73,0,0,1,0,3l-83.17,48a6.89,6.89,0,0,1-6.87,0L45,148.08a1.73,1.73,0,0,1,0-3l83.17-48A6.89,6.89,0,0,1,135,97Z" transform="translate(-9.64)" style="fill: #5a5a79;opacity: 0.902439"/>
    <path d="M134.92,97.1l53.24,30.43a1.73,1.73,0,0,1,0,3l-82.89,47.85a6.87,6.87,0,0,1-6.84,0L45.2,148a1.73,1.73,0,0,1,0-3l82.89-47.85A6.87,6.87,0,0,1,134.92,97.1Z" transform="translate(-9.64)" style="fill: #565676;opacity: 0.9268289999999999"/>
    <path d="M134.86,97.16l53.05,30.33a1.72,1.72,0,0,1,0,3l-82.6,47.69a6.85,6.85,0,0,1-6.82,0L45.45,147.85a1.72,1.72,0,0,1,0-3L128,97.17A6.84,6.84,0,0,1,134.86,97.16Z" transform="translate(-9.64)" style="fill: #525172;opacity: 0.9512200000000001"/>
    <path d="M134.8,97.21l52.87,30.22a1.72,1.72,0,0,1,0,3l-82.32,47.53a6.82,6.82,0,0,1-6.8,0L45.69,147.73a1.72,1.72,0,0,1,0-3L128,97.23A6.82,6.82,0,0,1,134.8,97.21Z" transform="translate(-9.64)" style="fill: #4d4d6e;opacity: 0.9756100000000001"/>
    <path id="d0a275f0-cfa4-4fcd-918f-ce7b8aa85b57" data-name="&lt;Path&gt;" d="M134.74,97.27l52.69,30.12a1.71,1.71,0,0,1,0,3l-82,47.36a6.8,6.8,0,0,1-6.77,0L45.94,147.61a1.71,1.71,0,0,1,0-3l82-47.36A6.8,6.8,0,0,1,134.74,97.27Z" transform="translate(-9.64)" style="fill: #49486b"/>
  </g>
  <g>
    <polygon points="77.73 26.21 77.71 31.67 41.51 10.77 41.24 104.71 36.49 101.97 36.76 8.03 36.77 2.57 41.52 5.31 77.73 26.21" style="fill: url(#5f6cf8b2-c3f5-4d78-be44-8151ca792ba1)"/>
    <polygon points="41.24 104.71 45.66 102.14 45.93 8.2 41.51 10.77 41.24 104.71" style="fill: url(#6c4132d5-113f-4f87-8331-7745c1144392)"/>
    <path id="79984fbb-c9f8-4c71-907c-837377a492c1" data-name="&lt;Path&gt;" d="M33.82,61.15,130.17,5.52a2,2,0,0,1,2.93,1.69V79.83A4.24,4.24,0,0,1,131,83.5L34.62,139.14a2,2,0,0,1-2.93-1.69V64.83A4.24,4.24,0,0,1,33.82,61.15Z" transform="translate(-9.64)" style="fill: url(#03623734-f326-4421-a262-837c9a5f78ad)"/>
    <path id="281a98ec-a3fc-474d-bfad-1e90acf8b72f" data-name="&lt;Path&gt;" d="M35.06,62,131.42,6.35A2,2,0,0,1,134.35,8V80.66a4.24,4.24,0,0,1-2.12,3.68L35.87,140a2,2,0,0,1-2.93-1.69V65.66A4.24,4.24,0,0,1,35.06,62Z" transform="translate(-9.64)" style="fill: #49486b"/>
    <polygon id="729cf7ff-47e8-4c46-bf13-8351ee5890bc" data-name="&lt;Path&gt;" points="29.01 66.57 119.68 13.92 119.68 80.34 29.01 133 29.01 66.57" style="fill: #fff"/>
    <g>
      <polygon points="58.78 67.68 58.79 87.77 37.24 100.17 37.23 80.08 44.29 76.01 45.82 75.12 50.19 72.64 51.72 71.76 58.78 67.68" style="fill: #d4daed"/>
      <polygon points="86.76 52.6 86.78 72.69 65.23 85.09 65.21 65 72.27 60.92 73.8 60.04 78.17 57.56 79.7 56.68 86.76 52.6" style="fill: #d4daed"/>
      <polygon points="114.52 37.4 114.53 57.48 92.98 69.88 92.97 49.8 100.03 45.72 101.56 44.84 105.93 42.36 107.46 41.48 114.52 37.4" style="fill: #d4daed"/>
      <polygon points="63.41 89.5 63.43 109.58 37.24 124.56 37.23 104.47 44.29 100.39 45.82 99.51 54.82 94.46 56.35 93.58 63.41 89.5" style="fill: #d4daed"/>
    </g>
    <path id="6671f854-41d8-40bd-af65-7c8131fda861" data-name="&lt;Path&gt;" d="M138.26,87.83,200,120.38s.34,4.82-1,5.58l-94.54,54.58a7.83,7.83,0,0,1-7.8,0L35.92,145.85c-2.51-1.56-1-5.59-1-5.59l95.53-52.41A7.83,7.83,0,0,1,138.26,87.83Z" transform="translate(-9.64)" style="fill: url(#10930dea-0aef-425a-bead-2ae15b11531d)"/>
    <path id="afb059e9-26ab-468f-a120-06de4994fce5" data-name="&lt;Path&gt;" d="M138.26,84.1,199,118.81a2,2,0,0,1,0,3.42l-94.54,54.58a7.83,7.83,0,0,1-7.8,0L35.92,142.11a2,2,0,0,1,0-3.42l94.54-54.58A7.83,7.83,0,0,1,138.26,84.1Z" transform="translate(-9.64)" style="fill: #f7f7f7"/>
    <path id="ad7284b8-81ec-4a18-b4ed-9a2175783084" data-name="&lt;Path&gt;" d="M143.64,129l16,9.15a.52.52,0,0,1,0,.9l-24.92,14.39a2.07,2.07,0,0,1-2.06,0l-16-9.15a.52.52,0,0,1,0-.9L141.58,129A2.06,2.06,0,0,1,143.64,129Z" transform="translate(-9.64)" style="fill: #e5e9f4"/>
    <path id="ce89bef6-9654-455b-8941-da09be8da9ab" data-name="&lt;Path&gt;" d="M131.56,89.4l-5.23,3a.31.31,0,0,0,0,.54l2.6,1.49a.67.67,0,0,0,.67,0l5.23-3a.31.31,0,0,0,0-.54l-2.6-1.49A.67.67,0,0,0,131.56,89.4Z" transform="translate(-9.64)" style="fill: #d4daed"/>
    <path id="be4a0179-0fa1-4ca9-bb8e-7c6922a68af6" data-name="&lt;Path&gt;" d="M123.89,94l-5.23,3a.31.31,0,0,0,0,.54l2.6,1.49a.67.67,0,0,0,.67,0l5.23-3a.31.31,0,0,0,0-.54L124.57,94A.67.67,0,0,0,123.89,94Z" transform="translate(-9.64)" style="fill: #d4daed"/>
    <path id="16a2bb9b-47ac-4611-9ffe-133ef5982305" data-name="&lt;Path&gt;" d="M116.2,98.29l-5.23,3a.31.31,0,0,0,0,.54l2.6,1.49a.67.67,0,0,0,.67,0l5.23-3a.31.31,0,0,0,0-.54l-2.6-1.49A.67.67,0,0,0,116.2,98.29Z" transform="translate(-9.64)" style="fill: #d4daed"/>
    <path id="1bcb8426-378a-4ca1-991a-06d4186e6d75" data-name="&lt;Path&gt;" d="M108.27,102.75l-5.23,3a.31.31,0,0,0,0,.54l2.6,1.49a.67.67,0,0,0,.67,0l5.23-3a.31.31,0,0,0,0-.54l-2.6-1.49A.67.67,0,0,0,108.27,102.75Z" transform="translate(-9.64)" style="fill: #d4daed"/>
    <path id="54b584cd-3307-4389-8182-dd0930eed59c" data-name="&lt;Path&gt;" d="M100.66,107l-5.23,3a.31.31,0,0,0,0,.54l2.6,1.49a.67.67,0,0,0,.67,0l5.23-3a.31.31,0,0,0,0-.54l-2.6-1.49A.68.68,0,0,0,100.66,107Z" transform="translate(-9.64)" style="fill: #d4daed"/>
    <path id="7de7392b-4ee2-49a6-ae48-0f646451bcd6" data-name="&lt;Path&gt;" d="M93.26,111.57l-5.23,3a.31.31,0,0,0,0,.54l2.6,1.49a.68.68,0,0,0,.67,0l5.23-3a.31.31,0,0,0,0-.54l-2.6-1.49A.67.67,0,0,0,93.26,111.57Z" transform="translate(-9.64)" style="fill: #d4daed"/>
    <path id="cce87798-db8f-4e1a-8c0b-6214470e9e04" data-name="&lt;Path&gt;" d="M85.51,115.84l-5.23,3a.31.31,0,0,0,0,.54l2.6,1.49a.67.67,0,0,0,.67,0l5.23-3a.31.31,0,0,0,0-.54l-2.6-1.49A.67.67,0,0,0,85.51,115.84Z" transform="translate(-9.64)" style="fill: #d4daed"/>
    <path id="fc6e806d-1344-449d-9e09-5b42fedcb842" data-name="&lt;Path&gt;" d="M77.87,120.38l-5.23,3a.31.31,0,0,0,0,.54l2.6,1.49a.67.67,0,0,0,.67,0l5.23-3a.31.31,0,0,0,0-.54l-2.6-1.49A.67.67,0,0,0,77.87,120.38Z" transform="translate(-9.64)" style="fill: #d4daed"/>
    <path id="2cb212a0-b48a-4b7d-8fd3-722bced27848" data-name="&lt;Path&gt;" d="M70.37,124.81l-5.23,3a.31.31,0,0,0,0,.54l2.6,1.49a.67.67,0,0,0,.67,0l5.23-3a.31.31,0,0,0,0-.54L71,124.81A.67.67,0,0,0,70.37,124.81Z" transform="translate(-9.64)" style="fill: #d4daed"/>
    <path id="d430c7e6-3c25-4fa8-9e37-44842ec17749" data-name="&lt;Path&gt;" d="M62.45,129.37l-5.23,3a.31.31,0,0,0,0,.54l2.6,1.49a.67.67,0,0,0,.67,0l5.23-3a.31.31,0,0,0,0-.54l-2.6-1.49A.67.67,0,0,0,62.45,129.37Z" transform="translate(-9.64)" style="fill: #d4daed"/>
    <path id="e5d09b6b-a295-4584-8009-0583b9ded70b" data-name="&lt;Path&gt;" d="M54.76,133.69l-5.23,3a.31.31,0,0,0,0,.54l2.6,1.49a.67.67,0,0,0,.67,0l5.23-3a.31.31,0,0,0,0-.54l-2.6-1.49A.67.67,0,0,0,54.76,133.69Z" transform="translate(-9.64)" style="fill: #d4daed"/>
    <g id="4924f868-fb14-410d-aa21-a6cb2c501e07" data-name="&lt;Group&gt;">
      <path id="933c61c9-3716-4573-9327-36f0dbbdb0c5" data-name="&lt;Path&gt;" d="M142.2,95.09,138.66,93a1.48,1.48,0,0,0-1.49,0l-3.46,2a.74.74,0,0,0,0,1.27l3.44,2.11a1.48,1.48,0,0,0,1.52,0l3.55-2A.74.74,0,0,0,142.2,95.09Z" transform="translate(-9.64)" style="fill: #d4daed"/>
      <path id="86a2c8e3-618a-432b-a39f-e998c117a2b4" data-name="&lt;Path&gt;" d="M134.27,99.66l-3.54-2.08a1.48,1.48,0,0,0-1.49,0l-3.46,2a.74.74,0,0,0,0,1.27l3.44,2.11a1.48,1.48,0,0,0,1.52,0l3.55-2A.74.74,0,0,0,134.27,99.66Z" transform="translate(-9.64)" style="fill: #d4daed"/>
      <path id="f8a97250-9efc-4686-980b-93c9259c82bf" data-name="&lt;Path&gt;" d="M126.56,104,123,101.91a1.48,1.48,0,0,0-1.49,0l-3.46,2a.74.74,0,0,0,0,1.27l3.44,2.11a1.48,1.48,0,0,0,1.52,0l3.55-2A.74.74,0,0,0,126.56,104Z" transform="translate(-9.64)" style="fill: #d4daed"/>
      <path id="90e0b6ae-5dfc-4f94-91c6-7d78b32d8bc1" data-name="&lt;Path&gt;" d="M118.36,108.45l-3.54-2.08a1.48,1.48,0,0,0-1.49,0l-3.46,2a.74.74,0,0,0,0,1.27l3.44,2.11a1.48,1.48,0,0,0,1.52,0l3.55-2A.74.74,0,0,0,118.36,108.45Z" transform="translate(-9.64)" style="fill: #d4daed"/>
      <path id="662d86c3-0125-4468-88ab-d5784df7540e" data-name="&lt;Path&gt;" d="M111.14,112.69l-3.54-2.08a1.48,1.48,0,0,0-1.49,0l-3.46,2a.74.74,0,0,0,0,1.27l3.44,2.11a1.48,1.48,0,0,0,1.52,0l3.55-2A.74.74,0,0,0,111.14,112.69Z" transform="translate(-9.64)" style="fill: #d4daed"/>
      <path id="149542ab-15cd-4a5b-85fe-019d743a7a97" data-name="&lt;Path&gt;" d="M103.81,117.23l-3.54-2.08a1.48,1.48,0,0,0-1.49,0l-3.46,2a.74.74,0,0,0,0,1.27l3.44,2.11a1.48,1.48,0,0,0,1.52,0l3.55-2A.74.74,0,0,0,103.81,117.23Z" transform="translate(-9.64)" style="fill: #d4daed"/>
      <path id="a16b7b7b-3eb6-425b-b11b-e6aa160fba87" data-name="&lt;Path&gt;" d="M96,121.53l-3.54-2.08a1.48,1.48,0,0,0-1.49,0l-3.46,2a.74.74,0,0,0,0,1.27l3.44,2.11a1.48,1.48,0,0,0,1.52,0l3.55-2A.74.74,0,0,0,96,121.53Z" transform="translate(-9.64)" style="fill: #d4daed"/>
      <path id="4ce4d1e3-879d-44cb-9c8c-46c726558e47" data-name="&lt;Path&gt;" d="M88.29,125.88l-3.54-2.08a1.48,1.48,0,0,0-1.49,0l-3.46,2a.74.74,0,0,0,0,1.27l3.44,2.11a1.48,1.48,0,0,0,1.52,0l3.55-2A.74.74,0,0,0,88.29,125.88Z" transform="translate(-9.64)" style="fill: #d4daed"/>
      <path id="5b945c2b-16ac-496f-90a1-dae64e3eedc9" data-name="&lt;Path&gt;" d="M80.75,130.51l-3.54-2.08a1.48,1.48,0,0,0-1.49,0l-3.46,2a.74.74,0,0,0,0,1.27l3.44,2.11a1.48,1.48,0,0,0,1.52,0l3.55-2A.74.74,0,0,0,80.75,130.51Z" transform="translate(-9.64)" style="fill: #d4daed"/>
      <path id="1715e7bc-3214-419a-ba49-ab644f22ce9c" data-name="&lt;Path&gt;" d="M72.53,135.35,69,133.27a1.48,1.48,0,0,0-1.49,0l-3.46,2a.74.74,0,0,0,0,1.27l3.44,2.11a1.48,1.48,0,0,0,1.52,0l3.55-2A.74.74,0,0,0,72.53,135.35Z" transform="translate(-9.64)" style="fill: #d4daed"/>
      <path id="57e54c31-274c-4c61-9296-186d1b3e83b1" data-name="&lt;Path&gt;" d="M65.1,139.38l-3.54-2.08a1.48,1.48,0,0,0-1.49,0l-3.46,2a.74.74,0,0,0,0,1.27L60,142.68a1.48,1.48,0,0,0,1.52,0l3.55-2A.74.74,0,0,0,65.1,139.38Z" transform="translate(-9.64)" style="fill: #d4daed"/>
    </g>
    <g id="8e3c6213-7137-4d7e-b0fe-0f131bf5c6bd" data-name="&lt;Group&gt;">
      <path id="2faa270b-3d25-4f88-ae55-67b0a271b815" data-name="&lt;Path&gt;" d="M150.1,99.39l-3.54-2.08a1.48,1.48,0,0,0-1.49,0l-3.46,2a.74.74,0,0,0,0,1.27l3.44,2.11a1.48,1.48,0,0,0,1.52,0l3.55-2A.74.74,0,0,0,150.1,99.39Z" transform="translate(-9.64)" style="fill: #d4daed"/>
      <path id="85742643-dce9-483e-a0d2-63a3702dfe6e" data-name="&lt;Path&gt;" d="M142.16,104l-3.54-2.08a1.48,1.48,0,0,0-1.49,0l-3.46,2a.74.74,0,0,0,0,1.27l3.44,2.11a1.48,1.48,0,0,0,1.52,0l3.55-2A.74.74,0,0,0,142.16,104Z" transform="translate(-9.64)" style="fill: #d4daed"/>
      <path id="99a9c26a-acfc-4c4c-bced-cb7086eb522e" data-name="&lt;Path&gt;" d="M134.46,108.28l-3.54-2.08a1.48,1.48,0,0,0-1.49,0l-3.46,2a.74.74,0,0,0,0,1.27l3.44,2.11a1.48,1.48,0,0,0,1.52,0l3.55-2A.74.74,0,0,0,134.46,108.28Z" transform="translate(-9.64)" style="fill: #d4daed"/>
      <path id="8aa09dbb-32d3-4e8c-b1f0-a23332df435a" data-name="&lt;Path&gt;" d="M126.26,112.74l-3.54-2.08a1.48,1.48,0,0,0-1.49,0l-3.46,2a.74.74,0,0,0,0,1.27l3.44,2.11a1.48,1.48,0,0,0,1.52,0l3.55-2A.74.74,0,0,0,126.26,112.74Z" transform="translate(-9.64)" style="fill: #d4daed"/>
      <path id="dd6fad96-77fe-4bb9-8c7b-015ef6d1997d" data-name="&lt;Path&gt;" d="M119,117l-3.54-2.08a1.48,1.48,0,0,0-1.49,0l-3.46,2a.74.74,0,0,0,0,1.27l3.44,2.11a1.48,1.48,0,0,0,1.52,0l3.55-2A.74.74,0,0,0,119,117Z" transform="translate(-9.64)" style="fill: #d4daed"/>
      <path id="5c72b02f-d5f6-40e8-99ca-542c497a892b" data-name="&lt;Path&gt;" d="M111.7,121.53l-3.54-2.08a1.48,1.48,0,0,0-1.49,0l-3.46,2a.74.74,0,0,0,0,1.27l3.44,2.11a1.48,1.48,0,0,0,1.52,0l3.55-2A.74.74,0,0,0,111.7,121.53Z" transform="translate(-9.64)" style="fill: #d4daed"/>
      <path id="02c0e9e9-fabc-473a-b168-9b04802d906b" data-name="&lt;Path&gt;" d="M103.86,125.82l-3.54-2.08a1.48,1.48,0,0,0-1.49,0l-3.46,2a.74.74,0,0,0,0,1.27l3.44,2.11a1.48,1.48,0,0,0,1.52,0l3.55-2A.74.74,0,0,0,103.86,125.82Z" transform="translate(-9.64)" style="fill: #d4daed"/>
      <path id="6a6aff93-65b8-471d-9e9b-791c1e49d5d2" data-name="&lt;Path&gt;" d="M96.19,130.17l-3.54-2.08a1.48,1.48,0,0,0-1.49,0l-3.46,2a.74.74,0,0,0,0,1.27l3.44,2.11a1.48,1.48,0,0,0,1.52,0l3.55-2A.74.74,0,0,0,96.19,130.17Z" transform="translate(-9.64)" style="fill: #d4daed"/>
      <path id="82f594a9-13d3-4ceb-b179-7ccd5732dfe0" data-name="&lt;Path&gt;" d="M88.64,134.8l-3.54-2.08a1.48,1.48,0,0,0-1.49,0l-3.46,2a.74.74,0,0,0,0,1.27l3.44,2.11a1.48,1.48,0,0,0,1.52,0l3.55-2A.74.74,0,0,0,88.64,134.8Z" transform="translate(-9.64)" style="fill: #d4daed"/>
      <path id="0faadfea-0a1a-43b9-a58d-7b2b31a0f58b" data-name="&lt;Path&gt;" d="M80.43,139.64l-3.54-2.08a1.48,1.48,0,0,0-1.49,0l-3.46,2a.74.74,0,0,0,0,1.27l3.44,2.11a1.48,1.48,0,0,0,1.52,0l3.55-2A.74.74,0,0,0,80.43,139.64Z" transform="translate(-9.64)" style="fill: #d4daed"/>
      <path id="0c10a649-6108-4b5b-84b0-19e7a24523a0" data-name="&lt;Path&gt;" d="M73,143.67l-3.54-2.08a1.48,1.48,0,0,0-1.49,0l-3.46,2a.74.74,0,0,0,0,1.27L67.92,147a1.48,1.48,0,0,0,1.52,0l3.55-2A.74.74,0,0,0,73,143.67Z" transform="translate(-9.64)" style="fill: #d4daed"/>
    </g>
    <g id="a8c75092-57f1-4e5f-b4f0-227b5cb34000" data-name="&lt;Group&gt;">
      <path id="f0d5c8c3-507a-488d-97e6-c7d58c8c3e5c" data-name="&lt;Path&gt;" d="M158,103.68l-3.54-2.08a1.48,1.48,0,0,0-1.49,0l-3.46,2a.74.74,0,0,0,0,1.27l3.44,2.11a1.48,1.48,0,0,0,1.52,0l3.55-2A.74.74,0,0,0,158,103.68Z" transform="translate(-9.64)" style="fill: #d4daed"/>
      <path id="bc564bfb-aadf-44e0-99ea-0dd56180982c" data-name="&lt;Path&gt;" d="M150.06,108.25l-3.54-2.08a1.48,1.48,0,0,0-1.49,0l-3.46,2a.74.74,0,0,0,0,1.27l3.44,2.11a1.48,1.48,0,0,0,1.52,0l3.55-2A.74.74,0,0,0,150.06,108.25Z" transform="translate(-9.64)" style="fill: #d4daed"/>
      <path id="41e6a4d4-a727-4648-9114-d921a9f4f1d5" data-name="&lt;Path&gt;" d="M142.35,112.57l-3.54-2.08a1.48,1.48,0,0,0-1.49,0l-3.46,2a.74.74,0,0,0,0,1.27l3.44,2.11a1.48,1.48,0,0,0,1.52,0l3.55-2A.74.74,0,0,0,142.35,112.57Z" transform="translate(-9.64)" style="fill: #d4daed"/>
      <path id="421bf904-74c1-40b6-bd84-57ee72b8a69b" data-name="&lt;Path&gt;" d="M134.16,117,130.61,115a1.48,1.48,0,0,0-1.49,0l-3.46,2a.74.74,0,0,0,0,1.27l3.44,2.11a1.48,1.48,0,0,0,1.52,0l3.55-2A.74.74,0,0,0,134.16,117Z" transform="translate(-9.64)" style="fill: #d4daed"/>
      <path id="4447bbd0-bb90-4bbc-9ecb-86de31f69869" data-name="&lt;Path&gt;" d="M126.94,121.28l-3.54-2.08a1.48,1.48,0,0,0-1.49,0l-3.46,2a.74.74,0,0,0,0,1.27l3.44,2.11a1.48,1.48,0,0,0,1.52,0l3.55-2A.74.74,0,0,0,126.94,121.28Z" transform="translate(-9.64)" style="fill: #d4daed"/>
      <path id="77cbaf2e-6704-4a79-8ed1-118a847188f9" data-name="&lt;Path&gt;" d="M119.6,125.82l-3.54-2.08a1.48,1.48,0,0,0-1.49,0l-3.46,2a.74.74,0,0,0,0,1.27l3.44,2.11a1.48,1.48,0,0,0,1.52,0l3.55-2A.74.74,0,0,0,119.6,125.82Z" transform="translate(-9.64)" style="fill: #d4daed"/>
      <path id="b6f8accb-7e6b-44cb-8e68-b0b13ddb3da2" data-name="&lt;Path&gt;" d="M111.76,130.12,108.21,128a1.48,1.48,0,0,0-1.49,0l-3.46,2a.74.74,0,0,0,0,1.27l3.44,2.11a1.48,1.48,0,0,0,1.52,0l3.55-2A.74.74,0,0,0,111.76,130.12Z" transform="translate(-9.64)" style="fill: #d4daed"/>
      <path id="3629b5e3-b66f-4e86-9532-1fa119c8a603" data-name="&lt;Path&gt;" d="M104.09,134.47l-3.54-2.08a1.48,1.48,0,0,0-1.49,0l-3.46,2a.74.74,0,0,0,0,1.27L99,137.77a1.48,1.48,0,0,0,1.52,0l3.55-2A.74.74,0,0,0,104.09,134.47Z" transform="translate(-9.64)" style="fill: #d4daed"/>
      <path id="294308ea-0e2f-4bdf-a0f4-e6546ea82152" data-name="&lt;Path&gt;" d="M96.54,139.09,93,137a1.48,1.48,0,0,0-1.49,0L88,139a.74.74,0,0,0,0,1.27l3.44,2.11a1.48,1.48,0,0,0,1.52,0l3.55-2A.74.74,0,0,0,96.54,139.09Z" transform="translate(-9.64)" style="fill: #d4daed"/>
      <path id="5ebc818c-4abb-48cb-84a8-d22c181c7bd8" data-name="&lt;Path&gt;" d="M88.32,143.94l-3.54-2.08a1.48,1.48,0,0,0-1.49,0l-3.46,2a.74.74,0,0,0,0,1.27l3.44,2.11a1.48,1.48,0,0,0,1.52,0l3.55-2A.74.74,0,0,0,88.32,143.94Z" transform="translate(-9.64)" style="fill: #d4daed"/>
      <path id="c33916da-1a7b-470e-9efd-1d2543a0a9da" data-name="&lt;Path&gt;" d="M80.89,148l-3.54-2.08a1.48,1.48,0,0,0-1.49,0l-3.46,2a.74.74,0,0,0,0,1.27l3.44,2.11a1.48,1.48,0,0,0,1.52,0l3.55-2A.74.74,0,0,0,80.89,148Z" transform="translate(-9.64)" style="fill: #d4daed"/>
    </g>
    <g id="cb885ba4-8a7a-4b12-9f11-96a18f30fc54" data-name="&lt;Group&gt;">
      <path id="2af09911-0814-4585-99be-30e4f22f6580" data-name="&lt;Path&gt;" d="M165.89,108l-3.54-2.08a1.48,1.48,0,0,0-1.49,0l-3.46,2a.74.74,0,0,0,0,1.27l3.44,2.11a1.48,1.48,0,0,0,1.52,0l3.55-2A.74.74,0,0,0,165.89,108Z" transform="translate(-9.64)" style="fill: #d4daed"/>
      <path id="8ab0b634-b18b-42e4-b8a0-db26cf46bc71" data-name="&lt;Path&gt;" d="M158,112.54l-3.54-2.08a1.48,1.48,0,0,0-1.49,0l-3.46,2a.74.74,0,0,0,0,1.27l3.44,2.11a1.48,1.48,0,0,0,1.52,0l3.55-2A.74.74,0,0,0,158,112.54Z" transform="translate(-9.64)" style="fill: #d4daed"/>
      <path id="fd808620-6313-486e-b05e-854db2d9c2f4" data-name="&lt;Path&gt;" d="M150.25,116.86l-3.54-2.08a1.48,1.48,0,0,0-1.49,0l-3.46,2a.74.74,0,0,0,0,1.27l3.44,2.11a1.48,1.48,0,0,0,1.52,0l3.55-2A.74.74,0,0,0,150.25,116.86Z" transform="translate(-9.64)" style="fill: #d4daed"/>
      <path id="ecb2a545-d94b-4a64-8218-c13239982a3d" data-name="&lt;Path&gt;" d="M142.06,121.33l-3.54-2.08a1.48,1.48,0,0,0-1.49,0l-3.46,2a.74.74,0,0,0,0,1.27l3.44,2.11a1.48,1.48,0,0,0,1.52,0l3.55-2A.74.74,0,0,0,142.06,121.33Z" transform="translate(-9.64)" style="fill: #d4daed"/>
      <path id="6573d704-af0f-4714-8a30-9b889e585434" data-name="&lt;Path&gt;" d="M134.16,126,130.61,124a1.48,1.48,0,0,0-1.49,0l-18,10.41a.74.74,0,0,0,0,1.27l3.44,2.11a1.48,1.48,0,0,0,1.52,0l18.11-10.45A.74.74,0,0,0,134.16,126Z" transform="translate(-9.64)" style="fill: #d4daed"/>
      <path id="5e1f1594-eba8-405f-ab3e-c3cd14012734" data-name="&lt;Path&gt;" d="M112,138.76l-3.54-2.08a1.48,1.48,0,0,0-1.49,0l-3.46,2a.74.74,0,0,0,0,1.27l3.44,2.11a1.48,1.48,0,0,0,1.52,0l3.55-2A.74.74,0,0,0,112,138.76Z" transform="translate(-9.64)" style="fill: #d4daed"/>
      <path id="4319bde3-e1d4-4f86-bad5-2b95deb67574" data-name="&lt;Path&gt;" d="M104.44,143.39l-3.54-2.08a1.48,1.48,0,0,0-1.49,0l-3.46,2a.74.74,0,0,0,0,1.27l3.44,2.11a1.48,1.48,0,0,0,1.52,0l3.55-2A.74.74,0,0,0,104.44,143.39Z" transform="translate(-9.64)" style="fill: #d4daed"/>
      <path id="0c93f002-41ab-43ce-b2e1-7ab6c525573b" data-name="&lt;Path&gt;" d="M96.22,148.23l-3.54-2.08a1.48,1.48,0,0,0-1.49,0l-3.46,2a.74.74,0,0,0,0,1.27l3.44,2.11a1.48,1.48,0,0,0,1.52,0l3.55-2A.74.74,0,0,0,96.22,148.23Z" transform="translate(-9.64)" style="fill: #d4daed"/>
      <path id="38159945-6ff7-42d2-8282-e22024420df0" data-name="&lt;Path&gt;" d="M88.79,152.26l-3.54-2.08a1.48,1.48,0,0,0-1.49,0l-3.46,2a.74.74,0,0,0,0,1.27l3.44,2.11a1.48,1.48,0,0,0,1.52,0l3.55-2A.74.74,0,0,0,88.79,152.26Z" transform="translate(-9.64)" style="fill: #d4daed"/>
    </g>
  </g>
  <g>
    <g>
      <g>
        <path d="M70.28,80.17q0,15.26,0,30.51l2.11,1.3,48.81-28.08V50.77Z" transform="translate(-9.64)" style="fill: url(#aa7f5ba3-04ef-4611-b1c0-79caf1d353d0)"/>
        <path d="M68.16,76.49,117,48.32l4.24,2.45L70.28,80.17,68.13,79Z" transform="translate(-9.64)" style="fill: url(#47ed3a90-0689-4646-a04e-b283680da319)"/>
        <g style="opacity: 0.9">
          <path d="M70.28,85.09v.7L121.21,56.4v-.74Z" transform="translate(-9.64)" style="fill: #40405b"/>
        </g>
        <g style="opacity: 0.9">
          <path d="M70.28,90.8v.7l50.93-29.39v-.74Z" transform="translate(-9.64)" style="fill: #40405b"/>
        </g>
        <g style="opacity: 0.9">
          <path d="M78.77,75.27v5.11l.66-.32V74.88Z" transform="translate(-9.64)" style="fill: #40405b"/>
          <path d="M96.22,65.19V70.3l.66-.32V64.8Z" transform="translate(-9.64)" style="fill: #40405b"/>
          <path d="M87.49,70.22v5.11l.66-.32V69.83Z" transform="translate(-9.64)" style="fill: #40405b"/>
          <path d="M104.94,60.17v5.11l.66-.32V59.78Z" transform="translate(-9.64)" style="fill: #40405b"/>
          <path d="M113.66,55.15v5.11l.66-.32V54.76Z" transform="translate(-9.64)" style="fill: #40405b"/>
        </g>
        <g style="opacity: 0.9">
          <path d="M70.28,96.43v.7l50.93-29.39V67Z" transform="translate(-9.64)" style="fill: #40405b"/>
          <g>
            <path d="M78.77,86.61v5.11l.66-.32V86.22Z" transform="translate(-9.64)" style="fill: #40405b"/>
            <path d="M96.22,76.52v5.11l.66-.32V76.13Z" transform="translate(-9.64)" style="fill: #40405b"/>
            <path d="M87.49,81.55v5.11l.66-.32V81.16Z" transform="translate(-9.64)" style="fill: #40405b"/>
            <path d="M104.94,71.51v5.11l.66-.32V71.12Z" transform="translate(-9.64)" style="fill: #40405b"/>
            <path d="M113.66,66.48V71.6l.66-.32V66.09Z" transform="translate(-9.64)" style="fill: #40405b"/>
          </g>
        </g>
        <g>
          <path d="M70.28,107.72v.7L121.21,79V78.3Z" transform="translate(-9.64)" style="fill: #40405b"/>
          <g>
            <path d="M78.77,97.9V103l.66-.32V97.51Z" transform="translate(-9.64)" style="fill: #40405b"/>
            <path d="M96.22,87.82v5.11l.66-.32V87.43Z" transform="translate(-9.64)" style="fill: #40405b"/>
            <path d="M87.49,92.85V98l.66-.32V92.46Z" transform="translate(-9.64)" style="fill: #40405b"/>
            <path d="M104.94,82.8v5.11l.66-.32V82.41Z" transform="translate(-9.64)" style="fill: #40405b"/>
            <path d="M113.66,77.78v5.11l.66-.32V77.39Z" transform="translate(-9.64)" style="fill: #40405b"/>
          </g>
        </g>
        <g style="opacity: 0.9">
          <g>
            <path d="M75.06,83v5.11l.66-.32V82.64Z" transform="translate(-9.64)" style="fill: #40405b"/>
            <path d="M92.5,72.95v5.11l.66-.32V72.56Z" transform="translate(-9.64)" style="fill: #40405b"/>
            <path d="M83.78,78v5.11l.66-.32V77.59Z" transform="translate(-9.64)" style="fill: #40405b"/>
            <path d="M101.22,67.93V73l.66-.32V67.54Z" transform="translate(-9.64)" style="fill: #40405b"/>
            <path d="M109.95,62.91V68l.66-.32V62.52Z" transform="translate(-9.64)" style="fill: #40405b"/>
          </g>
          <path d="M118.23,58.18v5.11l.66-.32V57.79Z" transform="translate(-9.64)" style="fill: #40405b"/>
        </g>
        <g style="opacity: 0.9">
          <path d="M70.28,102.15v.7l50.93-29.39v-.74Z" transform="translate(-9.64)" style="fill: #40405b"/>
        </g>
        <g style="opacity: 0.9">
          <g>
            <path d="M75.06,94.38v5.11l.66-.32V94Z" transform="translate(-9.64)" style="fill: #40405b"/>
            <path d="M92.5,84.29V89.4l.66-.32V83.9Z" transform="translate(-9.64)" style="fill: #40405b"/>
            <path d="M83.78,89.33v5.11l.66-.32V88.94Z" transform="translate(-9.64)" style="fill: #40405b"/>
            <path d="M101.22,79.28v5.11l.66-.32V78.89Z" transform="translate(-9.64)" style="fill: #40405b"/>
            <path d="M109.95,74.26v5.11l.66-.32V73.87Z" transform="translate(-9.64)" style="fill: #40405b"/>
          </g>
          <path d="M118.23,69.52v5.11l.66-.32V69.13Z" transform="translate(-9.64)" style="fill: #40405b"/>
        </g>
        <g style="opacity: 0.9">
          <g>
            <path d="M75.1,105.59v4.86l.66-.38V105.2Z" transform="translate(-9.64)" style="fill: #40405b"/>
            <path d="M92.54,95.5v4.9l.66-.38V95.11Z" transform="translate(-9.64)" style="fill: #40405b"/>
            <path d="M83.82,100.54v4.89l.66-.38v-4.9Z" transform="translate(-9.64)" style="fill: #40405b"/>
            <path d="M101.26,90.49q0,2.45,0,4.9l.66-.38q0-2.46,0-4.91Z" transform="translate(-9.64)" style="fill: #40405b"/>
            <path d="M110,85.47v4.9l.66-.38V85.08Z" transform="translate(-9.64)" style="fill: #40405b"/>
          </g>
          <path d="M118.27,80.73V85.6l.67-.38V80.34Z" transform="translate(-9.64)" style="fill: #40405b"/>
        </g>
        <path d="M72.41,78.94l-4.24-2.45v33L72.41,112Z" transform="translate(-9.64)" style="fill: url(#5ff3b6cf-f819-415f-8912-fd2793456dbb)"/>
      </g>
      <path d="M72.41,83.84l-4.26-2.46v.71l4.24,2.47Z" transform="translate(-9.64)" style="fill: #49486b"/>
      <path d="M72.41,89.57l-4.26-2.46v.71l4.24,2.47Z" transform="translate(-9.64)" style="fill: #49486b"/>
      <path d="M72.41,95.19l-4.26-2.46v.71l4.24,2.47Z" transform="translate(-9.64)" style="fill: #49486b"/>
      <path d="M72.41,100.93l-4.26-2.46v.71l4.24,2.47Z" transform="translate(-9.64)" style="fill: #49486b"/>
      <path d="M72.41,106.48,68.15,104v.71l4.24,2.47Z" transform="translate(-9.64)" style="fill: #49486b"/>
      <path d="M78.77,75.27l-4.24-2.45.65-.38,4.25,2.44Z" transform="translate(-9.64)" style="fill: #49486b"/>
      <path d="M87.46,70.25,83.22,67.8l.65-.38,4.25,2.44Z" transform="translate(-9.64)" style="fill: #49486b"/>
      <path d="M96.22,65.19,92,62.74l.65-.38,4.25,2.44Z" transform="translate(-9.64)" style="fill: #49486b"/>
      <path d="M104.94,60.16l-4.24-2.45.65-.38,4.25,2.44Z" transform="translate(-9.64)" style="fill: #49486b"/>
      <path d="M113.65,55.13l-4.24-2.45.65-.38,4.25,2.44Z" transform="translate(-9.64)" style="fill: #49486b"/>
    </g>
    <g>
      <g>
        <path d="M89.49,37l-.11,0-.08,0H89l-.12,0h0l-.12,0h0L88.64,37h0l-.14-.07-.14-.09h0l-.13-.1h0l-.12-.1h0L88,36.48h0l-.12-.13h0a3.27,3.27,0,0,1-.21-.29L87.56,36l0-.07,0,0-.07-.13v0l-.08-.16h0l-.06-.16h0l-.06-.17h0l0-.16v0l0-.16h0c0-.05,0-.11,0-.16h0c0-.05,0-.11,0-.16s0-.1,0-.15h0s0-.09,0-.13v0l0-.12v0l0-.1h0l.06-.1.1-.12,0,0,.12-.09L86,34.47l-.12.09,0,0-.1.12h0l-.05.1h0l0,.06V35l0,.07v.17h0v.08s0,0,0,.07h0s0,0,0,.06v.1h0v.16h0v.16h0v0l0,.07,0,.05h0l0,.07,0,.07h0l0,0,0,.07,0,0h0l0,.07,0,.07h0l0,.06,0,.07,0,0h0l0,.06.06.09h0l.09.13.06.08.05.06h0l.05.06.05.06h0l0,0,.06.06,0,0h0l0,0,.06.05,0,0h0l0,0,.06,0,0,0h0l.06,0,.06,0h0l0,0,.06,0,0,0h0l.06,0,.06,0h.06l.06,0h.42l.08,0h0l.11,0Z" transform="translate(-9.64)" style="fill: #272043"/>
        <path d="M85.62,32.27h.26l.07,0h0l.07,0,1.47-.86-.07,0h0l-.07,0h-.83l-.17,0h0l-.1,0-.1,0h0l-.23.11-1.47.86.23-.11.12,0,.1,0,.21,0h.56Z" transform="translate(-9.64)" style="fill: #272043"/>
        <path d="M91.42,35.56h-.06v0l0,0v0h0l0,0,0,0,0,0,0,0h0l0,0,0,0,0,0h0l0,0,0,0,0,0h0l0,0h0l0,0h-.44l-.08,0-1.47.86.11,0h0l.12,0h.16l.17.05.09,0,.11.07h0l.09.08h0l.08.09h0l.06.09h0l0,.09h0a.29.29,0,0,1,0,.08h0a.17.17,0,0,1,0,.07h0l0,.05-.06.06,0,0,0,0v0l0,.05,0,0v0l0,.05v0l0,0,0,0v0l0,.1v0h0l0,.11v.26s0,0,0,.07,0,0,0,.06h0c0,.08,0,.17,0,.25s0,.22,0,.33v0q0,.15,0,.28v0q0,.13-.06.25v0a2.22,2.22,0,0,1-.08.22v0a1.9,1.9,0,0,1-.12.22l0,0-.12.15,0,.05-.11.11,0,0-.17.12L90.16,39l.17-.12,0,0,.11-.11,0-.05.12-.15,0,0h0a1.9,1.9,0,0,0,.11-.21h0v0l.06-.14,0-.07v-.08l0-.15v-.15l0-.14v-.15s0-.09,0-.14,0-.1,0-.15h0s0-.08,0-.12,0-.08,0-.12,0-.11,0-.17v0c0-.05,0-.1,0-.15v0c0-.05,0-.1,0-.15v0l0-.12,0,0,0-.08,0-.05,0-.06,0-.05,0-.06,0,0,.06-.06,0,0v0h0Z" transform="translate(-9.64)" style="fill: #272043"/>
        <path d="M85.84,27.81h0l.14,0h.19l.15,0h0l.16,0h0l.18.07h0l.19.1.19.12h0l.17.13,0,0,.12.1-1.15.67-.1.08,0,0,0,0,0,.06h0l0,0,0,0v.07h0v.19h0s0,0,0,0v.18h0v.22h0l0,0,0,0,0,0,0,0v0h0l0,0,0,0,0,.05,0,.06h0l.07.11.06.08h0l0,.05,0,0,0,0,0,0h0l0,0,0,0,0,0,0,0,0,0h0l0,0,0,0,0,0,0,0h0l0,0,0,0h0l0,0h.44l.07,0,1.15-.67c0,.06,0,.12,0,.18h0q0,.11,0,.22v0c0,.07,0,.14,0,.22s0,.12,0,.18h0c0,.05,0,.11,0,.16h0l0,.14v0l0,.13h0l0,.1,0,.07,0,0-.05.07,0,0-.09.09,0,0h0l0,.05h0v0l0,0h0l0,.06v0h0v.1h0v.12h0v0s0,0,0,0V33a1.65,1.65,0,0,1,0,.23s0,0,0,.06a1.22,1.22,0,0,1,0,.15h0a1,1,0,0,1,0,.13h0l0,.11h0l-.06.1,0,.06,0,0-.05.05,0,0-.06.05,0,0-.1.06,1.47-.86.1-.06,0,0,.06-.05,0,0,.05-.05,0,0,0-.06h0l.06-.1h0l0-.07v0h0l0-.06v-.05h0v-.15h0v0h0s0,0,0,0v-.18a1.17,1.17,0,0,1,0-.15h0a1,1,0,0,1,0-.13h0l0-.1h0l0-.08,0,0,0,0,0-.05h0l0,0h0l.09-.09,0,0,.05-.07h0l0,0,0-.07h0l0-.09h0l0-.1v-.09l0-.09h0v-.16h0V30.5s0-.06,0-.09h0s0-.06,0-.08,0-.06,0-.09V30h0l0-.09,0-.1v-.1l0-.1,0-.07h0l0-.1,0-.1v0h0l0-.06,0-.09,0-.07h0l0-.09,0-.1h0v0l0-.08-.05-.1,0,0v0l-.05-.08-.08-.12v0l-.12-.17L89.35,28,89.28,28h0l-.07-.08-.07-.08h0l-.05-.05L89,27.63l0,0,0,0,0,0-.08-.07,0,0,0,0,0,0-.08-.06-.06,0h0l-.08-.05-.08,0h0l-.06,0-.08,0,0,0h0l-.07,0L88,27h0L88,27l-.08,0h-.43l-.11,0h0l-.11,0h0l-.14.07-1.47.86.14-.07Zm1.65.8h0a.72.72,0,0,1,0-.09l.11.11h0l.16.18h0L88,29h0l.13.19.08.12.06.1,0,0,.09.17v0l.1.22h0l.09.22h0l.07.22h0l0,.13h0l-.08,0h0l-.09,0h0l-.09,0-.18-.13h0L88,30.09h0l-.15-.18h0l-.13-.2h0l-.11-.21h0a2,2,0,0,1-.08-.22h0a1.73,1.73,0,0,1-.05-.22h0a1.39,1.39,0,0,1,0-.22A1,1,0,0,1,87.49,28.61Z" transform="translate(-9.64)" style="fill: #272043"/>
      </g>
      <path d="M89.54,35.91c.32.18.5.51.35.64a1.59,1.59,0,0,0-.33,1.09c0,.08,0,.17,0,.25,0,1.92-1.36,2.69-3,1.73a6.63,6.63,0,0,1-3-5.21c0-1.4.74-2.19,1.78-2.13h.12c.23,0,.71,0,.71-.25a.78.78,0,0,0-.17-.5A4.06,4.06,0,0,1,85,29.11c0-1.19.84-1.67,1.87-1.07a4.11,4.11,0,0,1,1.86,3.23,1.42,1.42,0,0,1-.4,1.09.75.75,0,0,0-.18.63,1.65,1.65,0,0,1,0,.23s0,0,0,.06c-.06,1.17-1.62,1.08-1.79,1.11-.47,0-.8.35-.8,1A3.06,3.06,0,0,0,87,37.77c.77.44,1.39.09,1.4-.8,0-.08.06-1.51,1-1.11ZM86,29.66a2,2,0,0,0,.9,1.57c.5.29.91.06.91-.52a2,2,0,0,0-.91-1.57c-.5-.29-.91-.06-.91.52" transform="translate(-9.64)" style="fill: url(#dcd31d9d-08ab-4f3a-99ac-23b29e643a1a)"/>
      <path d="M89.76,34.48c6.64-3.83,21.62-5.47,29-6.07l-1.53.88c-7.73.69-21.43,2.35-27.51,5.87S70,52.81,62.31,61l-1.53.88C68.18,54,83.13,38.31,89.76,34.48Z" transform="translate(-9.64)" style="fill: #c0c7cf"/>
      <polygon points="116.23 24.34 116.24 29.79 44.09 71.44 44.08 66 51.14 61.92 52.67 61.04 107.64 29.3 109.17 28.42 116.23 24.34" style="fill: url(#65991cc0-26d1-453c-8f3d-1b7319cf1bce)"/>
    </g>
    <polygon points="45.94 2.74 41.2 0 36.77 2.57 41.52 5.31 77.73 26.21 77.71 31.67 82.13 29.1 82.15 23.64 45.94 2.74" style="fill: url(#5f5a6bf0-6809-4487-be03-65d3757fe4e9)"/>
    <polygon points="77.91 26.21 77.89 31.67 41.69 10.77 36.96 2.57 41.7 5.31 77.91 26.21" style="fill: url(#b58f2fd7-2586-473d-b0c4-052c79d367ad)"/>
    <g>
      <g style="isolation: isolate">
        <polygon points="147.4 47.63 147.41 49.25 139.26 53.96 139.25 52.34 147.4 47.63" style="fill: #d4daed"/>
        <polygon points="131.44 63.33 131.45 64.95 124.7 68.85 124.69 67.23 131.44 63.33" style="fill: #d4daed"/>
        <polygon points="147.38 37.92 147.38 39.54 133.15 47.76 133.14 46.14 147.38 37.92" style="fill: #d4daed"/>
        <polygon points="122.11 68.72 122.12 70.34 109.69 77.52 109.68 75.9 122.11 68.72" style="fill: #d4daed"/>
        <polygon points="147.41 50.87 147.42 52.49 133.18 60.71 133.18 59.09 147.41 50.87" style="fill: #d4daed"/>
        <polygon points="134.6 51.78 134.6 53.4 116.7 63.74 116.7 62.12 134.6 51.78" style="fill: #d4daed"/>
        <polygon points="130.63 60.56 130.63 62.18 109.68 74.28 109.67 72.66 130.63 60.56" style="fill: #d4daed"/>
        <polygon points="147.37 34.69 147.37 36.3 122.4 50.72 122.39 49.1 147.37 34.69" style="fill: #d4daed"/>
        <polygon points="120.98 62.89 120.98 64.51 109.67 71.04 109.67 69.42 120.98 62.89" style="fill: #d4daed"/>
        <polygon points="114.67 63.29 114.68 64.91 109.66 67.8 109.66 66.19 114.67 63.29" style="fill: #d4daed"/>
        <polygon points="122.08 55.77 122.08 57.39 109.65 64.57 109.65 62.95 122.08 55.77" style="fill: #d4daed"/>
        <polygon points="130.59 47.62 130.59 49.23 109.64 61.33 109.64 59.71 130.59 47.62" style="fill: #d4daed"/>
        <polygon points="147.42 54.11 133.42 62.19 133.43 63.81 147.43 55.73 147.42 54.11" style="fill: #d4daed"/>
        <polygon points="147.38 41.16 147.39 42.78 133.39 50.86 133.39 49.24 147.38 41.16" style="fill: url(#b484a7e3-8488-47c2-87e3-bcedad85f9c2)"/>
        <polygon points="128.37 42.41 128.38 44.03 109.62 54.86 109.62 53.24 128.37 42.41" style="fill: #d4daed"/>
        <path d="M158.73,27.66,117.5,51.46l.08,29.84,41.23-23.8ZM157,49.25,148.9,54V52.34L157,47.63v1.62M157,46l-10.6,6.12V50.52L157,44.4V46m0-3.24-14,8.08V49.24l14-8.08v1.62m-30.69,21V62.12l17.9-10.34V53.4l-17.9,10.34m12.84-4.17-6.79,3.92V61.87L139.17,58v1.62m-4.88-5.29,6.75-3.9V52l-6.75,3.9V54.28M157,39.54l-14.23,8.22V46.14L157,37.92v1.62m0-3.24L132,50.72V49.11l25-14.42v1.62m0-4.86v1.62l-9.28,5.36V36.81L157,31.45m-10.39,6v1.62L139.82,43V41.37l6.79-3.92M119.26,53.24,138,42.41V44L119.26,54.86V53.24m0,3.24,10.68-6.17v1.62l-10.68,6.17V56.47m0,3.24,21-12.1v1.62l-21,12.1V59.71m0,3.24,12.43-7.18v1.62l-12.43,7.18V62.95m0,3.24,5-2.9v1.62l-5,2.9V66.19m0,3.24,11.31-6.53v1.62L119.31,71V69.42m0,3.24,21-12.1v1.62l-21,12.1V72.66m0,4.85V75.9l12.43-7.18v1.62l-12.43,7.18m15-8.67V67.23l6.75-3.9V65l-6.75,3.9m7.2-12.26,5-2.91V55.3l-5,2.91V56.59m1.29,2.5,14.23-8.22h0v1.61h0l-14.23,8.22V59.09m.25,4.72V62.19l14-8.08v1.62l-14,8.08" transform="translate(-9.64)" style="fill: #fff"/>
        <polygon points="129.54 57.95 129.54 59.57 122.75 63.49 122.74 61.87 129.54 57.95" style="fill: url(#e0dfd615-e139-4bb4-b8c5-4524b318c978)"/>
        <polygon points="120.31 50.31 120.31 51.93 109.63 58.09 109.63 56.48 120.31 50.31" style="fill: url(#2642329f-7cdd-432f-ab03-9a9e7ed0248e)"/>
        <polygon points="147.39 44.4 147.4 46.02 136.8 52.14 136.79 50.52 147.39 44.4" style="fill: #d4daed"/>
      </g>
      <polygon points="131.41 50.39 131.41 52 124.66 55.9 124.66 54.28 131.41 50.39" style="fill: #d4daed"/>
      <polygon points="147.36 31.45 147.36 33.07 138.08 38.42 138.08 36.81 147.36 31.45" style="fill: #d4daed"/>
      <polygon points="136.93 53.68 136.94 55.3 131.9 58.21 131.89 56.59 136.93 53.68" style="fill: #d4daed"/>
      <path d="M117.49,46.3l41.23-23.8v5.16L117.5,51.46Zm3.8,1.71V45.38L119,46.7v2.63L121.29,48" transform="translate(-9.64)" style="fill: #5d639e"/>
      <polygon points="111.64 45.38 111.65 48.01 109.36 49.34 109.35 46.7 111.64 45.38" style="fill: #fff"/>
      <polygon points="136.97 37.45 136.97 39.07 130.18 42.99 130.18 41.37 136.97 37.45" style="fill: url(#622751df-5574-416b-b4ae-e26472dd09a6)"/>
    </g>
  </g>
  <g>
    <path d="M105.76,99.62a17.12,17.12,0,0,0-2.6-1.2,6.7,6.7,0,0,0-2.42.38,2.26,2.26,0,0,0-.53.21,13.41,13.41,0,0,1-1.44.39c-.28,0-.23.29.07.38a2.13,2.13,0,0,1-.39.18c-.42.15-.17.36,0,.37a3.65,3.65,0,0,0,.58-.11,2.24,2.24,0,0,1-.47.48c-.23.15.18.22.32.18.29-.1.83-.7,1.05-.7a1.9,1.9,0,0,0-.39.8c0,.28,0,.5,0,.64s.3.08.39-.13,0-.48.13-.61a1,1,0,0,1,.63-.37,2.37,2.37,0,0,0,1.56-.7c.07-.09.23-.07.72.45s1.86,2,1.86,2Z" transform="translate(-9.64)" style="fill: #fbbebe"/>
    <g>
      <path d="M110.22,132.44s.67,1.91-.43,2.74c-.94,1.56,2,3.16,3.87.22a6.21,6.21,0,0,1-.43-3.19C111.36,132.39,110.22,132.44,110.22,132.44Z" transform="translate(-9.64)" style="fill: #fbbebe"/>
      <path d="M113.63,135.2a2.33,2.33,0,0,0-1.09.72,2,2,0,0,1-2.79.08,4.27,4.27,0,0,0,0-.82,9.25,9.25,0,0,1-3,1c-1.45.14-1,1.31-.69,1.64a3.37,3.37,0,0,0,2.9.77,2.86,2.86,0,0,1,2.33.07,2.2,2.2,0,0,0,2.93-.78c0-.6-.14-.64-.14-.64A2.39,2.39,0,0,0,113.63,135.2Z" transform="translate(-9.64)" style="fill: #80909f"/>
      <path d="M114.27,137.83c0-.6-.14-.64-.14-.64-.55,1.2-2.23,1.21-3.16,1a6.12,6.12,0,0,0-2.58.07,4.36,4.36,0,0,1-2.5-.86h0a1.28,1.28,0,0,0,.23.39,3.37,3.37,0,0,0,2.9.77,2.86,2.86,0,0,1,2.33.07A2.2,2.2,0,0,0,114.27,137.83Z" transform="translate(-9.64)" style="fill: #5c6873"/>
    </g>
    <path d="M118.38,104.22l-1.07,5.26c-.76,3.75-5.24,12-4.77,14.55s1.11,9.1,1.11,9.1a2.4,2.4,0,0,1-3.54.62c-.5-4-1.92-8-2-10.35s2.63-18.22,2.63-18.22Z" transform="translate(-9.64)" style="fill: #49496c"/>
    <g>
      <path d="M121.68,129.35s1.27,1.69.1,3c-.34,1.78,2.93,2.29,3.71-1.13a8.24,8.24,0,0,1-1.08-2.85A13.05,13.05,0,0,1,121.68,129.35Z" transform="translate(-9.64)" style="fill: #fbbebe"/>
      <path d="M125.39,131a2.33,2.33,0,0,0-.77,1.05,2,2,0,0,1-2.59,1,4.27,4.27,0,0,0-.25-.78,9.25,9.25,0,0,1-2.46,1.93c-1.31.63-.47,1.57-.08,1.77a3.37,3.37,0,0,0,3-.28,2.86,2.86,0,0,1,2.21-.74,2.2,2.2,0,0,0,2.48-1.75c-.21-.56-.35-.56-.35-.56S126.57,131.9,125.39,131Z" transform="translate(-9.64)" style="fill: #80909f"/>
      <path d="M126.91,133.25c-.21-.56-.35-.56-.35-.56-.1,1.31-1.67,1.9-2.63,2a6.12,6.12,0,0,0-2.4,1,4.36,4.36,0,0,1-2.64.05h0a1.28,1.28,0,0,0,.35.29,3.37,3.37,0,0,0,3-.28,2.86,2.86,0,0,1,2.21-.74A2.2,2.2,0,0,0,126.91,133.25Z" transform="translate(-9.64)" style="fill: #5c6873"/>
    </g>
    <path d="M120.74,100.55s.69,1.23,1,5-1.38,12.85-.24,15.19,3.52,8.46,3.52,8.46a2.4,2.4,0,0,1-3.24,1.55c-1.58-3.76-4-7.21-4.68-9.44s-2.31-16.24-2.31-16.24Z" transform="translate(-9.64)" style="fill: #49496c"/>
    <path d="M111.59,78.22a3.43,3.43,0,0,0-1.44,3.35c-.21.41-.78,3.21.5,4.24.39.3,1.28,0,1.47.27a13.62,13.62,0,0,1,.6,2l3.12-1.26a3.23,3.23,0,0,1-.44-2.2c.32-.92,1.79-1.9,1.37-3.85S114.58,76.75,111.59,78.22Z" transform="translate(-9.64)" style="fill: #fbbebe"/>
    <path d="M111.2,80.72a27.37,27.37,0,0,1,.19,3.12l.21.11s.3-1.63,1.3-1.23a.76.76,0,0,1,.2,1.23,1.74,1.74,0,0,0,1.75,1.17,1.32,1.32,0,0,0,.47-.1s.82-1.67,1.21-2.27C115,82,111.2,80.72,111.2,80.72Z" transform="translate(-9.64)" style="fill: url(#91426adb-09ab-40cc-a447-f6762ad3423f)"/>
    <path d="M110.74,80.09s-1.3.09-1.12-2c.25.05,1.22-1.23,2.77-.78-.07-.34,3.39-.46,4.15,1.63.44.18,1.15,2.61,0,3.82C116.1,83.07,111.83,83.51,110.74,80.09Z" transform="translate(-9.64)" style="fill: url(#69512a53-fbe9-4539-bf83-a1996ddcb637)"/>
    <path d="M120.27,87.93c-.58-1-2.35-.93-3.91-.61-.06-.74-.46-.95-.71-.92a7.71,7.71,0,0,1-3,1.16,1.19,1.19,0,0,0-1,1.52h0a18.06,18.06,0,0,0-3.06,2.18c-.78.76-2.34,8.25-2.34,8.25l-.37-.07c-1.35-.11-1.58,2.06-1.53,2.56s.21,1,2.68,1.62,3-3.91,3.5-6.5q0,.14,0,.28t0,.56,0,.28q0,.28,0,.57c0,.47,0,.94,0,1.38q0,.27,0,.53t0,.51c0,.5-.08,1-.11,1.35s-.05.5-.07.7l0,.4,0,.19V104a1.13,1.13,0,0,0,.51,1.19l.28.2.06,0,.22.14h0c2.65,1.54,6,.31,7.81-.65s2.68-2.2,2.5-2.93a31.23,31.23,0,0,1-.73-4.88h.34l.27,0h0C124.48,96.52,121,89.3,120.27,87.93Zm-7.65.64h0Z" transform="translate(-9.64)" style="fill: url(#a2837e69-a137-481b-8bb4-ff323f7181d6)"/>
  </g>
</svg>
