<svg xmlns="http://www.w3.org/2000/svg" xmlns:xlink="http://www.w3.org/1999/xlink" id="Layer_1" x="0px" y="0px" viewBox="0 0 32 32" style="enable-background:new 0 0 32 32;" xml:space="preserve"> <style type="text/css"> .st0{fill:#4284FB;} </style> <title>mxp_com_icons_all_R2</title> <g> <g> <path class="st0" d="M10.4,19.9c-0.2,0-0.4-0.1-0.5-0.2c-0.3-0.3-0.3-0.8,0-1.1l2.6-2.6l-2.6-2.6c-0.3-0.3-0.3-0.8,0-1.1 c0.3-0.3,0.8-0.3,1.1,0l3.1,3.1c0.3,0.3,0.3,0.8,0,1.1L11,19.7C10.8,19.8,10.6,19.9,10.4,19.9z"></path> </g> <g> <path class="st0" d="M13.3,16.8H6c-0.4,0-0.8-0.3-0.8-0.8s0.3-0.8,0.8-0.8h7.3c0.4,0,0.8,0.3,0.8,0.8S13.7,16.8,13.3,16.8z"></path> </g> <g> <path class="st0" d="M21.6,19.9c-0.2,0-0.4-0.1-0.5-0.2l-3.1-3.2c-0.3-0.3-0.3-0.8,0-1.1l3.1-3.1c0.3-0.3,0.8-0.3,1.1,0 c0.3,0.3,0.3,0.8,0,1.1L19.5,16l2.6,2.6c0.3,0.3,0.3,0.8,0,1.1C22,19.8,21.8,19.9,21.6,19.9z"></path> </g> <g> <path class="st0" d="M26,16.8h-7.3c-0.4,0-0.8-0.3-0.8-0.8s0.3-0.8,0.8-0.8H26c0.4,0,0.8,0.3,0.8,0.8S26.4,16.8,26,16.8z"></path> </g> <g> <path class="st0" d="M16,26.2c-4.3,0-8.3-2.7-9.7-7c-0.1-0.4,0.1-0.8,0.5-0.9c0.4-0.1,0.8,0.1,0.9,0.5c1.5,4.6,6.5,7,11.1,5.5 c2.6-0.9,4.7-2.9,5.5-5.5c0.1-0.4,0.6-0.6,0.9-0.5c0.4,0.1,0.6,0.6,0.5,0.9c-1,3-3.4,5.4-6.5,6.5C18.2,26.1,17.1,26.2,16,26.2z"></path> </g> <g> <path class="st0" d="M25,13.8c-0.3,0-0.6-0.2-0.7-0.5c-1.5-4.6-6.5-7-11.1-5.5c-2.6,0.9-4.7,2.9-5.5,5.5c-0.1,0.4-0.6,0.6-0.9,0.5 c-0.4-0.1-0.6-0.6-0.5-0.9c1-3,3.4-5.4,6.5-6.5c5.4-1.8,11.2,1.1,13,6.5c0.1,0.4-0.1,0.8-0.5,0.9C25.2,13.7,25.1,13.8,25,13.8z"></path> </g> </g> </svg>