<?xml version="1.0" encoding="utf-8"?>
<!-- Generator: Adobe Illustrator 21.0.0, SVG Export Plug-In . SVG Version: 6.00 Build 0)  -->
<svg version="1.1" id="Layer_1" xmlns="http://www.w3.org/2000/svg" xmlns:xlink="http://www.w3.org/1999/xlink" x="0px" y="0px"
	 viewBox="0 0 121.7 130.3" style="enable-background:new 0 0 121.7 130.3;" xml:space="preserve">
<style type="text/css">
	.st0{fill:#48486A;}
	.st1{fill:url(#SVGID_1_);}
	.st2{fill:#363650;}
	.st3{fill:#C0C7CF;}
	.st4{fill:url(#SVGID_2_);}
	.st5{fill:url(#SVGID_3_);}
	.st6{fill:#5D6873;}
	.st7{fill:url(#SVGID_4_);}
	.st8{fill:url(#SVGID_5_);}
	.st9{fill:url(#SVGID_6_);}
	.st10{fill:url(#SVGID_7_);}
	.st11{fill:url(#SVGID_8_);}
	.st12{fill:url(#SVGID_9_);}
	.st13{opacity:0.4;fill:#363650;enable-background:new    ;}
	.st14{opacity:0.1;fill:#F0F0F0;enable-background:new    ;}
	.st15{fill:#F2F3F4;}
	.st16{fill:url(#SVGID_10_);}
	.st17{fill:url(#SVGID_11_);}
	.st18{fill:url(#SVGID_12_);}
	.st19{fill:url(#SVGID_13_);}
	.st20{fill:#5D639E;}
	.st21{fill:#49486B;}
	.st22{fill:#DEE2E6;}
	.st23{fill:#80909F;}
	.st24{fill:#24126A;}
	.st25{opacity:0.11;}
	.st26{clip-path:url(#SVGID_15_);}
	.st27{fill:url(#SVGID_16_);}
	.st28{fill:url(#SVGID_17_);}
	.st29{fill:#9198DB;}
	.st30{fill:#ADB1F2;}
	.st31{fill:url(#SVGID_18_);}
	.st32{fill:url(#SVGID_19_);}
	.st33{fill:url(#SVGID_20_);}
	.st34{fill:url(#SVGID_21_);}
	.st35{fill:url(#SVGID_22_);}
	.st36{fill:url(#SVGID_23_);}
	.st37{fill:url(#SVGID_24_);}
	.st38{fill:url(#SVGID_25_);}
	.st39{fill:url(#SVGID_26_);}
	.st40{fill:url(#SVGID_27_);}
	.st41{fill:url(#SVGID_28_);}
	.st42{fill:url(#SVGID_29_);}
	.st43{fill:url(#SVGID_30_);}
	.st44{opacity:0.8;}
	.st45{fill:url(#SVGID_31_);}
	.st46{fill:url(#SVGID_32_);}
	.st47{fill:url(#SVGID_33_);}
	.st48{fill:#0073EC;}
	.st49{fill:#FFFFFF;}
	.st50{fill:#F2B1B5;}
	.st51{fill:#D4DAED;}
	.st52{opacity:0.3;fill:#49486B;enable-background:new    ;}
	.st53{opacity:0.3;fill:#231F20;enable-background:new    ;}
	.st54{opacity:0.3;fill:url(#SVGID_34_);enable-background:new    ;}
	.st55{opacity:0.6;fill:url(#SVGID_35_);enable-background:new    ;}
	.st56{opacity:0.3;fill:url(#SVGID_36_);enable-background:new    ;}
	.st57{opacity:0.6;fill:url(#SVGID_37_);enable-background:new    ;}
	.st58{fill:none;}
	.st59{opacity:2.000000e-02;fill:#F7F6F7;enable-background:new    ;}
	.st60{opacity:3.900000e-02;fill:#F1EFF2;enable-background:new    ;}
	.st61{opacity:5.900000e-02;fill:#EBEAED;enable-background:new    ;}
	.st62{opacity:7.800000e-02;fill:#E6E4E9;enable-background:new    ;}
	.st63{opacity:9.800000e-02;fill:#E1DFE5;enable-background:new    ;}
	.st64{opacity:0.118;fill:#DDDAE1;enable-background:new    ;}
	.st65{opacity:0.137;fill:#D8D6DD;enable-background:new    ;}
	.st66{opacity:0.157;fill:#D4D1D9;enable-background:new    ;}
	.st67{opacity:0.176;fill:#CFCDD6;enable-background:new    ;}
	.st68{opacity:0.196;fill:#CBC8D2;enable-background:new    ;}
	.st69{opacity:0.216;fill:#C7C4CF;enable-background:new    ;}
	.st70{opacity:0.235;fill:#C3C0CB;enable-background:new    ;}
	.st71{opacity:0.255;fill:#BFBBC8;enable-background:new    ;}
	.st72{opacity:0.275;fill:#BBB7C5;enable-background:new    ;}
	.st73{opacity:0.294;fill:#B7B3C2;enable-background:new    ;}
	.st74{opacity:0.314;fill:#B4AFBE;enable-background:new    ;}
	.st75{opacity:0.333;fill:#B0ABBB;enable-background:new    ;}
	.st76{opacity:0.353;fill:#ACA8B8;enable-background:new    ;}
	.st77{opacity:0.373;fill:#A9A4B5;enable-background:new    ;}
	.st78{opacity:0.392;fill:#A5A0B2;enable-background:new    ;}
	.st79{opacity:0.412;fill:#A29CAF;enable-background:new    ;}
	.st80{opacity:0.431;fill:#9E99AC;enable-background:new    ;}
	.st81{opacity:0.451;fill:#9A95A9;enable-background:new    ;}
	.st82{opacity:0.471;fill:#9792A7;enable-background:new    ;}
	.st83{opacity:0.49;fill:#948EA4;enable-background:new    ;}
	.st84{opacity:0.51;fill:#908BA1;enable-background:new    ;}
	.st85{opacity:0.529;fill:#8D889E;enable-background:new    ;}
	.st86{opacity:0.549;fill:#8A849C;enable-background:new    ;}
	.st87{opacity:0.569;fill:#878199;enable-background:new    ;}
	.st88{opacity:0.588;fill:#847E97;enable-background:new    ;}
	.st89{opacity:0.608;fill:#817B94;enable-background:new    ;}
	.st90{opacity:0.627;fill:#7E7892;enable-background:new    ;}
	.st91{opacity:0.647;fill:#7B758F;enable-background:new    ;}
	.st92{opacity:0.667;fill:#78738D;enable-background:new    ;}
	.st93{opacity:0.686;fill:#75708B;enable-background:new    ;}
	.st94{opacity:0.706;fill:#726D89;enable-background:new    ;}
	.st95{opacity:0.725;fill:#6F6A86;enable-background:new    ;}
	.st96{opacity:0.745;fill:#6D6884;enable-background:new    ;}
	.st97{opacity:0.765;fill:#6A6582;enable-background:new    ;}
	.st98{opacity:0.784;fill:#676380;enable-background:new    ;}
	.st99{opacity:0.804;fill:#64607E;enable-background:new    ;}
	.st100{opacity:0.824;fill:#615E7C;enable-background:new    ;}
	.st101{opacity:0.843;fill:#5F5B7A;enable-background:new    ;}
	.st102{opacity:0.863;fill:#5C5978;enable-background:new    ;}
	.st103{opacity:0.882;fill:#595676;enable-background:new    ;}
	.st104{opacity:0.902;fill:#565474;enable-background:new    ;}
	.st105{opacity:0.922;fill:#545272;enable-background:new    ;}
	.st106{opacity:0.941;fill:#514F70;enable-background:new    ;}
	.st107{opacity:0.961;fill:#4E4D6E;enable-background:new    ;}
	.st108{opacity:0.98;fill:#4B4B6C;enable-background:new    ;}
	.st109{fill:url(#SVGID_38_);}
	.st110{fill:#EBEEF6;}
	.st111{fill:url(#SVGID_39_);}
	.st112{opacity:0.31;fill:#FFFFFF;enable-background:new    ;}
	.st113{opacity:0.4;}
	.st114{fill:url(#SVGID_40_);}
	.st115{opacity:0.98;fill:url(#SVGID_41_);enable-background:new    ;}
	.st116{opacity:0.961;fill:url(#SVGID_42_);enable-background:new    ;}
	.st117{opacity:0.941;fill:url(#SVGID_43_);enable-background:new    ;}
	.st118{opacity:0.922;fill:url(#SVGID_44_);enable-background:new    ;}
	.st119{opacity:0.902;fill:url(#SVGID_45_);enable-background:new    ;}
	.st120{opacity:0.882;fill:url(#SVGID_46_);enable-background:new    ;}
	.st121{opacity:0.863;fill:url(#SVGID_47_);enable-background:new    ;}
	.st122{opacity:0.843;fill:url(#SVGID_48_);enable-background:new    ;}
	.st123{opacity:0.824;fill:url(#SVGID_49_);enable-background:new    ;}
	.st124{opacity:0.804;fill:url(#SVGID_50_);enable-background:new    ;}
	.st125{opacity:0.784;fill:url(#SVGID_51_);enable-background:new    ;}
	.st126{opacity:0.765;fill:url(#SVGID_52_);enable-background:new    ;}
	.st127{opacity:0.745;fill:url(#SVGID_53_);enable-background:new    ;}
	.st128{opacity:0.725;fill:url(#SVGID_54_);enable-background:new    ;}
	.st129{opacity:0.706;fill:url(#SVGID_55_);enable-background:new    ;}
	.st130{opacity:0.686;fill:url(#SVGID_56_);enable-background:new    ;}
	.st131{opacity:0.667;fill:url(#SVGID_57_);enable-background:new    ;}
	.st132{opacity:0.647;fill:url(#SVGID_58_);enable-background:new    ;}
	.st133{opacity:0.627;fill:url(#SVGID_59_);enable-background:new    ;}
	.st134{opacity:0.608;fill:url(#SVGID_60_);enable-background:new    ;}
	.st135{opacity:0.588;fill:url(#SVGID_61_);enable-background:new    ;}
	.st136{opacity:0.569;fill:url(#SVGID_62_);enable-background:new    ;}
	.st137{opacity:0.549;fill:url(#SVGID_63_);enable-background:new    ;}
	.st138{opacity:0.529;fill:url(#SVGID_64_);enable-background:new    ;}
	.st139{opacity:0.51;fill:url(#SVGID_65_);enable-background:new    ;}
	.st140{opacity:0.49;fill:url(#SVGID_66_);enable-background:new    ;}
	.st141{opacity:0.471;fill:url(#SVGID_67_);enable-background:new    ;}
	.st142{opacity:0.451;fill:url(#SVGID_68_);enable-background:new    ;}
	.st143{opacity:0.431;fill:url(#SVGID_69_);enable-background:new    ;}
	.st144{opacity:0.412;fill:url(#SVGID_70_);enable-background:new    ;}
	.st145{opacity:0.392;fill:url(#SVGID_71_);enable-background:new    ;}
	.st146{opacity:0.373;fill:url(#SVGID_72_);enable-background:new    ;}
	.st147{opacity:0.353;fill:url(#SVGID_73_);enable-background:new    ;}
	.st148{opacity:0.333;fill:url(#SVGID_74_);enable-background:new    ;}
	.st149{opacity:0.314;fill:url(#SVGID_75_);enable-background:new    ;}
	.st150{opacity:0.294;fill:url(#SVGID_76_);enable-background:new    ;}
	.st151{opacity:0.275;fill:url(#SVGID_77_);enable-background:new    ;}
	.st152{opacity:0.255;fill:url(#SVGID_78_);enable-background:new    ;}
	.st153{opacity:0.235;fill:url(#SVGID_79_);enable-background:new    ;}
	.st154{opacity:0.216;fill:url(#SVGID_80_);enable-background:new    ;}
	.st155{opacity:0.196;fill:url(#SVGID_81_);enable-background:new    ;}
	.st156{opacity:0.176;fill:url(#SVGID_82_);enable-background:new    ;}
	.st157{opacity:0.157;fill:url(#SVGID_83_);enable-background:new    ;}
	.st158{opacity:0.137;fill:url(#SVGID_84_);enable-background:new    ;}
	.st159{opacity:0.118;fill:url(#SVGID_85_);enable-background:new    ;}
	.st160{opacity:9.800000e-02;fill:url(#SVGID_86_);enable-background:new    ;}
	.st161{opacity:7.800000e-02;fill:url(#SVGID_87_);enable-background:new    ;}
	.st162{opacity:5.900000e-02;fill:url(#SVGID_88_);enable-background:new    ;}
	.st163{opacity:3.900000e-02;fill:url(#SVGID_89_);enable-background:new    ;}
	.st164{opacity:2.000000e-02;fill:url(#SVGID_90_);enable-background:new    ;}
</style>
<path class="st0" d="M85.5,32h4.1l-1-2.3l-41.2-16v68.8c0,0.1,0.1,0.3,0.3,0.3l37.5,21.7c0.1,0,0.2,0.1,0.2,0.1L85.5,32z"/>
<linearGradient id="SVGID_1_" gradientUnits="userSpaceOnUse" x1="97.9" y1="1418.1949" x2="97.9" y2="1335.595" gradientTransform="matrix(1 0 0 1 0 -1313.495)">
	<stop  offset="0" style="stop-color:#EFF0F8"/>
	<stop  offset="1" style="stop-color:#E0E0E0"/>
</linearGradient>
<path class="st1" d="M109.7,22.1L86,35.7v69c0.3,0,0.5-0.1,0.8-0.2l22.6-13c0.2-0.1,0.3-0.3,0.4-0.5L109.7,22.1z"/>
<path class="st2" d="M84.3,15v89l1,0.6c0.2,0.1,0.5,0.2,0.7,0.2c0.3,0,0.3-0.2,0.5-0.3l0.2-0.1l-0.3-10.5V77.2L86.9,15H84.3z"/>
<path class="st3" d="M86.9,93.9V35.1l-1,0.6v69h0.2c0.1,0,0.2-0.1,0.4-0.1l0.2-0.1l0.2-0.1L86.9,93.9z"/>
<linearGradient id="SVGID_2_" gradientUnits="userSpaceOnUse" x1="-313.382" y1="1350.4449" x2="-315.342" y2="1350.4449" gradientTransform="matrix(1 0 0 1 396.21 -1313.495)">
	<stop  offset="0" style="stop-color:#C0C6CE"/>
	<stop  offset="7.000000e-02" style="stop-color:#C6CBD2"/>
	<stop  offset="0.41" style="stop-color:#DEE0E2"/>
	<stop  offset="0.73" style="stop-color:#ECECEC"/>
	<stop  offset="1" style="stop-color:#F1F0EF"/>
</linearGradient>
<path class="st4" d="M82.8,37.3c0-0.6-0.3-1.1-0.8-1.4c-0.2-0.1-0.4-0.1-0.6-0.1l-0.6,0.3h0.4c0,0.1,0,0.1,0,0.2
	c0,0.6,0.3,1.1,0.8,1.4l0.2,0.1L82,38.1l0.6-0.3C82.8,37.7,82.9,37.5,82.8,37.3z"/>
<linearGradient id="SVGID_3_" gradientUnits="userSpaceOnUse" x1="-315.582" y1="1350.645" x2="-313.952" y2="1350.645" gradientTransform="matrix(1 0 0 1 396.21 -1313.495)">
	<stop  offset="0" style="stop-color:#B8BEC6"/>
	<stop  offset="0.76" style="stop-color:#BDC3CB"/>
	<stop  offset="1" style="stop-color:#C0C6CE"/>
</linearGradient>
<path class="st5" d="M82.3,37.6c0,0.5-0.4,0.7-0.8,0.5c-0.5-0.3-0.8-0.8-0.8-1.4c0-0.5,0.4-0.7,0.8-0.5C81.9,36.5,82.2,37,82.3,37.6
	z"/>
<path class="st6" d="M81.9,37.4c0,0.3-0.2,0.4-0.5,0.3c-0.3-0.2-0.5-0.5-0.5-0.8s0.2-0.4,0.5-0.3C81.7,36.8,81.9,37.1,81.9,37.4z"/>
<linearGradient id="SVGID_4_" gradientUnits="userSpaceOnUse" x1="-345.112" y1="1332.495" x2="-347.082" y2="1332.495" gradientTransform="matrix(1 0 0 1 396.21 -1313.495)">
	<stop  offset="0" style="stop-color:#C0C6CE"/>
	<stop  offset="7.000000e-02" style="stop-color:#C6CBD2"/>
	<stop  offset="0.41" style="stop-color:#DEE0E2"/>
	<stop  offset="0.73" style="stop-color:#ECECEC"/>
	<stop  offset="1" style="stop-color:#F1F0EF"/>
</linearGradient>
<path class="st7" d="M51.1,19.3c0-0.6-0.3-1.1-0.8-1.4c-0.2-0.1-0.4-0.1-0.6-0.1l-0.6,0.3h0.4c0,0.1,0,0.1,0,0.2
	c0,0.6,0.3,1.1,0.8,1.5l0.2,0.1l-0.2,0.3l0.6-0.3C51,19.7,51.1,19.5,51.1,19.3z"/>
<linearGradient id="SVGID_5_" gradientUnits="userSpaceOnUse" x1="-347.312" y1="1332.645" x2="-345.692" y2="1332.645" gradientTransform="matrix(1 0 0 1 396.21 -1313.495)">
	<stop  offset="0" style="stop-color:#B8BEC6"/>
	<stop  offset="0.76" style="stop-color:#BDC3CB"/>
	<stop  offset="1" style="stop-color:#C0C6CE"/>
</linearGradient>
<path class="st8" d="M50.5,19.6c0,0.5-0.4,0.7-0.8,0.5c-0.5-0.3-0.8-0.8-0.8-1.4c0-0.5,0.4-0.7,0.8-0.5C50.2,18.5,50.5,19,50.5,19.6
	z"/>
<path class="st6" d="M50.2,19.4c0,0.3-0.2,0.4-0.5,0.3c-0.3-0.2-0.5-0.5-0.5-0.8s0.2-0.4,0.5-0.3C50,18.8,50.2,19.1,50.2,19.4z"/>
<linearGradient id="SVGID_6_" gradientUnits="userSpaceOnUse" x1="-313.082" y1="1413.7122" x2="-315.042" y2="1413.7122" gradientTransform="matrix(1 0 0 1 396.21 -1313.495)">
	<stop  offset="0" style="stop-color:#C0C6CE"/>
	<stop  offset="7.000000e-02" style="stop-color:#C6CBD2"/>
	<stop  offset="0.41" style="stop-color:#DEE0E2"/>
	<stop  offset="0.73" style="stop-color:#ECECEC"/>
	<stop  offset="1" style="stop-color:#F1F0EF"/>
</linearGradient>
<path class="st9" d="M83.2,100.6c0-0.6-0.3-1.1-0.8-1.4C82.2,99,82,99,81.8,99.1l-0.6,0.3h0.4c0,0.1,0,0.1,0,0.2
	c0,0.6,0.3,1.1,0.8,1.4l0.2,0.1l-0.2,0.3l0.6-0.3C83.1,101,83.2,100.8,83.2,100.6z"/>
<linearGradient id="SVGID_7_" gradientUnits="userSpaceOnUse" x1="-315.282" y1="1413.9449" x2="-313.662" y2="1413.9449" gradientTransform="matrix(1 0 0 1 396.21 -1313.495)">
	<stop  offset="0" style="stop-color:#B8BEC6"/>
	<stop  offset="0.76" style="stop-color:#BDC3CB"/>
	<stop  offset="1" style="stop-color:#C0C6CE"/>
</linearGradient>
<path class="st10" d="M82.6,100.9c0,0.5-0.4,0.7-0.8,0.5c-0.5-0.3-0.8-0.8-0.8-1.4c0-0.5,0.4-0.7,0.8-0.5
	C82.2,99.8,82.5,100.3,82.6,100.9z"/>
<path class="st6" d="M82.2,100.8c0,0.3-0.2,0.4-0.5,0.3c-0.3-0.2-0.5-0.5-0.5-0.8s0.2-0.4,0.5-0.3S82.2,100.4,82.2,100.8z"/>
<linearGradient id="SVGID_8_" gradientUnits="userSpaceOnUse" x1="-345.212" y1="1395.045" x2="-347.182" y2="1395.045" gradientTransform="matrix(1 0 0 1 396.21 -1313.495)">
	<stop  offset="0" style="stop-color:#C0C6CE"/>
	<stop  offset="7.000000e-02" style="stop-color:#C6CBD2"/>
	<stop  offset="0.41" style="stop-color:#DEE0E2"/>
	<stop  offset="0.73" style="stop-color:#ECECEC"/>
	<stop  offset="1" style="stop-color:#F1F0EF"/>
</linearGradient>
<path class="st11" d="M51,81.9c0-0.6-0.3-1.1-0.8-1.4c-0.2-0.1-0.4-0.1-0.6-0.1L49,80.7h0.4c0,0.1,0,0.1,0,0.2
	c0,0.6,0.3,1.1,0.8,1.4l0.2,0.1l-0.2,0.3l0.6-0.3C50.9,82.3,51,82.1,51,81.9z"/>
<linearGradient id="SVGID_9_" gradientUnits="userSpaceOnUse" x1="-347.422" y1="1395.245" x2="-345.792" y2="1395.245" gradientTransform="matrix(1 0 0 1 396.21 -1313.495)">
	<stop  offset="0" style="stop-color:#B8BEC6"/>
	<stop  offset="0.76" style="stop-color:#BDC3CB"/>
	<stop  offset="1" style="stop-color:#C0C6CE"/>
</linearGradient>
<path class="st12" d="M50.4,82.2c0,0.5-0.4,0.7-0.8,0.5c-0.5-0.3-0.8-0.8-0.8-1.4c0-0.5,0.4-0.7,0.8-0.5
	C50.1,81.1,50.4,81.6,50.4,82.2z"/>
<path class="st6" d="M50.1,82c0,0.3-0.2,0.4-0.5,0.3c-0.3-0.2-0.5-0.5-0.5-0.8s0.2-0.4,0.5-0.3C49.9,81.4,50.1,81.7,50.1,82z"/>
<path class="st13" d="M49.3,17.5l33.1,19.1v64.3L49.3,81.8V17.5z"/>
<path class="st14" d="M47.4,72.5l36.8-24.7V35.2L47.4,13.7V72.5z"/>
<path class="st15" d="M85.2,35.7L47.7,14.1c-0.4-0.2-0.3-0.6,0.1-0.9l22.6-13c0.5-0.3,1-0.3,1.5-0.1l37.5,21.6
	c0.4,0.2,0.3,0.6-0.1,0.9l-22.6,13C86.3,35.9,85.7,35.9,85.2,35.7z"/>
<linearGradient id="SVGID_10_" gradientUnits="userSpaceOnUse" x1="51.7" y1="1331.395" x2="102.8" y2="1331.395" gradientTransform="matrix(1 0 0 1 0 -1313.495)">
	<stop  offset="0" style="stop-color:#EFF0F8"/>
	<stop  offset="1" style="stop-color:#E2E2E2"/>
</linearGradient>
<path class="st16" d="M71.5,2.4l-18,10.4l-1.8-0.3v1.3l33.9,19.6l17.2-11.7L71.5,2.4z"/>
<linearGradient id="SVGID_11_" gradientUnits="userSpaceOnUse" x1="85.6" y1="1340.545" x2="105.4" y2="1340.545" gradientTransform="matrix(1 0 0 1 0 -1313.495)">
	<stop  offset="0" style="stop-color:#E9E8E9"/>
	<stop  offset="1" style="stop-color:#C7C7C7"/>
</linearGradient>
<path class="st17" d="M105.4,20.7V22L85.6,33.4v-1.3L105.4,20.7z"/>
<path class="st15" d="M85.6,32.1L51.7,12.5L71.5,1.1l33.9,19.6L85.6,32.1z"/>
<linearGradient id="SVGID_12_" gradientUnits="userSpaceOnUse" x1="97.85" y1="1391.6949" x2="97.85" y2="1359.295" gradientTransform="matrix(1 0 0 1 0 -1313.495)">
	<stop  offset="0" style="stop-color:#B8BFC7"/>
	<stop  offset="1" style="stop-color:#C0C7CF"/>
</linearGradient>
<path class="st18" d="M105.2,46.3v21.8l-15.7,9.1v1l16.7-9.6V45.8L105.2,46.3z"/>
<g>
	
		<linearGradient id="SVGID_13_" gradientUnits="userSpaceOnUse" x1="89.5" y1="1390.6949" x2="116.2" y2="1390.6949" gradientTransform="matrix(1 0 0 1 0 -1313.495)">
		<stop  offset="0" style="stop-color:#9AA6D4"/>
		<stop  offset="1" style="stop-color:#E9E8E9"/>
	</linearGradient>
	<path class="st19" d="M116.2,74.5l-0.9,0.5l-9-5.2c-0.2-0.1-0.4-0.1-0.6,0l-15.4,8.9l-0.8-0.4l0.3,0.8c0,0,0,0.1,0.1,0.1l9.4,5.4
		c0.2,0.1,0.4,0.1,0.6,0l15.8-9.1c0.1,0,0.1-0.1,0.1-0.1L116.2,74.5z"/>
	<path class="st15" d="M116,74.6L99.8,84c-0.2,0.1-0.4,0.1-0.6,0l-9.7-5.6c-0.2-0.1-0.1-0.2,0-0.3l16.2-9.3c0.2-0.1,0.4-0.1,0.6,0
		l9.7,5.6C116.2,74.4,116.2,74.5,116,74.6z"/>
	<path class="st20" d="M94.9,81.9v-0.2l0.6,0.4v0.2L94.9,81.9C94.9,82,94.9,82,94.9,81.9z M95.9,82.5v-0.2l0.6,0.4v0.2L95.9,82.5z"
		/>
	<path class="st3" d="M92.1,77.9l13.5-7.8c0.1-0.1,0.2-0.1,0.3,0l4.8,2.8c0,0,0.1,0.1,0,0.1l0,0l-13.5,7.8c-0.1,0.1-0.2,0.1-0.3,0
		L92.1,77.9C92,78,92,78,92.1,77.9C92,77.9,92.1,77.9,92.1,77.9z"/>
	<path class="st20" d="M92.1,78.1l13.4-7.8c0.1-0.1,0.2-0.1,0.3,0l4.8,2.8c0,0,0.1-0.1,0-0.1l0,0l-4.8-2.8c-0.1-0.1-0.2-0.1-0.3,0
		L92.1,78.1C92,77.9,92,78,92.1,78.1C92,78,92.1,78.1,92.1,78.1z"/>
	<path class="st21" d="M106.2,70.8l-11.7,6.8L94,77.3l11.7-6.8L106.2,70.8z M107.5,71.6l-11,6.3L96,77.6l11-6.3L107.5,71.6z
		 M108.3,72l-12.9,7.4l-0.5-0.3l12.9-7.4L108.3,72z M109.1,72.5L96.2,80l-0.5-0.3l12.9-7.5L109.1,72.5z M110,73l-12.9,7.5l-0.5-0.3
		l12.9-7.4L110,73z M93.8,78l-0.5,0.3L92.8,78l0.5-0.3L93.8,78z M95.6,78.4l-1,0.6L94,78.7l1.1-0.6L95.6,78.4z"/>
	<path class="st22" d="M106.1,79.8l3.6-2.1c0.1,0,0.1-0.1,0.1-0.2l-0.1-0.1l-2.5-1.4c-0.2-0.1-0.3-0.1-0.5,0l-3.6,2.1
		c-0.1,0-0.1,0.1-0.1,0.2l0.1,0.1l2.5,1.4C105.7,79.9,105.9,79.9,106.1,79.8z"/>
	<path class="st23" d="M103.1,78.2l3.6-2.1c0.2-0.1,0.3-0.1,0.5,0l2.5,1.4l0.1,0.1c0-0.1,0-0.2-0.1-0.2l-2.5-1.4
		c-0.2-0.1-0.3-0.1-0.5,0L103.1,78.2C103,78.1,102.9,78.2,103.1,78.2C103,78.2,103,78.2,103.1,78.2z"/>
</g>
<path class="st24" d="M105.2,46.3l-15.7,9.1v21.8l15.7-9.1V46.3z"/>
<path class="st2" d="M105.2,46.3l-15.7,9.1v21.8l15.7-9.1V46.3z"/>
<path class="st0" d="M104.3,68.7V47.8l-14.9,8.6v20.8L104.3,68.7z"/>
<g class="st25">
	<g>
		<g>
			<defs>
				<polygon id="SVGID_14_" points="104.3,68.7 104.3,47.8 89.5,56.4 89.5,77.2 				"/>
			</defs>
			<clipPath id="SVGID_15_">
				<use xlink:href="#SVGID_14_"  style="overflow:visible;"/>
			</clipPath>
			<g class="st26">
				
					<linearGradient id="SVGID_16_" gradientUnits="userSpaceOnUse" x1="88.346" y1="1383.895" x2="114.9365" y2="1383.895" gradientTransform="matrix(1 0 0 1 0 -1313.495)">
					<stop  offset="0" style="stop-color:#C0BFF6"/>
					<stop  offset="0.29" style="stop-color:#C5C4F7"/>
					<stop  offset="0.64" style="stop-color:#D3D2F9"/>
					<stop  offset="1" style="stop-color:#E9E9FD"/>
				</linearGradient>
				<path class="st27" d="M105.9,68.7L89.7,78c-0.2,0.1-0.4,0.1-0.6,0l-9.6-5.6c-0.2-0.1-0.1-0.2,0-0.3l16.2-9.3
					c0.2-0.1,0.4-0.1,0.6,0l9.6,5.6C106,68.4,106,68.6,105.9,68.7z"/>
				
					<linearGradient id="SVGID_17_" gradientUnits="userSpaceOnUse" x1="86.5916" y1="1381.895" x2="93.3916" y2="1381.895" gradientTransform="matrix(1 0 0 1 0 -1313.495)">
					<stop  offset="0" style="stop-color:#C0BFF6"/>
					<stop  offset="0.29" style="stop-color:#C5C4F7"/>
					<stop  offset="0.64" style="stop-color:#D3D2F9"/>
					<stop  offset="1" style="stop-color:#E9E9FD"/>
				</linearGradient>
				<path class="st28" d="M89.7,70.3l3.6-2.1c0.1,0,0.1-0.1,0.1-0.2l-0.1-0.1l-2.5-1.4c-0.2-0.1-0.3-0.1-0.5,0l-3.6,2.1
					c-0.1,0-0.1,0.1-0.1,0.2l0.1,0.1l2.5,1.4C89.3,70.4,89.5,70.4,89.7,70.3z"/>
				<path class="st29" d="M86.7,68.8l3.6-2.1c0.2-0.1,0.3-0.1,0.5,0l2.5,1.4l0.1,0.1c0-0.1,0-0.2-0.1-0.2l-2.5-1.4
					c-0.2-0.1-0.3-0.1-0.5,0L86.7,68.8C86.6,68.7,86.6,68.8,86.7,68.8C86.6,68.8,86.7,68.8,86.7,68.8L86.7,68.8z"/>
				<path class="st30" d="M85.1,73.6l13.4-7.7c0.1-0.1,0.2-0.1,0.3,0l4.8,2.8c0,0,0.1,0.1,0,0.1l0,0l-13.4,7.7
					c-0.1,0.1-0.2,0.1-0.3,0L85.1,73.6C85.1,73.8,85,73.7,85.1,73.6L85.1,73.6z"/>
				<path class="st29" d="M85.1,73.8l13.3-7.7c0.1-0.1,0.2-0.1,0.3,0l4.7,2.7c0,0,0.1-0.1,0-0.1l0,0l-4.8-2.8
					c-0.1-0.1-0.2-0.1-0.3,0L85,73.6c0,0-0.1,0.1,0,0.1C85,73.8,85.1,73.8,85.1,73.8z"/>
				<path class="st24" d="M102.3,68.4l-11.7,6.7l0.5,0.3l11.7-6.7L102.3,68.4z M101.1,67.7L90,74.1l0.5,0.3l11.1-6.4L101.1,67.7z
					 M89.2,74.6l-1,0.6l0.5,0.3l1-0.6L89.2,74.6z M90.1,75.5l-0.7,0.4l0.5,0.3l0.7-0.4L90.1,75.5z M100.3,67.3l-13,7.5l0.5,0.3
					l13-7.5L100.3,67.3z M99.6,66.8l-13,7.5l0.5,0.3l13-7.5L99.6,66.8z M98.8,66.4l-13,7.5l0.5,0.3l13-7.5L98.8,66.4z"/>
			</g>
		</g>
	</g>
</g>
<path class="st22" d="M93.8,58.1l-0.9,0.5V58l0.9-0.5V58.1z M93.8,62.4l-0.9,0.5v-3.7l0.9-0.5V62.4z M93.8,64.4l-1,0.6v-1.5l0.9-0.5
	L93.8,64.4L93.8,64.4z M93.8,66.6l-0.9,0.5v-1.5l0.9-0.6V66.6z M95.2,59.4l-0.9,0.5v-1.5l0.9-0.5V59.4z M95.2,62.2l-0.9,0.5v-2.2
	l0.9-0.5V62.2z M95.2,64.7l-0.9,0.5v-1.8l0.9-0.5V64.7z M93.8,68.7l-0.9,0.6v-1.5l0.9-0.5V68.7z M95.2,57.3l-0.9,0.5v-0.6l0.9-0.5
	V57.3z"/>
<linearGradient id="SVGID_18_" gradientUnits="userSpaceOnUse" x1="92.816" y1="730.45" x2="94.456" y2="730.45" gradientTransform="matrix(1 0 0 1 0 -660)">
	<stop  offset="0.15" style="stop-color:#4E9DD5"/>
	<stop  offset="1" style="stop-color:#68BBE8"/>
</linearGradient>
<path class="st31" d="M94.5,70.3l-1.6,0.9v-0.6l1.6-0.9V70.3z"/>
<g>
	<path class="st6" d="M63.5,11.2l-0.6-0.3v-0.3l5.2-3l0.7,0.3l-0.1,0.2L63.5,11.2z"/>
	
		<linearGradient id="SVGID_19_" gradientUnits="userSpaceOnUse" x1="-899.309" y1="1322.645" x2="-892.739" y2="1322.645" gradientTransform="matrix(1 0 0 1 961.89 -1313.495)">
		<stop  offset="0" style="stop-color:#7F8F9E"/>
		<stop  offset="0.18" style="stop-color:#8493A2"/>
		<stop  offset="0.4" style="stop-color:#92A0AD"/>
		<stop  offset="0.64" style="stop-color:#AAB5BF"/>
		<stop  offset="0.88" style="stop-color:#CBD1D7"/>
		<stop  offset="1" style="stop-color:#DEE2E6"/>
	</linearGradient>
	<path class="st32" d="M68.2,7.8l0.6,0.3l0.4-0.2l-0.9-0.5l-5.7,3.3l0.4,0.2L68.2,7.8z"/>
	<path class="st6" d="M65.2,12.1l-0.6-0.3v-0.3l5.2-3l0.7,0.3L70.4,9L65.2,12.1z"/>
	
		<linearGradient id="SVGID_20_" gradientUnits="userSpaceOnUse" x1="-897.609" y1="1323.645" x2="-891.029" y2="1323.645" gradientTransform="matrix(1 0 0 1 961.89 -1313.495)">
		<stop  offset="0" style="stop-color:#7F8F9E"/>
		<stop  offset="0.18" style="stop-color:#8493A2"/>
		<stop  offset="0.4" style="stop-color:#92A0AD"/>
		<stop  offset="0.64" style="stop-color:#AAB5BF"/>
		<stop  offset="0.88" style="stop-color:#CBD1D7"/>
		<stop  offset="1" style="stop-color:#DEE2E6"/>
	</linearGradient>
	<path class="st33" d="M69.9,8.8l0.6,0.3l0.4-0.2L70,8.4l-5.7,3.3l0.4,0.2L69.9,8.8z"/>
	<path class="st6" d="M66.9,13.1l-0.6-0.3v-0.3l5.2-3l0.7,0.4l-0.1,0.2L66.9,13.1z"/>
	
		<linearGradient id="SVGID_21_" gradientUnits="userSpaceOnUse" x1="-895.899" y1="1324.545" x2="-889.319" y2="1324.545" gradientTransform="matrix(1 0 0 1 961.89 -1313.495)">
		<stop  offset="0" style="stop-color:#7F8F9E"/>
		<stop  offset="0.18" style="stop-color:#8493A2"/>
		<stop  offset="0.4" style="stop-color:#92A0AD"/>
		<stop  offset="0.64" style="stop-color:#AAB5BF"/>
		<stop  offset="0.88" style="stop-color:#CBD1D7"/>
		<stop  offset="1" style="stop-color:#DEE2E6"/>
	</linearGradient>
	<path class="st34" d="M71.7,9.7l0.6,0.3l0.4-0.2l-0.9-0.5L66,12.6l0.4,0.2L71.7,9.7z"/>
	<path class="st6" d="M68.6,14.1L68,13.8l0.1-0.3l5.2-3l0.7,0.4L73.9,11L68.6,14.1z"/>
	
		<linearGradient id="SVGID_22_" gradientUnits="userSpaceOnUse" x1="-894.189" y1="1325.545" x2="-887.609" y2="1325.545" gradientTransform="matrix(1 0 0 1 961.89 -1313.495)">
		<stop  offset="0" style="stop-color:#7F8F9E"/>
		<stop  offset="0.18" style="stop-color:#8493A2"/>
		<stop  offset="0.4" style="stop-color:#92A0AD"/>
		<stop  offset="0.64" style="stop-color:#AAB5BF"/>
		<stop  offset="0.88" style="stop-color:#CBD1D7"/>
		<stop  offset="1" style="stop-color:#DEE2E6"/>
	</linearGradient>
	<path class="st35" d="M73.4,10.7L74,11l0.4-0.2l-0.9-0.5l-5.7,3.3l0.4,0.2L73.4,10.7z"/>
	<g>
		<path class="st6" d="M73.6,17L73,16.7v-0.3l5.2-3l0.7,0.3l0,0.3L73.6,17z"/>
		
			<linearGradient id="SVGID_23_" gradientUnits="userSpaceOnUse" x1="-889.199" y1="1328.4449" x2="-882.619" y2="1328.4449" gradientTransform="matrix(1 0 0 1 961.89 -1313.495)">
			<stop  offset="0" style="stop-color:#7F8F9E"/>
			<stop  offset="0.18" style="stop-color:#8493A2"/>
			<stop  offset="0.4" style="stop-color:#92A0AD"/>
			<stop  offset="0.64" style="stop-color:#AAB5BF"/>
			<stop  offset="0.88" style="stop-color:#CBD1D7"/>
			<stop  offset="1" style="stop-color:#DEE2E6"/>
		</linearGradient>
		<path class="st36" d="M78.4,13.6l0.6,0.3l0.4-0.2l-0.9-0.5l-5.7,3.3l0.4,0.2L78.4,13.6z"/>
		<path class="st6" d="M75.3,18l-0.6-0.3v-0.3l5.2-3l0.7,0.3l-0.1,0.2L75.3,18z"/>
		
			<linearGradient id="SVGID_24_" gradientUnits="userSpaceOnUse" x1="-887.489" y1="1329.4449" x2="-880.909" y2="1329.4449" gradientTransform="matrix(1 0 0 1 961.89 -1313.495)">
			<stop  offset="0" style="stop-color:#7F8F9E"/>
			<stop  offset="0.18" style="stop-color:#8493A2"/>
			<stop  offset="0.4" style="stop-color:#92A0AD"/>
			<stop  offset="0.64" style="stop-color:#AAB5BF"/>
			<stop  offset="0.88" style="stop-color:#CBD1D7"/>
			<stop  offset="1" style="stop-color:#DEE2E6"/>
		</linearGradient>
		<path class="st37" d="M80.1,14.6l0.6,0.3l0.4-0.2l-0.9-0.5l-5.7,3.3l0.4,0.2L80.1,14.6z"/>
		<path class="st6" d="M77,19l-0.6-0.3l0.1-0.3l5.2-3l0.7,0.4L82.3,16L77,19z"/>
		
			<linearGradient id="SVGID_25_" gradientUnits="userSpaceOnUse" x1="-885.779" y1="1330.4449" x2="-879.199" y2="1330.4449" gradientTransform="matrix(1 0 0 1 961.89 -1313.495)">
			<stop  offset="0" style="stop-color:#7F8F9E"/>
			<stop  offset="0.18" style="stop-color:#8493A2"/>
			<stop  offset="0.4" style="stop-color:#92A0AD"/>
			<stop  offset="0.64" style="stop-color:#AAB5BF"/>
			<stop  offset="0.88" style="stop-color:#CBD1D7"/>
			<stop  offset="1" style="stop-color:#DEE2E6"/>
		</linearGradient>
		<path class="st38" d="M81.8,15.6l0.6,0.3l0.4-0.2l-0.9-0.5l-5.7,3.3l0.4,0.2L81.8,15.6z"/>
		<g>
			<path class="st6" d="M78.7,20l-0.6-0.3l0.1-0.3l5.2-3l0.7,0.3L84,16.9L78.7,20z"/>
			
				<linearGradient id="SVGID_26_" gradientUnits="userSpaceOnUse" x1="-884.069" y1="1331.4449" x2="-877.489" y2="1331.4449" gradientTransform="matrix(1 0 0 1 961.89 -1313.495)">
				<stop  offset="0" style="stop-color:#7F8F9E"/>
				<stop  offset="0.18" style="stop-color:#8493A2"/>
				<stop  offset="0.4" style="stop-color:#92A0AD"/>
				<stop  offset="0.64" style="stop-color:#AAB5BF"/>
				<stop  offset="0.88" style="stop-color:#CBD1D7"/>
				<stop  offset="1" style="stop-color:#DEE2E6"/>
			</linearGradient>
			<path class="st39" d="M83.5,16.6l0.6,0.3l0.4-0.2l-0.9-0.5l-5.7,3.3l0.4,0.2L83.5,16.6z"/>
		</g>
	</g>
	<g>
		<path class="st6" d="M83.7,22.9l-0.6-0.3v-0.3l5.2-3l0.7,0.3l0,0.2L83.7,22.9z"/>
		
			<linearGradient id="SVGID_27_" gradientUnits="userSpaceOnUse" x1="-879.079" y1="1334.345" x2="-872.499" y2="1334.345" gradientTransform="matrix(1 0 0 1 961.89 -1313.495)">
			<stop  offset="0" style="stop-color:#7F8F9E"/>
			<stop  offset="0.18" style="stop-color:#8493A2"/>
			<stop  offset="0.4" style="stop-color:#92A0AD"/>
			<stop  offset="0.64" style="stop-color:#AAB5BF"/>
			<stop  offset="0.88" style="stop-color:#CBD1D7"/>
			<stop  offset="1" style="stop-color:#DEE2E6"/>
		</linearGradient>
		<path class="st40" d="M88.5,19.5l0.6,0.3l0.4-0.2l-0.9-0.5l-5.7,3.3l0.4,0.2L88.5,19.5z"/>
		<path class="st6" d="M85.5,23.8l-0.6-0.3l0.1-0.3l5.2-3l0.7,0.3l-0.1,0.2L85.5,23.8z"/>
		
			<linearGradient id="SVGID_28_" gradientUnits="userSpaceOnUse" x1="-877.369" y1="1335.245" x2="-870.789" y2="1335.245" gradientTransform="matrix(1 0 0 1 961.89 -1313.495)">
			<stop  offset="0" style="stop-color:#7F8F9E"/>
			<stop  offset="0.18" style="stop-color:#8493A2"/>
			<stop  offset="0.4" style="stop-color:#92A0AD"/>
			<stop  offset="0.64" style="stop-color:#AAB5BF"/>
			<stop  offset="0.88" style="stop-color:#CBD1D7"/>
			<stop  offset="1" style="stop-color:#DEE2E6"/>
		</linearGradient>
		<path class="st41" d="M90.2,20.5l0.6,0.3l0.4-0.2l-1-0.6l-5.7,3.3l0.4,0.2L90.2,20.5z"/>
		<path class="st6" d="M87.2,24.8l-0.6-0.3l0.1-0.3l5.2-3l0.7,0.4l-0.1,0.2L87.2,24.8z"/>
		
			<linearGradient id="SVGID_29_" gradientUnits="userSpaceOnUse" x1="-875.659" y1="1336.245" x2="-869.079" y2="1336.245" gradientTransform="matrix(1 0 0 1 961.89 -1313.495)">
			<stop  offset="0" style="stop-color:#7F8F9E"/>
			<stop  offset="0.18" style="stop-color:#8493A2"/>
			<stop  offset="0.4" style="stop-color:#92A0AD"/>
			<stop  offset="0.64" style="stop-color:#AAB5BF"/>
			<stop  offset="0.88" style="stop-color:#CBD1D7"/>
			<stop  offset="1" style="stop-color:#DEE2E6"/>
		</linearGradient>
		<path class="st42" d="M91.9,21.4l0.6,0.3l0.4-0.2l-1-0.5l-5.7,3.3l0.4,0.2L91.9,21.4z"/>
		<g>
			<path class="st6" d="M88.9,25.8l-0.6-0.3l0.1-0.3l5.2-3l0.7,0.3l-0.1,0.2L88.9,25.8z"/>
			
				<linearGradient id="SVGID_30_" gradientUnits="userSpaceOnUse" x1="-873.959" y1="1337.245" x2="-867.379" y2="1337.245" gradientTransform="matrix(1 0 0 1 961.89 -1313.495)">
				<stop  offset="0" style="stop-color:#7F8F9E"/>
				<stop  offset="0.18" style="stop-color:#8493A2"/>
				<stop  offset="0.4" style="stop-color:#92A0AD"/>
				<stop  offset="0.64" style="stop-color:#AAB5BF"/>
				<stop  offset="0.88" style="stop-color:#CBD1D7"/>
				<stop  offset="1" style="stop-color:#DEE2E6"/>
			</linearGradient>
			<path class="st43" d="M93.6,22.4l0.6,0.3l0.4-0.2l-1-0.5l-5.7,3.3l0.4,0.2L93.6,22.4z"/>
		</g>
	</g>
</g>
<g>
	<g class="st44">
		
			<linearGradient id="SVGID_31_" gradientUnits="userSpaceOnUse" x1="71.8727" y1="-606.6486" x2="63.4267" y2="-588.7766" gradientTransform="matrix(1 0 0 -1 0 -540.216)">
			<stop  offset="0.15" style="stop-color:#4EA0D8"/>
			<stop  offset="1" style="stop-color:#68BDEA"/>
		</linearGradient>
		<path class="st45" d="M58.9,46.1l-0.7-1L60,44c0.1-0.1,0.2-0.1,0.2-0.1l0,0c0.7-0.3,1.5-0.2,2.2,0.3c0.5,0.3,0.9,0.7,1.3,1.1
			l1.2-0.7c0.1-0.1,0.2-0.1,0.2-0.1c0.9-0.4,2-0.3,2.9,0.3c2.5,1.5,4.4,5.4,4.4,8.7c0,0.3,0,0.6-0.1,0.8c1.4,1.5,2.3,3.4,2.3,5.5
			c0.1,0.9-0.3,1.8-0.9,2.4c-0.1,0.1-0.2,0.1-0.3,0.2l-1.8,1.1l-1.6-2l0.1-0.3l-10.2-5.9c-2-1.5-3.2-3.8-3.2-6.3
			C56.7,47,57.6,46,58.9,46.1L58.9,46.1z"/>
		
			<linearGradient id="SVGID_32_" gradientUnits="userSpaceOnUse" x1="63.3685" y1="-589.1851" x2="60.9995" y2="-585.4931" gradientTransform="matrix(1 0 0 -1 0 -540.216)">
			<stop  offset="0.15" style="stop-color:#4EA0D8"/>
			<stop  offset="1" style="stop-color:#68BDEA"/>
		</linearGradient>
		<path class="st46" d="M63.7,45.3c-0.4-0.4-0.8-0.8-1.3-1.1c-0.6-0.5-1.4-0.6-2.2-0.3l0,0C60.1,43.9,60,44,60,44l-1.8,1.1l0.6,0.8
			l3.2,0.9L63.7,45.3z"/>
		
			<linearGradient id="SVGID_33_" gradientUnits="userSpaceOnUse" x1="73.7719" y1="-602.5077" x2="70.3868" y2="-595.3466" gradientTransform="matrix(1 0 0 -1 0 -540.216)">
			<stop  offset="0.15" style="stop-color:#4EA0D8"/>
			<stop  offset="1" style="stop-color:#68BDEA"/>
		</linearGradient>
		<path class="st47" d="M73.5,62.2c0.1,0,0.2-0.1,0.3-0.2c0.7-0.6,1-1.5,0.9-2.4c0-2.1-0.9-4-2.3-5.5l-2.1,1.2l0.3,6.6l1.1,1.2
			L73.5,62.2z"/>
		<path class="st48" d="M56.9,47.3c0.3-2.1,1.7-3,3.5-2c0.6,0.4,1.2,0.9,1.6,1.5c0.8-1.5,2.3-2,4-0.9c2.5,1.5,4.4,5.4,4.4,8.7
			c0,0.3,0,0.6-0.1,0.8c1.4,1.5,2.3,3.4,2.3,5.5c0,2.3-1.4,3.3-3.1,2.3l-11.6-6.8c-2-1.5-3.2-3.8-3.2-6.3
			C54.7,48.3,55.6,47.2,56.9,47.3z"/>
	</g>
</g>
<g>
	<g>
		<path class="st0" d="M121.2,115.2v2.2c0,0.5-0.3,1.1-0.8,1.3l-0.3,0.2c-1.3,0.8-2.9,0.8-4.2,0.1l-3.9-2.1
			c-0.3-0.2-0.4-0.6-0.3-0.9c0.1-0.1,0.1-0.2,0.3-0.3c0.7-0.6,1.5-0.9,2.4-1c0.4,0.1,0.8,0.1,1.1,0.1l1.8,0.2L121.2,115.2z"/>
		<path class="st2" d="M112,116.4l3.9,2.1c1.3,0.7,2.9,0.7,4.2-0.1l0.3-0.2c0.5-0.3,0.8-0.8,0.8-1.3v0.5c0,0.5-0.3,1.1-0.8,1.3
			l-0.3,0.2c-1.3,0.8-2.9,0.8-4.2,0.1l-3.9-2.1c-0.3-0.2-0.4-0.5-0.3-0.8C111.8,116.2,111.9,116.3,112,116.4z"/>
		<g>
			<path class="st49" d="M114.9,116.2l-0.5-0.2l0.5-1.1c0.2,0,0.4,0,0.6,0L114.9,116.2z M115.8,116.4l-0.5-0.2l0.6-1.2l0.5,0.1
				L115.8,116.4z"/>
		</g>
		<path class="st0" d="M114.9,119.7v2.2c0,0.6-0.3,1.1-0.8,1.3l-0.3,0.2c-1.3,0.8-2.9,0.8-4.2,0.1l-3.9-2.1
			c-0.3-0.2-0.4-0.6-0.3-0.9c0.1-0.1,0.1-0.2,0.3-0.3c0.7-0.6,1.5-0.9,2.4-1c0.4,0.1,0.8,0.1,1.1,0.1l1.8,0.2L114.9,119.7z"/>
		<path class="st2" d="M105.6,120.9l3.9,2.1c1.3,0.7,2.9,0.7,4.2-0.1l0.3-0.2c0.5-0.3,0.8-0.8,0.8-1.3v0.5c0,0.5-0.3,1.1-0.8,1.3
			l-0.3,0.2c-1.3,0.8-2.9,0.8-4.2,0.1l-3.9-2.1c-0.3-0.2-0.4-0.5-0.3-0.8C105.4,120.7,105.5,120.8,105.6,120.9L105.6,120.9z"/>
		<g>
			<path class="st50" d="M114.3,79.2c0.9,0,1.6-0.7,1.6-1.6c0-0.6-0.3-1.1-0.8-1.4l-7.3-4.2c-0.8-0.4-1.8-0.2-2.2,0.6
				c-0.4,0.8-0.2,1.8,0.6,2.2l7.3,4.2C113.7,79.1,114,79.2,114.3,79.2z"/>
		</g>
		<path class="st50" d="M108.5,75L108.5,75c0.1,0.3-0.1,0.5-0.3,0.5l0,0l-1.8,0.4c-0.2,0-0.4-0.1-0.4-0.3v-0.1
			c0-0.2,0.1-0.4,0.3-0.5l1.8-0.4C108.3,74.7,108.5,74.8,108.5,75L108.5,75L108.5,75z"/>
		<g>
			<path class="st51" d="M119.3,117.6c1.1,0,1.9-0.9,1.9-2v-0.1l-0.7-13.4l0.9-14.6c0-1.2-0.9-2.1-2.1-2.1l0,0
				c-1.2,0-3.4,0.9-3.4,2.1l1.3,27.9C117.2,116.6,118.2,117.6,119.3,117.6z"/>
		</g>
		<g>
			<path class="st51" d="M112.7,122.1c1.2,0,2.1-0.9,2.1-2.1l0,0l-0.3-14.3l1.6-13.6c0-1.2-2.3-2.1-3.4-2.1c-1.2,0-2.1,0.9-2.1,2.1
				l0,0V120C110.6,121.2,111.6,122.1,112.7,122.1z"/>
		</g>
		<g>
			<path class="st52" d="M120.8,85.1l0.9,6.7c0,0.8-0.5,1.6-1.2,2.1L115,97c-1.1,0.6-2.4,0.2-3-0.8c-0.2-0.3-0.3-0.7-0.3-1.1V81.4
				c0-0.8-1.8-0.3-1-0.7l7.7-4.5C119.8,75.4,120.8,83.4,120.8,85.1L120.8,85.1z"/>
		</g>
		<g>
			<path class="st48" d="M121.5,74.3l-0.4,6.5c0.1,1.4,0.1,2.8,0.2,4.2c0.2,2.2,0.4,4.5,0.4,6.7c-0.1,0.5-1.5,1.6-3.3,2.5
				c-0.2,0.1-0.3-4.2-0.5-4.1s-0.3,4.5-0.5,4.6c-2.3,1-5.1,1.7-7,0.8l0.2-8l-0.4-5c-0.2-3.4-0.9-7.9,2.5-10c0.1-0.1,0.3-0.2,0.4-0.3
				l3.6-1.9c0.8-0.5,1.9-0.5,2.7,0C120.8,71.2,121.6,72.7,121.5,74.3z"/>
		</g>
		<g>
			<path class="st49" d="M108.5,120.7l-0.5-0.2l0.5-1.1c0.2,0,0.4,0,0.6,0L108.5,120.7z M109.5,120.9l-0.5-0.2l0.6-1.2l0.5,0.1
				L109.5,120.9z"/>
		</g>
		<g>
			<path class="st50" d="M116.1,72.6c0.7,0,1.3-0.6,1.3-1.3v-5c0-0.7-0.6-1.3-1.3-1.3c-0.7,0-1.3,0.6-1.3,1.3v5
				C114.8,72,115.4,72.6,116.1,72.6z"/>
		</g>
		<g>
			<path class="st50" d="M116.2,71h-0.5c-2.6,0-4.7-2.1-4.7-4.7v-3.7h5.2c0.6,0,1,0.5,1,1l0,0V70C117.2,70.6,116.8,71,116.2,71
				L116.2,71z"/>
		</g>
		<path class="st21" d="M109.4,60.8c0.2-0.3,0.5-0.6,0.9-0.7c0.7-0.1,1.4-0.2,2.1-0.2c0.7-0.1,1.5-0.1,2.2-0.1
			c1.5,0.1,2.9,0.6,4.1,1.4c0.7,0.4,1.1,1,1.2,1.8c0.3,1.1,0.4,2.3,0.3,3.5c-0.2,1.2-0.7,2.2-1.5,3.1c-0.2,0.3-0.6,0.6-0.9,0.8
			c-1.5,0.6-2.4-1.9-2.6-3c-0.1-0.4-0.2-0.8-0.6-0.9c-0.3-0.1-0.5,0-0.7,0.3c-0.2,0.2-0.3,0.5-0.3,0.7c0,0.1-0.1,0.3-0.2,0.4
			s-0.3,0.2-0.4,0.1l-0.1-2.5c0-0.5,0.1-1.3-0.2-1.7c-0.3-0.3-1-0.3-1.3-0.5c-0.6-0.1-1.2-0.4-1.6-0.8c-0.4-0.4-0.5-0.9-0.3-1.4
			C109.3,61,109.3,60.9,109.4,60.8z"/>
		<path class="st21" d="M114.6,69.4L114.6,69.4c-0.3-0.9-1-1.3-1.1-2.1c0-0.2,0-0.4,0-0.5c-0.2,0-0.4-0.1-0.6-0.1
			c0,0.6,0.1,1.8-0.6,2.2c-0.3,0.1-0.6,0.1-0.8-0.2c-0.1-0.2-0.1-0.5-0.1-0.7s-0.3-0.7-0.5-0.7c-0.3,0.1-0.3,0.7-0.3,0.9
			c0,0.6,0.1,1.2,0.4,1.8c0.5,0.7,1.3,1.2,2.2,1.2c0.3,0,0.6,0,0.9-0.1s0.5-0.3,0.7-0.6C114.8,70,114.7,69.7,114.6,69.4L114.6,69.4z
			"/>
		<path class="st50" d="M102.8,79.6L102.8,79.6c-0.3,0-0.4-0.2-0.4-0.3l0,0v-1.6c0-0.2,0.2-0.3,0.3-0.3h0.1c0.2,0,0.3,0.2,0.3,0.3
			v1.6C103.1,79.4,103,79.6,102.8,79.6L102.8,79.6z"/>
		<path class="st53" d="M111.5,82.7c-0.3,0.6-0.7,1-1.2,1.4l-0.1-1.3c0-0.5-0.1-1.1-0.1-1.6c0-0.6,0-1.1,0.1-1.7l1.6-3.2
			c0.3-0.6,1-0.9,1.6-0.6c0,0,0.1,0,0.1,0.1c0.6,0.4,0.8,1.2,0.5,1.8L111.5,82.7z"/>
		<g>
			<path class="st50" d="M107.1,84.5c1.5,0,2.9-0.8,3.7-2l3.3-5.2c0.4-0.7,0.2-1.6-0.5-2s-1.6-0.2-2,0.5l-3.3,5.2
				c-0.4,0.7-1.3,0.9-2,0.5l-0.1-0.1l-4.4-3.5c-0.6-0.5-1.5-0.4-2,0.2s-0.4,1.5,0.2,2l0,0l4.4,3.5C105.2,84.2,106.2,84.5,107.1,84.5
				L107.1,84.5z"/>
		</g>
		<path class="st48" d="M110.5,80.6c-0.6-0.3-1.1-0.7-1.3-1.3l2.4-3.7c0.5-0.8,1.5-1,2.2-0.5s1,1.5,0.5,2.2l-2,3.2
			c-0.2,0.3-0.4,0.7-0.6,1.1C111.3,81.1,110.9,80.8,110.5,80.6z"/>
	</g>
</g>
<g>
	
		<linearGradient id="SVGID_34_" gradientUnits="userSpaceOnUse" x1="-640.534" y1="-637.1596" x2="-611.812" y2="-637.1596" gradientTransform="matrix(-1 0 0 -1 -570.614 -540.216)">
		<stop  offset="0.15" style="stop-color:#4EA0D8"/>
		<stop  offset="1" style="stop-color:#68BDEA"/>
	</linearGradient>
	<path class="st54" d="M42.3,105.8c-0.6,0-1.1-0.5-1.1-1.1c0-0.4,0.2-0.8,0.6-1l26.5-15.4c0.5-0.4,1.2-0.2,1.6,0.3s0.2,1.2-0.3,1.6
		c0,0-0.1,0.1-0.2,0.1l-26.5,15.4C42.7,105.7,42.5,105.8,42.3,105.8L42.3,105.8z"/>
	
		<linearGradient id="SVGID_35_" gradientUnits="userSpaceOnUse" x1="-639.792" y1="-637.1953" x2="-612.5322" y2="-637.1953" gradientTransform="matrix(-1 0 0 -1 -570.614 -540.216)">
		<stop  offset="0.15" style="stop-color:#4EA0D8"/>
		<stop  offset="1" style="stop-color:#68BDEA"/>
	</linearGradient>
	<path class="st55" d="M42.2,105c-0.1,0-0.3-0.1-0.3-0.3c0-0.1,0.1-0.2,0.1-0.2L68.8,89c0.1-0.1,0.3,0,0.4,0.1s0,0.3-0.1,0.3
		l-26.7,15.5C42.3,105,42.2,105,42.2,105L42.2,105z"/>
	
		<linearGradient id="SVGID_36_" gradientUnits="userSpaceOnUse" x1="-635.288" y1="-633.7564" x2="-606.566" y2="-633.7564" gradientTransform="matrix(-1 0 0 -1 -570.614 -540.216)">
		<stop  offset="0.15" style="stop-color:#4EA0D8"/>
		<stop  offset="1" style="stop-color:#68BDEA"/>
	</linearGradient>
	<path class="st56" d="M36.1,101.8c-0.3-0.5-0.1-1.2,0.4-1.5l0,0L63,84.9c0.5-0.4,1.2-0.2,1.6,0.3s0.2,1.2-0.3,1.6
		c-0.1,0-0.1,0.1-0.2,0.1l-26.5,15.4C37.1,102.5,36.4,102.4,36.1,101.8L36.1,101.8L36.1,101.8z"/>
	
		<linearGradient id="SVGID_37_" gradientUnits="userSpaceOnUse" x1="-634.5554" y1="-633.7953" x2="-607.314" y2="-633.7953" gradientTransform="matrix(-1 0 0 -1 -570.614 -540.216)">
		<stop  offset="0.15" style="stop-color:#4EA0D8"/>
		<stop  offset="1" style="stop-color:#68BDEA"/>
	</linearGradient>
	<path class="st57" d="M37,101.6c-0.1,0-0.3-0.1-0.3-0.3c0-0.1,0.1-0.2,0.1-0.2l26.7-15.5c0.1-0.1,0.3,0,0.4,0.1
		c0.1,0.1,0,0.3-0.1,0.3L37,101.6C37,101.5,37,101.6,37,101.6L37,101.6z"/>
	<path class="st58" d="M31.1,97.3l24.8,14.3c1.2,0.7,1.6,2.1,0.9,3.3c-0.2,0.4-0.5,0.7-0.9,0.9L31,129.7c-1.6,0.9-3.4,0.9-5,0
		L1.2,115.8c-1.2-0.7-1.6-2.1-0.9-3.3c0.2-0.4,0.5-0.7,0.9-0.9L26,97.3C27.6,96.4,29.5,96.4,31.1,97.3L31.1,97.3z"/>
	<path class="st59" d="M31,97.4l24.6,14.2c1.2,0.7,1.6,2.1,0.9,3.3c-0.2,0.4-0.5,0.7-0.9,0.9L31,129.6c-1.5,0.9-3.4,0.9-5,0
		L1.3,115.7c-1.2-0.7-1.6-2.1-0.9-3.3c0.2-0.4,0.5-0.7,0.9-0.9L26,97.4C27.6,96.5,29.5,96.5,31,97.4z"/>
	<path class="st60" d="M31,97.4l24.5,14.1c1.1,0.7,1.6,2.1,0.9,3.3c-0.2,0.4-0.5,0.7-0.9,0.9L31,129.5c-1.5,0.9-3.4,0.9-4.9,0
		L1.5,115.7c-1.1-0.7-1.6-2.1-0.9-3.3c0.2-0.4,0.5-0.7,0.9-0.9L26,97.4C27.6,96.6,29.5,96.6,31,97.4z"/>
	<path class="st61" d="M31,97.5l24.4,14.1c1.1,0.6,1.5,2.1,0.9,3.2c-0.2,0.4-0.5,0.7-0.9,0.9L31,129.4c-1.5,0.9-3.4,0.9-4.9,0
		L1.6,115.7c-1.1-0.6-1.5-2.1-0.9-3.2c0.2-0.4,0.5-0.7,0.9-0.9l24.4-14C27.6,96.7,29.5,96.7,31,97.5L31,97.5z"/>
	<path class="st62" d="M31,97.6l24.3,14c1.1,0.6,1.5,2.1,0.9,3.2c-0.2,0.4-0.5,0.7-0.9,0.9L31,129.3c-1.5,0.9-3.4,0.9-4.9,0
		L1.8,115.7c-1.1-0.6-1.5-2.1-0.9-3.2c0.2-0.4,0.5-0.7,0.9-0.9l24.3-14C27.6,96.7,29.4,96.7,31,97.6z"/>
	<path class="st63" d="M31,97.7l24.2,13.9c1.1,0.6,1.5,2.1,0.9,3.2c-0.2,0.4-0.5,0.7-0.9,0.9L31,129.3c-1.5,0.8-3.4,0.8-4.9,0
		L1.9,115.7c-1.1-0.6-1.5-2.1-0.9-3.2c0.2-0.4,0.5-0.7,0.9-0.9l24.2-13.9C27.6,96.8,29.4,96.8,31,97.7L31,97.7z"/>
	<path class="st64" d="M31,97.8l24,13.8c1.1,0.6,1.5,2.1,0.9,3.2c-0.2,0.4-0.5,0.7-0.9,0.9l-24.1,13.5c-1.5,0.8-3.3,0.8-4.8,0
		L2,115.7c-1.1-0.6-1.5-2.1-0.9-3.2c0.2-0.4,0.5-0.7,0.9-0.9l24.1-13.8C27.6,96.9,29.5,96.9,31,97.8L31,97.8z"/>
	<path class="st65" d="M30.9,97.9l23.9,13.8c1.1,0.6,1.5,2.1,0.9,3.2c-0.2,0.4-0.5,0.7-0.9,0.9l-23.9,13.4c-1.5,0.8-3.3,0.8-4.8,0
		l-24-13.5c-1.1-0.6-1.5-2.1-0.9-3.2c0.2-0.4,0.5-0.7,0.9-0.9L26,97.8C27.6,97,29.4,97,30.9,97.9L30.9,97.9z"/>
	<path class="st66" d="M30.9,97.9l23.8,13.7c1.1,0.6,1.5,2,0.9,3.2c-0.2,0.4-0.5,0.7-0.9,0.9L30.9,129c-1.5,0.8-3.3,0.8-4.8,0
		L2.3,115.7c-1.1-0.6-1.5-2-0.9-3.2c0.2-0.4,0.5-0.7,0.9-0.9l23.8-13.7C27.6,97.1,29.4,97.1,30.9,97.9L30.9,97.9z"/>
	<path class="st67" d="M30.9,98l23.7,13.6c1.1,0.6,1.5,2.1,0.8,3.2c-0.2,0.3-0.5,0.6-0.8,0.8l-23.7,13.3c-1.5,0.8-3.3,0.8-4.8,0
		L2.4,115.6c-1.1-0.6-1.5-2.1-0.8-3.2c0.2-0.3,0.5-0.6,0.8-0.8L26.1,98C27.6,97.1,29.4,97.1,30.9,98z"/>
	<path class="st68" d="M30.9,98.1l23.6,13.6c1.1,0.6,1.5,2,0.9,3.1c-0.2,0.4-0.5,0.6-0.9,0.9l-23.6,13.2c-1.5,0.8-3.3,0.8-4.7,0
		L2.6,115.6c-1.1-0.6-1.5-2-0.9-3.1c0.2-0.4,0.5-0.6,0.9-0.9L26.2,98C27.6,97.2,29.4,97.2,30.9,98.1L30.9,98.1z"/>
	<path class="st69" d="M30.9,98.2l23.4,13.5c1.1,0.6,1.5,2,0.9,3.1c-0.2,0.4-0.5,0.7-0.9,0.9l-23.5,13.2c-1.5,0.8-3.3,0.8-4.7,0
		L2.7,115.6c-1.1-0.6-1.5-2-0.9-3.1c0.2-0.4,0.5-0.7,0.9-0.9l23.5-13.5C27.6,97.3,29.4,97.3,30.9,98.2z"/>
	<path class="st70" d="M30.9,98.2l23.3,13.4c1.1,0.6,1.5,2,0.9,3.1c-0.2,0.4-0.5,0.7-0.9,0.9l-23.3,13.1c-1.5,0.8-3.2,0.8-4.7,0
		L2.8,115.6c-1.1-0.6-1.5-2-0.9-3.1c0.2-0.4,0.5-0.7,0.9-0.9l23.3-13.4C27.6,97.4,29.4,97.4,30.9,98.2L30.9,98.2z"/>
	<path class="st71" d="M30.9,98.3l23.2,13.4c1.1,0.6,1.5,2,0.9,3.1c-0.2,0.4-0.5,0.7-0.9,0.9l-23.2,13c-1.4,0.8-3.2,0.8-4.7,0
		L3,115.6c-1.1-0.6-1.5-2-0.9-3.1c0.2-0.4,0.5-0.7,0.9-0.9l23.2-13.4C27.6,97.5,29.4,97.5,30.9,98.3z"/>
	<path class="st72" d="M30.9,98.4L54,111.7c1.1,0.6,1.5,2,0.8,3.1c-0.2,0.4-0.5,0.6-0.8,0.8l-23.1,13c-1.4,0.8-3.2,0.8-4.7,0
		l-23.1-13c-1.1-0.6-1.5-2-0.8-3.1c0.2-0.4,0.5-0.6,0.8-0.8l23.1-13.3C27.6,97.6,29.4,97.6,30.9,98.4L30.9,98.4z"/>
	<path class="st73" d="M30.9,98.4l23,13.2c1.1,0.6,1.5,2,0.8,3.1c-0.2,0.4-0.5,0.6-0.8,0.8l-23,12.9c-1.4,0.8-3.2,0.8-4.7,0
		l-23-12.9c-1.1-0.6-1.5-2-0.8-3.1c0.2-0.4,0.5-0.6,0.8-0.8l23-13.2C27.6,97.6,29.4,97.6,30.9,98.4L30.9,98.4z"/>
	<path class="st74" d="M30.9,98.5l22.8,13.2c1.1,0.6,1.4,2,0.8,3c-0.2,0.4-0.5,0.6-0.8,0.8l-22.9,12.8c-1.4,0.8-3.2,0.8-4.6,0
		L3.3,115.6c-1.1-0.6-1.4-2-0.8-3c0.2-0.4,0.5-0.6,0.8-0.8l22.8-13.2C27.6,97.7,29.4,97.7,30.9,98.5z"/>
	<path class="st75" d="M30.8,98.6l22.7,13.1c1.1,0.6,1.4,2,0.8,3c-0.2,0.4-0.5,0.6-0.8,0.8l-22.7,12.8c-1.4,0.8-3.2,0.8-4.6,0
		L3.5,115.6c-1.1-0.6-1.4-2-0.8-3c0.2-0.4,0.5-0.6,0.8-0.8l22.7-13.1C27.6,97.8,29.4,97.8,30.8,98.6z"/>
	<path class="st76" d="M30.8,98.7l22.6,13c1.1,0.6,1.4,2,0.8,3c-0.2,0.3-0.5,0.6-0.8,0.8l-22.6,12.7c-1.4,0.8-3.1,0.8-4.6,0
		L3.6,115.6c-1.1-0.6-1.4-2-0.8-3c0.2-0.3,0.5-0.6,0.8-0.8l22.6-13C27.6,97.9,29.4,97.9,30.8,98.7z"/>
	<path class="st77" d="M30.8,98.8l22.5,12.9c1.1,0.6,1.4,1.9,0.8,3c-0.2,0.3-0.5,0.6-0.8,0.8l-22.5,12.6c-1.4,0.8-3.1,0.8-4.5,0
		L3.7,115.5c-1.1-0.6-1.4-1.9-0.8-3c0.2-0.3,0.5-0.6,0.8-0.8l22.5-12.9C27.6,98,29.4,98,30.8,98.8L30.8,98.8z"/>
	<path class="st78" d="M30.8,98.9l22.4,12.9c1,0.6,1.4,1.9,0.8,3c-0.2,0.3-0.5,0.6-0.8,0.8l-22.4,12.6c-1.4,0.8-3.1,0.8-4.5,0
		L3.9,115.5c-1-0.6-1.4-1.9-0.8-3c0.2-0.3,0.5-0.6,0.8-0.8l22.4-12.9C27.6,98.1,29.4,98.1,30.8,98.9L30.8,98.9z"/>
	<path class="st79" d="M30.8,98.9L53,111.7c1,0.6,1.4,1.9,0.8,3c-0.2,0.3-0.5,0.6-0.8,0.8L30.7,128c-1.4,0.8-3.1,0.8-4.5,0L4,115.5
		c-1-0.6-1.4-1.9-0.8-3c0.2-0.3,0.5-0.6,0.8-0.8l22.2-12.8C27.6,98.1,29.4,98.1,30.8,98.9z"/>
	<path class="st80" d="M30.8,99l22.1,12.7c1,0.6,1.4,1.9,0.8,2.9c-0.2,0.3-0.5,0.6-0.8,0.8l-22.1,12.4c-1.4,0.8-3.1,0.8-4.5,0
		L4.1,115.5c-1-0.6-1.4-1.9-0.8-2.9c0.2-0.3,0.5-0.6,0.8-0.8L26.3,99C27.7,98.2,29.4,98.2,30.8,99z"/>
	<path class="st81" d="M30.8,99.1l22,12.6c1,0.6,1.4,1.9,0.8,2.9c-0.2,0.3-0.5,0.6-0.8,0.8l-22,12.4c-1.4,0.8-3.1,0.8-4.4,0
		l-22-12.4c-1-0.6-1.4-1.9-0.8-2.9c0.2-0.3,0.5-0.6,0.8-0.8l22-12.6C27.7,98.3,29.4,98.3,30.8,99.1z"/>
	<path class="st82" d="M30.8,99.2l21.9,12.6c1,0.6,1.4,1.9,0.8,2.9c-0.2,0.3-0.5,0.6-0.8,0.8l-21.9,12.3c-1.4,0.8-3,0.8-4.4,0
		l-22-12.3c-1-0.6-1.4-1.9-0.8-2.9c0.2-0.3,0.5-0.6,0.8-0.8l21.9-12.6C27.7,98.4,29.4,98.4,30.8,99.2z"/>
	<path class="st83" d="M30.7,99.3l21.8,12.5c1,0.6,1.4,1.9,0.8,2.9c-0.2,0.3-0.5,0.6-0.8,0.8l-21.8,12.2c-1.4,0.8-3,0.8-4.4,0
		L4.5,115.5c-1-0.6-1.4-1.9-0.8-2.9c0.2-0.3,0.5-0.6,0.8-0.8l21.8-12.5C27.7,98.5,29.4,98.5,30.7,99.3L30.7,99.3z"/>
	<path class="st84" d="M30.7,99.3l21.6,12.5c1,0.6,1.4,1.9,0.8,2.9c-0.2,0.3-0.5,0.6-0.8,0.8l-21.7,12.2c-1.4,0.8-3,0.8-4.4,0
		L4.7,115.5c-1-0.6-1.4-1.9-0.8-2.9c0.2-0.3,0.5-0.6,0.8-0.8l21.6-12.5C27.7,98.6,29.3,98.6,30.7,99.3z"/>
	<path class="st85" d="M30.7,99.4l21.5,12.4c1,0.6,1.4,1.9,0.8,2.9c-0.2,0.3-0.5,0.6-0.8,0.8l-21.5,12.1c-1.3,0.8-3,0.8-4.3,0
		L4.8,115.5c-1-0.6-1.4-1.9-0.8-2.9c0.2-0.3,0.5-0.6,0.8-0.8l21.5-12.4C27.7,98.6,29.4,98.7,30.7,99.4L30.7,99.4z"/>
	<path class="st86" d="M30.7,99.5l21.4,12.3c1,0.6,1.4,1.8,0.8,2.8c-0.2,0.3-0.5,0.6-0.8,0.8l-21.4,12c-1.3,0.8-3,0.8-4.3,0L5,115.4
		c-1-0.6-1.4-1.8-0.8-2.8c0.2-0.3,0.5-0.6,0.8-0.8l21.4-12.3C27.7,98.7,29.3,98.7,30.7,99.5z"/>
	<path class="st87" d="M30.6,99.6l21.3,12.2c1,0.6,1.3,1.8,0.8,2.8c-0.2,0.3-0.5,0.6-0.8,0.8l-21.3,12c-1.3,0.7-3,0.7-4.3,0L5,115.4
		c-1-0.6-1.3-1.8-0.8-2.8c0.2-0.3,0.5-0.6,0.8-0.8l21.3-12.2C27.7,98.8,29.3,98.8,30.6,99.6z"/>
	<path class="st88" d="M30.7,99.7l21.2,12.2c1,0.6,1.3,1.8,0.8,2.8c-0.2,0.3-0.5,0.6-0.8,0.8l-21.2,11.9c-1.3,0.7-2.9,0.7-4.3,0
		l-21.2-12c-1-0.6-1.3-1.8-0.8-2.8c0.2-0.3,0.5-0.6,0.8-0.8l21.2-12.2C27.7,98.9,29.4,98.9,30.7,99.7L30.7,99.7z"/>
	<path class="st89" d="M30.7,99.7l21,12.1c1,0.6,1.3,1.8,0.8,2.8c-0.2,0.3-0.4,0.6-0.8,0.8l-21.1,11.8c-1.3,0.7-2.9,0.7-4.2,0
		L5.3,115.4c-1-0.6-1.3-1.8-0.8-2.8c0.2-0.3,0.4-0.6,0.8-0.8l21-12.1C27.7,99,29.3,99,30.7,99.7z"/>
	<path class="st90" d="M30.7,99.8l20.9,12c1,0.6,1.3,1.8,0.8,2.8c-0.2,0.3-0.4,0.6-0.8,0.8l-20.9,11.8c-1.3,0.7-2.9,0.7-4.2,0
		l-21-11.7c-1-0.6-1.3-1.8-0.8-2.8c0.2-0.3,0.4-0.6,0.8-0.8l20.9-12C27.7,99,29.3,99,30.7,99.8z"/>
	<path class="st91" d="M30.6,99.9l20.8,12c1,0.6,1.3,1.8,0.8,2.8c-0.2,0.3-0.4,0.6-0.8,0.8L30.6,127c-1.3,0.7-2.9,0.7-4.2,0
		L5.6,115.4c-1-0.6-1.3-1.8-0.8-2.8c0.2-0.3,0.4-0.6,0.8-0.8l20.8-12C27.7,99.1,29.3,99.1,30.6,99.9z"/>
	<path class="st92" d="M30.6,100l20.7,11.9c1,0.5,1.3,1.7,0.8,2.7c-0.2,0.3-0.5,0.6-0.8,0.8L30.6,127c-1.3,0.7-2.9,0.7-4.2,0
		L5.7,115.4c-1-0.5-1.3-1.7-0.8-2.7c0.2-0.3,0.5-0.6,0.8-0.8L26.4,100C27.7,99.2,29.3,99.2,30.6,100L30.6,100z"/>
	<path class="st93" d="M30.7,100l20.6,11.8c1,0.5,1.3,1.7,0.8,2.7c-0.2,0.3-0.5,0.6-0.8,0.8l-20.6,11.5c-1.3,0.7-2.9,0.7-4.1,0
		L5.9,115.4c-1-0.5-1.3-1.7-0.8-2.7c0.2-0.3,0.5-0.6,0.8-0.8L26.4,100C27.7,99.3,29.4,99.3,30.7,100z"/>
	<path class="st94" d="M30.6,100.1l20.5,11.8c1,0.5,1.3,1.8,0.8,2.7c-0.2,0.3-0.4,0.6-0.8,0.8l-20.5,11.5c-1.3,0.7-2.8,0.7-4.1,0
		L6,115.4c-1-0.5-1.3-1.8-0.8-2.7c0.2-0.3,0.4-0.6,0.8-0.8l20.4-11.8C27.7,99.4,29.3,99.4,30.6,100.1z"/>
	<path class="st95" d="M30.6,100.2l20.3,11.7c1,0.6,1.3,1.8,0.7,2.7c-0.2,0.3-0.4,0.5-0.7,0.7l-20.3,11.4c-1.3,0.7-2.8,0.7-4.1,0
		L6.1,115.3c-1-0.6-1.3-1.8-0.7-2.7c0.2-0.3,0.4-0.5,0.7-0.7l20.3-11.7C27.7,99.5,29.3,99.5,30.6,100.2L30.6,100.2z"/>
	<path class="st96" d="M30.6,100.3l20.2,11.6c0.9,0.6,1.3,1.8,0.7,2.7c-0.2,0.3-0.4,0.5-0.7,0.7l-20.2,11.3c-1.3,0.7-2.8,0.7-4.1,0
		L6.3,115.3c-0.9-0.6-1.3-1.8-0.7-2.7c0.2-0.3,0.4-0.5,0.7-0.7l20.2-11.6C27.7,99.5,29.3,99.5,30.6,100.3L30.6,100.3z"/>
	<path class="st97" d="M30.6,100.4l20,11.6c0.9,0.6,1.2,1.8,0.7,2.7c-0.2,0.3-0.4,0.5-0.7,0.7l-20.1,11.3c-1.3,0.7-2.8,0.7-4,0
		L6.4,115.3c-0.9-0.6-1.2-1.8-0.7-2.7c0.2-0.3,0.4-0.5,0.7-0.7l20.1-11.6C27.7,99.6,29.3,99.6,30.6,100.4z"/>
	<path class="st98" d="M30.5,100.4l19.9,11.5c0.9,0.5,1.3,1.7,0.7,2.7c-0.2,0.3-0.4,0.6-0.7,0.7l-19.9,11.2c-1.2,0.7-2.7,0.7-4,0
		l-20-11.2c-0.9-0.5-1.3-1.7-0.7-2.7c0.2-0.3,0.4-0.6,0.7-0.7l19.9-11.5C27.7,99.7,29.2,99.7,30.5,100.4L30.5,100.4z"/>
	<path class="st99" d="M30.6,100.5l19.8,11.4c0.9,0.5,1.3,1.7,0.7,2.6c-0.2,0.3-0.4,0.6-0.7,0.7l-19.9,11.2c-1.2,0.7-2.8,0.7-4,0
		L6.7,115.3c-0.9-0.5-1.3-1.7-0.7-2.6c0.2-0.3,0.4-0.6,0.7-0.7l19.8-11.4C27.8,99.8,29.3,99.8,30.6,100.5L30.6,100.5z"/>
	<path class="st100" d="M30.5,100.6L50.3,112c0.9,0.5,1.2,1.7,0.7,2.6c-0.2,0.3-0.4,0.5-0.7,0.7l-19.7,11.1c-1.2,0.7-2.8,0.7-4,0
		L6.8,115.3c-0.9-0.5-1.2-1.7-0.7-2.6c0.2-0.3,0.4-0.5,0.7-0.7l19.7-11.3C27.8,99.9,29.3,99.9,30.5,100.6z"/>
	<path class="st101" d="M30.5,100.7L50.1,112c0.9,0.5,1.2,1.7,0.7,2.6c-0.2,0.3-0.4,0.5-0.7,0.7l-19.6,11c-1.2,0.7-2.7,0.7-3.9,0
		L7,115.3c-0.9-0.5-1.2-1.7-0.7-2.6c0.2-0.3,0.4-0.5,0.7-0.7l19.6-11.3C27.8,100,29.3,100,30.5,100.7z"/>
	<path class="st102" d="M30.5,100.7L50,112c0.9,0.5,1.2,1.7,0.7,2.6c-0.2,0.3-0.4,0.6-0.7,0.7l-19.5,10.9c-1.2,0.7-2.7,0.7-3.9,0
		L7.1,115.3c-0.9-0.5-1.2-1.7-0.7-2.6c0.2-0.3,0.4-0.6,0.7-0.7l19.5-11.2C27.8,100,29.3,100,30.5,100.7L30.5,100.7z"/>
	<path class="st103" d="M30.5,100.8L49.9,112c0.9,0.5,1.2,1.7,0.7,2.6c-0.2,0.3-0.4,0.5-0.7,0.7l-19.4,10.9c-1.2,0.7-2.7,0.7-3.9,0
		l-19.4-11c-0.9-0.5-1.2-1.7-0.7-2.6c0.2-0.3,0.4-0.5,0.7-0.7l19.4-11.1C27.8,100.1,29.3,100.1,30.5,100.8L30.5,100.8z"/>
	<path class="st104" d="M30.5,100.9L49.8,112c0.9,0.5,1.2,1.7,0.7,2.6c-0.2,0.3-0.4,0.5-0.7,0.7l-19.3,10.8c-1.2,0.7-2.7,0.7-3.9,0
		L7.3,115.2c-0.9-0.5-1.2-1.7-0.7-2.6c0.2-0.3,0.4-0.5,0.7-0.7l19.2-11.1C27.8,100.2,29.3,100.2,30.5,100.9z"/>
	<path class="st105" d="M30.5,101l19.1,11c0.9,0.5,1.2,1.6,0.7,2.5c-0.2,0.3-0.4,0.5-0.7,0.7L30.5,126c-1.2,0.7-2.7,0.7-3.9,0
		L7.5,115.2c-0.9-0.5-1.2-1.6-0.7-2.5c0.2-0.3,0.4-0.5,0.7-0.7l19.1-11C27.8,100.3,29.3,100.3,30.5,101L30.5,101z"/>
	<path class="st106" d="M30.5,101.1l19,10.9c0.9,0.5,1.2,1.6,0.7,2.5c-0.2,0.3-0.4,0.5-0.7,0.7l-19,10.7c-1.2,0.7-2.6,0.7-3.8,0
		l-19-10.7c-0.9-0.5-1.2-1.6-0.7-2.5c0.2-0.3,0.4-0.5,0.7-0.7l19-10.9C27.8,100.4,29.3,100.4,30.5,101.1L30.5,101.1z"/>
	<path class="st107" d="M30.4,101.1L49.3,112c0.9,0.5,1.2,1.6,0.7,2.5c-0.2,0.3-0.4,0.5-0.7,0.7l-18.9,10.6c-1.2,0.7-2.6,0.7-3.8,0
		L7.7,115.2c-0.9-0.5-1.2-1.6-0.7-2.5c0.2-0.3,0.4-0.5,0.7-0.7l18.9-10.9C27.8,100.5,29.2,100.4,30.4,101.1z"/>
	<path class="st108" d="M30.5,101.2L49.2,112c0.9,0.5,1.2,1.6,0.7,2.5c-0.2,0.3-0.4,0.5-0.7,0.7l-18.8,10.5c-1.2,0.7-2.6,0.7-3.8,0
		L7.9,115.2c-0.9-0.5-1.2-1.6-0.7-2.5c0.2-0.3,0.4-0.5,0.7-0.7l18.8-10.8C27.8,100.5,29.3,100.5,30.5,101.2L30.5,101.2z"/>
	<path class="st21" d="M30.4,101.3L49.1,112c0.9,0.5,1.2,1.6,0.7,2.5c-0.2,0.3-0.4,0.5-0.7,0.7l-18.7,10.5c-1.2,0.7-2.6,0.7-3.8,0
		L8,115.2c-0.9-0.5-1.2-1.6-0.7-2.5c0.2-0.3,0.4-0.5,0.7-0.7l18.6-10.7C27.8,100.6,29.3,100.6,30.4,101.3z"/>
	
		<linearGradient id="SVGID_38_" gradientUnits="userSpaceOnUse" x1="-695.629" y1="-653.1719" x2="-646.929" y2="-653.1719" gradientTransform="matrix(1 0 0 -1 699.787 -540.216)">
		<stop  offset="0" style="stop-color:#9AA7D5"/>
		<stop  offset="0.13" style="stop-color:#9EAAD7"/>
		<stop  offset="0.26" style="stop-color:#AAB5DB"/>
		<stop  offset="0.39" style="stop-color:#BDC6E3"/>
		<stop  offset="0.5" style="stop-color:#D4DAED"/>
		<stop  offset="0.54" style="stop-color:#CED5EB"/>
		<stop  offset="0.84" style="stop-color:#A8B4DB"/>
		<stop  offset="1" style="stop-color:#9AA7D5"/>
	</linearGradient>
	<path class="st109" d="M30.7,99.2l22.1,10.4v3.3c0,0.9-0.5,1.7-1.2,2.1l-21,11.8c-1.3,0.7-2.9,0.7-4.3,0l-21-11.9
		c-0.8-0.4-1.2-1.2-1.2-2.1v-3.7l22.2-10C27.7,98.4,29.4,98.4,30.7,99.2L30.7,99.2z"/>
	<path class="st110" d="M30.7,95.2l21.2,12.2c1,0.6,1.3,1.8,0.8,2.8c-0.2,0.3-0.5,0.6-0.8,0.8l-21.2,11.9c-1.3,0.7-2.9,0.7-4.3,0
		L5.2,111c-1-0.6-1.3-1.8-0.8-2.8c0.2-0.3,0.5-0.6,0.8-0.8l21.2-12.2C27.7,94.4,29.4,94.4,30.7,95.2z"/>
	
		<linearGradient id="SVGID_39_" gradientUnits="userSpaceOnUse" x1="-685.6155" y1="-649.266" x2="-658.3224" y2="-649.266" gradientTransform="matrix(1 0 0 -1 699.787 -540.216)">
		<stop  offset="0" style="stop-color:#55AEE0"/>
		<stop  offset="0.92" style="stop-color:#4EA0D8"/>
	</linearGradient>
	<path class="st111" d="M18.2,114.6c-5.3-3.1-5.3-8,0-11.1s14-3.1,19.3,0s5.3,8,0,11.1C32.1,117.7,23.5,117.7,18.2,114.6z"/>
	<path class="st112" d="M19.6,113.8c-4.5-2.6-4.5-6.8,0-9.4s11.9-2.6,16.4,0s4.5,6.8,0,9.4S24.1,116.4,19.6,113.8L19.6,113.8z"/>
	<g class="st113">
		
			<linearGradient id="SVGID_40_" gradientUnits="userSpaceOnUse" x1="-685.387" y1="-649.2972" x2="-658.412" y2="-649.2972" gradientTransform="matrix(1 0 0 -1 699.787 -540.216)">
			<stop  offset="0.15" style="stop-color:#4EA0D8"/>
			<stop  offset="1" style="stop-color:#68BDEA"/>
		</linearGradient>
		<path class="st114" d="M18.3,114.6c-5.2-3-5.2-7.9,0-11s13.8-3,19.1,0s5.3,7.9,0,11C32.1,117.6,23.5,117.6,18.3,114.6z"/>
		
			<linearGradient id="SVGID_41_" gradientUnits="userSpaceOnUse" x1="-685.387" y1="-648.716" x2="-658.412" y2="-648.716" gradientTransform="matrix(1 0 0 -1 699.787 -540.216)">
			<stop  offset="0.15" style="stop-color:#4EA0D8"/>
			<stop  offset="1" style="stop-color:#68BDEA"/>
		</linearGradient>
		<path class="st115" d="M18.3,114c-5.2-3-5.2-7.9,0-11s13.8-3,19.1,0s5.3,7.9,0,11S23.5,117,18.3,114L18.3,114z"/>
		
			<linearGradient id="SVGID_42_" gradientUnits="userSpaceOnUse" x1="-685.387" y1="-648.1347" x2="-658.412" y2="-648.1347" gradientTransform="matrix(1 0 0 -1 699.787 -540.216)">
			<stop  offset="0.15" style="stop-color:#4EA0D8"/>
			<stop  offset="1" style="stop-color:#68BDEA"/>
		</linearGradient>
		<path class="st116" d="M18.3,113.4c-5.2-3-5.2-7.9,0-11s13.8-3,19.1,0s5.3,7.9,0,11S23.5,116.5,18.3,113.4z"/>
		
			<linearGradient id="SVGID_43_" gradientUnits="userSpaceOnUse" x1="-685.387" y1="-647.616" x2="-658.412" y2="-647.616" gradientTransform="matrix(1 0 0 -1 699.787 -540.216)">
			<stop  offset="0.15" style="stop-color:#4EA0D8"/>
			<stop  offset="1" style="stop-color:#68BDEA"/>
		</linearGradient>
		<path class="st117" d="M18.3,112.9c-5.2-3-5.2-7.9,0-11s13.8-3,19.1,0s5.3,7.9,0,11S23.5,115.9,18.3,112.9z"/>
		
			<linearGradient id="SVGID_44_" gradientUnits="userSpaceOnUse" x1="-685.387" y1="-647.016" x2="-658.412" y2="-647.016" gradientTransform="matrix(1 0 0 -1 699.787 -540.216)">
			<stop  offset="0.15" style="stop-color:#4EA0D8"/>
			<stop  offset="1" style="stop-color:#68BDEA"/>
		</linearGradient>
		<path class="st118" d="M18.3,112.3c-5.2-3-5.2-7.9,0-11s13.8-3,19.1,0s5.3,7.9,0,11S23.5,115.3,18.3,112.3z"/>
		
			<linearGradient id="SVGID_45_" gradientUnits="userSpaceOnUse" x1="-685.387" y1="-646.4347" x2="-658.412" y2="-646.4347" gradientTransform="matrix(1 0 0 -1 699.787 -540.216)">
			<stop  offset="0.15" style="stop-color:#4EA0D8"/>
			<stop  offset="1" style="stop-color:#68BDEA"/>
		</linearGradient>
		<path class="st119" d="M18.3,111.7c-5.2-3-5.2-7.9,0-11s13.8-3,19.1,0s5.3,7.9,0,11C32.1,114.8,23.5,114.8,18.3,111.7z"/>
		
			<linearGradient id="SVGID_46_" gradientUnits="userSpaceOnUse" x1="-685.387" y1="-645.8972" x2="-658.412" y2="-645.8972" gradientTransform="matrix(1 0 0 -1 699.787 -540.216)">
			<stop  offset="0.15" style="stop-color:#4EA0D8"/>
			<stop  offset="1" style="stop-color:#68BDEA"/>
		</linearGradient>
		<path class="st120" d="M18.3,111.2c-5.2-3-5.2-7.9,0-11s13.8-3,19.1,0s5.3,7.9,0,11C32.1,114.2,23.5,114.2,18.3,111.2z"/>
		
			<linearGradient id="SVGID_47_" gradientUnits="userSpaceOnUse" x1="-685.387" y1="-645.316" x2="-658.412" y2="-645.316" gradientTransform="matrix(1 0 0 -1 699.787 -540.216)">
			<stop  offset="0.15" style="stop-color:#4EA0D8"/>
			<stop  offset="1" style="stop-color:#68BDEA"/>
		</linearGradient>
		<path class="st121" d="M18.3,110.6c-5.2-3-5.2-7.9,0-11s13.8-3,19.1,0s5.3,7.9,0,11S23.5,113.6,18.3,110.6z"/>
		
			<linearGradient id="SVGID_48_" gradientUnits="userSpaceOnUse" x1="-685.387" y1="-644.7347" x2="-658.412" y2="-644.7347" gradientTransform="matrix(1 0 0 -1 699.787 -540.216)">
			<stop  offset="0.15" style="stop-color:#4EA0D8"/>
			<stop  offset="1" style="stop-color:#68BDEA"/>
		</linearGradient>
		<path class="st122" d="M18.3,110c-5.2-3-5.2-7.9,0-11s13.8-3,19.1,0s5.3,7.9,0,11S23.5,113.1,18.3,110z"/>
		
			<linearGradient id="SVGID_49_" gradientUnits="userSpaceOnUse" x1="-685.387" y1="-644.216" x2="-658.412" y2="-644.216" gradientTransform="matrix(1 0 0 -1 699.787 -540.216)">
			<stop  offset="0.15" style="stop-color:#4EA0D8"/>
			<stop  offset="1" style="stop-color:#68BDEA"/>
		</linearGradient>
		<path class="st123" d="M18.3,109.5c-5.2-3-5.2-7.9,0-11s13.8-3,19.1,0s5.3,7.9,0,11S23.5,112.5,18.3,109.5z"/>
		
			<linearGradient id="SVGID_50_" gradientUnits="userSpaceOnUse" x1="-685.387" y1="-643.616" x2="-658.412" y2="-643.616" gradientTransform="matrix(1 0 0 -1 699.787 -540.216)">
			<stop  offset="0.15" style="stop-color:#4EA0D8"/>
			<stop  offset="1" style="stop-color:#68BDEA"/>
		</linearGradient>
		<path class="st124" d="M18.3,108.9c-5.2-3-5.2-7.9,0-11s13.8-3,19.1,0s5.3,7.9,0,11S23.5,111.9,18.3,108.9z"/>
		
			<linearGradient id="SVGID_51_" gradientUnits="userSpaceOnUse" x1="-685.387" y1="-643.0347" x2="-658.412" y2="-643.0347" gradientTransform="matrix(1 0 0 -1 699.787 -540.216)">
			<stop  offset="0.15" style="stop-color:#4EA0D8"/>
			<stop  offset="1" style="stop-color:#68BDEA"/>
		</linearGradient>
		<path class="st125" d="M18.3,108.3c-5.2-3-5.2-7.9,0-11s13.8-3,19.1,0s5.3,7.9,0,11S23.5,111.4,18.3,108.3z"/>
		
			<linearGradient id="SVGID_52_" gradientUnits="userSpaceOnUse" x1="-685.387" y1="-642.4972" x2="-658.412" y2="-642.4972" gradientTransform="matrix(1 0 0 -1 699.787 -540.216)">
			<stop  offset="0.15" style="stop-color:#4EA0D8"/>
			<stop  offset="1" style="stop-color:#68BDEA"/>
		</linearGradient>
		<path class="st126" d="M18.3,107.8c-5.2-3-5.2-7.9,0-11s13.8-3,19.1,0s5.3,7.9,0,11C32.1,110.8,23.5,110.8,18.3,107.8L18.3,107.8z
			"/>
		
			<linearGradient id="SVGID_53_" gradientUnits="userSpaceOnUse" x1="-685.387" y1="-641.916" x2="-658.412" y2="-641.916" gradientTransform="matrix(1 0 0 -1 699.787 -540.216)">
			<stop  offset="0.15" style="stop-color:#4EA0D8"/>
			<stop  offset="1" style="stop-color:#68BDEA"/>
		</linearGradient>
		<path class="st127" d="M18.3,107.2c-5.2-3-5.2-7.9,0-11s13.8-3,19.1,0s5.3,7.9,0,11S23.5,110.2,18.3,107.2z"/>
		
			<linearGradient id="SVGID_54_" gradientUnits="userSpaceOnUse" x1="-685.387" y1="-641.416" x2="-658.412" y2="-641.416" gradientTransform="matrix(1 0 0 -1 699.787 -540.216)">
			<stop  offset="0.15" style="stop-color:#4EA0D8"/>
			<stop  offset="1" style="stop-color:#68BDEA"/>
		</linearGradient>
		<path class="st128" d="M18.3,106.7c-5.2-3-5.2-7.9,0-11s13.8-3,19.1,0s5.3,7.9,0,11S23.5,109.7,18.3,106.7z"/>
		
			<linearGradient id="SVGID_55_" gradientUnits="userSpaceOnUse" x1="-685.387" y1="-640.816" x2="-658.412" y2="-640.816" gradientTransform="matrix(1 0 0 -1 699.787 -540.216)">
			<stop  offset="0.15" style="stop-color:#4EA0D8"/>
			<stop  offset="1" style="stop-color:#68BDEA"/>
		</linearGradient>
		<path class="st129" d="M18.3,106.1c-5.2-3-5.2-7.9,0-11s13.8-3,19.1,0s5.3,7.9,0,11S23.5,109.1,18.3,106.1z"/>
		
			<linearGradient id="SVGID_56_" gradientUnits="userSpaceOnUse" x1="-685.387" y1="-640.1972" x2="-658.412" y2="-640.1972" gradientTransform="matrix(1 0 0 -1 699.787 -540.216)">
			<stop  offset="0.15" style="stop-color:#4EA0D8"/>
			<stop  offset="1" style="stop-color:#68BDEA"/>
		</linearGradient>
		<path class="st130" d="M18.3,105.5c-5.2-3-5.2-7.9,0-11s13.8-3,19.1,0s5.3,7.9,0,11C32.1,108.5,23.5,108.5,18.3,105.5z"/>
		
			<linearGradient id="SVGID_57_" gradientUnits="userSpaceOnUse" x1="-685.387" y1="-639.6347" x2="-658.412" y2="-639.6347" gradientTransform="matrix(1 0 0 -1 699.787 -540.216)">
			<stop  offset="0.15" style="stop-color:#4EA0D8"/>
			<stop  offset="1" style="stop-color:#68BDEA"/>
		</linearGradient>
		<path class="st131" d="M18.3,104.9c-5.2-3-5.2-7.9,0-11s13.8-3,19.1,0s5.3,7.9,0,11S23.5,108,18.3,104.9z"/>
		
			<linearGradient id="SVGID_58_" gradientUnits="userSpaceOnUse" x1="-685.387" y1="-639.0972" x2="-658.412" y2="-639.0972" gradientTransform="matrix(1 0 0 -1 699.787 -540.216)">
			<stop  offset="0.15" style="stop-color:#4EA0D8"/>
			<stop  offset="1" style="stop-color:#68BDEA"/>
		</linearGradient>
		<path class="st132" d="M18.3,104.4c-5.2-3-5.2-7.9,0-11s13.8-3,19.1,0s5.3,7.9,0,11C32.1,107.4,23.5,107.4,18.3,104.4z"/>
		
			<linearGradient id="SVGID_59_" gradientUnits="userSpaceOnUse" x1="-685.387" y1="-638.5785" x2="-658.412" y2="-638.5785" gradientTransform="matrix(1 0 0 -1 699.787 -540.216)">
			<stop  offset="0.15" style="stop-color:#4EA0D8"/>
			<stop  offset="1" style="stop-color:#68BDEA"/>
		</linearGradient>
		<path class="st133" d="M18.3,103.9c-5.2-3-5.2-7.9,0-11s13.8-3,19.1,0s5.3,7.9,0,11C32.1,106.8,23.5,106.9,18.3,103.9z"/>
		
			<linearGradient id="SVGID_60_" gradientUnits="userSpaceOnUse" x1="-685.387" y1="-638.016" x2="-658.412" y2="-638.016" gradientTransform="matrix(1 0 0 -1 699.787 -540.216)">
			<stop  offset="0.15" style="stop-color:#4EA0D8"/>
			<stop  offset="1" style="stop-color:#68BDEA"/>
		</linearGradient>
		<path class="st134" d="M18.3,103.3c-5.2-3-5.2-7.9,0-11s13.8-3,19.1,0s5.3,7.9,0,11S23.5,106.3,18.3,103.3z"/>
		
			<linearGradient id="SVGID_61_" gradientUnits="userSpaceOnUse" x1="-685.387" y1="-637.416" x2="-658.412" y2="-637.416" gradientTransform="matrix(1 0 0 -1 699.787 -540.216)">
			<stop  offset="0.15" style="stop-color:#4EA0D8"/>
			<stop  offset="1" style="stop-color:#68BDEA"/>
		</linearGradient>
		<path class="st135" d="M18.3,102.7c-5.2-3-5.2-7.9,0-11s13.8-3,19.1,0s5.3,7.9,0,11S23.5,105.7,18.3,102.7z"/>
		
			<linearGradient id="SVGID_62_" gradientUnits="userSpaceOnUse" x1="-685.387" y1="-636.816" x2="-658.412" y2="-636.816" gradientTransform="matrix(1 0 0 -1 699.787 -540.216)">
			<stop  offset="0.15" style="stop-color:#4EA0D8"/>
			<stop  offset="1" style="stop-color:#68BDEA"/>
		</linearGradient>
		<path class="st136" d="M18.3,102.1c-5.2-3-5.2-7.9,0-11s13.8-3,19.1,0s5.3,7.9,0,11S23.5,105.1,18.3,102.1z"/>
		
			<linearGradient id="SVGID_63_" gradientUnits="userSpaceOnUse" x1="-685.387" y1="-636.2972" x2="-658.412" y2="-636.2972" gradientTransform="matrix(1 0 0 -1 699.787 -540.216)">
			<stop  offset="0.15" style="stop-color:#4EA0D8"/>
			<stop  offset="1" style="stop-color:#68BDEA"/>
		</linearGradient>
		<path class="st137" d="M18.3,101.6c-5.2-3-5.2-7.9,0-11s13.8-3,19.1,0s5.3,7.9,0,11C32.1,104.6,23.5,104.6,18.3,101.6L18.3,101.6z
			"/>
		
			<linearGradient id="SVGID_64_" gradientUnits="userSpaceOnUse" x1="-685.387" y1="-635.6972" x2="-658.412" y2="-635.6972" gradientTransform="matrix(1 0 0 -1 699.787 -540.216)">
			<stop  offset="0.15" style="stop-color:#4EA0D8"/>
			<stop  offset="1" style="stop-color:#68BDEA"/>
		</linearGradient>
		<path class="st138" d="M18.3,101c-5.2-3-5.2-7.9,0-11s13.8-3,19.1,0s5.3,7.9,0,11C32.1,104,23.5,104,18.3,101z"/>
		
			<linearGradient id="SVGID_65_" gradientUnits="userSpaceOnUse" x1="-685.387" y1="-635.116" x2="-658.412" y2="-635.116" gradientTransform="matrix(1 0 0 -1 699.787 -540.216)">
			<stop  offset="0.15" style="stop-color:#4EA0D8"/>
			<stop  offset="1" style="stop-color:#68BDEA"/>
		</linearGradient>
		<path class="st139" d="M18.3,100.4c-5.2-3-5.2-7.9,0-11s13.8-3,19.1,0s5.3,7.9,0,11S23.5,103.4,18.3,100.4L18.3,100.4z"/>
		
			<linearGradient id="SVGID_66_" gradientUnits="userSpaceOnUse" x1="-685.387" y1="-634.5972" x2="-658.412" y2="-634.5972" gradientTransform="matrix(1 0 0 -1 699.787 -540.216)">
			<stop  offset="0.15" style="stop-color:#4EA0D8"/>
			<stop  offset="1" style="stop-color:#68BDEA"/>
		</linearGradient>
		<path class="st140" d="M18.3,99.9c-5.2-3-5.2-7.9,0-11s13.8-3,19.1,0s5.3,7.9,0,11C32.1,102.9,23.5,102.9,18.3,99.9z"/>
		
			<linearGradient id="SVGID_67_" gradientUnits="userSpaceOnUse" x1="-685.387" y1="-634.016" x2="-658.412" y2="-634.016" gradientTransform="matrix(1 0 0 -1 699.787 -540.216)">
			<stop  offset="0.15" style="stop-color:#4EA0D8"/>
			<stop  offset="1" style="stop-color:#68BDEA"/>
		</linearGradient>
		<path class="st141" d="M18.3,99.3c-5.2-3-5.2-7.9,0-11s13.8-3,19.1,0s5.3,7.9,0,11S23.5,102.3,18.3,99.3z"/>
		
			<linearGradient id="SVGID_68_" gradientUnits="userSpaceOnUse" x1="-685.387" y1="-633.416" x2="-658.412" y2="-633.416" gradientTransform="matrix(1 0 0 -1 699.787 -540.216)">
			<stop  offset="0.15" style="stop-color:#4EA0D8"/>
			<stop  offset="1" style="stop-color:#68BDEA"/>
		</linearGradient>
		<path class="st142" d="M18.3,98.7c-5.2-3-5.2-7.9,0-11s13.8-3,19.1,0s5.3,7.9,0,11S23.5,101.7,18.3,98.7z"/>
		
			<linearGradient id="SVGID_69_" gradientUnits="userSpaceOnUse" x1="-685.387" y1="-632.8972" x2="-658.412" y2="-632.8972" gradientTransform="matrix(1 0 0 -1 699.787 -540.216)">
			<stop  offset="0.15" style="stop-color:#4EA0D8"/>
			<stop  offset="1" style="stop-color:#68BDEA"/>
		</linearGradient>
		<path class="st143" d="M18.3,98.2c-5.2-3-5.2-7.9,0-11s13.8-3,19.1,0s5.3,7.9,0,11C32.1,101.2,23.5,101.2,18.3,98.2z"/>
		
			<linearGradient id="SVGID_70_" gradientUnits="userSpaceOnUse" x1="-685.387" y1="-632.2972" x2="-658.412" y2="-632.2972" gradientTransform="matrix(1 0 0 -1 699.787 -540.216)">
			<stop  offset="0.15" style="stop-color:#4EA0D8"/>
			<stop  offset="1" style="stop-color:#68BDEA"/>
		</linearGradient>
		<path class="st144" d="M18.3,97.6c-5.2-3-5.2-7.9,0-11s13.8-3,19.1,0s5.3,7.9,0,11C32.1,100.6,23.5,100.6,18.3,97.6z"/>
		
			<linearGradient id="SVGID_71_" gradientUnits="userSpaceOnUse" x1="-685.387" y1="-631.716" x2="-658.412" y2="-631.716" gradientTransform="matrix(1 0 0 -1 699.787 -540.216)">
			<stop  offset="0.15" style="stop-color:#4EA0D8"/>
			<stop  offset="1" style="stop-color:#68BDEA"/>
		</linearGradient>
		<path class="st145" d="M18.3,97c-5.2-3-5.2-7.9,0-11s13.8-3,19.1,0s5.3,7.9,0,11S23.5,100,18.3,97z"/>
		
			<linearGradient id="SVGID_72_" gradientUnits="userSpaceOnUse" x1="-685.387" y1="-631.216" x2="-658.412" y2="-631.216" gradientTransform="matrix(1 0 0 -1 699.787 -540.216)">
			<stop  offset="0.15" style="stop-color:#4EA0D8"/>
			<stop  offset="1" style="stop-color:#68BDEA"/>
		</linearGradient>
		<path class="st146" d="M18.3,96.5c-5.2-3-5.2-7.9,0-11s13.8-3,19.1,0s5.3,7.9,0,11S23.5,99.5,18.3,96.5z"/>
		
			<linearGradient id="SVGID_73_" gradientUnits="userSpaceOnUse" x1="-685.387" y1="-630.5972" x2="-658.412" y2="-630.5972" gradientTransform="matrix(1 0 0 -1 699.787 -540.216)">
			<stop  offset="0.15" style="stop-color:#4EA0D8"/>
			<stop  offset="1" style="stop-color:#68BDEA"/>
		</linearGradient>
		<path class="st147" d="M18.3,95.9c-5.2-3-5.2-7.9,0-11s13.8-3,19.1,0s5.3,7.9,0,11C32.1,98.9,23.5,98.9,18.3,95.9z"/>
		
			<linearGradient id="SVGID_74_" gradientUnits="userSpaceOnUse" x1="-685.387" y1="-630.016" x2="-658.412" y2="-630.016" gradientTransform="matrix(1 0 0 -1 699.787 -540.216)">
			<stop  offset="0.15" style="stop-color:#4EA0D8"/>
			<stop  offset="1" style="stop-color:#68BDEA"/>
		</linearGradient>
		<path class="st148" d="M18.3,95.3c-5.2-3-5.2-7.9,0-11s13.8-3,19.1,0s5.3,7.9,0,11S23.5,98.3,18.3,95.3z"/>
		
			<linearGradient id="SVGID_75_" gradientUnits="userSpaceOnUse" x1="-685.387" y1="-629.4972" x2="-658.412" y2="-629.4972" gradientTransform="matrix(1 0 0 -1 699.787 -540.216)">
			<stop  offset="0.15" style="stop-color:#4EA0D8"/>
			<stop  offset="1" style="stop-color:#68BDEA"/>
		</linearGradient>
		<path class="st149" d="M18.3,94.8c-5.2-3-5.2-7.9,0-11s13.8-3,19.1,0s5.3,7.9,0,11C32.1,97.8,23.5,97.8,18.3,94.8z"/>
		
			<linearGradient id="SVGID_76_" gradientUnits="userSpaceOnUse" x1="-685.387" y1="-628.916" x2="-658.412" y2="-628.916" gradientTransform="matrix(1 0 0 -1 699.787 -540.216)">
			<stop  offset="0.15" style="stop-color:#4EA0D8"/>
			<stop  offset="1" style="stop-color:#68BDEA"/>
		</linearGradient>
		<path class="st150" d="M18.3,94.2c-5.2-3-5.2-7.9,0-11s13.8-3,19.1,0s5.3,7.9,0,11S23.5,97.2,18.3,94.2L18.3,94.2z"/>
		
			<linearGradient id="SVGID_77_" gradientUnits="userSpaceOnUse" x1="-685.387" y1="-628.316" x2="-658.412" y2="-628.316" gradientTransform="matrix(1 0 0 -1 699.787 -540.216)">
			<stop  offset="0.15" style="stop-color:#4EA0D8"/>
			<stop  offset="1" style="stop-color:#68BDEA"/>
		</linearGradient>
		<path class="st151" d="M18.3,93.6c-5.2-3-5.2-7.9,0-11s13.8-3,19.1,0s5.3,7.9,0,11S23.5,96.6,18.3,93.6L18.3,93.6z"/>
		
			<linearGradient id="SVGID_78_" gradientUnits="userSpaceOnUse" x1="-685.387" y1="-627.816" x2="-658.412" y2="-627.816" gradientTransform="matrix(1 0 0 -1 699.787 -540.216)">
			<stop  offset="0.15" style="stop-color:#4EA0D8"/>
			<stop  offset="1" style="stop-color:#68BDEA"/>
		</linearGradient>
		<path class="st152" d="M18.3,93.1c-5.2-3-5.2-7.9,0-11s13.8-3,19.1,0s5.3,7.9,0,11S23.5,96.1,18.3,93.1z"/>
		
			<linearGradient id="SVGID_79_" gradientUnits="userSpaceOnUse" x1="-685.387" y1="-627.216" x2="-658.412" y2="-627.216" gradientTransform="matrix(1 0 0 -1 699.787 -540.216)">
			<stop  offset="0.15" style="stop-color:#4EA0D8"/>
			<stop  offset="1" style="stop-color:#68BDEA"/>
		</linearGradient>
		<path class="st153" d="M18.3,92.5c-5.2-3-5.2-7.9,0-11s13.8-3,19.1,0s5.3,7.9,0,11S23.5,95.5,18.3,92.5z"/>
		
			<linearGradient id="SVGID_80_" gradientUnits="userSpaceOnUse" x1="-685.387" y1="-626.616" x2="-658.412" y2="-626.616" gradientTransform="matrix(1 0 0 -1 699.787 -540.216)">
			<stop  offset="0.15" style="stop-color:#4EA0D8"/>
			<stop  offset="1" style="stop-color:#68BDEA"/>
		</linearGradient>
		<path class="st154" d="M18.3,91.9c-5.2-3-5.2-7.9,0-11s13.8-3,19.1,0s5.3,7.9,0,11S23.5,94.9,18.3,91.9z"/>
		
			<linearGradient id="SVGID_81_" gradientUnits="userSpaceOnUse" x1="-685.387" y1="-626.0972" x2="-658.412" y2="-626.0972" gradientTransform="matrix(1 0 0 -1 699.787 -540.216)">
			<stop  offset="0.15" style="stop-color:#4EA0D8"/>
			<stop  offset="1" style="stop-color:#68BDEA"/>
		</linearGradient>
		<path class="st155" d="M18.3,91.4c-5.2-3-5.2-7.9,0-11s13.8-3,19.1,0s5.3,7.9,0,11C32.1,94.4,23.5,94.4,18.3,91.4z"/>
		
			<linearGradient id="SVGID_82_" gradientUnits="userSpaceOnUse" x1="-685.387" y1="-625.4972" x2="-658.412" y2="-625.4972" gradientTransform="matrix(1 0 0 -1 699.787 -540.216)">
			<stop  offset="0.15" style="stop-color:#4EA0D8"/>
			<stop  offset="1" style="stop-color:#68BDEA"/>
		</linearGradient>
		<path class="st156" d="M18.3,90.8c-5.2-3-5.2-7.9,0-11s13.8-3,19.1,0s5.3,7.9,0,11C32.1,93.8,23.5,93.8,18.3,90.8z"/>
		
			<linearGradient id="SVGID_83_" gradientUnits="userSpaceOnUse" x1="-685.387" y1="-624.8972" x2="-658.412" y2="-624.8972" gradientTransform="matrix(1 0 0 -1 699.787 -540.216)">
			<stop  offset="0.15" style="stop-color:#4EA0D8"/>
			<stop  offset="1" style="stop-color:#68BDEA"/>
		</linearGradient>
		<path class="st157" d="M18.3,90.2c-5.2-3-5.2-7.9,0-11s13.8-3,19.1,0s5.3,7.9,0,11C32.1,93.2,23.5,93.2,18.3,90.2z"/>
		
			<linearGradient id="SVGID_84_" gradientUnits="userSpaceOnUse" x1="-685.387" y1="-624.416" x2="-658.412" y2="-624.416" gradientTransform="matrix(1 0 0 -1 699.787 -540.216)">
			<stop  offset="0.15" style="stop-color:#4EA0D8"/>
			<stop  offset="1" style="stop-color:#68BDEA"/>
		</linearGradient>
		<path class="st158" d="M18.3,89.7c-5.2-3-5.2-7.9,0-11s13.8-3,19.1,0s5.3,7.9,0,11S23.5,92.7,18.3,89.7z"/>
		
			<linearGradient id="SVGID_85_" gradientUnits="userSpaceOnUse" x1="-685.387" y1="-623.816" x2="-658.412" y2="-623.816" gradientTransform="matrix(1 0 0 -1 699.787 -540.216)">
			<stop  offset="0.15" style="stop-color:#4EA0D8"/>
			<stop  offset="1" style="stop-color:#68BDEA"/>
		</linearGradient>
		<path class="st159" d="M18.3,89.1c-5.2-3-5.2-7.9,0-11s13.8-3,19.1,0s5.3,7.9,0,11S23.5,92.1,18.3,89.1z"/>
		
			<linearGradient id="SVGID_86_" gradientUnits="userSpaceOnUse" x1="-685.387" y1="-623.2785" x2="-658.412" y2="-623.2785" gradientTransform="matrix(1 0 0 -1 699.787 -540.216)">
			<stop  offset="0.15" style="stop-color:#4EA0D8"/>
			<stop  offset="1" style="stop-color:#68BDEA"/>
		</linearGradient>
		<path class="st160" d="M18.3,88.6c-5.2-3-5.2-7.9,0-11s13.8-3,19.1,0s5.3,7.9,0,11C32.1,91.5,23.5,91.6,18.3,88.6L18.3,88.6z"/>
		
			<linearGradient id="SVGID_87_" gradientUnits="userSpaceOnUse" x1="-685.387" y1="-622.6972" x2="-658.412" y2="-622.6972" gradientTransform="matrix(1 0 0 -1 699.787 -540.216)">
			<stop  offset="0.15" style="stop-color:#4EA0D8"/>
			<stop  offset="1" style="stop-color:#68BDEA"/>
		</linearGradient>
		<path class="st161" d="M18.3,88c-5.2-3-5.2-7.9,0-11s13.8-3,19.1,0s5.3,7.9,0,11C32.1,91,23.5,91,18.3,88L18.3,88z"/>
		
			<linearGradient id="SVGID_88_" gradientUnits="userSpaceOnUse" x1="-685.387" y1="-622.116" x2="-658.412" y2="-622.116" gradientTransform="matrix(1 0 0 -1 699.787 -540.216)">
			<stop  offset="0.15" style="stop-color:#4EA0D8"/>
			<stop  offset="1" style="stop-color:#68BDEA"/>
		</linearGradient>
		<path class="st162" d="M18.3,87.4c-5.2-3-5.2-7.9,0-11s13.8-3,19.1,0s5.3,7.9,0,11S23.5,90.4,18.3,87.4z"/>
		
			<linearGradient id="SVGID_89_" gradientUnits="userSpaceOnUse" x1="-685.387" y1="-621.516" x2="-658.412" y2="-621.516" gradientTransform="matrix(1 0 0 -1 699.787 -540.216)">
			<stop  offset="0.15" style="stop-color:#4EA0D8"/>
			<stop  offset="1" style="stop-color:#68BDEA"/>
		</linearGradient>
		<path class="st163" d="M18.3,86.8c-5.2-3-5.2-7.9,0-11s13.8-3,19.1,0s5.3,7.9,0,11S23.5,89.8,18.3,86.8z"/>
		
			<linearGradient id="SVGID_90_" gradientUnits="userSpaceOnUse" x1="-685.387" y1="-621.016" x2="-658.412" y2="-621.016" gradientTransform="matrix(1 0 0 -1 699.787 -540.216)">
			<stop  offset="0.15" style="stop-color:#4EA0D8"/>
			<stop  offset="1" style="stop-color:#68BDEA"/>
		</linearGradient>
		<path class="st164" d="M18.3,86.3c-5.2-3-5.2-7.9,0-11s13.8-3,19.1,0s5.3,7.9,0,11S23.5,89.3,18.3,86.3z"/>
		<path class="st58" d="M18.3,85.9c-5.2-3-5.2-7.9,0-11s13.8-3,19.1,0s5.3,7.9,0,11S23.5,88.9,18.3,85.9z"/>
	</g>
</g>
</svg>
