<?xml version="1.0" encoding="utf-8"?>
<!-- Generator: Adobe Illustrator 21.0.0, SVG Export Plug-In . SVG Version: 6.00 Build 0)  -->
<svg version="1.1" id="Layer_1" xmlns="http://www.w3.org/2000/svg" xmlns:xlink="http://www.w3.org/1999/xlink" x="0px" y="0px"
	 viewBox="0 0 500 500" style="enable-background:new 0 0 500 500;" xml:space="preserve">
<style type="text/css">
	.st0{fill:#0073EC;}
</style>
<path class="st0" d="M442.8,427.7c0,8.3-6.7,15-15,15s-15-6.7-15-15s6.7-15,15-15l0,0C436.1,412.7,442.8,419.4,442.8,427.7z
	 M373.3,412.7c-8.3,0-15,6.7-15,15s6.7,15,15,15s15-6.7,15-15l0,0C388.3,419.4,381.6,412.7,373.3,412.7z M315.9,412.8
	c-8.3,0-15,6.7-15,15s6.7,15,15,15s15-6.7,15-15l0,0C331,419.5,324.3,412.8,315.9,412.8L315.9,412.8z M496.7,377.2v101
	c0,12-9.8,21.8-21.8,21.8H25.1c-12,0-21.8-9.8-21.8-21.8v-101c0-12,9.8-21.7,21.8-21.8h449.9C487,355.4,496.7,365.2,496.7,377.2z
	 M480.5,377.2c0-3-2.4-5.4-5.4-5.4h0H25c-3,0-5.4,2.4-5.4,5.4l0,0v101c0,3,2.4,5.4,5.4,5.4c0,0,0,0,0,0h450c3,0,5.4-2.4,5.4-5.4v0
	L480.5,377.2z M426.5,168.7c0.9,0.4,2,0.7,3,0.7c2.6,0,5.1-1.5,6.2-3.8c1.7-3.3,0.4-7.4-2.9-9.1c-0.1,0-0.1-0.1-0.2-0.1
	c-16.1-8-46.3-8.1-47.5-8.1c-3.8,0-6.9,3.1-6.9,6.9c0,3.8,3.1,6.9,6.9,6.9c0,0,0,0,0,0C392.9,162.1,415.5,163.3,426.5,168.7
	L426.5,168.7z M14.9,340.5v-51.3c0-11.1,6.2-21.2,16.1-26.1l18.6-9.3c-19.9-8.7-26.2-20.9-26.5-21.5c-1-1.9-1-4.3,0-6.2
	c5-9.9,5.6-28.4,6.1-43c0.1-4.9,0.2-9.5,0.6-13.7c2.4-33.3,27.7-58.4,58.9-58.4s56.5,25.1,58.8,58.4c0.2,4.2,0.4,8.8,0.6,13.7
	c0.4,14.7,1.1,33,6.1,43c1,1.9,1,4.3,0,6.2c-0.2,0.6-6.6,12.8-26.6,21.5l6.7,3.4c2.6-1.9,5.5-3.4,8.6-4.5l42.7-15.5
	c-0.1-2,0.6-3.9,1.9-5.3l12.9-13.6v-23.3c-18.9-16.2-29.8-39.8-29.7-64.7v-15.7c-4.9-10.5-7.5-22-7.5-33.7V66.3
	c0.1-36.6,29.7-66.2,66.3-66.3h103.8c3.8,0,6.9,3,6.9,6.8c0,0,0,0.1,0,0.1v74.3c0,11.6-2.5,23.1-7.5,33.7v18.2
	c0,22.4-9.3,43.8-25.6,59.2c-1.4,1.2-2.7,2.4-4.1,3.5v22.8l12.9,13.6c1.4,1.4,2.1,3.3,1.9,5.3l40.4,14.7l14-4
	c5.8-1.7,5.8-2.3,5.8-3.8v-10c-14-10.1-22.3-26.4-22.3-43.7v-11.3l-3.5-7.1c-2.5-5.1-3.8-10.7-3.8-16.4v-0.4c0-24.3,19.7-44,44-44.1
	h66.8c3.8,0,6.9,3,6.9,6.8c0,0,0,0.1,0,0.1v35.7c0,6.8-1.6,13.5-4.6,19.6l-2.8,5.5v13.2c0,13.9-5.6,27.2-15.6,36.9
	c-2.1,2-4.3,3.8-6.7,5.4v9.6c0,1.3,0.9,2.5,2.1,2.8l28.7,8.1c12.5,3.5,21.2,15.1,20.7,27.8v57.4c0,3.8-3.1,6.9-6.9,6.9
	c-3.8,0-6.9-3.1-6.9-6.9v-57.4c0-6.8-4.5-12.8-11.1-14.7l-28.7-8.1c-1-0.3-2-0.6-2.9-1.1l-17.6,17.6v63.8c0,3.8-3.1,6.9-6.9,6.9
	c-3.8,0-6.9-3.1-6.9-6.9v-63.8l-17.7-17.7c-2,1-4.2,1.8-6.4,2.4l-1.7,0.5c6.6,6.8,10.2,15.9,10.3,25.4v53.4c0,3.8-3.1,6.9-6.9,6.9
	c-3.8,0-6.9-3.1-6.9-6.9v-53.4c0-9.5-6-18-14.9-21.3l-45-16.4l-18.8,28.1c-2.4,3.6-6.2,5.9-10.5,6.3c-0.5,0.1-1,0.1-1.5,0.1
	c-3.8,0-7.5-1.5-10.2-4.2l-11.4-11.4v72.3c0,3.8-3.1,6.9-6.9,6.9c-3.8,0-6.9-3.1-6.9-6.9v-72.3l-11.4,11.4
	c-2.7,2.7-6.4,4.2-10.2,4.2c-0.6,0-1-0.1-1.5-0.1c-4.3-0.4-8.1-2.7-10.5-6.3l-18.8-28.1l-44.9,16.4c-8.9,3.3-14.9,11.8-14.9,21.3
	v53.4c0.1,3.8-2.8,7-6.6,7.1c-3.8,0.1-7-2.8-7.1-6.6c0-0.2,0-0.3,0-0.5v-53.4c0-6.8,1.9-13.5,5.5-19.3l-7.6-3.7l-8,7.7
	c-11.3,10.7-28.9,10.7-40.2,0l-8-7.7l-23.4,11.5c-5.2,2.6-8.5,7.9-8.5,13.7v51.3c0,3.8-3.1,6.9-6.9,6.9
	C18,347.4,14.9,344.3,14.9,340.5C14.9,340.5,14.9,340.5,14.9,340.5L14.9,340.5z M423.1,248.3c-0.3-1.3-0.4-2.7-0.5-4.1v-2.8
	c-4.9,1.5-10.1,2.3-15.3,2.3h-1.6c-4.7-0.1-9.4-0.9-13.8-2.4v2.9c0,1.4-0.2,2.7-0.5,4.1l15.8,15.8L423.1,248.3z M406.1,229.8
	c10.2,0.3,20.1-3.5,27.3-10.6c7.3-7.1,11.5-16.9,11.5-27.1v-14.8c0-1,0.2-2.1,0.7-3l3.5-7c2.1-4.2,3.1-8.8,3.2-13.4V125h-59.8
	c-16.6,0-30.1,13.5-30.1,30.2v0.4c0,3.5,0.8,7,2.4,10.2l4.3,8.6c0.5,0.9,0.7,2,0.7,3.1v13C369.8,211.5,386,229.3,406.1,229.8
	L406.1,229.8z M241,252.5l-32.8-22.4l-6.9,7.3l21.6,32.3c0,0.1,0.1,0.2,0.3,0.2c0.1,0,0.2,0,0.3-0.1L241,252.5z M289.2,217.5v-12.7
	c-11.6,6-24.4,9.2-37.5,9.1c-1.8,0-3.6-0.1-5.4-0.2c-11.3-0.6-22.3-3.8-32.2-9.3v13l37.6,25.6L289.2,217.5z M302.2,237.5l-6.9-7.3
	l-32.8,22.4L280,270c0.1,0.1,0.2,0.1,0.3,0.1c0.2,0,0.3-0.1,0.3-0.2L302.2,237.5z M247.4,200c16.1,1.1,32.1-3.7,45-13.4l0.1-0.1
	c1.8-1.4,3.6-2.9,5.3-4.5c13.6-12.7,21.3-30.4,21.2-49v-19.8c0-1,0.2-2.1,0.7-3c4.4-9.1,6.8-19.1,6.7-29.2V13.8h-96.9
	c-28.9,0-52.4,23.5-52.4,52.4V81c0,10.1,2.3,20.1,6.8,29.1c0.4,0.9,0.7,2,0.7,3v17.2C184.5,167.2,212.1,197.8,247.4,200L247.4,200z
	 M105.7,255.6c-1.1-2.1-1.7-4.4-1.7-6.8v-7.3c-5,1.6-10.1,2.4-15.4,2.4c-5.2,0-10.4-0.8-15.4-2.4v7.3c0,2.4-0.6,4.7-1.7,6.8l6.4,6.1
	c5.9,5.6,15.2,5.6,21.1,0L105.7,255.6z M136.1,212.1c-3.8,9.1-10.2,17-18.3,22.6v8.2c13-4.7,19.5-10.9,22.3-14.2
	C138.1,223.4,136.8,217.8,136.1,212.1z M43,185.4c0.4-0.1,0.8-0.1,1.1-0.1c3.8,0,6.9,3,6.9,6.8c0,0,0,0.1,0,0.1
	c-0.2,20.7,16.5,37.7,37.2,37.9c18.7,0.2,34.7-13.5,37.5-32.1c-11.2-24.6-40.1-28-49-28.5l-10.4,10.8c-2.3,3.1-6.7,3.7-9.8,1.4
	s-3.7-6.7-1.4-9.8c0.3-0.4,0.7-0.8,1.1-1.2l12.5-13c1.2-1.3,2.9-2.1,4.7-2.1c9,0,17.9,1.4,26.5,4.2c15,4.9,26.7,13.4,34.2,25.1v-1.2
	c-0.1-4.8-0.3-9.3-0.6-13.1c-0.7-12.1-5.7-23.5-14-32.3c-16.6-17.1-43.9-17.5-61-0.9c-0.3,0.3-0.6,0.6-0.9,0.9
	c-8.3,8.8-13.3,20.2-14,32.3c-0.2,3.8-0.5,8.4-0.6,13.1C43.1,184.2,43,184.8,43,185.4L43,185.4z M59.5,242.8v-8.4
	c-8.1-5.6-14.5-13.5-18.3-22.6c-0.7,5.7-2,11.2-4,16.6C40.1,232,46.5,238.2,59.5,242.8L59.5,242.8z M206.7,79.8
	c0-0.2,0.1-0.4,0.3-0.4c14.9-2.3,30-3,45.1-2.2c21.6,1.5,37.3,6.9,46.5,16.2c2.7,2.7,7.1,2.7,9.8,0c2.7-2.6,2.9-7,0.2-9.7
	c0,0-0.1-0.1-0.1-0.1c-26.2-26.2-81.1-21.2-103.5-17.8c-7.1,1.1-12.2,7.2-12.2,14.3v15.9c0,3.8,3.1,6.9,6.9,6.9s6.9-3.1,6.9-6.9
	c0,0,0,0,0,0L206.7,79.8z"/>
</svg>
