<?xml version="1.0" encoding="utf-8"?>
<!-- Generator: Adobe Illustrator 21.0.0, SVG Export Plug-In . SVG Version: 6.00 Build 0)  -->
<svg version="1.1" id="Layer_1" xmlns="http://www.w3.org/2000/svg" xmlns:xlink="http://www.w3.org/1999/xlink" x="0px" y="0px"
	 viewBox="0 0 500 500" style="enable-background:new 0 0 500 500;" xml:space="preserve">
<style type="text/css">
	.st0{fill:#0073EC;}
</style>
<g>
	<path class="st0" d="M437,148.9c0.8,0.4,1.8,0.6,2.7,0.6c2.3,0,4.5-1.3,5.5-3.4c1.5-3,0.3-6.6-2.7-8.1c0,0,0,0,0,0
		c-14.3-7.1-40.9-7.2-42-7.2c-3.4,0-6.1,2.7-6.1,6.1s2.7,6.1,6.1,6.1C407.4,143,427.4,144.1,437,148.9z"/>
	<path class="st0" d="M243.1,70.5c0-0.2,0.1-0.4,0.3-0.4c13.2-2,26.5-2.6,39.8-1.9c19,1.3,32.9,6.1,41.1,14.3c2.4,2.4,6.3,2.4,8.7,0
		c2.4-2.3,2.5-6.1,0.3-8.5c-0.1-0.1-0.1-0.1-0.2-0.2C309.8,50.6,261.4,55,241.7,58c-6.2,0.9-10.8,6.3-10.8,12.6v14.1
		c0.1,3.4,3,6,6.3,5.8c3.2-0.1,5.7-2.7,5.8-5.8V70.5z"/>
	<path class="st0" d="M86,255.3c0-5.1,2.9-9.8,7.5-12.1l20.6-10.2l7.1,6.8c9.9,9.4,25.5,9.4,35.5,0l7.1-6.8l6.7,3.3
		c-3.2,5.1-4.9,11-4.9,17V285c4.2,2.2,8.3,4.6,12.2,7.3v-38.9c0-8.4,5.3-15.9,13.1-18.8l39.7-14.4l16.5,24.8
		c2.1,3.2,5.5,5.2,9.3,5.6c0.4,0,0.8,0.1,1.3,0.1c3.4,0,6.6-1.3,9-3.7l10.1-10.1v63.8c0,3.4,2.7,6.1,6.1,6.1c3.4,0,6.1-2.7,6.1-6.1
		v-63.8l10.1,10.1c2.4,2.4,5.6,3.7,9,3.7c0.4,0,0.9,0,1.3-0.1c3.8-0.4,7.2-2.4,9.3-5.6l16.6-24.8l39.7,14.4
		c7.9,2.9,13.1,10.4,13.2,18.8v47.1c0,3.4,2.7,6.1,6.1,6.1c3.4,0,6.1-2.7,6.1-6.1v-47.1c-0.1-8.4-3.3-16.4-9.1-22.4l1.5-0.4
		c2-0.5,3.9-1.2,5.7-2.1l15.6,15.6v56.3c0,3.4,2.7,6.1,6.1,6.1c3.4,0,6.1-2.7,6.1-6.1v-56.4l15.5-15.6c0.8,0.4,1.7,0.8,2.6,1
		l25.3,7.2c5.8,1.7,9.8,7,9.8,13v50.6c0,3.4,2.7,6.1,6.1,6.1c3.4,0,6.1-2.7,6.1-6.1v-50.7c0.5-11.2-7.2-21.4-18.2-24.5l-25.3-7.2
		c-1.1-0.3-1.9-1.3-1.9-2.5V207c2.1-1.4,4.1-3,5.9-4.8c8.8-8.5,13.8-20.3,13.8-32.6V158l2.5-4.9c2.7-5.4,4.1-11.3,4.1-17.4v-31.5
		c0-3.3-2.6-6-5.9-6.1c-0.1,0-0.1,0-0.2,0H407c-21.5,0-38.8,17.4-38.9,38.9v0.4c0,5,1.2,10,3.4,14.5l3.1,6.3v10
		c0,15.3,7.3,29.6,19.6,38.6v8.9c0,1.4,0,1.9-5.1,3.4l-12.4,3.5l-35.7-13c0.1-1.7-0.5-3.4-1.7-4.7l-11.4-12v-20.1
		c1.2-1,2.4-2,3.6-3.1c14.4-13.6,22.6-32.4,22.6-52.2v-16c4.3-9.3,6.6-19.4,6.6-29.7V6.1c0-3.3-2.6-6-5.9-6.1c-0.1,0-0.1,0-0.2,0
		h-91.6c-32.3,0-58.5,26.2-58.5,58.5v13.1c0,10.3,2.2,20.4,6.6,29.7v13.9c-0.1,22,9.5,42.8,26.2,57.1v20.5l-11.4,12
		c-1.2,1.3-1.8,3-1.7,4.7l-37.7,13.7c-2.7,1-5.3,2.3-7.6,4l-5.9-3c17.6-7.7,23.2-18.4,23.4-18.9c0.9-1.7,0.9-3.8,0-5.5
		c-4.4-8.9-5-25-5.4-38c-0.1-4.3-0.3-8.4-0.5-12.1c-2.1-29.4-24.4-51.5-51.9-51.5S89,120.2,87,149.6c-0.3,3.7-0.4,7.8-0.5,12.1
		c-0.4,12.9-1,29.2-5.4,38c-0.9,1.7-0.9,3.8,0,5.5c0.3,0.5,5.9,11.3,23.4,18.9l-16.4,8.2c-8.7,4.3-14.3,13.2-14.3,23v22
		c4-1.3,8.1-2.4,12.2-3.3L86,255.3z M420.2,233l-14-13.9c0.2-1.2,0.4-2.4,0.4-3.6v-2.6c3.9,1.3,8,2,12.2,2.1h1.4
		c4.6,0,9.1-0.7,13.5-2v2.5c0,1.2,0.2,2.4,0.4,3.6L420.2,233z M387,168v-11.4c0-0.9-0.2-1.9-0.6-2.7l-3.8-7.6
		c-1.4-2.8-2.1-5.9-2.1-9V137c0-14.7,11.9-26.6,26.6-26.6h52.7v25.4c0,4.1-1,8.2-2.8,11.9l-3,6.1c-0.4,0.8-0.6,1.8-0.6,2.7v13.1
		c0,9-3.7,17.6-10.2,23.9c-6.4,6.3-15.1,9.7-24.1,9.4C401.3,202.3,387,186.7,387,168L387,168z M258,238.2c-0.1,0.1-0.2,0.1-0.3,0.1
		c-0.2,0-0.3-0.1-0.3-0.2l-19-28.5l6.1-6.5l28.9,19.7L258,238.2z M282.8,214.6L249.6,192v-11.5c8.7,4.8,18.4,7.6,28.4,8.2
		c1.6,0.1,3.2,0.2,4.8,0.2c11.5,0,22.9-2.8,33.1-8.1V192L282.8,214.6z M308.3,238.1c0,0.1-0.1,0.2-0.3,0.2c-0.1,0-0.2,0-0.3-0.1
		l-15.4-15.4l28.9-19.7l6.1,6.5L308.3,238.1z M223.5,115V99.9c0-0.9-0.2-1.9-0.6-2.7c-3.9-8-6-16.8-6-25.7V58.4
		c0-25.5,20.7-46.2,46.3-46.3h85.5v59.3c0,8.9-2.1,17.7-6,25.7c-0.4,0.8-0.6,1.8-0.6,2.7v17.4c0.1,16.4-6.7,32.1-18.7,43.3
		c-1.5,1.4-3.1,2.7-4.7,4l-0.1,0.1c-11.4,8.6-25.5,12.8-39.7,11.9C247.8,174.5,223.5,147.5,223.5,115L223.5,115z M148.2,231
		c-5.2,5-13.4,5-18.6,0l-5.7-5.4c1-1.8,1.5-3.9,1.5-6v-6.5c4.4,1.4,9,2.1,13.5,2.1c4.6,0,9.2-0.7,13.6-2.1v6.5c0,2.1,0.5,4.2,1.5,6
		L148.2,231z M184.2,201.9c-2.4,2.9-8.2,8.4-19.6,12.6v-7.3c7.2-5,12.8-11.9,16.1-19.9C181.3,192.2,182.5,197.1,184.2,201.9
		L184.2,201.9z M98.7,162.1c0.1-4.2,0.3-8.2,0.5-11.6c0.7-10.7,5-20.7,12.4-28.5c14.6-15.1,38.6-15.5,53.7-0.9
		c0.3,0.3,0.6,0.6,0.9,0.9c7.3,7.8,11.7,17.9,12.4,28.5c0.2,3.4,0.4,7.4,0.5,11.6v1.1c-6.7-10.3-16.9-17.8-30.2-22.1
		c-7.5-2.4-15.4-3.7-23.3-3.7c-1.6,0-3.1,0.7-4.2,1.9l-11.1,11.5c-2.3,2.4-2.2,6.3,0.2,8.7c2.4,2.3,6.3,2.2,8.7-0.2l0,0l9.2-9.6
		c7.9,0.4,33.4,3.4,43.3,25.1c-2.8,18.1-19.7,30.5-37.8,27.7c-16.2-2.5-28.1-16.4-28.1-32.8c0-3.3-2.6-6-5.9-6.1c-0.1,0-0.1,0-0.2,0
		c-0.3,0-0.7,0-1,0.1C98.6,163.1,98.6,162.6,98.7,162.1z M93.5,201.7c1.7-4.7,2.9-9.6,3.5-14.6c3.4,8,9,15,16.2,19.9v7.4
		C101.7,210.2,96,204.7,93.5,201.7z"/>
	<circle class="st0" cx="390.1" cy="377.5" r="13.2"/>
	<circle class="st0" cx="438.2" cy="377.5" r="13.2"/>
	<circle class="st0" cx="339.5" cy="377.5" r="13.2"/>
	<path class="st0" d="M479.8,313.7H215.6c-3.9,0-7.2,3.2-7.2,7.1c0,1.4,0.4,2.8,1.2,4l0.1,0.1c1.3,2,3.6,3.2,5.9,3.2h264.1
		c2.6,0,4.8,2.1,4.8,4.8V422c0,2.6-2.1,4.8-4.8,4.8H229c-3,0-5.7,1.9-6.7,4.8l-0.1,0.1c-1.3,3.7,0.6,7.8,4.3,9.1
		c0.8,0.3,1.6,0.4,2.4,0.4h250.8c10.6,0,19.2-8.6,19.2-19.2v-89.1C499,322.3,490.4,313.7,479.8,313.7L479.8,313.7z"/>
	<path class="st0" d="M211.3,347.9c-5.5-13-13.5-24.8-23.5-34.8c-10.1-9.9-21.9-17.9-34.9-23.4c-13.4-5.8-27.9-8.7-42.5-8.6
		c-14.6-0.1-29.1,2.9-42.5,8.6c-26.2,11.1-47.1,31.9-58.2,58.2c-11.5,27.2-11.5,57.9,0,85.1c5.5,13,13.5,24.8,23.4,34.9
		c10,10,21.8,18,34.8,23.5c13.4,5.8,27.9,8.7,42.5,8.6c14.6,0.1,29.1-2.9,42.5-8.6c26.3-11.1,47.3-32.1,58.4-58.4
		C222.8,405.8,222.8,375.1,211.3,347.9L211.3,347.9z M204.1,430c-10.4,24.4-29.9,43.9-54.3,54.3c-12.5,5.4-25.9,8.1-39.5,8
		c-13.6,0.1-27-2.6-39.5-8c-24.4-10.4-43.9-29.9-54.3-54.3c-10.7-25.3-10.7-53.8,0-79.1c5.1-12.1,12.6-23,21.9-32.3
		c9.3-9.2,20.3-16.6,32.4-21.8c12.5-5.4,25.9-8.1,39.5-8c13.6-0.1,27,2.6,39.5,8c12.1,5.2,23.1,12.5,32.4,21.8
		c9.3,9.2,16.7,20.2,21.9,32.3C214.8,376.2,214.8,404.7,204.1,430z"/>
	<path class="st0" d="M17.3,390.4c0,9,1.2,17.9,3.8,26.5c2.4,8.4,6.1,16.3,10.8,23.6c4.6,7.2,10.2,13.8,16.6,19.5
		c6.4,5.7,13.6,10.5,21.4,14.1L25,353.1C19.9,364.9,17.2,377.6,17.3,390.4z"/>
	<path class="st0" d="M84.1,480c4.2,1.2,8.5,2.1,12.9,2.8c14.9,2.2,30.2,0.7,44.4-4.5l-29.3-78.8L84.1,480z"/>
	<path class="st0" d="M193.1,352.3c0,1.8-0.1,3.5-0.3,5.4c-0.9,8.3-2.6,16.6-5.3,24.5c-2.5,7.3-4.9,14.3-7.3,21
		c-1,2.8-2.6,7.5-4.8,14c-2.2,6.5-4.5,13.3-7,20.4c-2.5,7.1-4.8,13.8-7,20.1c-2.2,6.3-3.8,10.8-4.8,13.5c7-4,13.4-8.9,19-14.6
		c5.6-5.7,10.6-12.1,14.6-19c4.1-7,7.3-14.5,9.5-22.3c6.3-22.9,3.7-47.4-7.4-68.4C193,348.7,193.1,350.5,193.1,352.3L193.1,352.3z"
		/>
	<path class="st0" d="M163.5,423.9c1.8-6,3.2-10.9,4.4-14.8c1.3-4.3,2.3-7.8,3-10.5c1.8-5.6,2.5-11.5,2.1-17.4
		c-0.2-5-1.7-9.8-4.1-14.1c-1.3-2.6-2.8-5.1-4.4-7.5c-2-3.1-3.7-6.3-5.1-9.6c-1.5-3.3-2.5-6.7-3-10.3c-0.5-3.2,0-6.5,1.5-9.4
		c2.2-3.8,4.6-6.3,7.3-7.4c2.6-1.1,5.5-1.5,8.3-1.1c-8.4-7.7-18.1-13.8-28.6-18c-10.9-4.4-22.6-6.6-34.4-6.5
		c-15.7-0.2-31.2,3.8-44.9,11.4c-13.3,7.3-24.6,17.7-32.9,30.4c4,0.2,8.5,0.2,13.5,0c5.5-0.2,11-0.7,16.5-1.5c1,0,2,0.4,2.8,1
		c0.8,0.6,1.3,1.5,1.5,2.5c0.3,2.3-0.8,3.7-3.5,4c-1.7,0.3-3.5,0.5-5.3,0.6c-1.7,0.1-3.4,0.2-5.3,0.4l34,100.3l20.5-60.5l-14.7-39.5
		c-3.2-0.3-5.6-0.6-7.4-0.9s-2.7-0.4-2.9-0.4c-1-0.2-1.9-0.7-2.5-1.5c-0.7-0.8-0.8-1.8-0.5-2.8c0.2-1,0.7-1.9,1.5-2.5
		c0.8-0.6,1.8-0.8,2.8-0.5l3.5,0.5l9.9,0.8c5.1,0.5,10.3,0.5,15.4,0c3.7-0.5,10.4-1,20.3-1.5c1,0,2,0.4,2.8,1
		c0.8,0.6,1.3,1.5,1.5,2.5c0.3,2.3-0.8,3.7-3.5,4c-1.7,0.3-3.5,0.5-5.3,0.6c-1.7,0.1-3.3,0.2-5,0.4l33.8,100.3
		C159.5,437.5,161.7,429.9,163.5,423.9L163.5,423.9z"/>
</g>
</svg>
