<svg id="aa7a2a5e-055f-42a7-b3d6-89dd26f5f38c" xmlns="http://www.w3.org/2000/svg" xmlns:xlink="http://www.w3.org/1999/xlink" viewBox="0 0 200 223.17">
  <defs>
    <linearGradient id="c063c85d-a94b-4665-84b0-51662b04d9ce" x1="715.59" y1="44.62" x2="786.21" y2="44.62" gradientTransform="translate(-624.57)" gradientUnits="userSpaceOnUse">
      <stop offset="0" stop-color="#d3daed"/>
      <stop offset="0.55" stop-color="#b0bce0"/>
      <stop offset="1" stop-color="#99a7d8"/>
    </linearGradient>
    <linearGradient id="10cad0e5-a004-4cd0-8abf-e90fe11bec33" x1="-408.9" y1="90.74" x2="-353.09" y2="90.74" gradientTransform="matrix(-1, 0, 0, 1, -208.9, 0)" xlink:href="#c063c85d-a94b-4665-84b0-51662b04d9ce"/>
    <linearGradient id="2d38dac4-b5a4-4226-b415-12932ae3c605" x1="-403.91" y1="100.74" x2="-390.57" y2="100.74" gradientTransform="matrix(-1, 0, 0, 1, -208.9, 0)" gradientUnits="userSpaceOnUse">
      <stop offset="0" stop-color="#4d9ed7"/>
      <stop offset="0.02" stop-color="#4e9fd7"/>
      <stop offset="1" stop-color="#67bce9"/>
    </linearGradient>
    <linearGradient id="8a09d537-83a4-4abd-9583-7d1a6b929a42" x1="91.91" y1="82.81" x2="131.68" y2="82.81" gradientTransform="matrix(1, 0, 0, 1, 0, 0)" xlink:href="#c063c85d-a94b-4665-84b0-51662b04d9ce"/>
    <linearGradient id="3939bfad-68bb-4a12-b93b-d843c149132e" x1="172.23" y1="57.52" x2="196.79" y2="57.52" gradientTransform="matrix(1, 0, 0, 1, 0, 0)" xlink:href="#c063c85d-a94b-4665-84b0-51662b04d9ce"/>
    <linearGradient id="98503da6-6398-4aa7-a55f-2bec36ba79ed" x1="185.45" y1="69.46" x2="185.45" y2="57.11" gradientUnits="userSpaceOnUse">
      <stop offset="0" stop-color="#67bce9"/>
      <stop offset="0.98" stop-color="#4e9fd7"/>
      <stop offset="1" stop-color="#4d9ed7"/>
    </linearGradient>
    <linearGradient id="63912f76-57e3-44e4-bc1a-3ef429f8d993" x1="75.54" y1="27.08" x2="82.2" y2="27.08" gradientTransform="matrix(1, 0, 0, 1, 0, 0)" xlink:href="#2d38dac4-b5a4-4226-b415-12932ae3c605"/>
    <linearGradient id="633ffc7e-cc9e-4127-bf86-e13d654b6f3c" x1="140.26" y1="106.64" x2="158.12" y2="106.64" gradientTransform="matrix(1, 0, 0, 1, 0, 0)" xlink:href="#c063c85d-a94b-4665-84b0-51662b04d9ce"/>
    <linearGradient id="4bf43119-0528-4ad5-8ef2-db1c77e24b88" x1="74.93" y1="64.87" x2="84.69" y2="64.87" gradientTransform="matrix(1, 0, 0, 1, 0, 0)" xlink:href="#c063c85d-a94b-4665-84b0-51662b04d9ce"/>
    <linearGradient id="1f82de74-16eb-4613-aca4-afb85ab0cb44" x1="-258.25" y1="159.65" x2="-74.45" y2="159.65" gradientTransform="translate(266.77)" gradientUnits="userSpaceOnUse">
      <stop offset="0" stop-color="#d3daed"/>
      <stop offset="1" stop-color="#99a7d8"/>
    </linearGradient>
    <linearGradient id="c3c95825-f753-4179-af70-027278c67fab" x1="78.17" y1="154.06" x2="114.24" y2="154.06" gradientUnits="userSpaceOnUse">
      <stop offset="0.15" stop-color="#4d9ed7"/>
      <stop offset="1" stop-color="#54addf"/>
    </linearGradient>
    <linearGradient id="3ded9ced-a3f9-4fb9-8d79-b2f848c45933" x1="71.44" y1="143.96" x2="120.98" y2="143.96" xlink:href="#c3c95825-f753-4179-af70-027278c67fab"/>
    <linearGradient id="a63b8f5d-3042-499c-9505-496bed4f3307" x1="65.71" y1="131.07" x2="126.7" y2="131.07" xlink:href="#c3c95825-f753-4179-af70-027278c67fab"/>
    <linearGradient id="14408f1a-91d2-447e-919d-a84a91f17542" x1="84.94" y1="130.84" x2="107.48" y2="130.84" gradientTransform="matrix(1, 0, 0, 1, 0, 0)" xlink:href="#2d38dac4-b5a4-4226-b415-12932ae3c605"/>
    <linearGradient id="8bd6c51a-96f4-4a81-893a-58d150b10866" x1="-199.39" y1="100.16" x2="-196.36" y2="100.16" gradientTransform="translate(213.94)" gradientUnits="userSpaceOnUse">
      <stop offset="0.15" stop-color="#4d9ed7"/>
      <stop offset="1" stop-color="#7bbae5"/>
    </linearGradient>
    <linearGradient id="0d6ea865-cb18-4aa4-be46-67ce8f47e161" x1="-198.81" y1="118.93" x2="-195.14" y2="118.93" xlink:href="#8bd6c51a-96f4-4a81-893a-58d150b10866"/>
  </defs>
  <title>website-status-check</title>
  <g id="eb3791d0-5ca7-4314-86e3-e5d7de7fdf03">
    <g>
      <g>
        <path id="200134ef-35b6-43bf-8b44-f9ba1af1974c" d="M91.51.82h0a3.13,3.13,0,0,1,3.67-.4l64.63,37.31a4.08,4.08,0,0,1,1.84,3.18V86.8a2.47,2.47,0,0,1-1.82,2.38h0a1.68,1.68,0,0,1-1.28-.17L92.86,51.11A4.08,4.08,0,0,1,91,47.92v-46A1.49,1.49,0,0,1,91.51.82Z" style="fill: url(#c063c85d-a94b-4665-84b0-51662b04d9ce)"/>
        <path id="0364b922-f139-4818-a9d9-6fa1e25f2410" d="M91,2.05C91,.89,91.85.41,92.86,1l65.46,37.8A4.08,4.08,0,0,1,160.16,42V87.84c0,1.17-.83,1.64-1.84,1.06L92.86,51.1A4.08,4.08,0,0,1,91,47.92Z" style="fill: #f6f8fb"/>
        <path id="bcccca4a-2b3a-4e22-8e23-ed10f0e23535" d="M101,16.55c-2.38-1.37-4.32-.25-4.32,2.49A9.59,9.59,0,0,0,101,26.53c2.38,1.37,4.32.25,4.32-2.49A9.59,9.59,0,0,0,101,16.55Z" style="fill: #99a7d8"/>
        <path d="M158.32,38.79,92.86,1C91.85.41,91,.89,91,2.05v5.1l69.14,39.92V42A4.08,4.08,0,0,0,158.32,38.79Z" style="fill: #5c629e"/>
        <g id="525ba648-eb1d-4242-aff3-d1cc68ce4cad">
          <polygon points="154.28 47.98 111.38 23.23 111.39 21.86 154.28 46.52 154.28 47.98" style="fill: #e5e9f4"/>
        </g>
        <g id="3d03e8b7-d952-4f32-8195-9343aade08e5">
          <polygon points="154.28 53.47 111.38 28.72 111.39 27.34 154.28 52.01 154.28 53.47" style="fill: #e5e9f4"/>
        </g>
        <g id="cb736f9f-89b9-4727-8685-7c5c42689109">
          <polygon points="154.28 58.95 111.38 34.2 111.39 32.83 154.28 57.49 154.28 58.95" style="fill: #e5e9f4"/>
        </g>
        <g id="35072301-5d33-4dce-a0cb-370f0e6451c3">
          <polygon points="154.28 64.44 111.38 39.69 111.39 38.31 154.28 62.98 154.28 64.44" style="fill: #e5e9f4"/>
        </g>
        <g id="94693f15-c495-4672-bd72-f54a35cd9abc">
          <polygon points="154.28 69.92 111.38 45.17 111.39 43.8 154.28 68.47 154.28 69.92" style="fill: #e5e9f4"/>
        </g>
        <g id="719b2942-e099-4495-a74a-76ffd1d6b88f">
          <polygon points="154.28 75.41 111.38 50.66 111.39 49.29 154.28 73.95 154.28 75.41" style="fill: #e5e9f4"/>
        </g>
        <g id="41dc192c-fd73-4758-a02a-8280f6252228">
          <polygon points="136.27 70.47 111.38 56.15 111.39 54.77 136.27 69.02 136.27 70.47" style="fill: #e5e9f4"/>
        </g>
        <polygon id="c53a4d77-286a-4d12-bfda-28c98443c857" points="94.78 25.64 94.78 47.14 107.19 54.3 107.19 32.8 94.78 25.64" style="fill: #d3daed"/>
        <g>
          <path id="b7118e8a-2fc0-4f5a-94ee-5107fe7fab05" d="M96,5.59c-.49-.28-.88-.05-.88.51A2,2,0,0,0,96,7.63c.49.28.88.05.88-.51A2,2,0,0,0,96,5.59Z" style="fill: #fff"/>
          <path id="c9fd6341-83f7-4af4-b1e2-1775d13ea5fe" d="M99,7.37c-.49-.28-.88-.05-.88.51A2,2,0,0,0,99,9.41c.49.28.88.05.88-.51A2,2,0,0,0,99,7.37Z" style="fill: #fff"/>
          <path id="537a389a-798d-4914-96ae-e8f7e71ad0d7" d="M102.06,9.16c-.49-.28-.88-.05-.88.51a2,2,0,0,0,.88,1.53c.49.28.88.05.88-.51A2,2,0,0,0,102.06,9.16Z" style="fill: #fff"/>
        </g>
      </g>
      <path d="M140.68,67.1l2.09-.89V61.08a1.43,1.43,0,0,1,.07-.46v-.07a.7.7,0,0,1,.21-.5,3.56,3.56,0,0,1,3.49-.23l15.1,8.73V86.8a2.47,2.47,0,0,1-1.82,2.38,1.68,1.68,0,0,1-1.28-.17l-.15-.09-.07,0-15.55-9V74.85l-2.65-6.37A1.06,1.06,0,0,1,140.68,67.1Z" style="fill: #231f20;opacity: 0.2"/>
      <g>
        <path id="bf69274b-d13c-473f-80f9-d29892da4f3f" d="M144.39,63.63h0a3.56,3.56,0,0,1,3.49-.23l50.68,29.3A3.19,3.19,0,0,1,200,95.19v21.32a2,2,0,0,1-1.35,1.89h0a.77.77,0,0,1-.73-.14L145.74,88.43A3.22,3.22,0,0,1,144.18,86V64.13A.7.7,0,0,1,144.39,63.63Z" style="fill: url(#10cad0e5-a004-4cd0-8abf-e90fe11bec33)"/>
        <path id="327f8e61-7e01-428d-a6fd-97e22b78113e" d="M144.11,64.65c0-.91.65-1.29,1.44-.83l51.17,29.54a3.19,3.19,0,0,1,1.44,2.49v21.42c0,.91-.65,1.29-1.44.83L145.54,88.56a3.19,3.19,0,0,1-1.44-2.49V78.42l-2.65-6.37a1.06,1.06,0,0,1,.56-1.39l2.09-.89Z" style="fill: #f5f6fb"/>
        <g id="ac3e3751-8927-427e-ba13-5c875b4adb26">
          <polygon points="180.04 90.5 150.44 73.46 150.43 71.54 180.04 88.55 180.04 90.5" style="fill: #e5e9f4"/>
        </g>
        <g id="2db08df9-dc27-462f-834f-43d9d1e716f3">
          <polygon points="180.04 97.01 150.43 80.03 150.43 78.11 180.04 95.11 180.04 97.01" style="fill: #e5e9f4"/>
        </g>
        <g id="c311accb-c285-48d7-af82-38c3fa5d74f3">
          <polygon points="166.9 96.41 150.43 86.99 150.43 85.08 166.9 94.52 166.9 96.41" style="fill: #e5e9f4"/>
        </g>
        <polygon id="453da79e-70e6-4267-a9cf-836851a8fa86" points="181.67 87.72 181.71 106.16 195 113.77 195 95.29 181.67 87.72" style="fill: url(#2d38dac4-b5a4-4226-b415-12932ae3c605)"/>
      </g>
      <g>
        <g>
          <path d="M130.19,81.11l-34-19.55a1.74,1.74,0,0,0-2,.18L92.4,63.22l-.5,18.43a3,3,0,0,0,1.5,2.59L108.79,93l7.86,4.6,11.3,6.69h2.14a1.59,1.59,0,0,0,1.59-1.59v-19A3,3,0,0,0,130.19,81.11Z" style="fill: url(#8a09d537-83a4-4abd-9583-7d1a6b929a42)"/>
          <path id="706a2932-95be-40fa-b349-ca5a6e4e5cf6" d="M91.91,64.41V81.65a3,3,0,0,0,1.5,2.59l13.53,7.82,1.6,5.88a1.42,1.42,0,0,0,2,.89l4.25-2.17L127.27,104a1.69,1.69,0,0,0,2.55-1.46V85.1a3,3,0,0,0-1.5-2.59L94.44,62.95A1.69,1.69,0,0,0,91.91,64.41Z" style="fill: #f5f6fb"/>
        </g>
        <g id="59be6827-5532-4390-ad04-523a59b917e2">
          <polygon points="126.14 86.66 96.54 69.52 96.56 67.28 126.14 84.36 126.14 86.66" style="fill: #d3daed"/>
        </g>
        <g id="af6653a4-0205-4d56-ad2c-d83cfbad1160">
          <polygon points="126.14 92.43 96.54 75.38 96.56 73.14 126.14 90.22 126.14 92.43" style="fill: #d3daed"/>
        </g>
        <g id="9c1e727f-6b16-41a5-8df8-e94f3171633c">
          <polygon points="110.86 89.51 96.54 81.25 96.56 79.01 110.86 87.26 110.86 89.51" style="fill: #d3daed"/>
        </g>
      </g>
      <g>
        <path d="M184.51,43.15c-2.66-1.55-5.12-2-7.14-1.48h0l-1.82.46-.86,1h0c-1.54,1.5-2.46,3.94-2.46,7.16,0,7.9,5.53,17.6,12.28,21.55a12.47,12.47,0,0,0,3.79,1.51v.18h1.76c4-.05,6.73-3.3,6.73-8.86C196.79,56.8,191.27,47.1,184.51,43.15Z" style="fill: url(#3939bfad-68bb-4a12-b93b-d843c149132e)"/>
        <path id="f1d8772b-b18c-41b8-8621-dd0e5d234eb8" d="M182.89,43.54c-6.76-3.9-12.28-.71-12.28,7.09S176.13,68,182.89,71.9s12.28.71,12.28-7.09S189.64,47.44,182.89,43.54Z" style="fill: #5c629e"/>
        <path id="b447798c-45cf-4e3a-a748-368e852999f6" d="M182.89,45.65c-5.75-3.32-10.45-.6-10.45,6s4.7,14.78,10.45,18.1,10.45.6,10.45-6S188.64,49,182.89,45.65Z" style="fill: #fff"/>
        <path id="22faebfb-053f-4b78-b8ec-bbfca19f7506" d="M183.9,69.79c-5.75-3.32-10.45-11.46-10.45-18.1,0-4.49,2.15-7.18,5.32-7.43-3.72-.29-6.33,2.48-6.33,7.43,0,6.64,4.7,14.78,10.45,18.1A9,9,0,0,0,188,71.18,9.88,9.88,0,0,1,183.9,69.79Z" style="fill: #d3daed"/>
        <g id="5d9594a4-17eb-4002-aea5-5c05a0fe4cf8">
          <path id="73c2532a-5508-4baa-a860-40844bacc997" d="M188,69.46a.61.61,0,0,1-.55-.35L182.34,58a.61.61,0,1,1,1.1-.51l5.13,11.13a.61.61,0,0,1-.55.86Z" style="fill: url(#98503da6-6398-4aa7-a55f-2bec36ba79ed)"/>
        </g>
        <g id="c0ea5b4a-7959-4af6-ad34-7cca57decad8">
          <path id="079046d6-1f59-4efe-93e3-bd76e85ee534" d="M182.89,58.33a.61.61,0,0,1-.61-.61V50.17a.61.61,0,1,1,1.22,0v7.55A.61.61,0,0,1,182.89,58.33Z" style="fill: #48486a"/>
        </g>
        <path id="a6d477df-44c2-4d49-8471-dc4703d2e617" d="M182.89,55.46c-.88-.51-1.6-.09-1.6.93a3.55,3.55,0,0,0,1.6,2.78c.88.51,1.6.09,1.6-.93A3.55,3.55,0,0,0,182.89,55.46Z" style="fill: #48486a"/>
        <path id="08e5865c-8544-4ffc-bc18-5ee7aa1ca920" d="M174.69,52.62c-.28-.16-.51,0-.51.29a1.13,1.13,0,0,0,.51.88c.28.16.51,0,.51-.29A1.13,1.13,0,0,0,174.69,52.62Z" style="fill: #48486a"/>
        <path id="a1016dc8-ad14-46eb-8cac-72bd9ec76c06" d="M182.89,46.35c-.28-.16-.51,0-.51.29a1.13,1.13,0,0,0,.51.88c.28.16.51,0,.51-.29A1.13,1.13,0,0,0,182.89,46.35Z" style="fill: #48486a"/>
        <path id="1fe66e3f-eedb-4960-9c6e-eff318713850" d="M191.66,63.15c-.28-.16-.51,0-.51.29a1.13,1.13,0,0,0,.51.88c.28.16.51,0,.51-.29A1.13,1.13,0,0,0,191.66,63.15Z" style="fill: #48486a"/>
        <path id="4b47d2cc-5250-41ea-b458-3c5f863b34d5" d="M183.4,67.61c-.28-.16-.51,0-.51.29a1.13,1.13,0,0,0,.51.88c.28.16.51,0,.51-.29A1.13,1.13,0,0,0,183.4,67.61Z" style="fill: #48486a"/>
      </g>
      <g id="6855edd7-46b9-49af-9b25-890f036fbd24">
        <path id="bfab9daf-4b75-45ff-afc2-f4a055d5dd03" d="M78.13,18.14c-4.39-2.53-8-.46-8,4.6s3.59,11.28,8,13.81,8,.46,8-4.6S82.52,20.67,78.13,18.14Z" style="fill: #48486a"/>
        <path d="M78.13,18.14a6.88,6.88,0,0,0-3.89-1.06,7.5,7.5,0,0,1,3.17,1.06c4.39,2.53,8,8.75,8,13.81,0,3.44-1.65,5.49-4.09,5.67,2.82.21,4.8-1.9,4.8-5.67C86.11,26.88,82.52,20.67,78.13,18.14Z" style="fill: #5c629e"/>
        <path id="9c69fec7-dca0-41c0-b3b7-810372fa6d24" d="M81.77,30.37l-4.94.51c-.57.06-1.28-.69-1.28-1.35v-5.7c0-.66.71-.73,1.28-.13l4.94,5.2c.57.6.57,1.42,0,1.48l-4.94.51c-.57.06-1.28-.69-1.28-1.35v-5.7c0-.66.71-.73,1.28-.13l4.94,5.2C82.34,29.49,82.34,30.31,81.77,30.37Z" style="fill: url(#63912f76-57e3-44e4-bc1a-3ef429f8d993)"/>
      </g>
      <g>
        <path id="fb10a146-9633-461b-9830-e2e0cb6310f2" d="M156.49,100.61a3.61,3.61,0,0,1,1.63,2.82v15.89a1.11,1.11,0,0,1-.76,1l-.82.27a1,1,0,0,1-.82-.08l-13.84-7.84a3.61,3.61,0,0,1-1.63-2.82v-16a1,1,0,0,1,.45-.85l.24-.17a1.82,1.82,0,0,1,1.94-.08Z" style="fill: url(#633ffc7e-cc9e-4127-bf86-e13d654b6f3c)"/>
        <path id="8b943d71-5b66-4c67-a3b8-3b55c4d30a0f" d="M155.37,101.17A3.62,3.62,0,0,1,157,104v15.56c0,1-.73,1.46-1.63.94l-13.47-7.78a3.61,3.61,0,0,1-1.63-2.82V94.33c0-1,.73-1.46,1.63-.94Z" style="fill: #fff"/>
        <path id="152decdf-b18d-49c4-9b4a-ce5dc46e315e" d="M155.37,101.17l-13.47-7.78c-.9-.52-1.63-.09-1.63.94v3.1L157,107.31V104A3.62,3.62,0,0,0,155.37,101.17Z" style="fill: #5c629e"/>
        <g id="061194a5-4896-4189-a317-d85a2b14b907">
          <path id="37409e48-cf44-483a-a7b4-b7c58a3968a7" d="M146.55,107.78a.44.44,0,0,0,.17-.36.84.84,0,0,0-.14-.45,1.05,1.05,0,0,0-.37-.36.59.59,0,0,0-.78.13l-.78-.91a1.09,1.09,0,0,1,.67-.33,1.68,1.68,0,0,1,.93.29,3.15,3.15,0,0,1,1,.93,2.11,2.11,0,0,1,.43,1.22.83.83,0,0,1-.17.55,1.81,1.81,0,0,1-.63.42l-.79.36,1.72,1v.87l-3.07-1.78v-.72l1.28-.57A2.4,2.4,0,0,0,146.55,107.78Z" style="fill: #5c629e"/>
          <path id="1b76eb7e-4ef7-4925-a62b-3f2c9b9b1aeb" d="M151.29,108.82v.84l-1.72-1v.73a2,2,0,0,1,.44.2,3.43,3.43,0,0,1,1.09,1,2.22,2.22,0,0,1,.46,1.29q0,.65-.47.79a1.48,1.48,0,0,1-1.16-.25,4.13,4.13,0,0,1-1.48-1.51l.51-.41.15.22a4.83,4.83,0,0,0,.34.41,2.09,2.09,0,0,0,.5.42.65.65,0,0,0,.44.11q.19,0,.19-.33a1,1,0,0,0-.21-.57,1.77,1.77,0,0,0-.54-.47,1.62,1.62,0,0,0-.77-.21l-.41-.67V107.3Z" style="fill: #5c629e"/>
        </g>
      </g>
      <g>
        <path id="0e42ce60-f928-4d64-8f19-5244dd7567da" d="M78.13,57.29c-3.61-2.08-6.56-.38-6.56,3.79a14.56,14.56,0,0,0,6.56,11.36c3.61,2.08,6.56.38,6.56-3.79A14.56,14.56,0,0,0,78.13,57.29Z" style="fill: #f5f6fb"/>
        <path d="M78.13,57.29a5.66,5.66,0,0,0-3.2-.87,6.17,6.17,0,0,1,2.61.87A14.56,14.56,0,0,1,84.1,68.66c0,2.83-1.36,4.52-3.36,4.66,2.32.17,4-1.56,4-4.66A14.56,14.56,0,0,0,78.13,57.29Z" style="fill: url(#4bf43119-0528-4ad5-8ef2-db1c77e24b88)"/>
        <path id="02149541-5af8-4b50-9d89-ea2a31e2e383" d="M79.83,65.44l.53-.27c.11-.05.12-.25,0-.44l-.61-1.19c-.1-.19-.26-.3-.37-.24l-.41.21c-.07,0-.17,0-.25-.11l-.15-.18a.52.52,0,0,1-.14-.34l0-.66a.61.61,0,0,0-.25-.48l-.91-.6c-.14-.09-.27,0-.27.14L77,62c0,.11-.06.16-.15.15l-.17,0a.37.37,0,0,1-.24-.21l-.38-.74c-.1-.19-.26-.3-.37-.24l-.67.34c-.11.05-.12.25,0,.44l.37.73a.36.36,0,0,1,0,.32l-.07.15c0,.08-.12.1-.21,0l-.56-.36c-.14-.09-.27,0-.27.14l0,1.08a.61.61,0,0,0,.25.48l.56.37a.51.51,0,0,1,.19.29l.06.25c0,.12,0,.22-.06.25l-.42.22c-.11.06-.11.25,0,.44l.61,1.19c.1.19.26.3.37.24l.41-.21c.07,0,.17,0,.25.11l.15.18a.52.52,0,0,1,.14.34l0,.67a.61.61,0,0,0,.25.48l.91.59c.14.09.27,0,.27-.14l0-.67c0-.11.06-.16.15-.15l.17,0a.36.36,0,0,1,.24.21l.38.74c.1.19.26.3.37.24l.67-.35c.11-.06.11-.25,0-.44l-.37-.73a.36.36,0,0,1,0-.32l.07-.14c0-.08.12-.1.21,0l.56.36c.14.09.27,0,.27-.14l0-1.08a.61.61,0,0,0-.25-.48l-.56-.37a.51.51,0,0,1-.19-.29C79.9,65.69,79.83,65.46,79.83,65.44Zm-3.31.14c-.43-1.11-.11-2,.63-1.92a2.39,2.39,0,0,1,1.55,1.57c.43,1.11.11,2-.63,1.92A2.39,2.39,0,0,1,76.52,65.58Z" style="fill: #48486a"/>
      </g>
    </g>
  </g>
  <g id="594d8bc1-669d-4e6e-a1e3-7404e8abd152">
    <g>
      <g style="opacity: 0.67">
        <path id="1fef36b7-115e-4674-8ad0-6549c7d9b2a7" d="M2.83,142.43c-3.76,2.13-3.77,5.64,0,7.8l123.68,71.32a15.16,15.16,0,0,0,13.62,0L195.26,190c3.75-2.15,3.75-5.67,0-7.83L72,111.06A15.26,15.26,0,0,0,58.34,111Z" style="fill: #fff;opacity: 0"/>
        <path d="M3.17,142.4c-3.75,2.12-3.76,5.62,0,7.77l123.32,71.12a15.12,15.12,0,0,0,13.58,0l55-31.49c3.74-2.14,3.74-5.65,0-7.8L72.12,111.12a15.21,15.21,0,0,0-13.59-.06Z" style="fill: #fbfbfb;opacity: 0.024390000000000002"/>
        <path d="M3.51,142.38c-3.74,2.12-3.75,5.6,0,7.75l123,70.91a15.07,15.07,0,0,0,13.54,0l54.86-31.4c3.73-2.13,3.73-5.63,0-7.78L72.26,111.19a15.17,15.17,0,0,0-13.55-.06Z" style="fill: #f6f6f8;opacity: 0.048780000000000004"/>
        <path d="M3.85,142.35c-3.73,2.11-3.74,5.59,0,7.73l122.6,70.7a15,15,0,0,0,13.5,0l54.69-31.31c3.72-2.13,3.72-5.62,0-7.76L72.4,111.25a15.12,15.12,0,0,0-13.52-.06Z" style="fill: #f2f2f4;opacity: 0.073171"/>
        <path d="M4.19,142.33c-3.71,2.1-3.73,5.57,0,7.7L126.4,220.52a15,15,0,0,0,13.46,0l54.53-31.22c3.7-2.12,3.71-5.6,0-7.74L72.54,111.32a15.08,15.08,0,0,0-13.48-.06Z" style="fill: #ededf0;opacity: 0.097561"/>
        <path d="M4.53,142.3c-3.7,2.1-3.72,5.55,0,7.68l121.88,70.29a14.94,14.94,0,0,0,13.42,0l54.37-31.12c3.69-2.11,3.7-5.59,0-7.71L72.68,111.38a15,15,0,0,0-13.44-.06Z" style="fill: #e9e9ed;opacity: 0.12195099999999999"/>
        <path d="M4.87,142.27c-3.69,2.09-3.71,5.54,0,7.66L126.36,220a14.9,14.9,0,0,0,13.38,0l54.21-31c3.68-2.11,3.69-5.57,0-7.69L72.82,111.45a15,15,0,0,0-13.4-.06Z" style="fill: #e4e4e9;opacity: 0.146341"/>
        <path d="M5.22,142.25c-3.68,2.08-3.7,5.52,0,7.64l121.16,69.87a14.85,14.85,0,0,0,13.34,0l54.05-30.94c3.67-2.1,3.68-5.55,0-7.67L73,111.51a15,15,0,0,0-13.36-.06Z" style="fill: #e0e0e6;opacity: 0.170732"/>
        <path d="M5.56,142.22c-3.67,2.08-3.69,5.5,0,7.61l120.8,69.66a14.81,14.81,0,0,0,13.3,0l53.89-30.85c3.66-2.1,3.67-5.54,0-7.65L73.1,111.58a14.9,14.9,0,0,0-13.32-.06Z" style="fill: #dbdbe2;opacity: 0.195122"/>
        <path d="M5.9,142.2c-3.66,2.07-3.67,5.49,0,7.59L126.3,219.24a14.76,14.76,0,0,0,13.26,0l53.73-30.76c3.65-2.09,3.66-5.52,0-7.62L73.24,111.64A14.86,14.86,0,0,0,60,111.59Z" style="fill: #d7d7de;opacity: 0.21951199999999998"/>
        <path d="M6.24,142.17c-3.65,2.07-3.66,5.47,0,7.57L126.28,219a14.72,14.72,0,0,0,13.22,0l53.57-30.67c3.64-2.08,3.65-5.5,0-7.6l-119.71-69a14.81,14.81,0,0,0-13.24-.06Z" style="fill: #d2d2db;opacity: 0.24390199999999998"/>
        <path d="M6.58,142.14c-3.64,2.06-3.65,5.46,0,7.55l119.72,69a14.68,14.68,0,0,0,13.18,0l53.41-30.57c3.63-2.08,3.63-5.49,0-7.58L73.52,111.77a14.77,14.77,0,0,0-13.2-.06Z" style="fill: #ceced7;opacity: 0.268293"/>
        <path d="M6.92,142.12c-3.63,2.05-3.64,5.44,0,7.52l119.36,68.83a14.63,14.63,0,0,0,13.14,0L192.64,188c3.62-2.07,3.62-5.47,0-7.55l-119-68.62a14.72,14.72,0,0,0-13.16-.06Z" style="fill: #c9c9d3;opacity: 0.29268299999999997"/>
        <path d="M7.26,142.09c-3.62,2-3.63,5.42,0,7.5l119,68.62a14.59,14.59,0,0,0,13.1,0l53.09-30.39c3.61-2.06,3.61-5.45,0-7.53L73.8,111.9a14.68,14.68,0,0,0-13.12-.06Z" style="fill: #c5c5d0;opacity: 0.317073"/>
        <path d="M7.6,142.07c-3.61,2-3.62,5.41,0,7.48L126.21,218a14.54,14.54,0,0,0,13.06,0l52.93-30.3c3.6-2.06,3.6-5.44,0-7.51L73.94,112a14.64,14.64,0,0,0-13.08-.05Z" style="fill: #c1c1cc;opacity: 0.34146299999999996"/>
        <path d="M7.94,142c-3.59,2-3.61,5.39,0,7.46L126.19,217.7a14.5,14.5,0,0,0,13,0L192,187.52c3.58-2.05,3.59-5.42,0-7.49L74.08,112A14.59,14.59,0,0,0,61,112Z" style="fill: #bcbcc8;opacity: 0.36585399999999996"/>
        <path d="M8.28,142c-3.58,2-3.6,5.37,0,7.43l117.92,68a14.46,14.46,0,0,0,13,0l52.61-30.11c3.57-2,3.58-5.4,0-7.46L74.22,112.1a14.55,14.55,0,0,0-13-.05Z" style="fill: #b8b8c5;opacity: 0.390244"/>
        <path d="M8.63,142c-3.57,2-3.59,5.36,0,7.41l117.56,67.79a14.41,14.41,0,0,0,12.94,0l52.45-30c3.56-2,3.57-5.39,0-7.44L74.36,112.17a14.5,14.5,0,0,0-13-.05Z" style="fill: #b3b3c1;opacity: 0.414634"/>
        <path d="M9,142c-3.56,2-3.58,5.34,0,7.39l117.2,67.59a14.37,14.37,0,0,0,12.9,0L191.32,187c3.55-2,3.56-5.37,0-7.42L74.49,112.23a14.46,14.46,0,0,0-12.92-.05Z" style="fill: #afafbe;opacity: 0.43902399999999997"/>
        <path d="M9.31,141.94c-3.55,2-3.56,5.32,0,7.36l116.84,67.38a14.32,14.32,0,0,0,12.86,0l52.13-29.84c3.54-2,3.55-5.35,0-7.39L74.63,112.3a14.41,14.41,0,0,0-12.88-.05Z" style="fill: #aaaaba;opacity: 0.46341499999999997"/>
        <path d="M9.65,141.91c-3.54,2-3.55,5.31,0,7.34L126.1,216.42a14.28,14.28,0,0,0,12.82,0l52-29.75c3.53-2,3.54-5.34,0-7.37l-116.12-67a14.37,14.37,0,0,0-12.84-.05Z" style="fill: #a6a6b6;opacity: 0.487805"/>
        <path d="M10,141.88c-3.53,2-3.54,5.29,0,7.32l116.12,67a14.23,14.23,0,0,0,12.78,0l51.8-29.65c3.52-2,3.53-5.32,0-7.35L74.91,112.43a14.32,14.32,0,0,0-12.8-.05Z" style="fill: #a1a1b3;opacity: 0.512195"/>
        <path d="M10.33,141.86c-3.52,2-3.53,5.27,0,7.3l115.76,66.76a14.19,14.19,0,0,0,12.74,0l51.64-29.56c3.51-2,3.51-5.3,0-7.33L75.05,112.49a14.28,14.28,0,0,0-12.76-.05Z" style="fill: #9d9daf;opacity: 0.536585"/>
        <path d="M10.67,141.83c-3.51,2-3.52,5.26,0,7.27L126,215.65a14.15,14.15,0,0,0,12.7,0l51.48-29.47c3.5-2,3.5-5.29,0-7.3l-115-66.35a14.24,14.24,0,0,0-12.72-.05Z" style="fill: #9898ab;opacity: 0.5609759999999999"/>
        <path d="M11,141.81c-3.5,2-3.51,5.24,0,7.25L126,215.4a14.1,14.1,0,0,0,12.67,0L190,186c3.49-2,3.49-5.27,0-7.28L75.33,112.62a14.19,14.19,0,0,0-12.68-.05Z" style="fill: #9494a8;opacity: 0.5853659999999999"/>
        <path d="M11.35,141.78c-3.49,2-3.5,5.23,0,7.23L126,215.14a14.06,14.06,0,0,0,12.63,0l51.16-29.29c3.48-2,3.48-5.26,0-7.26L75.47,112.69a14.15,14.15,0,0,0-12.64-.05Z" style="fill: #8f8fa4;opacity: 0.609756"/>
        <path d="M11.69,141.75c-3.47,2-3.49,5.21,0,7.21L126,214.89a14,14,0,0,0,12.59,0l51-29.19c3.46-2,3.47-5.24,0-7.24l-114-65.73A14.1,14.1,0,0,0,63,112.7Z" style="fill: #8b8ba1;opacity: 0.634146"/>
        <path d="M12,141.73c-3.46,2-3.48,5.19,0,7.18l114,65.72a14,14,0,0,0,12.55,0l50.84-29.1c3.45-2,3.46-5.22,0-7.21L75.75,112.82a14.06,14.06,0,0,0-12.56-.05Z" style="fill: #86869d;opacity: 0.6585369999999999"/>
        <path d="M12.38,141.7c-3.45,2-3.47,5.18,0,7.16l113.6,65.51a13.93,13.93,0,0,0,12.51,0l50.68-29c3.44-2,3.45-5.21,0-7.19L75.89,112.88a14,14,0,0,0-12.52-.05Z" style="fill: #828299;opacity: 0.682927"/>
        <path d="M12.72,141.68c-3.44,1.95-3.45,5.16,0,7.14l113.24,65.3a13.88,13.88,0,0,0,12.47,0l50.52-28.92c3.43-2,3.44-5.19,0-7.17L76,113a14,14,0,0,0-12.48-.05Z" style="fill: #7e7e96;opacity: 0.707317"/>
        <path d="M13.06,141.65c-3.43,1.94-3.44,5.14,0,7.11l112.88,65.1a13.84,13.84,0,0,0,12.43,0l50.36-28.83c3.42-2,3.43-5.17,0-7.14L76.17,113A13.93,13.93,0,0,0,63.73,113Z" style="fill: #797992;opacity: 0.731707"/>
        <path d="M13.4,141.62c-3.42,1.94-3.43,5.13,0,7.09l112.52,64.89a13.79,13.79,0,0,0,12.39,0l50.2-28.74c3.41-2,3.42-5.16,0-7.12L76.31,113.08a13.88,13.88,0,0,0-12.4-.05Z" style="fill: #75758e;opacity: 0.7560979999999999"/>
        <path d="M13.74,141.6c-3.41,1.93-3.42,5.11,0,7.07l112.16,64.68a13.75,13.75,0,0,0,12.35,0l50-28.64c3.4-1.95,3.41-5.14,0-7.1L76.45,113.15a13.84,13.84,0,0,0-12.36-.05Z" style="fill: #70708b;opacity: 0.780488"/>
        <path d="M14.08,141.57c-3.4,1.92-3.41,5.09,0,7l111.8,64.47a13.71,13.71,0,0,0,12.31,0L188,184.56c3.39-1.94,3.39-5.12,0-7.08L76.59,113.21a13.79,13.79,0,0,0-12.32-.05Z" style="fill: #6c6c87;opacity: 0.804878"/>
        <path d="M14.42,141.55c-3.39,1.92-3.4,5.08,0,7l111.44,64.27a13.66,13.66,0,0,0,12.27,0l49.72-28.46c3.38-1.93,3.38-5.11,0-7.05L76.73,113.28a13.75,13.75,0,0,0-12.29-.05Z" style="fill: #676783;opacity: 0.829268"/>
        <path d="M14.76,141.52c-3.38,1.91-3.39,5.06,0,7l111.08,64.06a13.62,13.62,0,0,0,12.23,0l49.56-28.37c3.37-1.93,3.37-5.09,0-7L76.87,113.34a13.7,13.7,0,0,0-12.25-.05Z" style="fill: #636380;opacity: 0.853659"/>
        <path d="M15.1,141.49c-3.36,1.9-3.38,5,0,7l110.72,63.85a13.57,13.57,0,0,0,12.19,0l49.4-28.28c3.36-1.92,3.36-5.07,0-7L77,113.41a13.66,13.66,0,0,0-12.21-.05Z" style="fill: #5e5e7c;opacity: 0.878049"/>
        <path d="M15.45,141.47c-3.35,1.9-3.37,5,0,7l110.36,63.64a13.53,13.53,0,0,0,12.15,0l49.24-28.18c3.34-1.91,3.35-5.06,0-7l-110-63.45A13.61,13.61,0,0,0,65,113.42Z" style="fill: #5a5a79;opacity: 0.902439"/>
        <path d="M15.79,141.44c-3.34,1.89-3.36,5,0,6.93l110,63.44a13.49,13.49,0,0,0,12.11,0l49.07-28.09c3.33-1.91,3.34-5,0-7L77.29,113.54a13.57,13.57,0,0,0-12.13-.05Z" style="fill: #555575;opacity: 0.9268289999999999"/>
        <path d="M16.13,141.42c-3.33,1.89-3.35,5,0,6.91l109.64,63.23a13.44,13.44,0,0,0,12.07,0l48.91-28c3.32-1.9,3.33-5,0-6.94l-109.31-63a13.53,13.53,0,0,0-12.09-.05Z" style="fill: #515171;opacity: 0.9512200000000001"/>
        <path d="M16.47,141.39c-3.32,1.88-3.33,5,0,6.89l109.28,63a13.4,13.4,0,0,0,12,0l48.75-27.91c3.31-1.9,3.32-5,0-6.92L77.57,113.67a13.48,13.48,0,0,0-12-.05Z" style="fill: #4c4c6e;opacity: 0.9756100000000001"/>
        <path id="e13cc72d-2209-4998-947b-3a707effad52" d="M16.81,141.37c-3.31,1.87-3.32,5,0,6.87L125.7,211a13.35,13.35,0,0,0,12,0l48.59-27.82c3.3-1.89,3.31-5,0-6.89L77.71,113.73a13.44,13.44,0,0,0-12-.05Z" style="fill: #48486a"/>
      </g>
      <path id="9ed942f8-0253-433f-941f-87249bb4f453" d="M8.52,139.9v2.59a5.12,5.12,0,0,0,2.56,4.44l114.79,66.33a14.07,14.07,0,0,0,12.63,0l51.25-29.11a5,5,0,0,0,2.55-4.36h0a10.27,10.27,0,0,0-5.13-8.94L75.17,106A14.16,14.16,0,0,0,62.51,106L10.94,135.72A4.83,4.83,0,0,0,8.52,139.9Z" style="fill: url(#1f82de74-16eb-4613-aca4-afb85ab0cb44)"/>
      <path id="2e0b375e-19bf-401f-b2ed-488962375e74" d="M11.15,135.16c-3.49,2-3.5,5.23,0,7.23l114.76,66.18a14.07,14.07,0,0,0,12.63,0l51.2-29.31c3.48-2,3.48-5.26,0-7.26L75.31,106A14.16,14.16,0,0,0,62.66,106Z" style="fill: #f9f7f9"/>
      <path id="e0362e8a-acc4-47c3-8f89-58ea97cfc905" d="M163.45,191.31c3.4-2,3.4-5.18,0-7.14a13.72,13.72,0,0,0-12.37,0c-3.4,2-3.4,5.18,0,7.14A13.72,13.72,0,0,0,163.45,191.31Z" style="fill: #edf0f8"/>
      <g id="4af960c2-e238-4721-ad8e-9ac960a1f0ba">
        <path d="M37.93,128.35a.52.52,0,0,1-.26-1l11.41-6.59a.52.52,0,1,1,.52.9l-11.41,6.59A.51.51,0,0,1,37.93,128.35Z" style="fill: #99a7d8"/>
      </g>
      <g id="3a8ea8c4-57ce-421e-95af-783b5d9fcb73">
        <path d="M51,120.79a.52.52,0,0,1-.26-1l2.54-1.47a.52.52,0,1,1,.52.9l-2.54,1.47A.51.51,0,0,1,51,120.79Z" style="fill: #99a7d8"/>
      </g>
      <polygon id="5af0a802-7e99-4576-a278-e71bfa07a7fb" points="20.25 144.84 78.44 110.82 174.84 166.41 116.16 200.42 20.25 144.84" style="fill: #d3daed"/>
    </g>
  </g>
  <g id="5300bb74-306d-4c49-90da-1915dfe7a3f1">
    <g style="opacity: 0.19">
      <polygon id="21c52aeb-4efd-48bc-afcc-a4d44444550f" points="20.05 144.91 78.24 110.89 174.64 166.48 115.96 200.49 20.05 144.91" style="fill: #99a7d8"/>
      <polygon points="20.05 144.1 78.24 110.07 174.64 165.66 115.96 199.68 20.05 144.1" style="fill: #9aa8d8;opacity: 0.9876539999999999"/>
      <polygon points="20.05 143.28 78.24 109.26 174.64 164.84 115.96 198.86 20.05 143.28" style="fill: #9ca9d9;opacity: 0.975309"/>
      <polygon points="20.05 142.46 78.24 108.44 174.64 164.03 115.96 198.04 20.05 142.46" style="fill: #9daad9;opacity: 0.9629629999999999"/>
      <polygon points="20.05 141.65 78.24 107.62 174.64 163.21 115.96 197.23 20.05 141.65" style="fill: #9eabda;opacity: 0.9506169999999999"/>
      <polygon points="20.05 140.83 78.24 106.81 174.64 162.39 115.96 196.41 20.05 140.83" style="fill: #9facda;opacity: 0.938272"/>
      <polygon points="20.05 140.01 78.24 105.99 174.64 161.58 115.96 195.59 20.05 140.01" style="fill: #a1aedb;opacity: 0.9259259999999999"/>
      <polygon points="20.05 139.2 78.24 105.17 174.64 160.76 115.96 194.78 20.05 139.2" style="fill: #a2afdb;opacity: 0.9135800000000001"/>
      <polygon points="20.05 138.38 78.24 104.36 174.64 159.94 115.96 193.96 20.05 138.38" style="fill: #a3b0dc;opacity: 0.901235"/>
      <polygon points="20.05 137.56 78.24 103.54 174.64 159.13 115.96 193.14 20.05 137.56" style="fill: #a4b1dc;opacity: 0.8888889999999999"/>
      <polygon points="20.05 136.75 78.24 102.72 174.64 158.31 115.96 192.32 20.05 136.75" style="fill: #a6b2dd;opacity: 0.876543"/>
      <polygon points="20.05 135.93 78.24 101.91 174.64 157.49 115.96 191.51 20.05 135.93" style="fill: #a7b3dd;opacity: 0.8641979999999999"/>
      <polygon points="20.05 135.11 78.24 101.09 174.64 156.68 115.96 190.69 20.05 135.11" style="fill: #a8b4de;opacity: 0.8518519999999999"/>
      <polygon points="20.05 134.29 78.24 100.27 174.64 155.86 115.96 189.88 20.05 134.29" style="fill: #a9b5de;opacity: 0.839506"/>
      <polygon points="20.05 133.48 78.24 99.46 174.64 155.04 115.96 189.06 20.05 133.48" style="fill: #abb6df;opacity: 0.8271600000000001"/>
      <polygon points="20.05 132.66 78.24 98.64 174.64 154.23 115.96 188.24 20.05 132.66" style="fill: #acb7df;opacity: 0.814815"/>
      <polygon points="20.05 131.84 78.24 97.82 174.64 153.41 115.96 187.43 20.05 131.84" style="fill: #adb8e0;opacity: 0.802469"/>
      <polygon points="20.05 131.03 78.24 97.01 174.64 152.59 115.96 186.61 20.05 131.03" style="fill: #aeb9e0;opacity: 0.7901229999999999"/>
      <polygon points="20.05 130.21 78.24 96.19 174.64 151.78 115.96 185.79 20.05 130.21" style="fill: #b0bbe1;opacity: 0.777778"/>
      <polygon points="20.05 129.4 78.24 95.37 174.64 150.96 115.96 184.97 20.05 129.4" style="fill: #b1bce1;opacity: 0.765432"/>
      <polygon points="20.05 128.58 78.24 94.56 174.64 150.14 115.96 184.16 20.05 128.58" style="fill: #b2bde2;opacity: 0.7530859999999999"/>
      <polygon points="20.05 127.76 78.24 93.74 174.64 149.32 115.96 183.34 20.05 127.76" style="fill: #b3bee2;opacity: 0.740741"/>
      <polygon points="20.05 126.94 78.24 92.92 174.64 148.51 115.96 182.52 20.05 126.94" style="fill: #b5bfe3;opacity: 0.728395"/>
      <polygon points="20.05 126.13 78.24 92.11 174.64 147.69 115.96 181.71 20.05 126.13" style="fill: #b6c0e3;opacity: 0.7160489999999999"/>
      <polygon points="20.05 125.31 78.24 91.29 174.64 146.88 115.96 180.89 20.05 125.31" style="fill: #b7c1e4;opacity: 0.703704"/>
      <polygon points="20.05 124.49 78.24 90.47 174.64 146.06 115.96 180.07 20.05 124.49" style="fill: #b8c2e4;opacity: 0.6913579999999999"/>
      <polygon points="20.05 123.68 78.24 89.66 174.64 145.24 115.96 179.26 20.05 123.68" style="fill: #bac3e5;opacity: 0.679012"/>
      <polygon points="20.05 122.86 78.24 88.84 174.64 144.43 115.96 178.44 20.05 122.86" style="fill: #bbc4e5;opacity: 0.666667"/>
      <polygon points="20.05 122.04 78.24 88.02 174.64 143.61 115.96 177.62 20.05 122.04" style="fill: #bcc5e5;opacity: 0.6543209999999999"/>
      <polygon points="20.05 121.23 78.24 87.2 174.64 142.79 115.96 176.81 20.05 121.23" style="fill: #bec7e6;opacity: 0.641975"/>
      <polygon points="20.05 120.41 78.24 86.39 174.64 141.97 115.96 175.99 20.05 120.41" style="fill: #bfc8e6;opacity: 0.62963"/>
      <polygon points="20.05 119.59 78.24 85.57 174.64 141.16 115.96 175.17 20.05 119.59" style="fill: #c0c9e7;opacity: 0.6172839999999999"/>
      <polygon points="20.05 118.78 78.24 84.75 174.64 140.34 115.96 174.36 20.05 118.78" style="fill: #c1cae7;opacity: 0.604938"/>
      <polygon points="20.05 117.96 78.24 83.94 174.64 139.52 115.96 173.54 20.05 117.96" style="fill: #c3cbe8;opacity: 0.5925929999999999"/>
      <polygon points="20.05 117.14 78.24 83.12 174.64 138.71 115.96 172.72 20.05 117.14" style="fill: #c4cce8;opacity: 0.580247"/>
      <polygon points="20.05 116.33 78.24 82.3 174.64 137.89 115.96 171.91 20.05 116.33" style="fill: #c5cde9;opacity: 0.567901"/>
      <polygon points="20.05 115.51 78.24 81.49 174.64 137.07 115.96 171.09 20.05 115.51" style="fill: #c6cee9;opacity: 0.5555559999999999"/>
      <polygon points="20.05 114.69 78.24 80.67 174.64 136.26 115.96 170.27 20.05 114.69" style="fill: #c8cfea;opacity: 0.5432100000000001"/>
      <polygon points="20.05 113.88 78.24 79.85 174.64 135.44 115.96 169.46 20.05 113.88" style="fill: #c9d0ea;opacity: 0.530864"/>
      <polygon points="20.05 113.06 78.24 79.04 174.64 134.62 115.96 168.64 20.05 113.06" style="fill: #cad1eb;opacity: 0.518519"/>
      <polygon points="20.05 112.24 78.24 78.22 174.64 133.81 115.96 167.82 20.05 112.24" style="fill: #cbd2eb;opacity: 0.506173"/>
      <polygon points="20.05 111.43 78.24 77.4 174.64 132.99 115.96 167 20.05 111.43" style="fill: #cdd4ec;opacity: 0.49382699999999996"/>
      <polygon points="20.05 110.61 78.24 76.59 174.64 132.17 115.96 166.19 20.05 110.61" style="fill: #ced5ec;opacity: 0.481481"/>
      <polygon points="20.05 109.79 78.24 75.77 174.64 131.36 115.96 165.37 20.05 109.79" style="fill: #cfd6ed;opacity: 0.469136"/>
      <polygon points="20.05 108.97 78.24 74.95 174.64 130.54 115.96 164.56 20.05 108.97" style="fill: #d0d7ed;opacity: 0.45679000000000003"/>
      <polygon points="20.05 108.16 78.24 74.14 174.64 129.72 115.96 163.74 20.05 108.16" style="fill: #d2d8ee;opacity: 0.444444"/>
      <polygon points="20.05 107.34 78.24 73.32 174.64 128.91 115.96 162.92 20.05 107.34" style="fill: #d3d9ee;opacity: 0.43209899999999996"/>
      <polygon points="20.05 106.53 78.24 72.5 174.64 128.09 115.96 162.1 20.05 106.53" style="fill: #d4daef;opacity: 0.419753"/>
      <polygon points="20.05 105.71 78.24 71.69 174.64 127.27 115.96 161.29 20.05 105.71" style="fill: #d5dbef;opacity: 0.40740699999999996"/>
      <polygon points="20.05 104.89 78.24 70.87 174.64 126.46 115.96 160.47 20.05 104.89" style="fill: #d7dcf0;opacity: 0.39506199999999997"/>
      <polygon points="20.05 104.08 78.24 70.05 174.64 125.64 115.96 159.65 20.05 104.08" style="fill: #d8ddf0;opacity: 0.382716"/>
      <polygon points="20.05 103.26 78.24 69.23 174.64 124.82 115.96 158.84 20.05 103.26" style="fill: #d9def1;opacity: 0.37037000000000003"/>
      <polygon points="20.05 102.44 78.24 68.42 174.64 124 115.96 158.02 20.05 102.44" style="fill: #dadff1;opacity: 0.358025"/>
      <polygon points="20.05 101.62 78.24 67.6 174.64 123.19 115.96 157.2 20.05 101.62" style="fill: #dce1f2;opacity: 0.34567899999999996"/>
      <polygon points="20.05 100.81 78.24 66.78 174.64 122.37 115.96 156.39 20.05 100.81" style="fill: #dde2f2;opacity: 0.333333"/>
      <polygon points="20.05 99.99 78.24 65.97 174.64 121.56 115.96 155.57 20.05 99.99" style="fill: #dee3f2;opacity: 0.320988"/>
      <polygon points="20.05 99.17 78.24 65.15 174.64 120.74 115.96 154.75 20.05 99.17" style="fill: #e0e4f3;opacity: 0.30864199999999997"/>
      <polygon points="20.05 98.36 78.24 64.33 174.64 119.92 115.96 153.94 20.05 98.36" style="fill: #e1e5f3;opacity: 0.296296"/>
      <polygon points="20.05 97.54 78.24 63.52 174.64 119.11 115.96 153.12 20.05 97.54" style="fill: #e2e6f4;opacity: 0.283951"/>
      <polygon points="20.05 96.72 78.24 62.7 174.64 118.29 115.96 152.3 20.05 96.72" style="fill: #e3e7f4;opacity: 0.271605"/>
      <polygon points="20.05 95.91 78.24 61.88 174.64 117.47 115.96 151.49 20.05 95.91" style="fill: #e5e8f5;opacity: 0.25925899999999996"/>
      <polygon points="20.05 95.09 78.24 61.07 174.64 116.65 115.96 150.67 20.05 95.09" style="fill: #e6e9f5;opacity: 0.246914"/>
      <polygon points="20.05 94.27 78.24 60.25 174.64 115.84 115.96 149.85 20.05 94.27" style="fill: #e7eaf6;opacity: 0.234568"/>
      <polygon points="20.05 93.46 78.24 59.43 174.64 115.02 115.96 149.04 20.05 93.46" style="fill: #e8ebf6;opacity: 0.222222"/>
      <polygon points="20.05 92.64 78.24 58.62 174.64 114.2 115.96 148.22 20.05 92.64" style="fill: #eaedf7;opacity: 0.20987699999999998"/>
      <polygon points="20.05 91.82 78.24 57.8 174.64 113.39 115.96 147.4 20.05 91.82" style="fill: #ebeef7;opacity: 0.19753099999999998"/>
      <polygon points="20.05 91.01 78.24 56.98 174.64 112.57 115.96 146.59 20.05 91.01" style="fill: #eceff8;opacity: 0.185185"/>
      <polygon points="20.05 90.19 78.24 56.17 174.64 111.75 115.96 145.77 20.05 90.19" style="fill: #edf0f8;opacity: 0.17284000000000002"/>
      <polygon points="20.05 89.37 78.24 55.35 174.64 110.94 115.96 144.95 20.05 89.37" style="fill: #eff1f9;opacity: 0.160494"/>
      <polygon points="20.05 88.56 78.24 54.53 174.64 110.12 115.96 144.13 20.05 88.56" style="fill: #f0f2f9;opacity: 0.148148"/>
      <polygon points="20.05 87.74 78.24 53.72 174.64 109.3 115.96 143.32 20.05 87.74" style="fill: #f1f3fa;opacity: 0.135802"/>
      <polygon points="20.05 86.92 78.24 52.9 174.64 108.49 115.96 142.5 20.05 86.92" style="fill: #f2f4fa;opacity: 0.123457"/>
      <polygon points="20.05 86.11 78.24 52.08 174.64 107.67 115.96 141.69 20.05 86.11" style="fill: #f4f5fb;opacity: 0.111111"/>
      <polygon points="20.05 85.29 78.24 51.27 174.64 106.85 115.96 140.87 20.05 85.29" style="fill: #f5f6fb;opacity: 0.09876499999999999"/>
      <polygon points="20.05 84.47 78.24 50.45 174.64 106.04 115.96 140.05 20.05 84.47" style="fill: #f6f7fc;opacity: 0.08642000000000001"/>
      <polygon points="20.05 83.66 78.24 49.63 174.64 105.22 115.96 139.23 20.05 83.66" style="fill: #f7f8fc;opacity: 0.074074"/>
      <polygon points="20.05 82.84 78.24 48.82 174.64 104.4 115.96 138.42 20.05 82.84" style="fill: #f9fafd;opacity: 0.061728"/>
      <polygon points="20.05 82.02 78.24 48 174.64 103.59 115.96 137.6 20.05 82.02" style="fill: #fafbfd;opacity: 0.049382999999999996"/>
      <polygon points="20.05 81.2 78.24 47.18 174.64 102.77 115.96 136.78 20.05 81.2" style="fill: #fbfcfe;opacity: 0.037037"/>
      <polygon points="20.05 80.39 78.24 46.37 174.64 101.95 115.96 135.97 20.05 80.39" style="fill: #fcfdfe;opacity: 0.024690999999999998"/>
      <polygon points="20.05 79.57 78.24 45.55 174.64 101.14 115.96 135.15 20.05 79.57" style="fill: #fefeff;opacity: 0.012346"/>
      <polygon id="1e637478-7fc6-4023-a9e6-63cbbd379585" points="20.05 78.75 78.24 44.73 174.64 100.32 115.96 134.33 20.05 78.75" style="fill: #fff;opacity: 0"/>
    </g>
    <g style="opacity: 0.4">
      <polygon points="40.92 157 86.06 130.6 160.86 173.73 115.33 200.12 40.92 157" style="fill: #99a7d8"/>
      <polygon points="40.92 156.37 86.06 129.97 160.86 173.1 115.33 199.49 40.92 156.37" style="fill: #9aa8d8;opacity: 0.9876539999999999"/>
      <polygon points="40.92 155.73 86.06 129.34 160.86 172.47 115.33 198.86 40.92 155.73" style="fill: #9ca9d9;opacity: 0.975309"/>
      <polygon points="40.92 155.1 86.06 128.7 160.86 171.83 115.33 198.22 40.92 155.1" style="fill: #9daad9;opacity: 0.9629629999999999"/>
      <polygon points="40.92 154.47 86.06 128.07 160.86 171.2 115.33 197.59 40.92 154.47" style="fill: #9eabda;opacity: 0.9506169999999999"/>
      <polygon points="40.92 153.83 86.06 127.44 160.86 170.56 115.33 196.96 40.92 153.83" style="fill: #9facda;opacity: 0.938272"/>
      <polygon points="40.92 153.2 86.06 126.8 160.86 169.93 115.33 196.32 40.92 153.2" style="fill: #a1aedb;opacity: 0.9259259999999999"/>
      <polygon points="40.92 152.57 86.06 126.17 160.86 169.3 115.33 195.69 40.92 152.57" style="fill: #a2afdb;opacity: 0.9135800000000001"/>
      <polygon points="40.92 151.93 86.06 125.53 160.86 168.66 115.33 195.05 40.92 151.93" style="fill: #a3b0dc;opacity: 0.901235"/>
      <polygon points="40.92 151.3 86.06 124.9 160.86 168.03 115.33 194.42 40.92 151.3" style="fill: #a4b1dc;opacity: 0.8888889999999999"/>
      <polygon points="40.92 150.66 86.06 124.27 160.86 167.4 115.33 193.79 40.92 150.66" style="fill: #a6b2dd;opacity: 0.876543"/>
      <polygon points="40.92 150.03 86.06 123.63 160.86 166.76 115.33 193.15 40.92 150.03" style="fill: #a7b3dd;opacity: 0.8641979999999999"/>
      <polygon points="40.92 149.4 86.06 123 160.86 166.13 115.33 192.52 40.92 149.4" style="fill: #a8b4de;opacity: 0.8518519999999999"/>
      <polygon points="40.92 148.76 86.06 122.37 160.86 165.49 115.33 191.88 40.92 148.76" style="fill: #a9b5de;opacity: 0.839506"/>
      <polygon points="40.92 148.13 86.06 121.73 160.86 164.86 115.33 191.25 40.92 148.13" style="fill: #abb6df;opacity: 0.8271600000000001"/>
      <polygon points="40.92 147.5 86.06 121.1 160.86 164.23 115.33 190.62 40.92 147.5" style="fill: #acb7df;opacity: 0.814815"/>
      <polygon points="40.92 146.86 86.06 120.47 160.86 163.59 115.33 189.98 40.92 146.86" style="fill: #adb8e0;opacity: 0.802469"/>
      <polygon points="40.92 146.23 86.06 119.83 160.86 162.96 115.33 189.35 40.92 146.23" style="fill: #aeb9e0;opacity: 0.7901229999999999"/>
      <polygon points="40.92 145.59 86.06 119.2 160.86 162.33 115.33 188.72 40.92 145.59" style="fill: #b0bbe1;opacity: 0.777778"/>
      <polygon points="40.92 144.96 86.06 118.56 160.86 161.69 115.33 188.08 40.92 144.96" style="fill: #b1bce1;opacity: 0.765432"/>
      <polygon points="40.92 144.33 86.06 117.93 160.86 161.06 115.33 187.45 40.92 144.33" style="fill: #b2bde2;opacity: 0.7530859999999999"/>
      <polygon points="40.92 143.69 86.06 117.3 160.86 160.42 115.33 186.81 40.92 143.69" style="fill: #b3bee2;opacity: 0.740741"/>
      <polygon points="40.92 143.06 86.06 116.66 160.86 159.79 115.33 186.18 40.92 143.06" style="fill: #b5bfe3;opacity: 0.728395"/>
      <polygon points="40.92 142.43 86.06 116.03 160.86 159.16 115.33 185.55 40.92 142.43" style="fill: #b6c0e3;opacity: 0.7160489999999999"/>
      <polygon points="40.92 141.79 86.06 115.4 160.86 158.52 115.33 184.91 40.92 141.79" style="fill: #b7c1e4;opacity: 0.703704"/>
      <polygon points="40.92 141.16 86.06 114.76 160.86 157.89 115.33 184.28 40.92 141.16" style="fill: #b8c2e4;opacity: 0.6913579999999999"/>
      <polygon points="40.92 140.53 86.06 114.13 160.86 157.26 115.33 183.65 40.92 140.53" style="fill: #bac3e5;opacity: 0.679012"/>
      <polygon points="40.92 139.89 86.06 113.5 160.86 156.62 115.33 183.01 40.92 139.89" style="fill: #bbc4e5;opacity: 0.666667"/>
      <polygon points="40.92 139.26 86.06 112.86 160.86 155.99 115.33 182.38 40.92 139.26" style="fill: #bcc5e5;opacity: 0.6543209999999999"/>
      <polygon points="40.92 138.62 86.06 112.23 160.86 155.35 115.33 181.75 40.92 138.62" style="fill: #bec7e6;opacity: 0.641975"/>
      <polygon points="40.92 137.99 86.06 111.59 160.86 154.72 115.33 181.11 40.92 137.99" style="fill: #bfc8e6;opacity: 0.62963"/>
      <polygon points="40.92 137.36 86.06 110.96 160.86 154.09 115.33 180.48 40.92 137.36" style="fill: #c0c9e7;opacity: 0.6172839999999999"/>
      <polygon points="40.92 136.72 86.06 110.33 160.86 153.45 115.33 179.84 40.92 136.72" style="fill: #c1cae7;opacity: 0.604938"/>
      <polygon points="40.92 136.09 86.06 109.69 160.86 152.82 115.33 179.21 40.92 136.09" style="fill: #c3cbe8;opacity: 0.5925929999999999"/>
      <polygon points="40.92 135.46 86.06 109.06 160.86 152.19 115.33 178.58 40.92 135.46" style="fill: #c4cce8;opacity: 0.580247"/>
      <polygon points="40.92 134.82 86.06 108.42 160.86 151.55 115.33 177.94 40.92 134.82" style="fill: #c5cde9;opacity: 0.567901"/>
      <polygon points="40.92 134.19 86.06 107.79 160.86 150.92 115.33 177.31 40.92 134.19" style="fill: #c6cee9;opacity: 0.5555559999999999"/>
      <polygon points="40.92 133.55 86.06 107.16 160.86 150.28 115.33 176.68 40.92 133.55" style="fill: #c8cfea;opacity: 0.5432100000000001"/>
      <polygon points="40.92 132.92 86.06 106.52 160.86 149.65 115.33 176.04 40.92 132.92" style="fill: #c9d0ea;opacity: 0.530864"/>
      <polygon points="40.92 132.29 86.06 105.89 160.86 149.02 115.33 175.41 40.92 132.29" style="fill: #cad1eb;opacity: 0.518519"/>
      <polygon points="40.92 131.65 86.06 105.26 160.86 148.38 115.33 174.78 40.92 131.65" style="fill: #cbd2eb;opacity: 0.506173"/>
      <polygon points="40.92 131.02 86.06 104.62 160.86 147.75 115.33 174.14 40.92 131.02" style="fill: #cdd4ec;opacity: 0.49382699999999996"/>
      <polygon points="40.92 130.39 86.06 103.99 160.86 147.12 115.33 173.51 40.92 130.39" style="fill: #ced5ec;opacity: 0.481481"/>
      <polygon points="40.92 129.75 86.06 103.36 160.86 146.48 115.33 172.87 40.92 129.75" style="fill: #cfd6ed;opacity: 0.469136"/>
      <polygon points="40.92 129.12 86.06 102.72 160.86 145.85 115.33 172.24 40.92 129.12" style="fill: #d0d7ed;opacity: 0.45679000000000003"/>
      <polygon points="40.92 128.49 86.06 102.09 160.86 145.22 115.33 171.61 40.92 128.49" style="fill: #d2d8ee;opacity: 0.444444"/>
      <polygon points="40.92 127.85 86.06 101.45 160.86 144.58 115.33 170.97 40.92 127.85" style="fill: #d3d9ee;opacity: 0.43209899999999996"/>
      <polygon points="40.92 127.22 86.06 100.82 160.86 143.95 115.33 170.34 40.92 127.22" style="fill: #d4daef;opacity: 0.419753"/>
      <polygon points="40.92 126.58 86.06 100.19 160.86 143.31 115.33 169.71 40.92 126.58" style="fill: #d5dbef;opacity: 0.40740699999999996"/>
      <polygon points="40.92 125.95 86.06 99.55 160.86 142.68 115.33 169.07 40.92 125.95" style="fill: #d7dcf0;opacity: 0.39506199999999997"/>
      <polygon points="40.92 125.32 86.06 98.92 160.86 142.05 115.33 168.44 40.92 125.32" style="fill: #d8ddf0;opacity: 0.382716"/>
      <polygon points="40.92 124.68 86.06 98.29 160.86 141.41 115.33 167.8 40.92 124.68" style="fill: #d9def1;opacity: 0.37037000000000003"/>
      <polygon points="40.92 124.05 86.06 97.65 160.86 140.78 115.33 167.17 40.92 124.05" style="fill: #dadff1;opacity: 0.358025"/>
      <polygon points="40.92 123.42 86.06 97.02 160.86 140.15 115.33 166.54 40.92 123.42" style="fill: #dce1f2;opacity: 0.34567899999999996"/>
      <polygon points="40.92 122.78 86.06 96.38 160.86 139.51 115.33 165.9 40.92 122.78" style="fill: #dde2f2;opacity: 0.333333"/>
      <polygon points="40.92 122.15 86.06 95.75 160.86 138.88 115.33 165.27 40.92 122.15" style="fill: #dee3f2;opacity: 0.320988"/>
      <polygon points="40.92 121.51 86.06 95.12 160.86 138.25 115.33 164.64 40.92 121.51" style="fill: #e0e4f3;opacity: 0.30864199999999997"/>
      <polygon points="40.92 120.88 86.06 94.48 160.86 137.61 115.33 164 40.92 120.88" style="fill: #e1e5f3;opacity: 0.296296"/>
      <polygon points="40.92 120.25 86.06 93.85 160.86 136.98 115.33 163.37 40.92 120.25" style="fill: #e2e6f4;opacity: 0.283951"/>
      <polygon points="40.92 119.61 86.06 93.22 160.86 136.34 115.33 162.74 40.92 119.61" style="fill: #e3e7f4;opacity: 0.271605"/>
      <polygon points="40.92 118.98 86.06 92.58 160.86 135.71 115.33 162.1 40.92 118.98" style="fill: #e5e8f5;opacity: 0.25925899999999996"/>
      <polygon points="40.92 118.34 86.06 91.95 160.86 135.08 115.33 161.47 40.92 118.34" style="fill: #e6e9f5;opacity: 0.246914"/>
      <polygon points="40.92 117.71 86.06 91.31 160.86 134.44 115.33 160.83 40.92 117.71" style="fill: #e7eaf6;opacity: 0.234568"/>
      <polygon points="40.92 117.08 86.06 90.68 160.86 133.81 115.33 160.2 40.92 117.08" style="fill: #e8ebf6;opacity: 0.222222"/>
      <polygon points="40.92 116.44 86.06 90.05 160.86 133.18 115.33 159.57 40.92 116.44" style="fill: #eaedf7;opacity: 0.20987699999999998"/>
      <polygon points="40.92 115.81 86.06 89.41 160.86 132.54 115.33 158.93 40.92 115.81" style="fill: #ebeef7;opacity: 0.19753099999999998"/>
      <polygon points="40.92 115.18 86.06 88.78 160.86 131.91 115.33 158.3 40.92 115.18" style="fill: #eceff8;opacity: 0.185185"/>
      <polygon points="40.92 114.54 86.06 88.15 160.86 131.27 115.33 157.66 40.92 114.54" style="fill: #edf0f8;opacity: 0.17284000000000002"/>
      <polygon points="40.92 113.91 86.06 87.51 160.86 130.64 115.33 157.03 40.92 113.91" style="fill: #eff1f9;opacity: 0.160494"/>
      <polygon points="40.92 113.28 86.06 86.88 160.86 130.01 115.33 156.4 40.92 113.28" style="fill: #f0f2f9;opacity: 0.148148"/>
      <polygon points="40.92 112.64 86.06 86.25 160.86 129.37 115.33 155.76 40.92 112.64" style="fill: #f1f3fa;opacity: 0.135802"/>
      <polygon points="40.92 112.01 86.06 85.61 160.86 128.74 115.33 155.13 40.92 112.01" style="fill: #f2f4fa;opacity: 0.123457"/>
      <polygon points="40.92 111.38 86.06 84.98 160.86 128.1 115.33 154.5 40.92 111.38" style="fill: #f4f5fb;opacity: 0.111111"/>
      <polygon points="40.92 110.74 86.06 84.34 160.86 127.47 115.33 153.86 40.92 110.74" style="fill: #f5f6fb;opacity: 0.09876499999999999"/>
      <polygon points="40.92 110.11 86.06 83.71 160.86 126.84 115.33 153.23 40.92 110.11" style="fill: #f6f7fc;opacity: 0.08642000000000001"/>
      <polygon points="40.92 109.47 86.06 83.08 160.86 126.2 115.33 152.59 40.92 109.47" style="fill: #f7f8fc;opacity: 0.074074"/>
      <polygon points="40.92 108.84 86.06 82.44 160.86 125.57 115.33 151.96 40.92 108.84" style="fill: #f9fafd;opacity: 0.061728"/>
      <polygon points="40.92 108.21 86.06 81.81 160.86 124.94 115.33 151.33 40.92 108.21" style="fill: #fafbfd;opacity: 0.049382999999999996"/>
      <polygon points="40.92 107.57 86.06 81.17 160.86 124.3 115.33 150.69 40.92 107.57" style="fill: #fbfcfe;opacity: 0.037037"/>
      <polygon points="40.92 106.94 86.06 80.54 160.86 123.67 115.33 150.06 40.92 106.94" style="fill: #fcfdfe;opacity: 0.024690999999999998"/>
      <polygon points="40.92 106.31 86.06 79.91 160.86 123.04 115.33 149.43 40.92 106.31" style="fill: #fefeff;opacity: 0.012346"/>
      <polygon points="40.92 105.67 86.06 79.27 160.86 122.4 115.33 148.79 40.92 105.67" style="fill: #fff;opacity: 0"/>
    </g>
    <g>
      <g id="0de69ead-e255-4598-ba90-a60fd7151507">
        <path d="M96.18,164.53a25.93,25.93,0,0,1-12.68-3c-3.44-2-5.33-4.65-5.33-7.52s1.89-5.54,5.33-7.52a24.15,24.15,0,0,1,9.63-2.87.37.37,0,0,1,.07.74,23.4,23.4,0,0,0-9.34,2.78c-3.2,1.85-5,4.29-5,6.88s1.76,5,5,6.88c6.77,3.91,17.83,3.91,24.64,0,3.22-1.85,5-4.29,5-6.88s-1.77-5-5-6.88a20.72,20.72,0,0,0-5.15-2,.37.37,0,1,1,.18-.72,21.51,21.51,0,0,1,5.33,2.12c3.46,2,5.36,4.65,5.36,7.52s-1.9,5.54-5.36,7.52A26.11,26.11,0,0,1,96.18,164.53Z" style="fill: url(#c3c95825-f753-4179-af70-027278c67fab)"/>
      </g>
      <g id="07795b92-9c2d-4971-a713-8cd156912d0c">
        <path d="M96.17,157.69c-6.32,0-12.64-1.39-17.44-4.16s-7.29-6.36-7.29-10.27S74,135.71,78.73,133a28.82,28.82,0,0,1,6.72-2.75.37.37,0,1,1,.2.71,28.12,28.12,0,0,0-6.54,2.68c-4.46,2.58-6.92,6-6.92,9.63s2.46,7,6.92,9.63c9.4,5.42,24.73,5.42,34.18,0,4.49-2.58,7-6,7-9.63s-2.47-7-7-9.62a.37.37,0,1,1,.37-.64c4.73,2.71,7.33,6.36,7.33,10.27s-2.6,7.55-7.33,10.27S102.49,157.69,96.17,157.69Z" style="fill: url(#3ded9ced-a3f9-4fb9-8d79-b2f848c45933)"/>
      </g>
      <g id="0f7f7a22-ec02-4fd3-9a77-7b96c3b46134">
        <path d="M96.16,148.79c-7.79,0-15.57-1.71-21.49-5.12s-9-7.81-9-12.6,3.18-9.26,9-12.6c11.83-6.83,31.13-6.83,43,0,5.81,3.34,9,7.81,9,12.6s-3.2,9.27-9,12.6h0C111.75,147.08,103.95,148.79,96.16,148.79Zm0-34.71c-7.66,0-15.31,1.68-21.12,5-5.54,3.2-8.59,7.44-8.59,12s3,8.76,8.59,12c11.62,6.71,30.6,6.71,42.29,0h0c5.57-3.2,8.64-7.44,8.64-12s-3.07-8.76-8.64-12C111.48,115.75,103.82,114.07,96.16,114.07Z" style="fill: url(#a63b8f5d-3042-499c-9505-496bed4f3307)"/>
      </g>
    </g>
    <g id="de873923-feb4-48b8-9d6f-de84dcf59db4">
      <polygon id="922361bc-f9d4-4d28-8139-6568aecf4fd2" points="95.13 114.11 102.25 118.21 102.25 126.89 109.76 131.23 109.76 140.41 107.48 141.68 102.25 135.57 102.25 144.75 99.97 146.02 94.73 139.91 94.73 131.23 87.22 126.89 84.94 119.99 87.61 118.44 94.73 122.55 92.45 115.65 95.13 114.11" style="fill: #90d0f2"/>
      <polygon id="5639c214-874e-42a0-8095-806758a7bbb7" points="92.45 115.65 99.97 119.99 99.97 128.67 107.48 133 107.48 141.68 99.97 137.34 99.97 146.02 92.45 141.68 92.45 133 84.94 128.67 84.94 119.99 92.45 124.33 92.45 115.65" style="fill: url(#14408f1a-91d2-447e-919d-a84a91f17542)"/>
    </g>
  </g>
  <g>
    <path id="c78a2d3c-6b71-4f67-991e-fdf7c27b7e60" d="M3,207l3,1.68,1.5-.72.11,1.67,8.34,4.58a2.8,2.8,0,0,0,2.78,0l1.1-.62a2.88,2.88,0,0,0,0-5l-5.65-3.45-4.64-5.74-6.19,1.44-1,3.39Z" style="fill: #363650"/>
    <path id="3966782b-7ca9-4729-8bef-e73b4115a08b" d="M20.28,212.66l-1.1.62a2.8,2.8,0,0,1-2.78,0l-8.34-4.58L8,207l-1.5.72-3-1.68-.67-2.77.77-2.51-.19,0-1,3.39L3,207l3,1.68,1.5-.72.11,1.67,8.34,4.58a2.8,2.8,0,0,0,2.78,0l1.1-.62a2.84,2.84,0,0,0,1.34-1.68A2.88,2.88,0,0,1,20.28,212.66Z" style="fill: #48486a"/>
    <path id="fb4e8556-d309-4031-b661-0083aabdb3c1" d="M15.53,201.37l3,1.68,1.5-.72.11,1.67,8.34,4.58a2.8,2.8,0,0,0,2.78,0l1.1-.62a2.88,2.88,0,0,0,0-5l-5.65-3.45-4.64-5.74-6.19,1.44-1,3.39Z" style="fill: #363650"/>
    <path id="2735ea6f-6163-4a90-9173-da6c4250f8ed" d="M32.82,207.06l-1.1.62a2.8,2.8,0,0,1-2.78,0l-8.34-4.58-.11-1.67-1.5.72-3-1.68-.67-2.77.77-2.51-.19,0-1,3.39.67,2.77,3,1.68,1.5-.72.11,1.67,8.34,4.58a2.8,2.8,0,0,0,2.78,0l1.1-.62a2.84,2.84,0,0,0,1.34-1.68A2.88,2.88,0,0,1,32.82,207.06Z" style="fill: #48486a"/>
    <polygon id="c5fa55ca-5dd6-46d7-9856-6d0e553736d2" points="5.08 157.21 24.23 146.15 24.23 131.4 5.15 142.42 5.08 157.21" style="fill: #4782d9"/>
    <g id="7676681d-b9e2-4825-83e2-f1f332f63939">
      <path id="d5c8e15b-cd11-449c-af92-5621688641ca" d="M37.83,129.57a3.33,3.33,0,0,1-1.49-.35L23,122.56a12.32,12.32,0,0,1-6.86-11.08V95.16a3.34,3.34,0,1,1,6.68,0v16.31A5.68,5.68,0,0,0,26,116.58l13.34,6.66a3.34,3.34,0,0,1-1.49,6.33Z" style="fill: #f2b1b5"/>
    </g>
    <g id="ec3eddde-a28d-4cf7-a041-40649ec0ebae">
      <path id="fe4de071-ce4b-4d27-b120-d48198540192" d="M31.8,126.66a3.44,3.44,0,0,1-1.54-.36L23,122.65A12.43,12.43,0,0,1,16,111.47V95.16a3.45,3.45,0,1,1,6.89,0v16.31a5.57,5.57,0,0,0,3.1,5l7.31,3.65a3.45,3.45,0,0,1-1.54,6.53Z" style="fill: #e3e5e8"/>
    </g>
    <g id="8728ac2f-6ed9-46b0-a36a-336fea48407a">
      <path id="de9d6113-2956-4b0d-a024-efff009b1c8d" d="M7.32,203.23c-2.38,0-4.31,0-4.31-2.37l1.07-27.15L2.33,142c0-2.38,2.61-8.26,5-8.26s7,1,7,3.38l-2.72,63.75C11.62,203.24,9.7,203.23,7.32,203.23Z" style="fill: #48486a"/>
    </g>
    <g id="d31ee1a9-eb53-4a53-b406-3a4dadeb770a">
      <path id="ecb60c5f-a072-499e-b8fc-e3b0a7584a62" d="M20,197.2c-2.38,0-4.31-.42-4.31-2.8l.35-22.72-4.94-37.8c0-2.38,6.52-6.62,8.9-6.62a4.31,4.31,0,0,1,4.31,4.31v62.83C24.34,196.77,22.41,197.2,20,197.2Z" style="fill: #48486a"/>
    </g>
    <path id="a59f56f3-9232-40c8-a266-7db0689239cb" d="M8.88,94.08,17,89.38a5.45,5.45,0,0,1,8.17,4.72v39.68c-3.3,5.72-14,11.75-19.25,11.39L2.31,105.46A13.14,13.14,0,0,1,8.88,94.08Z" style="fill: #d1d2dc"/>
    <path id="73406606-410c-4577-974a-b60e72ca9ae3" d="M2.31,144.19V147c5.25.36,19.58-7.49,22.89-13.21V131C21.89,136.7,7.56,144.55,2.31,144.19Z" style="fill: #363650"/>
    <path id="eb538854-9741-4f61-b5e8-3b3e45a032a8" d="M17,89.6s1.81,1.62,1.55,5.32A20.67,20.67,0,0,0,18.46,97s0,52.57,1.66,71.64c.16,1.83,5.67-2,6.4-3.64V93.65a5,5,0,0,0-7.09-4.5,4.47,4.47,0,0,1-2.35.46Z" style="fill: #e3e5e8"/>
    <path id="2192f4e5-d7bd-4321-b28d-450c38f4fb3e" d="M11.13,94.64V85.82l6.19-3.6V94.64a3.1,3.1,0,0,1-1.49,2.65h0A3.1,3.1,0,0,1,11.13,94.64Z" style="fill: #f2b1b5"/>
    <polygon id="4244fd6c-dca8-40b0-9f5a-260ed0f2b304" points="15.38 97.52 14.23 101.89 8.74 94.42 11.11 92.71 15.38 97.52" style="fill: #ededed"/>
    <path id="8cd74eba-fddf-4fc4-8abf-510bac85f5ca" d="M11.13,92.65l0,.05a4.88,4.88,0,0,0-.06,4c1.34,3.16,4.32,12.31,3.61,29.89l-.91,43C12.26,172.95,4.17,178.8,1,177L2.24,136.4q0-1,0-2L1,106.88A14.51,14.51,0,0,1,8.22,94.34Z" style="fill: #e3e5e8"/>
    <g id="c42e763d-cbe3-4049-9ab0-8fb97e5488d5">
      <path id="7a45596e-fa97-4834-8500-b00f4159a3d5" d="M23.83,139a3.33,3.33,0,0,1-1.49-.35L9,132A12.32,12.32,0,0,1,2.14,121V104.64a3.34,3.34,0,1,1,6.68,0V121A5.68,5.68,0,0,0,12,126.06l13.34,6.66A3.34,3.34,0,0,1,23.83,139Z" style="fill: #f2b1b5"/>
    </g>
    <polygon id="9178f340-7a69-46ac-aa5c-2383087bd635" points="15.38 97.52 18.65 101.05 18.65 98.62 18.55 92.65 17.32 89.74 15.38 97.52" style="fill: #ededed"/>
    <polygon id="3cc40152-9062-4b76-a60c-491bc248b359" points="15.38 97.52 14.56 100.64 15.13 102.81 16.98 102.15 17.58 99.89 15.38 97.52" style="fill: url(#8bd6c51a-96f4-4a81-893a-58d150b10866)"/>
    <polygon id="3a0f09d2-7083-4a43-92cf-658c789d09b7" points="15.13 102.81 15.13 133.78 17.32 135.71 18.8 129.34 16.98 102.15 15.13 102.81" style="fill: url(#0d6ea865-cb18-4aa4-be46-67ce8f47e161)"/>
    <path id="384e3cbf-6441-4826-adfd-0bb5fc9ae281" d="M14.61,128.76,12,127.47c-1.91-1-4.58-4.19-4.58-6.33v-14c0-1.9-.07-4.42-2-4.42a3,3,0,0,0-3.16,3.19L2,122.46a12.43,12.43,0,0,0,6.92,11.18l5.5,2.74Z" style="fill: #231f20;opacity: 0.30000000000000004"/>
    <g id="d63cebd4-8747-42f8-bfe3-877864fb0242">
      <path id="7953e0e0-0c89-47a9-86f2-69d0fc8566eb" d="M18.12,136.31a3.44,3.44,0,0,1-1.54-.36l-7.64-3.81A12.43,12.43,0,0,1,2,121V104.64a3.45,3.45,0,1,1,6.89,0V121a5.57,5.57,0,0,0,3.1,5l7.64,3.81a3.45,3.45,0,0,1-1.54,6.53Z" style="fill: #e3e5e8"/>
    </g>
    <path id="47e1e9d2-ae72-44b8-8ae2-9cf70a2e8bbc" d="M11.13,91.54H17c6.45,0,8.75-2.94,8.75-11.68h0a4.58,4.58,0,0,0-4.58-4.58h-10Z" style="fill: #f2b1b5"/>
    <g id="d2633419-ff44-4a18-9d97-5babf34522a8">
      <path d="M25.9,75.81c-1.23-5-7.54-6.18-11.94-4.78a6.67,6.67,0,0,0-3.63,2.65,3.61,3.61,0,0,1-1,1.26c-.27.17-.6.24-.87.4a2.32,2.32,0,0,0-.83,1.14c-1.11,2.71-.33,6,.32,8.8a10,10,0,0,0,2.31,5,1.09,1.09,0,0,0,.56.35c.61.1.95-.68,1-1.3.05-.8-.62-5.74.6-5.86.42,0,.6.51.63.93l.19,2.57c.25.53,1.14.32,1.4-.2a2.83,2.83,0,0,0,0-1.73c-.16-.87-.3-4,.44-4.66.29-.25.73-.24,1.06-.44s.64-.81,1.08-1.06a1.73,1.73,0,0,1,1.53.11c.86.39,1.57,1.26,2.54,1.37,1.27.15,2-1,2.72-1.8.57-.63.78-.9,1.32.16h.61a7.48,7.48,0,0,0,.12-2A7.23,7.23,0,0,0,25.9,75.81Z" style="fill: #48486a"/>
    </g>
    <rect x="24.87" y="135.53" width="6.39" height="1.55" rx="0.17" ry="0.17" transform="translate(-54.78 24.49) rotate(-24.9)" style="fill: #f2b1b5"/>
    <g id="103b61c9-c3fe-4104-a3ec-7d5dfb407e4e">
      <path id="d7c1d8c1-ab8a-4309-aaf9-89b99d94e334" d="M22,137.24l8.57-9.36a4.57,4.57,0,0,1,1.58-1.11l19.9-8.44c.79-.34,1.43.38.87,1l-5,7.44a6.94,6.94,0,0,1-2.4,1.68l-22.8,9.68C22.09,138.41,21.53,137.78,22,137.24Z" style="fill: #adb9e0"/>
      <path id="0f399f81-5de3-40e4-b5a4-415101f51a76" d="M24.32,135.78l7.39-8.07a3.93,3.93,0,0,1,1.36-1l17.53-7.49c.68-.29,1.23.33.75.85l-4.64,6.62a6,6,0,0,1-2.07,1.45L25,136.53C24.38,136.79,23.89,136.24,24.32,135.78Z" style="fill: #fff;opacity: 0.5"/>
      <path id="df8187f5-d04b-43ba-bd89-bb56c1c16d88" d="M52.85,119.08l-5,7.44a7,7,0,0,1-2.4,1.68l-22.8,9.68a.7.7,0,0,1-.85-.15c0,.35.46.59,1,.39l22.8-9.68a6.94,6.94,0,0,0,2.4-1.68l5-7.44a.61.61,0,0,0,.1-.8A.68.68,0,0,1,52.85,119.08Z" style="fill: #5c629e"/>
    </g>
    <rect x="21.03" y="134.17" width="6.76" height="1.55" rx="0.17" ry="0.17" transform="translate(-51.36 20.65) rotate(-23.29)" style="fill: #f2b1b5"/>
  </g>
</svg>
