<svg xmlns="http://www.w3.org/2000/svg" xmlns:xlink="http://www.w3.org/1999/xlink" id="Layer_1" x="0px" y="0px" viewBox="0 0 32 32" style="enable-background:new 0 0 32 32;" xml:space="preserve"> <style type="text/css"> .st0{fill:#4284FB;} </style> <title>mxp_com_icons_all_R2</title> <g> <g> <path class="st0" d="M16,7.5c4.7,0,8.5,3.8,8.5,8.5c0,4.7-3.8,8.5-8.5,8.5c-4.7,0-8.5-3.8-8.5-8.5c0-2.3,0.9-4.4,2.5-6 C11.6,8.4,13.7,7.5,16,7.5 M16,6c-2.7,0-5.2,1.1-7.1,2.9l0,0C5,12.8,5,19.2,8.9,23.1l0,0c3.9,3.9,10.2,3.9,14.1,0l0,0 c3.9-3.9,3.9-10.2,0-14.1l0,0C21.2,7.1,18.7,6,16,6z"></path> </g> <g> <path class="st0" d="M16,20.8c-1.3,0-2.5-0.5-3.4-1.4c-0.9-0.9-1.4-2.1-1.4-3.4s0.5-2.5,1.4-3.4l0,0c1.9-1.9,4.9-1.9,6.7,0 c1.9,1.9,1.9,4.9,0,6.7C18.5,20.3,17.3,20.8,16,20.8z M13.7,13.7c-0.6,0.6-1,1.4-1,2.3s0.3,1.7,1,2.3c1.2,1.2,3.4,1.2,4.6,0 c1.3-1.3,1.3-3.3,0-4.6C17,12.4,15,12.4,13.7,13.7L13.7,13.7z"></path> </g> <g> <path class="st0" d="M13.8,12.6c-0.2,0-0.4-0.1-0.5-0.2L10,9.1c-0.3-0.3-0.3-0.8,0-1.1s0.8-0.3,1.1,0l3.2,3.2 c0.3,0.3,0.3,0.8,0,1.1C14.1,12.5,13.9,12.6,13.8,12.6z"></path> </g> <g> <path class="st0" d="M23.4,22.2c-0.2,0-0.4-0.1-0.5-0.2l-3.2-3.2c-0.3-0.3-0.3-0.8,0-1.1s0.8-0.3,1.1,0l3.2,3.2 c0.3,0.3,0.3,0.8,0,1.1C23.8,22.1,23.6,22.2,23.4,22.2z"></path> </g> <g> <path class="st0" d="M11.8,14.5c-0.2,0-0.4-0.1-0.5-0.2l-3.2-3.2c-0.3-0.3-0.3-0.8,0-1.1s0.8-0.3,1.1,0l3.2,3.2 c0.3,0.3,0.3,0.8,0,1.1C12.2,14.4,12,14.5,11.8,14.5z"></path> </g> <g> <path class="st0" d="M21.5,24.1c-0.2,0-0.4-0.1-0.5-0.2l-3.2-3.2c-0.3-0.3-0.3-0.8,0-1.1s0.8-0.3,1.1,0l3.2,3.2 c0.3,0.3,0.3,0.8,0,1.1C21.8,24.1,21.7,24.1,21.5,24.1z"></path> </g> <g> <path class="st0" d="M8.6,22.2c-0.2,0-0.4-0.1-0.5-0.2c-0.3-0.3-0.3-0.8,0-1.1l3.2-3.2c0.3-0.3,0.8-0.3,1.1,0s0.3,0.8,0,1.1 L9.1,22C9,22.1,8.8,22.2,8.6,22.2z"></path> </g> <g> <path class="st0" d="M18.2,12.6c-0.2,0-0.4-0.1-0.5-0.2c-0.3-0.3-0.3-0.8,0-1.1l3.2-3.2c0.3-0.3,0.8-0.3,1.1,0s0.3,0.8,0,1.1 l-3.2,3.2C18.6,12.5,18.4,12.6,18.2,12.6z"></path> </g> <g> <path class="st0" d="M10.5,24.1c-0.2,0-0.4-0.1-0.5-0.2c-0.3-0.3-0.3-0.8,0-1.1l3.2-3.2c0.3-0.3,0.8-0.3,1.1,0s0.3,0.8,0,1.1 l-3.2,3.2C10.9,24.1,10.7,24.1,10.5,24.1z"></path> </g> <g> <path class="st0" d="M20.2,14.5c-0.2,0-0.4-0.1-0.5-0.2c-0.3-0.3-0.3-0.8,0-1.1l3.2-3.2c0.3-0.3,0.8-0.3,1.1,0s0.3,0.8,0,1.1 l-3.2,3.2C20.6,14.4,20.4,14.5,20.2,14.5z"></path> </g> </g> </svg>