<svg xmlns="http://www.w3.org/2000/svg" xmlns:xlink="http://www.w3.org/1999/xlink" id="Layer_1" x="0px" y="0px" viewBox="0 0 32 32" style="enable-background:new 0 0 32 32;" xml:space="preserve"> <style type="text/css"> .st0{fill:#4284FB;} </style> <title>mxp_com_icons_all_R2</title> <g> <g> <path class="st0" d="M16,26.5c-4.8,0-8.8-3.9-8.8-8.8C7.2,12.9,11.2,9,16,9c4.8,0,8.8,3.9,8.8,8.8C24.8,22.6,20.8,26.5,16,26.5z M16,10.5c-4,0-7.2,3.3-7.2,7.2c0,4,3.3,7.2,7.2,7.2c4,0,7.2-3.3,7.2-7.2C23.2,13.8,20,10.5,16,10.5z"></path> </g> <g> <path class="st0" d="M16,20.2c-0.6,0-1.3-0.2-1.7-0.7c-0.5-0.5-0.7-1.1-0.7-1.7c0-0.7,0.3-1.3,0.7-1.7c1-1,2.5-1,3.5,0l0,0 c0.5,0.5,0.7,1.1,0.7,1.7s-0.3,1.3-0.7,1.7C17.3,20,16.6,20.2,16,20.2z M16,16.8c-0.3,0-0.5,0.1-0.7,0.3c-0.2,0.2-0.3,0.4-0.3,0.7 c0,0.3,0.1,0.5,0.3,0.7c0.4,0.4,1,0.4,1.4,0c0.2-0.2,0.3-0.4,0.3-0.7c0-0.3-0.1-0.5-0.3-0.7l0,0C16.5,16.9,16.3,16.8,16,16.8z"></path> </g> <g> <path class="st0" d="M17.2,17.3c-0.2,0-0.4-0.1-0.5-0.2c-0.3-0.3-0.3-0.8,0-1.1l2.5-2.5c0.3-0.3,0.8-0.3,1.1,0 c0.3,0.3,0.3,0.8,0,1.1L17.8,17C17.6,17.2,17.4,17.3,17.2,17.3z"></path> </g> <g> <path class="st0" d="M12.3,22.2c-0.2,0-0.4-0.1-0.5-0.2c-0.3-0.3-0.3-0.8,0-1.1l2.5-2.5c0.3-0.3,0.8-0.3,1.1,0 c0.3,0.3,0.3,0.8,0,1.1L12.8,22C12.7,22.1,12.5,22.2,12.3,22.2z"></path> </g> <g> <path class="st0" d="M16,10c-1.2,0-2.2-1-2.2-2.2s1-2.2,2.2-2.2c1.2,0,2.2,1,2.2,2.2S17.2,10,16,10z M16,7c-0.4,0-0.8,0.3-0.8,0.8 s0.3,0.8,0.8,0.8s0.8-0.3,0.8-0.8S16.4,7,16,7z"></path> </g> <g> <path class="st0" d="M16,12c-0.4,0-0.8-0.3-0.8-0.8v-1c0-0.4,0.3-0.8,0.8-0.8s0.8,0.3,0.8,0.8v1C16.8,11.7,16.4,12,16,12z"></path> </g> <g> <path class="st0" d="M16,26c-0.4,0-0.8-0.3-0.8-0.8v-1c0-0.4,0.3-0.8,0.8-0.8s0.8,0.3,0.8,0.8v1C16.8,25.7,16.4,26,16,26z"></path> </g> <g> <path class="st0" d="M9.5,18.5h-1c-0.4,0-0.8-0.3-0.8-0.8S8.1,17,8.5,17h1c0.4,0,0.8,0.3,0.8,0.8S9.9,18.5,9.5,18.5z"></path> </g> <g> <path class="st0" d="M23.5,18.5h-1c-0.4,0-0.8-0.3-0.8-0.8s0.3-0.8,0.8-0.8h1c0.4,0,0.8,0.3,0.8,0.8S23.9,18.5,23.5,18.5z"></path> </g> </g> </svg>