<svg xmlns="http://www.w3.org/2000/svg" xmlns:xlink="http://www.w3.org/1999/xlink" id="Layer_1" x="0px" y="0px" viewBox="0 0 32 32" style="enable-background:new 0 0 32 32;" xml:space="preserve"> <style type="text/css"> .st0{fill:#4284FB;} </style> <title>mxp_com_icons_all_R2</title> <g> <g> <path class="st0" d="M22,14.1c-2.1,0-3.8-1.7-3.8-3.8s1.7-3.8,3.8-3.8s3.8,1.7,3.8,3.8S24.1,14.1,22,14.1z M22,8.1 c-1.2,0-2.2,1-2.2,2.2s1,2.2,2.2,2.2s2.2-1,2.2-2.2S23.2,8.1,22,8.1z"></path> </g> <g> <path class="st0" d="M10,26.1c-2.1,0-3.8-1.7-3.8-3.8s1.7-3.8,3.8-3.8s3.8,1.7,3.8,3.8S12.1,26.1,10,26.1z M10,20.1 c-1.2,0-2.2,1-2.2,2.2s1,2.2,2.2,2.2s2.2-1,2.2-2.2S11.2,20.1,10,20.1z"></path> </g> <g> <path class="st0" d="M10,20.1c-0.4,0-0.8-0.3-0.8-0.8c0-2.1,1.7-3.8,3.8-3.8c0.4,0,0.8,0.3,0.8,0.8s-0.3,0.7-0.8,0.7 c-1.2,0-2.2,1-2.2,2.3C10.8,19.8,10.4,20.1,10,20.1z"></path> </g> <g> <path class="st0" d="M22,23.1h-9c-0.4,0-0.8-0.3-0.8-0.8s0.3-0.8,0.8-0.8h9c0.4,0,0.8,0.3,0.8,0.8S22.4,23.1,22,23.1z"></path> </g> <g> <path class="st0" d="M19,17.1h-6c-0.4,0-0.8-0.3-0.8-0.7s0.3-0.8,0.8-0.8h6c1.2,0,2.2-1,2.2-2.2c0-0.4,0.3-0.8,0.8-0.8 s0.8,0.3,0.8,0.8C22.8,15.4,21.1,17.1,19,17.1z"></path> </g> <g> <path class="st0" d="M19,11.1h-9c-0.4,0-0.8-0.3-0.8-0.8S9.6,9.6,10,9.6h9c0.4,0,0.8,0.3,0.8,0.8S19.4,11.1,19,11.1z"></path> </g> </g> </svg>