<svg xmlns="http://www.w3.org/2000/svg" xmlns:xlink="http://www.w3.org/1999/xlink" id="Layer_1" x="0px" y="0px" viewBox="0 0 32 32" style="enable-background:new 0 0 32 32;" xml:space="preserve"> <style type="text/css"> .st0{fill:#4284FB;} </style> <title>mxp_com_icons_all_R2</title> <g> <g> <path class="st0" d="M24,24.8H8c-1.5,0-2.8-1.2-2.8-2.8V10c0-1.5,1.2-2.8,2.8-2.8h16c1.5,0,2.8,1.2,2.8,2.8v12 C26.8,23.5,25.5,24.8,24,24.8z M8,8.8c-0.7,0-1.2,0.6-1.2,1.2v12c0,0.7,0.6,1.2,1.2,1.2h16c0.7,0,1.2-0.6,1.2-1.2V10 c0-0.7-0.6-1.2-1.2-1.2H8z"></path> </g> <g> <path class="st0" d="M13.8,19.8c-0.1,0-0.2,0-0.4-0.1C13.2,19.5,13,19.3,13,19v-6c0-0.3,0.2-0.5,0.4-0.7c0.2-0.1,0.5-0.1,0.8,0 l4.5,3c0.2,0.1,0.3,0.4,0.3,0.6s-0.1,0.5-0.3,0.6l-4.5,3C14,19.7,13.9,19.8,13.8,19.8z M14.5,14.4v3.2l2.4-1.6L14.5,14.4z"></path> </g> </g> </svg>