<?xml version="1.0" encoding="utf-8"?>
<!-- Generator: Adobe Illustrator 21.0.0, SVG Export Plug-In . SVG Version: 6.00 Build 0)  -->
<svg version="1.1" id="Layer_1" xmlns="http://www.w3.org/2000/svg" xmlns:xlink="http://www.w3.org/1999/xlink" x="0px" y="0px"
	 viewBox="0 0 500 500" style="enable-background:new 0 0 500 500;" xml:space="preserve">
<style type="text/css">
	.st0{fill:#0073EC;}
</style>
<title>vps-hosting</title>
<path class="st0" d="M371.6,307.6c0-6.4-5.2-11.6-11.6-11.6s-11.6,5.2-11.6,11.6c0,6.4,5.2,11.6,11.6,11.6S371.6,314,371.6,307.6
	L371.6,307.6z"/>
<path class="st0" d="M371.6,185.8c0-6.4-5.2-11.6-11.6-11.6c-6.4,0-11.6,5.2-11.6,11.6c0,6.4,5.2,11.6,11.6,11.6l0,0
	C366.4,197.4,371.6,192.2,371.6,185.8z"/>
<ellipse transform="matrix(0.9732 -0.23 0.23 0.9732 -58.7171 110.9969)" class="st0" cx="446.7" cy="307.3" rx="11.6" ry="11.6"/>
<path class="st0" d="M483.1,251.6l-170.3,0.3c-3.4,0.1-6.1,2.7-6.2,6.1l0,0c-0.2,3.4,2.5,6.3,5.9,6.5c0.1,0,0.2,0,0.3,0l170.4-0.3
	c2.3,0,4.2,1.9,4.2,4.2v0v78.2c0,2.3-1.9,4.2-4.2,4.2h0H134.8c-2.3,0-4.2-1.9-4.2-4.2l0,0l-0.4-19.1c0-3.2-2.4-5.9-5.6-6.3h-0.1
	c-3.5-0.3-6.5,2.2-6.9,5.7c0,0.2,0,0.4,0,0.6l0.3,19.1c0.1,9.3,7.6,16.8,16.9,16.8h348.3c9.3,0,16.8-7.4,16.9-16.7v-78.2
	C500,259.2,492.4,251.6,483.1,251.6z"/>
<ellipse transform="matrix(0.9732 -0.23 0.23 0.9732 -59.85 101.2964)" class="st0" cx="404.5" cy="307.3" rx="11.6" ry="11.6"/>
<circle class="st0" cx="446.6" cy="185.8" r="11.6"/>
<circle class="st0" cx="404.4" cy="185.8" r="11.6"/>
<path class="st0" d="M483.1,373.4H134.8c-9.3,0-16.9,7.6-16.9,16.9v78.1c0,9.3,7.6,16.9,16.9,16.9h348.3c9.3,0,16.9-7.6,16.9-16.9
	v-78.1C500,381,492.4,373.4,483.1,373.4z M487.4,468.4c0,0.8-0.3,1.7-0.7,2.4l-0.5,0.6c-0.8,0.8-1.9,1.2-3,1.2H134.8
	c-2.3,0-4.2-1.9-4.2-4.2l0,0v-78.1c-0.1-1.1,0.4-2.2,1.2-3c0.8-0.8,1.9-1.2,3-1.2h348.4c0.6,0,1.2,0.1,1.7,0.3l1.2,0.8h0.1l0.5,0.6
	c0.4,0.7,0.7,1.6,0.7,2.4L487.4,468.4z"/>
<path class="st0" d="M404.4,417.7c-6.4,0-11.6,5.2-11.6,11.6s5.2,11.6,11.6,11.6c6.4,0,11.6-5.2,11.6-11.6c0,0,0,0,0,0
	C416,422.9,410.8,417.7,404.4,417.7z"/>
<path class="st0" d="M360,417.8c-6.4,0-11.6,5.2-11.6,11.6S353.6,441,360,441c6.4,0,11.6-5.2,11.6-11.6c0.1-6.4-5-11.5-11.4-11.6
	C360.1,417.8,360.1,417.8,360,417.8z"/>
<path class="st0" d="M446.6,417.7c-6.4,0-11.6,5.2-11.6,11.6s5.2,11.6,11.6,11.6c6.4,0,11.6-5.2,11.6-11.6S453,417.7,446.6,417.7
	L446.6,417.7z"/>
<path class="st0" d="M483.1,129.8l-168.8,0.3c-3,0-5.4,2.4-5.5,5.4l0,0v1.8c0,3,2.4,5.4,5.4,5.4l169-0.3c2.3,0,4.2,1.9,4.2,4.2
	c0,0,0,0,0,0v78.2c0,2.3-1.9,4.2-4.2,4.2l0,0l-170.5,0.3c-2.9,0-5.3,2.4-5.4,5.3v1.8c-0.1,3,2.2,5.5,5.2,5.6c0.1,0,0.1,0,0.2,0
	l165-0.3c12.3-0.1,22.2-9.9,22.3-22.2v-72.8C500,137.4,492.4,129.8,483.1,129.8z"/>
<path class="st0" d="M154,309.3h107.1c17-0.1,33-12.6,33.5-29.1c0.8-31.1,0-124.9,0-124.9c0-18.5-15-33.5-33.5-33.5v-17.3l38.2-38.2
	h0.1c2.7,1.3,5.6,2,8.6,2c11.2,0,20.2-9,20.3-20.1s-9-20.2-20.1-20.3c-11.2,0-20.2,9-20.3,20.1c0,3.1,0.7,6.1,2,8.9h-0.1L249.7,97
	c-1.3,1.2-2,2.9-2,4.7v20.1h-13.4V96.1c0-3.7-3-6.7-6.7-6.7c-3.7,0-6.7,3-6.7,6.7v25.7h-13.4v-47c10.5-3.7,16-15.2,12.3-25.6
	c-3.7-10.5-15.2-16-25.6-12.3s-16,15.2-12.3,25.6c0,0,0,0.1,0,0.1c2,5.7,6.6,10.2,12.3,12.2v47h-13.4V96.1c0-3.7-3-6.7-6.7-6.7
	c-3.7,0-6.7,3-6.7,6.7v25.7H154V74.9c0-1.8-0.7-3.5-2-4.7l-26.8-26.8l0,0c1.3-2.7,2-5.6,2-8.6c0.1-11.1-8.9-20.1-20-20.2
	s-20.1,8.9-20.2,20s8.9,20.1,20,20.2c0,0,0.1,0,0.1,0c3,0.1,5.9-0.6,8.6-2h0.1l24.8,24.8v44.1c-18.5,0-33.5,15-33.5,33.5
	c0,0,0,0,0,0h-24l-18.1-18h-0.1c1.3-2.7,2-5.6,2.1-8.6c0-11.1-9-20.1-20.1-20.1c-11.1,0-20.1,9-20.1,20.1s9,20.1,20.1,20.1
	c3,0,5.9-0.7,8.6-2l0,0l20.1,20.1c1.2,1.3,2.9,2,4.7,2h26.8v13.4H67c-1.5,0-3,0.5-4.2,1.4l-29.6,23.6c-3.6-3.2-8.3-5.1-13.1-5.1
	C9,202.1,0,211.1,0,222.2c0,11.1,9,20.1,20.1,20.1s20.1-9,20.1-20.1c0-1.1-0.2-2.1-0.4-3.2l29.5-23.6h37.8v13.4H87
	c-3.7,0-6.7,3-6.7,6.7c0,3.7,3,6.7,6.7,6.7h20.1v13.4H60.3c-3.7,0-6.7,3-6.7,6.7c0,3.7,3,6.7,6.7,6.7c0,0,0,0,0,0h46.8v13.4H73.6
	c-2.2,0-4.3,1.1-5.5,3L42,304.5c-2.7-1.2-5.6-1.9-8.5-1.9c-11.2,0-20.2,9-20.3,20.1s9,20.2,20.1,20.3s20.2-9,20.3-20.1
	c0-3.1-0.7-6.1-2-8.9l0.9-1l24.7-37.2h29.9c0.1,18.5,15,33.4,33.5,33.5H154z M304.2,42.6c1.1-0.7,2.5-1.1,3.8-1.1
	c0.9,0,1.8,0.1,2.6,0.5c2.5,1,4.1,3.5,4.1,6.2c0,2.4-1.3,4.5-3.4,5.7c-1,0.6-2.1,0.9-3.3,0.9c-1.3,0-2.7-0.4-3.8-1.1
	c-3.1-2.2-3.8-6.4-1.6-9.5C303,43.6,303.6,43,304.2,42.6L304.2,42.6z M110.9,40.3c-1.1,0.8-2.4,1.2-3.8,1.2c-3.7,0-6.7-3-6.7-6.7
	s3-6.7,6.7-6.7c1.3,0,2.7,0.4,3.8,1.1c1.8,1.3,2.9,3.4,2.9,5.6C113.8,37,112.7,39,110.9,40.3z M50.6,134c-1.1,0.8-2.4,1.2-3.7,1.2
	c-3.7,0-6.7-3-6.7-6.7c0-1.8,0.7-3.5,1.9-4.7c0.1-0.1,0.2-0.1,0.2-0.2c0.4-0.4,0.9-0.7,1.4-1c1-0.5,2.1-0.8,3.2-0.8
	c1.3,0,2.6,0.4,3.7,1.1c1.9,1.3,3,3.4,3,5.6C53.6,130.7,52.5,132.8,50.6,134z M25.5,226.1c-1.2,1.8-3.3,2.8-5.4,2.8
	c-3.7,0-6.7-3-6.7-6.7c0-1.8,0.7-3.5,2-4.7c1.2-1.3,2.9-2,4.7-2c3.7,0,6.7,3,6.7,6.7C26.8,223.6,26.3,225,25.5,226.1z M38.2,327.4
	c-0.6,0.6-1.3,1.1-2.1,1.4c-0.8,0.4-1.7,0.6-2.6,0.6c-3.7,0-6.7-3-6.7-6.7c0-3.7,3-6.7,6.7-6.7c0.9,0,1.8,0.1,2.6,0.5
	c0.8,0.3,1.5,0.8,2.1,1.4c2.6,2.5,2.7,6.7,0.2,9.3C38.3,327.3,38.3,327.3,38.2,327.4z M200.9,49.3c3.6-0.1,6.5,2.8,6.6,6.4
	c0,0.1,0,0.2,0,0.3c0,2.2-1.1,4.3-2.9,5.5c-2.2,1.6-5.3,1.6-7.5,0l-1-0.8c-2.6-2.6-2.6-6.9,0.1-9.5C197.4,50,199.1,49.3,200.9,49.3
	L200.9,49.3z M134.1,294.8l-1.5-0.6c-7.4-3.1-12.1-10.4-12.1-18.4V155.3c0-11.1,9-20.1,20.1-20.1l0,0h120.5c3.3,0,6.6,0.8,9.6,2.4
	c6.5,3.6,10.5,10.3,10.5,17.7v120.5c0,11.1-9,20.1-20.1,20.1l0,0H140.6c-2,0-4.1-0.3-6-0.9L134.1,294.8z"/>
<path class="st0" d="M161.7,271.5H240c9.3,0,16.9-7.6,16.9-16.9v-78.2c-0.1-9.3-7.6-16.8-16.9-16.8h-78.3c-9.3,0-16.8,7.5-16.9,16.8
	v78.2C144.8,263.9,152.4,271.5,161.7,271.5z M157.5,176.4c0-1.1,0.4-2.1,1.2-2.9c0.8-0.8,1.9-1.3,3-1.3h78.4c0.6,0,1.2,0.2,1.7,0.4
	l1.2,0.8h0.1l0.5,0.6c0.5,0.7,0.7,1.5,0.7,2.3v78.2c0,0.9-0.2,1.7-0.7,2.4l-0.5,0.6c-0.8,0.8-1.9,1.2-3,1.2h-78.4
	c-2.3,0-4.2-1.9-4.2-4.2V176.4z"/>
</svg>
