<?xml version="1.0" encoding="utf-8"?>
<!-- Generator: Adobe Illustrator 21.0.0, SVG Export Plug-In . SVG Version: 6.00 Build 0)  -->
<svg version="1.1" id="Layer_1" xmlns="http://www.w3.org/2000/svg" xmlns:xlink="http://www.w3.org/1999/xlink" x="0px" y="0px"
	 viewBox="0 0 500 500" style="enable-background:new 0 0 500 500;" xml:space="preserve">
<style type="text/css">
	.st0{fill:#0073EC;}
</style>
<g>
	<path class="st0" d="M82.4,68.3c-4.1,0-7.4,3.3-7.4,7.4s3.3,7.4,7.4,7.4s7.4-3.3,7.4-7.4c0,0,0,0,0,0
		C89.8,71.7,86.5,68.4,82.4,68.3C82.4,68.3,82.4,68.3,82.4,68.3z"/>
	<path class="st0" d="M120.6,68.3c-4-0.1-7.3,3.2-7.4,7.2c0,0.1,0,0.1,0,0.2c0,4.1,3.3,7.4,7.4,7.4c4.1,0,7.4-3.3,7.4-7.4
		C128,71.6,124.7,68.4,120.6,68.3z"/>
	<path class="st0" d="M44.2,68.3c-4-0.1-7.3,3.2-7.4,7.2c0,0.1,0,0.1,0,0.2c0,4.1,3.3,7.4,7.4,7.4s7.4-3.3,7.4-7.4
		C51.6,71.7,48.3,68.3,44.2,68.3L44.2,68.3z"/>
	<path class="st0" d="M6.2,334.2c3.8,0.4,7.3-2.4,7.7-6.2c0-0.3,0-0.5,0-0.8V110.8h409.8l-0.1,81.3c0.1,3.8,3.1,6.9,6.9,7
		c3.8,0.2,7.1-2.8,7.2-6.6c0-0.1,0-0.2,0-0.3V47.9c0-3.9-3.1-7-7-7H7c-3.8-0.1-6.9,3-7,6.8c0,0.1,0,0.1,0,0.2V327
		C0,330.6,2.6,333.7,6.2,334.2L6.2,334.2z M165.2,54.9h258.4v41.9H165.2L165.2,54.9z M14,54.9h137.4v41.9H13.9L14,54.9z"/>
	<path class="st0" d="M309.5,422.8H14v-67.3c0.1-3.6-2.6-6.8-6.2-7.3c-3.8-0.4-7.3,2.4-7.7,6.3c0,0.2,0,0.5,0,0.7v74.4
		c0,3.9,3.1,7,7,7h302.5c1.9,0,3.7-0.8,5-2.1c2.7-2.8,2.5-7.2-0.3-9.9C313.1,423.5,311.3,422.8,309.5,422.8z"/>
	<path class="st0" d="M338.8,267.6c-6.3,0-11.4,5.1-11.4,11.4c0,6.3,5.1,11.4,11.4,11.4c3,0,5.9-1.2,8.1-3.4c4.3-4.5,4.3-11.5,0-16
		C344.7,268.8,341.8,267.6,338.8,267.6z"/>
	<path class="st0" d="M462.8,242.6c-40.8-40.8-104-48.9-153.8-19.8v-0.3l3.7-15.1c0.6-2.6,1.1-5.2,1.3-7.8c0.1-0.8,0.2-1.5,0.2-2.3
		c0.1-2.3,0.2-4.4,0.2-6.7v-1.7c-0.1-2.3-0.4-4.4-0.6-6.7c-0.2-1-0.4-2.1-0.5-3.1c-0.2-1.4-0.6-2.9-0.8-4.3
		c-0.5-1.9-1.1-3.8-1.7-5.6c-0.4-1.2-0.7-2.4-1.2-3.6s-1.2-2.9-1.8-4.2c-0.2-0.5-0.4-0.8-0.5-1.1s-0.2-0.4-0.2-0.5
		c-3.2-6.7-7.6-12.9-12.8-18.2c-2.1-2.1-5.4-2.4-7.9-0.7l-20,13.3c-21.1,14-26.9,42.5-12.9,63.6c0.5,0.7,0.9,1.3,1.4,2
		c0.2,0.3,0.4,0.6,0.6,0.8c0.9,1.2,1.9,2.4,3,3.5l0.2,163.1h0.2c0,7.8,6.8,14,15.2,14H294c7.5,0,13.7-4.9,15-11.5v1.8h38.4
		c2.5,0.5,4.8,1.7,6.6,3.5c4.9,4.8,4.9,12.7,0.1,17.5c0,0-0.1,0.1-0.1,0.1c-10.6,10.7-10.6,27.9,0,38.6c5,5.2,12,8,19.2,8
		c70.1,0,126.9-56.8,126.9-126.8C500.1,298.6,486.7,266.3,462.8,242.6L462.8,242.6z M300.1,175.4c0.6,2,1.1,4,1.3,6.1
		c0,0.4,0.1,0.7,0.1,1.2c0.2,1.9,0.4,3.7,0.5,5.6c0.1,0.6,0.1,1.1,0,1.7c0,1.8-0.1,3.7-0.2,5.5c-0.1,0.6-0.1,1.1-0.1,1.7
		c-0.2,2.4-0.6,4.7-1.2,7l-2.6,11h-30.1c-1.5-1.7-2.9-3.5-4.1-5.4c-0.2-0.2-0.4-0.5-0.5-0.7c-1-1.7-1.9-3.5-2.5-5.4
		c-0.1-0.1-0.1-0.1-0.1-0.2l10.9-10.9c1.5-1.6,3.7-2.4,5.9-2.4c6,0,11.7-2.6,15.7-7l7-8L300.1,175.4z M296.4,227.8v12.6h-25.1v-12.6
		H296.4z M273.6,164.6l15.5-10.3c2,2.5,3.8,5,5.5,7.4l-11,12.6c-1.5,1.8-3.8,2.9-6.1,2.9c-5.5,0-10.8,2.2-14.6,6.1l-3.5,3.5
		C260.8,177.8,265.9,169.7,273.6,164.6L273.6,164.6z M271.6,387.1L271.3,253h25.1l0.2,134.1L271.6,387.1z M373.2,444.3
		c-3.3,0-6.4-1.3-8.8-3.6c-4.9-4.8-4.9-12.6-0.1-17.5c0,0,0.1-0.1,0.1-0.1c10.5-10.7,10.5-27.9,0-38.6c-4.1-4.2-9.5-6.9-15.4-7.8
		c-0.4-0.1-0.7-0.1-1.1-0.1v-0.4h-38.7L309,240.4c18.8-13.1,41.2-20.1,64.1-20c61.6,0,111.9,50.4,111.9,112
		C485,394.2,434.9,444.3,373.2,444.3L373.2,444.3z"/>
	<path class="st0" d="M385.1,253.7c-6.3,0-11.4,5.1-11.4,11.4s5.1,11.4,11.4,11.4s11.4-5.1,11.4-11.4
		C396.5,258.8,391.4,253.7,385.1,253.7z"/>
	
		<ellipse transform="matrix(3.838781e-02 -0.9993 0.9993 3.838781e-02 100.4165 772.8348)" class="st0" cx="451.8" cy="334.2" rx="11.4" ry="11.4"/>
	<path class="st0" d="M431.5,371.9c-3,0-6,1.2-8.1,3.4c-4.4,4.4-4.4,11.6,0,16c4.5,4.5,11.7,4.5,16.2,0c0,0,0,0,0,0
		c4.3-4.4,4.3-11.6,0-16C437.4,373.1,434.5,371.8,431.5,371.9z"/>
	<path class="st0" d="M431.6,296.6c3,0,6-1.2,8.1-3.4c4.4-4.2,4.4-11.4,0-16c-4.5-4.5-11.7-4.5-16.2,0c0,0,0,0,0,0
		c-4.3,4.4-4.3,11.6,0,16C425.6,295.4,428.5,296.6,431.6,296.6z"/>
	<path class="st0" d="M219,299.1H49.8c-3.4,0-6.2,2.8-6.2,6.2s2.8,6.2,6.2,6.2H219c3.4,0.1,6.2-2.7,6.2-6c0-0.1,0-0.1,0-0.2
		C225.2,301.9,222.5,299.1,219,299.1C219,299.1,219,299.1,219,299.1z"/>
	<path class="st0" d="M219,337H49.8c-3.4,0-6.2,2.8-6.2,6.2s2.8,6.2,6.2,6.2H219c3.4,0,6.2-2.8,6.2-6.2S222.4,337,219,337z"/>
	<path class="st0" d="M219,374.8H49.8c-3.4,0-6.2,2.8-6.2,6.2s2.8,6.2,6.2,6.2H219c3.4,0,6.2-2.8,6.2-6.2S222.4,374.8,219,374.8z"/>
	<path class="st0" d="M60.8,273h147.1c9.2,0,16.6-7.5,16.6-16.6v-100c0-9.2-7.5-16.6-16.6-16.6H60.8c-9.2,0-16.6,7.5-16.6,16.6v100
		C44.2,265.5,51.6,273,60.8,273z M56.7,156.3c0-2.3,1.9-4.1,4.1-4.1H208c2.3,0,4.1,1.9,4.1,4.1v100c0,2.3-1.9,4.1-4.1,4.1h0H60.8
		c-2.3,0-4.1-1.9-4.1-4.1l0,0L56.7,156.3z"/>
</g>
</svg>
