<?xml version="1.0" encoding="utf-8"?>
<!-- Generator: Adobe Illustrator 21.0.0, SVG Export Plug-In . SVG Version: 6.00 Build 0)  -->
<svg version="1.1" id="Layer_1" xmlns="http://www.w3.org/2000/svg" xmlns:xlink="http://www.w3.org/1999/xlink" x="0px" y="0px"
	 viewBox="0 0 500 500" style="enable-background:new 0 0 500 500;" xml:space="preserve">
<style type="text/css">
	.st0{fill:none;}
	.st1{fill:#0073EC;}
</style>
<path class="st0" d="M176,54.1h275.2v44.7H176L176,54.1z"/>
<path class="st0" d="M226,201.2c-4.6-10.8-11.3-20.6-19.6-28.9c-8.4-8.3-18.2-14.9-29.1-19.5c-22.7-9.6-48.2-9.6-70.9,0
	c-10.8,4.6-20.7,11.2-29.1,19.5c-8.3,8.3-15,18.1-19.6,28.9c-9.6,22.7-9.6,48.2,0,70.9c9.3,21.9,26.8,39.4,48.7,48.7
	c22.7,9.6,48.2,9.6,70.9,0c21.9-9.3,39.4-26.8,48.7-48.7C235.6,249.5,235.6,223.9,226,201.2L226,201.2z M86.3,299.2
	c-5.7-5.1-10.8-11-14.9-17.5c-4.2-6.6-7.5-13.7-9.7-21.2c-2.3-7.7-3.4-15.7-3.4-23.8c0-11.5,2.3-22.9,6.9-33.4l40.2,108.6
	C98.5,308.6,92,304.3,86.3,299.2L86.3,299.2z M141.9,320.4c-4,0-8-0.3-12-0.9c-3.9-0.6-7.8-1.4-11.6-2.5l25.1-72.3l26.3,70.7
	C160.7,318.7,151.3,320.4,141.9,320.4L141.9,320.4z M153.3,197c1.5-0.1,3-0.3,4.5-0.3c1.6-0.1,3.2-0.3,4.7-0.6
	c2.4-0.3,3.4-1.5,3.1-3.6c-0.1-0.9-0.6-1.7-1.3-2.2c-0.7-0.6-1.6-0.9-2.5-0.9c-8.8,0.5-14.9,0.9-18.2,1.4c-4.6,0.5-9.2,0.5-13.8,0
	L121,190l-3.1-0.4c-0.8-0.3-1.8-0.1-2.5,0.4c-0.7,0.5-1.2,1.3-1.3,2.2c-0.3,0.8-0.1,1.8,0.4,2.5c0.6,0.7,1.4,1.2,2.3,1.3
	c0.2,0,1,0.1,2.6,0.3s3.8,0.5,6.6,0.8l13.2,35.4l-18.4,54.3L90.2,197c1.7-0.1,3.2-0.3,4.7-0.3c1.6-0.1,3.2-0.3,4.7-0.6
	c2.4-0.3,3.4-1.5,3.2-3.6c-0.1-0.9-0.6-1.7-1.3-2.2c-0.7-0.6-1.6-0.9-2.5-0.9c-4.9,0.7-9.9,1.2-14.8,1.4c-4.5,0.1-8.5,0.1-12.1,0
	c7.5-11.4,17.6-20.7,29.5-27.3c21.9-11.9,47.9-13.5,71.1-4.5c9.5,3.8,18.2,9.3,25.7,16.2c-2.5-0.3-5.1,0-7.4,1
	c-2.4,1-4.6,3.2-6.5,6.6c-1.3,2.6-1.8,5.5-1.3,8.4c0.5,3.2,1.4,6.3,2.7,9.2c1.3,3,2.8,5.9,4.6,8.6c1.4,2.2,2.7,4.4,3.9,6.7
	c2.2,3.9,3.5,8.2,3.7,12.7c0.3,5.3-0.3,10.6-1.9,15.6c-0.6,2.4-1.5,5.5-2.7,9.4c-1.1,3.4-2.4,7.9-3.9,13.2s-3.6,12.1-5.9,20.2
	L153.3,197z M222.3,259c-2,7-4.8,13.7-8.5,20c-3.7,6.2-8.1,11.9-13.1,17c-5.1,5.1-10.8,9.6-17.1,13.1c0.9-2.4,2.3-6.4,4.3-12.1
	s4-11.7,6.3-18c2.3-6.4,4.4-12.5,6.3-18.3c1.9-5.8,3.4-10,4.3-12.6c2.1-6,4.3-12.3,6.5-18.9c2.4-7.1,3.9-14.5,4.7-22
	c0.1-1.6,0.2-3.3,0.2-4.8c0-1.6-0.2-3.2-0.4-4.8C225.6,216.5,227.9,238.4,222.3,259L222.3,259z"/>
<path class="st0" d="M161.2,54.1H14.8v44.7h146.4V54.1z M47.1,84.2c-4.3,0-7.8-3.5-7.8-7.8c-0.1-4.3,3.4-7.8,7.6-7.8
	c0.1,0,0.1,0,0.2,0c4.3,0,7.8,3.5,7.8,7.9C55,80.6,51.5,84.2,47.1,84.2z M87.7,84.2c-4.3,0-7.8-3.5-7.8-7.9c0-4.3,3.5-7.8,7.9-7.8
	c4.3,0,7.8,3.5,7.8,7.8C95.6,80.6,92.1,84.1,87.7,84.2z M128.5,84.2c-4.3,0-7.8-3.5-7.8-7.8c0-4.3,3.4-7.8,7.7-7.8
	c0.1,0,0.1,0,0.2,0c4.3,0,7.9,3.5,7.9,7.8C136.3,80.6,132.8,84.2,128.5,84.2C128.5,84.2,128.5,84.2,128.5,84.2z"/>
<g>
	<path class="st1" d="M87.7,68.5c-4.3,0-7.8,3.5-7.8,7.9c0,4.3,3.5,7.8,7.9,7.8c4.3,0,7.8-3.5,7.8-7.8C95.6,72,92.1,68.5,87.7,68.5z
		"/>
	<path class="st1" d="M128.5,68.5c-4.3,0-7.8,3.4-7.8,7.7c0,0.1,0,0.1,0,0.2c0,4.3,3.5,7.9,7.8,7.9c4.3,0,7.9-3.5,7.9-7.8
		C136.3,72,132.8,68.5,128.5,68.5C128.5,68.5,128.5,68.5,128.5,68.5z"/>
	<path class="st1" d="M47.1,68.5c-4.3-0.1-7.8,3.4-7.8,7.6c0,0.1,0,0.1,0,0.2c0,4.3,3.5,7.8,7.8,7.8s7.9-3.5,7.9-7.8
		C55,72,51.5,68.5,47.1,68.5C47.1,68.5,47.1,68.5,47.1,68.5z"/>
	<path class="st1" d="M6.6,351.7c4.1,0.4,7.8-2.6,8.2-6.7c0-0.3,0-0.5,0-0.8V113.6h436.5V190c0,4.1,3.3,7.4,7.4,7.5
		c4.1,0.2,7.5-3,7.7-7c0-0.1,0-0.2,0-0.3l-0.1-143.5c0-4.1-3.3-7.5-7.4-7.5c0,0-0.1,0-0.1,0H7.5c-4.1-0.1-7.4,3.2-7.5,7.2
		c0,0.1,0,0.2,0,0.2v297.3C-0.1,347.8,2.8,351.1,6.6,351.7L6.6,351.7z M176,54.1h275.2v44.7H176V54.1z M14.9,54.1h146.3v44.7H14.8
		L14.9,54.1z"/>
	<path class="st1" d="M233.3,354.6H53c-3.7-0.1-6.7,2.7-6.9,6.4c-0.1,3.7,2.7,6.7,6.4,6.9c0.2,0,0.3,0,0.5,0h180.3
		c3.7,0.1,6.7-2.7,6.9-6.4c0.1-3.7-2.7-6.7-6.4-6.9C233.6,354.6,233.4,354.6,233.3,354.6z"/>
	<path class="st1" d="M233.3,394.9H53c-3.7,0-6.6,3-6.6,6.6s3,6.6,6.6,6.6h180.3c3.7,0,6.6-3,6.6-6.6S236.9,394.9,233.3,394.9z"/>
	<path class="st1" d="M345.5,357.3c0,3.9,3.1,7.1,7.1,7.2c0,0,0.1,0,0.1,0h77.4c3.9,0,7.1-3.2,7.2-7.1c0,0,0-0.1,0-0.1v-37.4
		c0-3.9-3.2-7.1-7.1-7.2c0,0-0.1,0-0.1,0h-77.4c-3.9-0.1-7.1,3.1-7.2,7c0,0.1,0,0.1,0,0.2V357.3z"/>
	<path class="st1" d="M399.6,294.1c3.5,0,6.2-2.8,6.3-6.3v-39.2c0-3.5-2.8-6.3-6.3-6.3h-47.9c-3.4,0-6.2,2.7-6.2,6.1
		c0,0.1,0,0.1,0,0.2v39.2c0,3.5,2.8,6.2,6.3,6.3H399.6z"/>
	<path class="st1" d="M492.9,246.4c3.9,0,7.1-3.2,7.1-7.1v-5.9c0-14.5-11.8-26.3-26.3-26.3H333.4c-14.5,0-26.3,11.8-26.3,26.3v140.1
		c0,14.5,11.8,26.3,26.3,26.3h140.3c14.5,0,26.3-11.7,26.3-26.2v-68c0-14.5-11.8-26.3-26.3-26.3h-28.9c-3.9-0.1-7.2,2.9-7.3,6.8
		s2.9,7.2,6.8,7.3c0.2,0,0.4,0,0.5,0h28.9c6.7,0,12.2,5.4,12.2,12.1c0,0,0,0,0,0v68c0,6.7-5.4,12.2-12.2,12.2l0,0H333.4
		c-6.7,0-12.1-5.4-12.1-12.2V233.4c0-6.7,5.4-12.2,12.1-12.2h140.3c6.7,0,12.2,5.4,12.2,12.2l0,0v5.9
		C485.9,243.2,489,246.4,492.9,246.4z"/>
	<path class="st1" d="M458.2,419.1c-3.8,0.5-6.7,3.9-6.6,7.7V446H15v-71.6c0-3.9-2.8-7.2-6.6-7.7c-4.1-0.4-7.8,2.6-8.2,6.7
		c0,0.3,0,0.5,0,0.8v79.3c0,4.1,3.4,7.5,7.5,7.5h451.3c4.1,0,7.5-3.3,7.5-7.5c0,0,0,0,0,0v-26.8c0-4.1-3.3-7.5-7.4-7.5
		C458.7,419.1,458.4,419.1,458.2,419.1L458.2,419.1z"/>
	<path class="st1" d="M189.5,266.7c1.6-5.4,2.9-9.8,3.9-13.2c1.2-3.9,2.1-7,2.7-9.4c1.6-5,2.2-10.3,1.9-15.6
		c-0.2-4.5-1.5-8.8-3.7-12.7c-1.2-2.3-2.5-4.6-3.9-6.7c-1.8-2.8-3.3-5.6-4.6-8.6c-1.3-2.9-2.2-6-2.7-9.2c-0.5-2.9,0-5.8,1.3-8.4
		c2-3.4,4.1-5.6,6.5-6.6c2.3-1,4.9-1.3,7.4-1c-7.5-6.9-16.2-12.4-25.7-16.2c-23.2-9.1-49.2-7.5-71.1,4.4
		c-11.9,6.5-22.1,15.9-29.5,27.3c3.6,0.1,7.6,0.1,12.1,0c5-0.2,9.9-0.6,14.9-1.4c0.9,0,1.8,0.3,2.5,0.9c0.7,0.5,1.2,1.3,1.3,2.2
		c0.3,2.1-0.8,3.3-3.2,3.6c-1.6,0.3-3.1,0.5-4.7,0.6c-1.5,0.1-3.1,0.2-4.7,0.3l30.5,90l18.4-54.3l-13.2-35.4c-2.8-0.3-5-0.6-6.6-0.8
		s-2.4-0.3-2.6-0.3c-0.9-0.1-1.7-0.6-2.3-1.3c-0.6-0.7-0.7-1.6-0.4-2.5c0.1-0.9,0.6-1.7,1.3-2.2c0.7-0.6,1.6-0.8,2.5-0.4l3.2,0.4
		l8.9,0.7c4.6,0.5,9.2,0.5,13.8,0c3.3-0.4,9.4-0.9,18.2-1.4c0.9,0,1.8,0.3,2.5,0.9c0.7,0.5,1.2,1.3,1.3,2.2c0.3,2.1-0.7,3.3-3.1,3.6
		c-1.6,0.3-3.1,0.5-4.7,0.6c-1.5,0.1-3,0.2-4.5,0.3l30.3,90C186,278.9,187.9,272.1,189.5,266.7L189.5,266.7z"/>
	<path class="st1" d="M118.3,317c3.8,1.1,7.7,1.9,11.5,2.5c13.4,2,27.1,0.6,39.8-4l-26.3-70.7L118.3,317z"/>
	<path class="st1" d="M232.4,198.5c-5-11.7-12.1-22.3-21.1-31.2c-9-8.9-19.6-16-31.3-21c-24.4-10.3-51.9-10.3-76.3,0
		c-23.5,9.9-42.3,28.7-52.2,52.2c-10.3,24.4-10.3,51.9,0,76.3c5,11.7,12.1,22.3,21,31.3c8.9,9,19.5,16.1,31.2,21.1
		c24.4,10.3,51.9,10.3,76.3,0c23.6-10,42.4-28.8,52.4-52.4C242.7,250.4,242.7,222.9,232.4,198.5L232.4,198.5z M226,272.1
		c-9.3,21.9-26.8,39.4-48.7,48.7c-22.7,9.6-48.2,9.6-70.9,0C84.5,311.5,67,294,57.7,272.1c-9.6-22.7-9.6-48.2,0-70.9
		c4.6-10.8,11.3-20.6,19.6-28.9c8.4-8.3,18.2-14.9,29.1-19.5c22.7-9.6,48.2-9.6,70.9,0c10.8,4.6,20.7,11.2,29.1,19.5
		c8.4,8.3,15,18.1,19.7,28.9C235.6,223.9,235.6,249.5,226,272.1L226,272.1z"/>
	<path class="st1" d="M216.1,202.4c0,1.6-0.1,3.2-0.2,4.8c-0.8,7.5-2.3,14.9-4.7,22c-2.2,6.6-4.4,12.9-6.5,18.9
		c-0.9,2.5-2.3,6.7-4.3,12.6c-1.9,5.8-4,11.9-6.3,18.3c-2.2,6.3-4.3,12.4-6.3,18.1s-3.4,9.7-4.3,12.1c6.3-3.6,12-8,17.1-13.2
		c5.1-5.1,9.5-10.8,13.1-17c3.7-6.3,6.6-13,8.5-20c5.7-20.6,3.3-42.5-6.6-61.4C215.9,199.2,216.1,200.8,216.1,202.4L216.1,202.4z"/>
	<path class="st1" d="M58.3,236.7c0,8,1.1,16.1,3.4,23.8c2.2,7.5,5.4,14.6,9.7,21.2c4.2,6.5,9.2,12.4,14.9,17.5
		c5.7,5.1,12.2,9.4,19.2,12.7L65.3,203.2C60.7,213.8,58.3,225.2,58.3,236.7z"/>
</g>
</svg>
