<?xml version="1.0" encoding="utf-8"?>
<!-- Generator: Adobe Illustrator 21.0.0, SVG Export Plug-In . SVG Version: 6.00 Build 0)  -->
<svg version="1.1" id="Layer_1" xmlns="http://www.w3.org/2000/svg" xmlns:xlink="http://www.w3.org/1999/xlink" x="0px" y="0px"
	 viewBox="0 0 500 500" style="enable-background:new 0 0 500 500;" xml:space="preserve">
<style type="text/css">
	.st0{fill:none;}
	.st1{fill:#0073EC;}
	.st2{fill:#FFFFFF;}
</style>
<path class="st0" d="M481.4,243.8H95.8c-2.6,0-4.6,2.1-4.6,4.6V335c0,2.6,2.1,4.6,4.6,4.6h385.6c2.6,0,4.6-2.1,4.6-4.6v-86.6
	C486.1,245.9,484,243.8,481.4,243.8L481.4,243.8z M345.1,304.6c-7.1,0-12.9-5.7-12.9-12.9c0-7.1,5.7-12.9,12.9-12.9
	c7.1,0,12.9,5.7,12.9,12.9c0,0,0,0,0,0C358,298.8,352.2,304.6,345.1,304.6C345.1,304.6,345.1,304.6,345.1,304.6z M394.2,304.5
	c-7.1,0-12.9-5.7-12.9-12.9c0-7.1,5.7-12.9,12.9-12.9c7.1,0,12.9,5.7,12.9,12.9c0,0,0,0,0,0C407.1,298.8,401.4,304.5,394.2,304.5
	C394.3,304.5,394.2,304.5,394.2,304.5z M440.9,304.5c-7.1,0-12.9-5.8-12.9-12.9s5.8-12.9,12.9-12.9s12.9,5.8,12.9,12.9c0,0,0,0,0,0
	C453.8,298.8,448.1,304.5,440.9,304.5C441,304.5,441,304.5,440.9,304.5z"/>
<path class="st0" d="M481.4,109H300v23.8c0,15.5-12.5,28-28,28h-87.5l12,29.5l-52.8-29.5H91.2v39.4c0,2.6,2.1,4.6,4.6,4.6h385.6
	c2.6,0,4.6-2.1,4.6-4.6v0v-86.5C486.1,111.1,484,109,481.4,109C481.4,109,481.4,109,481.4,109L481.4,109z M345.1,169.8
	c-7.1,0-12.8-5.8-12.8-12.9c0-7.1,5.8-12.8,12.9-12.8c7.1,0,12.8,5.8,12.8,12.9c0,0,0,0,0,0C357.9,164.1,352.2,169.8,345.1,169.8
	C345.1,169.8,345.1,169.8,345.1,169.8z M394.2,169.8c-7.1,0-12.9-5.7-12.9-12.9c0-7.1,5.7-12.9,12.9-12.9c7.1,0,12.9,5.7,12.9,12.8
	c0,0,0,0,0,0C407.1,164,401.3,169.8,394.2,169.8L394.2,169.8z M440.9,169.8c-7.1,0-12.9-5.8-12.9-12.9s5.8-12.9,12.9-12.9
	c7.1,0,12.9,5.8,12.9,12.9v0C453.8,164,448,169.8,440.9,169.8C440.9,169.8,440.9,169.8,440.9,169.8L440.9,169.8z"/>
<path class="st0" d="M481.4,378.6H95.8c-2.6,0-4.6,2.1-4.6,4.6v86.5c0,2.6,2.1,4.6,4.6,4.6c0,0,0,0,0,0h385.6c2.6,0,4.6-2.1,4.6-4.6
	v0v-86.5C486.1,380.6,484,378.6,481.4,378.6z M345.1,439.4c-7.1,0-12.9-5.7-12.9-12.9s5.7-12.9,12.9-12.9s12.9,5.7,12.9,12.9
	c0,0,0,0,0,0C358,433.6,352.2,439.3,345.1,439.4C345.1,439.4,345.1,439.4,345.1,439.4z M394.2,439.3c-7.1,0-12.9-5.7-12.9-12.9
	s5.7-12.9,12.9-12.9s12.9,5.7,12.9,12.9c0,0,0,0,0,0C407.1,433.5,401.4,439.3,394.2,439.3C394.3,439.3,394.2,439.3,394.2,439.3z
	 M440.9,439.3c-7.1,0-12.9-5.8-12.9-12.9s5.8-12.9,12.9-12.9s12.9,5.8,12.9,12.9v0C453.8,433.5,448.1,439.3,440.9,439.3
	C441,439.3,441,439.3,440.9,439.3z"/>
<g>
	<path class="st1" d="M440.9,278.8c-7.1,0-12.9,5.8-12.9,12.9s5.8,12.9,12.9,12.9s12.9-5.8,12.9-12.9v0
		C453.8,284.6,448.1,278.8,440.9,278.8C441,278.8,441,278.8,440.9,278.8z"/>
	<path class="st1" d="M481.3,229.8H95.8c-10.3,0-18.6,8.4-18.7,18.7V335c0,10.3,8.4,18.6,18.7,18.7h385.5c10.3,0,18.6-8.4,18.7-18.7
		v-86.6C500,238.1,491.6,229.8,481.3,229.8L481.3,229.8z M486.1,335c0,2.6-2.1,4.6-4.6,4.6H95.8c-2.6,0-4.6-2.1-4.6-4.6v-86.6
		c0-2.6,2.1-4.6,4.6-4.6h385.6c2.6,0,4.6,2.1,4.6,4.6V335z"/>
	<path class="st1" d="M394.2,278.8c-7.1,0-12.9,5.7-12.9,12.9s5.7,12.9,12.9,12.9s12.9-5.7,12.9-12.9c0,0,0,0,0,0
		C407.1,284.6,401.4,278.8,394.2,278.8C394.3,278.8,394.2,278.8,394.2,278.8z"/>
	<path class="st1" d="M345.1,278.9c-7.1,0-12.9,5.7-12.9,12.9s5.7,12.9,12.9,12.9s12.9-5.7,12.9-12.9c0,0,0,0,0,0
		C358,284.6,352.2,278.9,345.1,278.9C345.1,278.9,345.1,278.9,345.1,278.9z"/>
	<circle class="st1" cx="440.9" cy="156.9" r="12.9"/>
	<path class="st1" d="M481.3,95H300V39.6c0-15.5-12.5-28-28-28H27.8C12.4,11.6,0,24.1,0,39.4c0,0.1,0,0.1,0,0.2v93.2
		c0,15.5,12.5,28,28,28h49.1v39.4c0,10.3,8.4,18.6,18.7,18.7h385.5c10.3,0,18.6-8.4,18.7-18.7v-86.5C500,103.4,491.6,95,481.3,95
		L481.3,95z M224.4,59.6c7.5-12.1,17-18.3,28.7-18.3c2.2,0,4.4,0.2,6.6,0.7c8.3,1.6,15.5,6.8,19.5,14.2c4,6.7,6,14.5,5.9,24
		c0.1,12.2-3.2,24.1-9.5,34.5c-7.4,12.1-16.9,18.3-28.7,18.3c-2.2,0-4.4-0.2-6.6-0.7c-8.3-1.6-15.5-6.8-19.5-14.2
		c-4-6.7-5.9-14.7-5.9-24.2C214.8,81.8,218.1,69.9,224.4,59.6L224.4,59.6z M176.8,41.3c2.2,0,4.4,0.2,6.6,0.7
		c8.3,1.6,15.4,6.8,19.5,14.2c3.9,6.7,5.9,14.5,5.9,24c0.1,12.2-3.2,24.1-9.5,34.5c-7.4,12.1-16.9,18.3-28.7,18.3
		c-2.2,0-4.4-0.2-6.6-0.7c-8.3-1.6-15.5-6.8-19.5-14.2c-4-6.7-5.9-14.7-5.9-24.2c-0.1-12.1,3.2-24,9.5-34.4
		C155.6,47.4,165.1,41.3,176.8,41.3z M44,146.2c-3.3,0.2-6.1-2.6-8.5-8.4c-6.2-16-12.9-46.9-20.1-92.6c-0.8-2.8-0.2-5.8,1.7-8
		c1.7-2.3,4.3-3.5,7.7-3.8c6.2-0.5,9.8,2.5,10.7,8.7c3.8,25.5,7.9,47,12.4,64.7l26.8-51c2.5-4.7,5.4-7,9.2-7.4
		c5.3-0.3,8.6,3.1,10,10.2c3.1,16.2,6.9,30,11.6,41.7c3.2-30.9,8.5-53.3,16.1-67.1c1.5-3.1,4.6-5.2,8-5.3c2.8-0.2,5.6,0.7,7.7,2.5
		c2.2,1.7,3.6,4.2,3.8,6.9c0.2,2-0.3,4.1-1.3,5.9c-4.8,8.7-8.6,23.6-11.8,44c-3.1,19.8-4.2,35.4-3.4,46.5c0.3,2.8-0.2,5.5-1.5,8
		c-1.2,2.5-3.7,4.2-6.5,4.4c-3.2,0.2-6.5-1.2-9.6-4.5c-11.3-11.6-20.4-28.9-27-51.9c-8,15.7-13.9,27.4-17.6,35.2
		C55.2,138.8,49.1,145.9,44,146.2L44,146.2z M486.1,200.2c0,2.6-2.1,4.6-4.6,4.6l0,0H95.8c-2.6,0-4.6-2.1-4.6-4.6v-39.4h52.5
		l52.8,29.5l-12-29.5H272c15.5,0,28-12.5,28-28V109h181.4c2.6,0,4.6,2.1,4.6,4.7V200.2z"/>
	<circle class="st1" cx="345.1" cy="157" r="12.9"/>
	
		<ellipse transform="matrix(0.3827 -0.9239 0.9239 0.3827 98.4034 461.0827)" class="st1" cx="394.2" cy="156.9" rx="12.9" ry="12.9"/>
	
		<ellipse transform="matrix(0.3827 -0.9239 0.9239 0.3827 -150.6183 627.4647)" class="st1" cx="394.2" cy="426.4" rx="12.9" ry="12.9"/>
	<circle class="st1" cx="345.1" cy="426.5" r="12.9"/>
	<path class="st1" d="M481.3,364.5H95.8c-10.3,0-18.6,8.4-18.7,18.7v86.5c0,10.3,8.4,18.6,18.7,18.7h385.5
		c10.3,0,18.6-8.4,18.7-18.7v-86.5C500,372.9,491.6,364.5,481.3,364.5z M486.1,469.7c0,2.6-2.1,4.6-4.6,4.6h0H95.8
		c-2.6,0-4.6-2.1-4.6-4.6l0,0v-86.5c0-2.6,2.1-4.6,4.6-4.6h385.6c2.6,0,4.6,2.1,4.6,4.6V469.7z"/>
	<circle class="st1" cx="440.9" cy="426.4" r="12.9"/>
	<path class="st1" d="M237.6,103.9c1.8,4.8,4.2,7.4,7.1,7.9s6.4-0.7,9.9-3.8c4.5-4,7.6-10,9.3-18c0.6-3,0.9-6.1,0.9-9.2
		c0-3.8-0.8-7.6-2.2-11.1c-1.8-4.8-4.2-7.4-7.1-7.9c-4.4-0.8-8.6,1.6-12.7,7.6c-3.1,4.4-5.3,9.3-6.5,14.5c-0.6,3-1,6-0.9,9
		C235.4,96.6,236.2,100.4,237.6,103.9z"/>
	<path class="st1" d="M161,103.9c1.8,4.8,4.2,7.4,7.1,7.9s6.4-0.7,9.9-3.8c4.5-4,7.6-10,9.3-18c0.7-3,1-6.1,0.9-9.2
		c0-3.8-0.8-7.6-2.1-11.1c-1.8-4.8-4.2-7.4-7.1-7.9c-4.4-0.8-8.7,1.6-12.7,7.6c-3.1,4.4-5.3,9.3-6.5,14.5c-0.6,3-1,6-0.9,9
		C158.9,96.6,159.6,100.4,161,103.9z"/>
</g>
<path class="st2" d="M106.9,141.8c3.2,3.3,6.5,4.8,9.6,4.5c2.8-0.2,5.3-1.9,6.5-4.4c1.3-2.5,1.8-5.2,1.5-8
	c-0.8-11.1,0.3-26.7,3.4-46.5c3.2-20.4,7-35.3,11.8-44c1-1.8,1.5-3.9,1.3-5.9c-0.2-2.7-1.6-5.2-3.7-6.9c-2.1-1.9-4.9-2.8-7.8-2.5
	c-3.4,0.2-6.5,2.2-8,5.3c-7.7,13.9-13.1,36.2-16.2,67.2c-4.7-11.7-8.5-25.5-11.6-41.7c-1.4-7.1-4.7-10.5-10-10.2
	c-3.7,0.3-6.7,2.7-9.2,7.4l-26.7,50.9c-4.4-17.7-8.6-39.2-12.4-64.7c-0.9-6.2-4.4-9.2-10.7-8.7c-3.4,0.2-6,1.5-7.7,3.8
	c-1.9,2.2-2.5,5.2-1.7,8c7.2,45.8,13.8,76.7,20.1,92.6c2.4,5.8,5.2,8.6,8.5,8.4c5.1-0.3,11.2-7.4,18.4-21.2
	c3.7-7.8,9.6-19.5,17.6-35.2C86.5,112.8,95.6,130.2,106.9,141.8z"/>
<path class="st2" d="M144.5,118.1c4.1,7.4,11.2,12.6,19.5,14.2c2.2,0.4,4.4,0.7,6.6,0.7c11.8,0,21.3-6.1,28.7-18.3
	c6.3-10.4,9.6-22.3,9.5-34.5c0-9.5-2-17.3-5.9-24c-4.1-7.4-11.2-12.6-19.5-14.2c-2.2-0.4-4.4-0.7-6.6-0.7
	c-11.7,0-21.2,6.1-28.7,18.3c-6.3,10.3-9.6,22.2-9.5,34.4C138.6,103.3,140.5,111.4,144.5,118.1z M159.8,83.8
	c1.2-5.2,3.4-10.1,6.5-14.5c4-6,8.3-8.4,12.7-7.6c2.9,0.6,5.3,3.2,7.1,7.9c1.4,3.5,2.1,7.3,2.1,11.1c0.1,3.1-0.2,6.2-0.9,9.2
	c-1.7,8-4.8,14.1-9.3,18c-3.5,3.2-6.8,4.5-9.9,3.8s-5.3-3.2-7.1-7.9c-1.4-3.5-2.1-7.3-2.1-11.1C158.8,89.7,159.1,86.8,159.8,83.8z"
	/>
<path class="st2" d="M220.8,118.1c4,7.4,11.2,12.6,19.5,14.2c2.2,0.4,4.4,0.7,6.6,0.7c11.8,0,21.3-6.1,28.7-18.3
	c6.3-10.4,9.6-22.3,9.5-34.5c0.1-9.5-1.9-17.3-5.9-24c-4-7.4-11.2-12.6-19.5-14.2c-2.2-0.4-4.4-0.7-6.6-0.7
	c-11.7,0-21.2,6.1-28.7,18.3c-6.3,10.3-9.6,22.2-9.5,34.4C214.9,103.3,216.8,111.4,220.8,118.1L220.8,118.1z M236.3,83.8
	c1.2-5.2,3.4-10.1,6.5-14.5c4.1-6,8.3-8.4,12.7-7.6c3,0.6,5.3,3.2,7.1,7.9c1.4,3.5,2.1,7.3,2.2,11.1c0,3.1-0.4,6.2-0.9,9.2
	c-1.7,8-4.8,14.1-9.3,18c-3.5,3.2-6.8,4.5-9.9,3.8s-5.3-3.2-7.1-7.9c-1.4-3.5-2.1-7.3-2.1-11.1C235.4,89.7,235.7,86.8,236.3,83.8z"
	/>
</svg>
