<svg id="4b97403d-1374-4337-ae21-d2dddde295bb" data-name="Layer 1" xmlns="http://www.w3.org/2000/svg" viewBox="0 0 200 148.92">
  <title>wordpress-logo</title>
  <g>
    <path d="M.53,78,1.7,93.78a10.42,10.42,0,0,0,.16,1.5C14.22,170.47,190.74,168,199.94,79.12a15.43,15.43,0,0,0,0-2.69l-1.19-16.2Z" style="fill: #d65066"/>
    <path d="M198.57,65.21c-4,39.86-59,71.71-120.17,66.14C19.48,126-11.94,88.49,4.22,52,18.61,19.6,66.79-2.21,114.52.18,163.69,2.62,202.1,30.13,198.57,65.21Z" style="fill: #f86175"/>
    <path d="M104.71,7c-46.72,1-88.47,25.32-94.38,56C4,95.94,40.24,124.61,92.92,124.9c54,.3,98.91-29.14,98.91-63.47C191.93,29.49,152.48,6,104.71,7Zm-.81,8.57c18.51-.38,36.27,3.66,49.45,11.41h-1.17c-7.9.13-14.52,4.2-14.84,9.12s22.88,11.7,8.69,35.29L134.86,90.53,111,40.22l10.78-.15.36-4.5-45.51.69L76,40.76l10.24-.15,9.38,21-18.76,29L56.62,41l9.61-.13.61-4.5-25.49.4C56.56,24,79.87,16.09,103.9,15.61ZM24.63,63a40.49,40.49,0,0,1,9-18.66l24,63.45C33.79,98.58,21.35,81.22,24.63,63ZM94,114.07a109.18,109.18,0,0,1-24.2-2.64L98.73,68.67l19.19,43.11A118.18,118.18,0,0,1,94,114.14Zm38.26-6.31,29.8-50.06A37,37,0,0,0,164.8,53L166,50.92h-.3a21.81,21.81,0,0,0,1.3-13.19c20.67,23.16,6.59,54.75-32.89,69.4Z" style="fill: #fff"/>
  </g>
</svg>
