<?xml version="1.0" encoding="utf-8"?>
<!-- Generator: Adobe Illustrator 21.0.0, SVG Export Plug-In . SVG Version: 6.00 Build 0)  -->
<svg version="1.1" id="Layer_1" xmlns="http://www.w3.org/2000/svg" xmlns:xlink="http://www.w3.org/1999/xlink" x="0px" y="0px"
	 viewBox="0 0 500 500" style="enable-background:new 0 0 500 500;" xml:space="preserve">
<style type="text/css">
	.st0{fill:#FFFFFF;}
</style>
<path class="st0" d="M440.6,400.8c-7.1,0-12.9-5.8-12.9-12.9s5.8-12.9,12.9-12.9s12.9,5.8,12.9,12.9c0,0,0,0,0,0
	C453.6,395,447.8,400.7,440.6,400.8C440.7,400.8,440.7,400.8,440.6,400.8z M406.6,387.8c0-7.1-5.8-12.9-12.9-12.9
	c-7.1,0-12.9,5.8-12.9,12.9c0,7.1,5.8,12.9,12.9,12.9c0,0,0,0,0,0C400.8,400.7,406.6,395,406.6,387.8L406.6,387.8z M481.3,325.6
	H288.5c-3.8,0-6.9,3.1-6.9,6.9c0,0.4,0,0.8,0.1,1.3l0,0.2c0.6,3.3,3.4,5.7,6.8,5.7h192.8c2.6,0,4.7,2.1,4.7,4.7v0v87
	c0,2.6-2.1,4.7-4.7,4.7H267.4c-2.4,0-4.6,1.2-5.9,3.2l-0.1,0.1c-2.1,3.3-1.1,7.6,2.1,9.7c1.1,0.7,2.4,1.1,3.7,1.1h213.9
	c10.4,0,18.8-8.4,18.8-18.8v-87C500,334,491.6,325.6,481.3,325.6L481.3,325.6z M357.3,387.9c0-7.1-5.8-12.9-12.9-12.9
	s-12.9,5.8-12.9,12.9c0,7.1,5.8,12.9,12.9,12.9C351.5,400.8,357.2,395,357.3,387.9L357.3,387.9z M481.3,190.2H93.8
	c-10.4,0-18.8,8.4-18.8,18.8v7.5c0,3.9,3.2,7,7,7c0.8,0,1.7-0.2,2.5-0.5l0.2-0.1c2.7-1,4.5-3.6,4.5-6.5V209c0-2.6,2.1-4.7,4.7-4.7
	h387.5c2.6,0,4.7,2.1,4.7,4.7c0,0,0,0,0,0v86.9c0,2.6-2.1,4.7-4.7,4.7h0H281.7c-3.9,0-7,3.2-7,7c0,0.8,0.1,1.6,0.4,2.3l0,0.1
	c1,2.8,3.6,4.6,6.5,4.6h199.4c10.4,0,18.7-8.4,18.8-18.8V209C500,198.6,491.6,190.2,481.3,190.2
	C481.2,190.2,481.2,190.2,481.3,190.2L481.3,190.2z M357.3,252.4c0-7.1-5.8-12.9-12.9-12.9c-7.1,0-12.9,5.8-12.9,12.9
	c0,7.1,5.8,12.9,12.9,12.9C351.5,265.4,357.2,259.6,357.3,252.4L357.3,252.4z M453.6,252.4c0-7.1-5.8-12.9-12.9-12.9
	c-7.1,0-12.9,5.8-12.9,12.9c0,7.1,5.8,12.9,12.9,12.9C447.8,265.4,453.6,259.6,453.6,252.4C453.6,252.4,453.6,252.4,453.6,252.4
	L453.6,252.4z M406.6,252.4c0-7.1-5.8-12.9-12.9-12.9c-7.1,0-12.9,5.8-12.9,12.9c0,7.1,5.8,12.9,12.9,12.9
	C400.8,265.4,406.6,259.6,406.6,252.4C406.6,252.4,406.6,252.4,406.6,252.4L406.6,252.4z M102.1,183.8c3.4,0,6.2-2.8,6.2-6.2
	c0-0.2,0-0.4,0-0.6c-0.1-0.9-0.2-1.7-0.2-2.6c-1.7-31,19.6-58.5,50-64.6c2.6-0.5,4.6-2.6,5-5.3c2.7-20.5,20.2-35.8,40.9-35.9
	c5.6,0,11.2,1.1,16.3,3.4c2.9,1.3,6.4,0.1,7.9-2.7c18.5-33.6,53.9-54.4,92.2-54.4c57.5,0,104.8,46.8,105.3,104.3c0,2.9,2,5.3,4.8,6
	c24.6,5.6,42.1,27.3,42.3,52.5v0.7c0,3,2.4,5.4,5.4,5.4c0,0,0,0,0,0h1.6c3,0,5.4-2.4,5.4-5.3v-0.1c0-29.4-19.2-55.4-47.2-64.1
	c-3.2-64.9-58.4-115-123.4-111.8c-38.9,1.9-74.3,22.9-94.6,56.1c-28.3-8.9-58.5,6.9-67.4,35.2c-0.5,1.6-0.9,3.1-1.3,4.7
	c-34.5,9-57.8,41.1-55.7,76.7c0.1,1,0.1,2,0.2,3C96.3,181.5,99,183.8,102.1,183.8L102.1,183.8z M380.9,76.6c3.4,0,6.2-2.8,6.2-6.2
	c0-1.5-0.5-2.9-1.4-4c-16-19.5-39.9-30.8-65.2-30.8c-3.4-0.1-6.3,2.5-6.5,6c-0.1,3.4,2.5,6.3,6,6.5c0.2,0,0.3,0,0.5,0
	c21.5,0,41.9,9.7,55.6,26.3C377.3,75.8,379,76.6,380.9,76.6z M189.9,486.8c32.9-13.9,59.1-40.1,73-73c14.4-34,14.4-72.4,0-106.4
	c-6.9-16.3-16.9-31-29.4-43.5c-12.6-12.4-27.4-22.3-43.6-29.3c-16.8-7.2-34.9-10.9-53.2-10.8c-18.3-0.1-36.4,3.6-53.2,10.8
	c-32.8,13.8-58.9,39.9-72.7,72.7c-14.4,34-14.4,72.4,0,106.4c6.9,16.2,16.9,31,29.3,43.6c12.5,12.5,27.2,22.5,43.5,29.4
	c16.8,7.2,34.9,10.9,53.2,10.8C155,497.7,173.1,494,189.9,486.8L189.9,486.8z M186.1,243.5c15.1,6.4,28.8,15.7,40.5,27.2
	c11.6,11.6,20.9,25.3,27.4,40.4c13.4,31.6,13.4,67.3,0,98.9c-13,30.5-37.3,54.9-67.9,67.9c-15.6,6.7-32.4,10.1-49.4,10
	c-17,0.1-33.8-3.3-49.4-10c-30.5-13-54.8-37.3-67.9-67.9C6,378.4,6,342.7,19.4,311.1c6.4-15.1,15.7-28.8,27.4-40.4
	c11.7-11.5,25.4-20.8,40.5-27.2c15.6-6.7,32.4-10.1,49.4-10C153.7,233.5,170.5,236.9,186.1,243.5L186.1,243.5z M138.9,371.8
	l36.6,98.5c-17.7,6.5-36.8,8.4-55.5,5.7c-5.4-0.8-10.8-2-16.1-3.4L138.9,371.8z M56.3,296.4c-6.3,0.2-11.9,0.2-16.9,0
	c10.4-15.8,24.5-28.9,41.1-38c17-9.5,35.7-14.2,56.2-14.2c14.7-0.1,29.3,2.7,43,8.1c13.2,5.3,25.3,12.9,35.8,22.5
	c-3.5-0.4-7.1,0.1-10.3,1.4c-3.3,1.3-6.4,4.4-9.1,9.2c-1.9,3.6-2.5,7.7-1.9,11.7c0.7,4.4,1.9,8.7,3.8,12.8c1.8,4.2,4,8.2,6.4,12
	c2.4,3.8,4.2,6.9,5.5,9.4c2.9,4.8,4.6,10.7,5.2,17.7c0.5,7.3-0.4,14.7-2.7,21.7c-0.8,3.3-2.1,7.7-3.8,13.1c-1.5,4.8-3.3,11-5.5,18.5
	s-4.9,16.9-8.3,28.1l-42.2-125.4c2.1-0.2,4.2-0.4,6.3-0.5c2.2-0.1,4.4-0.4,6.6-0.8c3.3-0.4,4.8-2.1,4.4-5c-0.2-1.2-0.9-2.4-1.9-3.1
	c-1-0.8-2.2-1.3-3.4-1.3c-12.3,0.6-20.8,1.2-25.3,1.9s-11,0.6-19.2,0l-12.3-0.9l-4.4-0.6c-1.2-0.4-2.5-0.2-3.4,0.6
	c-1,0.8-1.7,1.9-1.9,3.1c-0.4,1.2-0.2,2.5,0.6,3.5c0.8,1,1.9,1.7,3.1,1.9c0.2,0,1.4,0.2,3.6,0.5s5.3,0.7,9.2,1.1l18.4,49.4
	l-25.7,75.7L64.8,305.2c2.3-0.2,4.5-0.4,6.6-0.5c2.2-0.1,4.4-0.4,6.6-0.8c3.3-0.4,4.8-2.1,4.4-5c-0.2-1.2-0.9-2.4-1.9-3.1
	c-1-0.8-2.1-1.2-3.4-1.3C70.1,295.5,63.2,296.2,56.3,296.4L56.3,296.4z M30,313.9l56,151.4c-9.7-4.5-18.7-10.5-26.7-17.7
	c-8-7.2-15-15.4-20.8-24.4c-5.9-9.2-10.4-19.1-13.5-29.6c-3.1-10.8-4.7-21.9-4.7-33.2C20.3,344.5,23.6,328.6,30,313.9z M248.8,391.7
	c-2.7,9.8-6.7,19.1-11.8,27.9c-5.1,8.6-11.3,16.6-18.3,23.8c-7,7.2-15,13.3-23.8,18.3c1.3-3.3,3.2-9,5.9-16.9s5.6-16.3,8.8-25.2
	c3.1-8.9,6-17.4,8.8-25.5c2.7-8.1,4.7-14,5.9-17.5c2.9-8.3,5.9-17.1,9.1-26.3c3.3-10,5.5-20.2,6.6-30.7c0.2-2.3,0.3-4.5,0.3-6.7
	c0-2.3-0.2-4.5-0.6-6.7C253.5,332.4,256.8,363,248.8,391.7L248.8,391.7z"/>
</svg>
